<svg width="190" height="82" viewBox="0 0 190 82" fill="none" xmlns="http://www.w3.org/2000/svg">
<path d="M44.5962 14.9318C43.2077 14.257 41.4364 13.9196 39.3343 13.9196H33.3521C31.756 13.9196 30.4843 13.4784 29.5694 12.622L29.524 12.5766C28.6351 11.6358 28.2069 10.5847 28.2069 9.35191C28.2069 8.11914 28.6546 6.9837 29.524 6.05586C30.4064 5.11506 31.6132 4.64793 33.1055 4.64793H47.8274V1.44922H32.554C30.8931 1.44922 29.4721 1.83202 28.1939 2.6171C26.9158 3.36326 25.9556 4.32352 25.2484 5.5498C24.5411 6.77608 24.1973 8.07373 24.1973 9.53358C24.1973 11.24 24.5606 12.6869 25.2873 13.8418C26.0658 15.0161 27.0974 15.8921 28.4405 16.5344C29.8355 17.1248 31.49 17.4298 33.3456 17.4298H39.6392C40.6968 17.4298 41.6376 17.6763 42.4421 18.1565C43.2596 18.5912 43.863 19.214 44.2653 20.0056C44.6611 20.7452 44.8428 21.4979 44.8428 22.3738C44.8428 23.2497 44.6287 24.1386 44.2004 24.9431C43.7722 25.7542 43.1104 26.4354 42.254 26.9675C41.4429 27.4476 40.4632 27.6812 39.3407 27.6812H25.177V30.8734H40.0155C41.7933 30.8734 43.2921 30.4776 44.6027 29.6536C45.9652 28.8296 46.9904 27.7915 47.7365 26.4808C48.4956 25.1313 48.8525 23.7233 48.8525 22.1921C48.8525 20.4078 48.4762 18.8766 47.743 17.6633C47.0553 16.4695 46.0236 15.5741 44.6027 14.9383H44.5962V14.9318Z" fill="#FFECD4"/>
<path d="M79.7495 2.79303C77.4527 1.41753 74.7536 0.716797 71.7365 0.716797C68.7195 0.716797 66.0269 1.41753 63.7171 2.79952C61.4137 4.1361 59.5581 6.00471 58.2086 8.35346C56.859 10.6503 56.1777 13.278 56.1777 16.1588C56.1777 19.0396 56.859 21.6998 58.2086 24.029C59.5581 26.3324 61.4137 28.201 63.7171 29.583C65.9166 30.8676 68.4924 31.5489 71.3537 31.6008H71.7365C74.7536 31.6073 77.4462 30.939 79.7495 29.5895C82.0982 28.2075 83.9539 26.3389 85.2645 24.042C86.6141 21.6998 87.2953 19.0526 87.2953 16.1588C87.2953 13.2651 86.6141 10.5724 85.2645 8.2756C83.9539 5.97876 82.0982 4.12961 79.7495 2.78655V2.79303ZM83.2272 16.1653C83.2272 18.4427 82.7471 20.5319 81.7868 22.381C80.833 24.2042 79.4835 25.6771 77.7836 26.7606C76.0901 27.8376 73.9944 28.4086 71.73 28.4086C69.4656 28.4086 67.4283 27.8571 65.6765 26.7606C63.9766 25.6771 62.627 24.1977 61.6668 22.3745C60.7195 20.5254 60.2264 18.4362 60.2264 16.1653C60.2264 13.8944 60.7065 11.8247 61.6668 10.0144C62.6206 8.14583 63.9766 6.64705 65.683 5.56351C67.4348 4.47349 69.4721 3.92199 71.73 3.92199C73.9879 3.92199 76.0642 4.47349 77.7836 5.57C79.49 6.66002 80.8395 8.15232 81.7933 10.008C82.7406 11.8247 83.2337 13.8944 83.2337 16.1653H83.2272Z" fill="#FFECD4"/>
<path d="M116.978 2.38364C114.947 1.28713 112.553 0.722656 109.854 0.722656C107.155 0.722656 104.793 1.28713 102.717 2.39662C100.634 3.46718 99.0382 4.94649 97.8444 6.89297C96.7025 8.82646 96.125 11.1233 96.125 13.7251V30.8735H100.128V13.7835C100.128 11.7721 100.582 10.0073 101.471 8.54747C102.393 7.05517 103.606 5.89378 105.079 5.08924C106.578 4.29767 108.18 3.90189 109.854 3.90189C111.528 3.90189 113.118 4.29767 114.571 5.08924C116.076 5.88729 117.29 7.04868 118.192 8.55396C119.119 10.0138 119.586 11.7656 119.586 13.777V30.4583L120.021 30.867H123.596V13.7186C123.596 11.1233 122.993 8.81997 121.818 6.88648C120.664 4.92703 119.08 3.46069 116.991 2.37067H116.985L116.978 2.38364Z" fill="#FFECD4"/>
<path d="M138.177 1.44922H134.115V30.8734H138.177V1.44922Z" fill="#FFECD4"/>
<path d="M156.739 6.21806C158.523 5.17994 160.547 4.64793 162.766 4.64793H165.803V1.44922H162.948C159.886 1.44922 157.115 2.11102 154.727 3.42166C152.34 4.71931 150.426 6.51655 149.037 8.74199C147.655 10.9155 146.961 13.4071 146.961 16.1646C146.961 18.922 147.655 21.433 149.037 23.6455C150.426 25.832 152.346 27.5968 154.727 28.901C156.817 30.0364 159.191 30.6982 161.8 30.8345L161.78 30.8734H165.803V27.6747H162.766C160.56 27.6747 158.523 27.1621 156.732 26.1629C155 25.1183 153.579 23.7104 152.534 21.978C151.535 20.2327 151.023 18.2797 151.023 16.1581C151.023 14.0364 151.535 12.0705 152.541 10.3316C153.579 8.60576 154.993 7.21725 156.739 6.21806Z" fill="#FFECD4"/>
<path d="M14.2638 81.2324C11.5322 81.2324 9.10561 80.6614 6.99693 79.5195C4.88825 78.3776 3.22726 76.749 2.01397 74.6404C0.800671 72.4927 0.197266 69.9494 0.197266 67.0102V44.2754H6.37406V67.4254C6.37406 68.9502 6.6855 70.3516 7.30837 71.6298C7.96368 72.8755 8.88501 73.8812 10.0594 74.6404C11.2727 75.3995 12.6871 75.7823 14.3157 75.7823C15.9442 75.7823 17.2938 75.3995 18.4681 74.6404C19.6814 73.8812 20.5963 72.8755 21.2192 71.6298C21.842 70.3516 22.1535 68.9502 22.1535 67.4254V44.2754H28.3821V67.4254C28.3821 68.9502 28.6936 70.3516 29.3165 71.6298C29.9718 72.8755 30.8931 73.8812 32.0675 74.6404C33.2418 75.3995 34.6433 75.7823 36.2718 75.7823C37.9004 75.7823 39.3018 75.3995 40.4762 74.6404C41.6506 73.8812 42.5525 72.8755 43.1753 71.6298C43.8306 70.3516 44.1615 68.9502 44.1615 67.4254V44.2754H50.3383V67.0102C50.3383 69.9494 49.7349 72.4927 48.5216 74.6404C47.3083 76.749 45.6474 78.3776 43.5387 79.5195C41.43 80.6614 39.0034 81.2324 36.2718 81.2324C34.7471 81.2324 33.2808 81.0248 31.8598 80.6095C30.4778 80.1943 29.2321 79.552 28.1226 78.689C27.0131 77.8261 26.0658 76.788 25.2678 75.5747C24.5087 76.788 23.5549 77.8261 22.413 78.689C21.2711 79.5195 20.0059 80.1618 18.6239 80.6095C17.2743 81.0248 15.8209 81.2324 14.2638 81.2324Z" fill="#FFECD4"/>
<path d="M74.514 81.2853C71.6397 81.2853 69.0315 80.7986 66.6762 79.8319C64.3599 78.8262 62.368 77.4637 60.707 75.7313C59.0785 73.999 57.8198 71.9941 56.9179 69.7102C56.016 67.4264 55.5684 64.9868 55.5684 62.3915C55.5684 59.7962 56.016 57.3761 56.9179 55.1247C57.8198 52.8408 59.0785 50.8359 60.707 49.1036C62.368 47.3712 64.3599 46.0217 66.6762 45.0549C69.0315 44.0882 71.6397 43.6016 74.514 43.6016C77.3883 43.6016 80.0355 44.0882 82.3518 45.0549C84.6681 46.0217 86.66 47.3712 88.321 49.1036C89.982 50.8359 91.2602 52.8408 92.162 55.1247C93.0639 57.3761 93.5116 59.7962 93.5116 62.3915C93.5116 64.9868 93.0639 67.4264 92.162 69.7102C91.2602 71.9941 89.982 73.999 88.321 75.7313C86.66 77.4637 84.6681 78.8262 82.3518 79.8319C80.0355 80.7986 77.4207 81.2853 74.514 81.2853ZM74.514 75.7832C76.3502 75.7832 78.0436 75.4523 79.6008 74.797C81.158 74.1417 82.5075 73.2074 83.6495 71.9941C84.8238 70.7484 85.7257 69.3145 86.3486 67.6859C86.9714 66.0574 87.2829 64.2926 87.2829 62.3915C87.2829 60.4904 86.9714 58.7256 86.3486 57.0971C85.7257 55.4686 84.8238 54.0671 83.6495 52.8927C82.5075 51.6794 81.158 50.7451 79.6008 50.0898C78.0436 49.3956 76.3502 49.0517 74.514 49.0517C72.6778 49.0517 70.9844 49.3956 69.4272 50.0898C67.9025 50.7451 66.5529 51.6794 65.3786 52.8927C64.2366 54.0671 63.3348 55.4686 62.6795 57.0971C62.0566 58.7256 61.7452 60.4904 61.7452 62.3915C61.7452 64.2926 62.0566 66.1093 62.6795 67.7378C63.3348 69.3274 64.2366 70.7484 65.3786 71.9941C66.5529 73.2074 67.9025 74.1417 69.4272 74.797C70.9844 75.4523 72.6778 75.7832 74.514 75.7832Z" fill="#FFECD4"/>
<path d="M99.1543 80.6095V44.2754H115.245C117.561 44.2754 119.677 44.7944 121.578 45.8326C123.518 46.8382 125.055 48.2527 126.197 50.0889C127.339 51.925 127.91 54.0532 127.91 56.4733C127.91 58.8934 127.307 61.041 126.093 62.9096C124.919 64.7458 123.342 66.1602 121.37 67.1659L124.952 73.9656C125.159 74.3484 125.399 74.6404 125.678 74.848C125.957 75.0232 126.321 75.1075 126.768 75.1075H129.831V80.6095H125.834C124.413 80.6095 123.154 80.2657 122.045 79.5714C120.935 78.8447 120.053 77.891 119.398 76.7166L115.141 68.5674C114.797 68.5998 114.434 68.6193 114.051 68.6193H105.331V80.6095H99.1543ZM105.331 63.1691H114.467C115.784 63.1691 116.99 62.9096 118.1 62.3906C119.209 61.8715 120.072 61.1124 120.695 60.1067C121.351 59.0686 121.681 57.8553 121.681 56.4733C121.681 55.0913 121.351 53.8455 120.695 52.8399C120.04 51.8342 119.171 51.0751 118.1 50.556C117.029 50.0045 115.836 49.7255 114.518 49.7255H105.331V63.1691Z" fill="#FFECD4"/>
<path d="M144.14 80.6095C142.096 80.6095 140.299 80.1618 138.741 79.26C137.217 78.3257 136.023 77.0799 135.16 75.5228C134.329 73.9656 133.914 72.2332 133.914 70.3322V44.2754H140.143V71.1107C140.143 72.2202 140.506 73.1675 141.233 73.9656C141.992 74.7636 142.965 75.1594 144.14 75.1594H153.794V80.6095H144.14Z" fill="#FFECD4"/>
<path d="M158.867 80.6095V44.2754H170.806C174.679 44.2754 178.04 45.054 180.875 46.6112C183.711 48.1683 185.91 50.3159 187.467 53.0475C189.025 55.779 189.803 58.9129 189.803 62.4425C189.803 65.9721 189.025 69.1059 187.467 71.8374C185.91 74.569 183.711 76.7166 180.875 78.2738C178.04 79.8309 174.679 80.6095 170.806 80.6095H158.867ZM165.044 75.1594H170.857C173.317 75.1594 175.497 74.6598 177.398 73.6541C179.338 72.616 180.856 71.1432 181.965 69.2421C183.075 67.3022 183.626 65.0378 183.626 62.4425C183.626 59.8472 183.075 57.5438 181.965 55.6428C180.856 53.7417 179.338 52.2884 177.398 51.2827C175.497 50.2446 173.317 49.7255 170.857 49.7255H165.044V75.1594Z" fill="#FFECD4"/>
</svg>
