<svg width="756" height="280" viewBox="0 0 756 280" fill="none" xmlns="http://www.w3.org/2000/svg">
<path d="M207.376 48.9152C202.686 46.6452 196.696 45.4952 189.586 45.4952H169.356C163.966 45.4952 159.656 43.9952 156.576 41.1052L156.426 40.9552C153.416 37.7852 151.966 34.2152 151.966 30.0452C151.966 25.8752 153.466 22.0252 156.426 18.9052C159.406 15.7352 163.496 14.1352 168.536 14.1352H218.316V3.3252H166.686C161.076 3.3252 156.256 4.62519 151.946 7.27519C147.636 9.79519 144.376 13.0452 141.996 17.1852C139.616 21.3352 138.436 25.7252 138.436 30.6452C138.436 36.4152 139.666 41.3052 142.116 45.2052C144.746 49.1752 148.236 52.1452 152.766 54.3152C157.476 56.3152 163.066 57.3352 169.356 57.3352H190.636C194.216 57.3352 197.406 58.1552 200.106 59.7852C202.866 61.2552 204.916 63.3552 206.276 66.0252C207.606 68.5252 208.226 71.0652 208.226 74.0452C208.226 77.0252 207.496 80.0152 206.046 82.7352C204.596 85.4852 202.366 87.7752 199.456 89.5752C196.726 91.1952 193.386 91.9952 189.606 91.9952H141.706V102.785H191.886C197.896 102.785 202.966 101.435 207.396 98.6652C212.006 95.8652 215.466 92.3752 217.996 87.9252C220.556 83.3552 221.776 78.6152 221.776 73.4152C221.776 67.3752 220.496 62.2052 218.016 58.1052C215.686 54.0652 212.196 51.0352 207.386 48.8952L207.356 48.9152H207.376Z" fill="#FFECD4"/>
<path d="M326.225 7.85496C318.455 3.20496 309.335 0.834961 299.135 0.834961C288.935 0.834961 279.835 3.20496 272.015 7.87496C264.215 12.395 257.955 18.715 253.395 26.655C248.835 34.425 246.525 43.315 246.525 53.055C246.525 62.795 248.835 71.785 253.395 79.675C257.955 87.465 264.225 93.785 272.015 98.455C279.455 102.805 288.155 105.095 297.835 105.275H299.135C309.335 105.295 318.435 103.025 326.225 98.485C334.175 93.815 340.435 87.495 344.875 79.735C349.435 71.815 351.745 62.855 351.745 53.095C351.745 43.335 349.435 34.215 344.875 26.445C340.435 18.675 334.175 12.435 326.225 7.89496V7.86496V7.85496ZM337.985 53.085C337.985 60.775 336.355 67.845 333.125 74.115C329.895 80.285 325.335 85.255 319.595 88.925C313.875 92.575 306.785 94.495 299.115 94.495C291.445 94.495 284.575 92.625 278.635 88.925C272.895 85.255 268.335 80.265 265.075 74.095C261.865 67.855 260.215 60.785 260.215 53.095C260.215 45.405 261.845 38.415 265.075 32.295C268.305 25.975 272.895 20.905 278.665 17.235C284.575 13.535 291.475 11.695 299.115 11.695C306.755 11.695 313.775 13.565 319.595 17.265C325.365 20.965 329.925 26.005 333.155 32.275C336.365 38.415 338.015 45.405 338.015 53.105H337.985V53.085Z" fill="#FFECD4"/>
<path d="M452.106 6.48524C445.236 2.76524 437.146 0.865234 428.016 0.865234C418.886 0.865234 410.896 2.76523 403.876 6.53523C396.836 10.1552 391.446 15.1552 387.406 21.7452C383.546 28.2852 381.586 36.0552 381.586 44.8452V102.825H395.126V45.0452C395.126 38.2552 396.656 32.2852 399.666 27.3352C402.776 22.2952 406.886 18.3752 411.876 15.6452C416.936 12.9752 422.356 11.6252 428.016 11.6252C433.676 11.6252 439.046 12.9752 443.956 15.6452C449.046 18.3452 453.156 22.2652 456.186 27.3552C459.316 32.2952 460.896 38.2152 460.896 45.0052V101.415L462.376 102.785H474.456V44.8052C474.456 36.0452 472.426 28.2452 468.436 21.7052C464.526 15.0852 459.186 10.1152 452.116 6.44524L452.096 6.47523L452.106 6.48524Z" fill="#FFECD4"/>
<path d="M523.787 3.31543H510.047V102.805H523.787V3.31543Z" fill="#FFECD4"/>
<path d="M586.546 19.4454C592.586 15.9254 599.426 14.1254 606.926 14.1254H617.206V3.31543H607.556C597.206 3.31543 587.826 5.56544 579.756 9.98544C571.686 14.3854 565.216 20.4454 560.506 27.9654C555.846 35.3054 553.486 43.7454 553.486 53.0654C553.486 62.3854 555.846 70.8654 560.506 78.3654C565.196 85.7554 571.686 91.7254 579.756 96.1454C586.826 99.9854 594.846 102.215 603.666 102.685L603.586 102.805H617.196V91.9954H606.916C599.446 91.9954 592.576 90.2754 586.516 86.8754C580.646 83.3554 575.866 78.5854 572.326 72.7154C568.946 66.8254 567.216 60.2054 567.216 53.0354C567.216 45.8654 568.946 39.2254 572.356 33.3354C575.866 27.4954 580.656 22.7954 586.546 19.4254V19.4554V19.4454Z" fill="#FFECD4"/>
<path d="M5.91985 277.075V256.075H66.1149C69.9812 256.075 73.3143 255.142 76.114 253.275C79.0471 251.409 81.3136 249.009 82.9135 246.075C84.6467 243.009 85.5133 239.809 85.5133 236.475C85.5133 232.875 84.7133 229.609 83.1135 226.675C81.5136 223.742 79.2471 221.409 76.314 219.675C73.5143 217.942 70.2479 217.075 66.5148 217.075H41.5169C33.6509 217.075 26.5848 215.475 20.3187 212.275C14.1858 208.942 9.31957 204.342 5.71987 198.475C2.12016 192.609 0.320312 185.675 0.320312 177.675C0.320312 169.675 2.0535 162.675 5.51988 156.675C8.98626 150.542 13.7192 145.742 19.7187 142.275C25.7182 138.809 32.5176 137.075 40.117 137.075H100.312V158.075H42.3168C38.8505 158.075 35.7174 158.942 32.9176 160.675C30.1178 162.409 27.918 164.675 26.3182 167.475C24.8516 170.275 24.1183 173.275 24.1183 176.475C24.1183 179.809 24.8516 182.875 26.3182 185.675C27.918 188.342 30.0512 190.542 32.7176 192.275C35.5174 193.875 38.6505 194.675 42.1169 194.675H67.7147C76.2474 194.675 83.5801 196.342 89.7129 199.675C95.9791 203.009 100.779 207.609 104.112 213.475C107.578 219.342 109.311 226.075 109.311 233.675C109.311 242.609 107.511 250.342 103.912 256.875C100.445 263.275 95.6458 268.275 89.5129 271.875C83.5134 275.342 76.714 277.075 69.1146 277.075H5.91985Z" fill="#FFECD4"/>
<path d="M179.696 279.475C169.83 279.475 161.231 277.542 153.898 273.675C146.565 269.675 140.899 264.209 136.9 257.275C132.9 250.342 130.9 242.542 130.9 233.875V175.075H153.898V233.675C153.898 238.875 155.031 243.475 157.298 247.475C159.698 251.342 162.831 254.409 166.697 256.675C170.697 258.809 175.03 259.875 179.696 259.875C184.362 259.875 188.629 258.809 192.495 256.675C196.495 254.409 199.628 251.342 201.894 247.475C204.294 243.475 205.494 238.875 205.494 233.675V175.075H228.492V233.875C228.492 242.542 226.492 250.342 222.493 257.275C218.493 264.209 212.827 269.675 205.494 273.675C198.161 277.542 189.562 279.475 179.696 279.475Z" fill="#FFECD4"/>
<path d="M256.085 277.075V216.075C256.085 208.209 257.952 201.009 261.685 194.475C265.418 187.809 270.817 182.542 277.883 178.675C284.949 174.675 293.415 172.675 303.281 172.675C308.081 172.675 312.68 173.275 317.08 174.475C321.48 175.675 325.546 177.609 329.279 180.275C333.145 182.809 336.412 186.009 339.078 189.875H339.278C341.945 186.009 345.144 182.809 348.877 180.275C352.744 177.609 356.877 175.675 361.276 174.475C365.809 173.275 370.476 172.675 375.275 172.675C385.274 172.675 393.74 174.675 400.673 178.675C407.739 182.542 413.139 187.809 416.872 194.475C420.605 201.009 422.471 208.209 422.471 216.075V277.075H399.673V216.075C399.673 211.675 398.54 207.675 396.273 204.075C394.14 200.475 391.274 197.609 387.674 195.475C384.074 193.342 379.941 192.275 375.275 192.275C370.742 192.275 366.609 193.342 362.876 195.475C359.143 197.609 356.143 200.475 353.877 204.075C351.744 207.675 350.677 211.675 350.677 216.075V277.075H327.879V216.075C327.879 211.675 326.746 207.675 324.479 204.075C322.213 200.475 319.213 197.609 315.48 195.475C311.88 193.342 307.814 192.275 303.281 192.275C298.748 192.275 294.615 193.342 290.882 195.475C287.282 197.609 284.349 200.475 282.083 204.075C279.95 207.675 278.883 211.675 278.883 216.075V277.075H256.085Z" fill="#FFECD4"/>
<path d="M450.014 277.075V216.075C450.014 208.209 451.881 201.009 455.614 194.475C459.347 187.809 464.746 182.542 471.813 178.675C478.879 174.675 487.345 172.675 497.21 172.675C502.01 172.675 506.61 173.275 511.009 174.475C515.409 175.675 519.475 177.609 523.208 180.275C527.075 182.809 530.341 186.009 533.007 189.875H533.207C535.874 186.009 539.074 182.809 542.807 180.275C546.673 177.609 550.806 175.675 555.206 174.475C559.739 173.275 564.405 172.675 569.204 172.675C579.204 172.675 587.67 174.675 594.602 178.675C601.668 182.542 607.068 187.809 610.801 194.475C614.534 201.009 616.401 208.209 616.401 216.075V277.075H593.602V216.075C593.602 211.675 592.469 207.675 590.203 204.075C588.07 200.475 585.203 197.609 581.603 195.475C578.004 193.342 573.871 192.275 569.204 192.275C564.672 192.275 560.539 193.342 556.805 195.475C553.072 197.609 550.073 200.475 547.806 204.075C545.673 207.675 544.606 211.675 544.606 216.075V277.075H521.808V216.075C521.808 211.675 520.675 207.675 518.409 204.075C516.142 200.475 513.142 197.609 509.409 195.475C505.81 193.342 501.743 192.275 497.21 192.275C492.677 192.275 488.544 193.342 484.811 195.475C481.212 197.609 478.279 200.475 476.012 204.075C473.879 207.675 472.812 211.675 472.812 216.075V277.075H450.014Z" fill="#FFECD4"/>
<path d="M643.944 277.075V175.075H666.942V277.075H643.944ZM655.343 160.875C651.343 160.875 647.877 159.409 644.944 156.475C642.01 153.542 640.544 150.075 640.544 146.075C640.544 142.075 642.01 138.609 644.944 135.675C647.877 132.742 651.343 131.275 655.343 131.275C659.476 131.275 662.942 132.742 665.742 135.675C668.675 138.609 670.141 142.075 670.141 146.075C670.141 150.075 668.675 153.542 665.742 156.475C662.942 159.409 659.476 160.875 655.343 160.875Z" fill="#FFECD4"/>
<path d="M729.722 277.075C720.657 277.075 713.524 274.475 708.324 269.275C703.258 264.075 700.725 257.009 700.725 248.075V149.475H723.523V247.075C723.523 250.142 724.456 252.675 726.323 254.675C728.189 256.542 730.656 257.475 733.722 257.475H755.12V277.075H729.722ZM683.126 194.675V175.075H755.32V194.675H683.126Z" fill="#FFECD4"/>
</svg>
