<svg width="336" height="434" viewBox="0 0 336 434" fill="none" xmlns="http://www.w3.org/2000/svg">
<g clip-path="url(#clip0_3391_22649)">
<g filter="url(#filter0_f_3391_22649)">
<ellipse cx="298.554" cy="249.589" rx="298.554" ry="249.589" transform="matrix(-0.977693 -0.210041 0.72553 -0.68819 353.683 416.391)" fill="url(#paint0_linear_3391_22649)" fill-opacity="0.2"/>
</g>
<path d="M294.158 434.293C293.984 434.55 293.911 434.761 293.773 434.825C290.031 436.504 289.013 439.952 288.096 443.484C288.087 443.52 288.096 443.575 288.068 443.603C287.94 443.759 287.793 443.905 287.655 444.052C287.518 443.896 287.325 443.768 287.261 443.584C286.729 442.062 286.289 440.512 285.693 439.017C284.959 437.201 283.675 435.843 281.877 434.999C281.648 434.889 281.336 434.596 281.354 434.422C281.382 434.183 281.648 433.881 281.886 433.77C284.198 432.725 285.408 430.771 286.243 428.524C286.637 427.451 286.903 426.332 287.252 425.24C287.316 425.048 287.527 424.901 287.665 424.727C287.802 424.901 288.004 425.048 288.068 425.25C288.582 426.708 288.995 428.203 289.563 429.643C290.315 431.532 291.627 432.936 293.498 433.798C293.718 433.899 293.892 434.101 294.14 434.293H294.158ZM281.923 434.284C281.96 434.403 281.969 434.431 281.978 434.44C282.161 434.55 282.336 434.669 282.519 434.77C284.051 435.531 285.115 436.751 285.83 438.265C286.197 439.026 286.509 439.824 286.793 440.622C287.105 441.512 287.362 442.42 287.665 443.401C288.756 439.787 289.545 436.091 293.581 434.376C289.517 432.661 288.774 428.946 287.655 425.378C287.344 426.378 287.087 427.277 286.793 428.157C285.922 430.79 284.702 433.156 281.914 434.284H281.923Z" fill="black"/>
<path d="M293.599 434.376C290.141 435.853 289.068 438.769 288.151 441.842C287.995 442.356 287.839 442.888 287.683 443.401C287.371 442.42 287.123 441.512 286.802 440.622C286.518 439.824 286.206 439.035 285.839 438.265C285.115 436.742 284.06 435.522 282.528 434.77C282.336 434.679 282.161 434.55 281.978 434.449C281.96 434.44 281.96 434.404 281.923 434.293C284.711 433.165 285.931 430.808 286.802 428.167C287.096 427.286 287.353 426.387 287.664 425.387C287.958 426.323 288.224 427.268 288.536 428.185C289.398 430.771 290.59 433.119 293.59 434.385L293.599 434.376Z" fill="#FFD384"/>
<g style="mix-blend-mode:multiply" opacity="0.5">
<path d="M287.738 438.696C288.031 439.723 288.068 440.787 288.151 441.833C287.995 442.346 287.839 442.878 287.683 443.392C287.371 442.41 287.123 441.502 286.802 440.613C286.518 439.815 286.206 439.026 285.839 438.255C285.115 436.733 284.06 435.513 282.528 434.761C282.336 434.669 282.161 434.541 281.978 434.44C281.96 434.431 281.96 434.394 281.923 434.284C284.711 433.156 285.931 430.799 286.802 428.157C287.096 427.277 287.353 426.378 287.664 425.378C287.958 426.314 288.224 427.258 288.536 428.175C288.398 429.854 287.875 431.505 287.032 432.991C286.27 434.339 285.968 434.935 286.637 436.476C286.986 437.265 287.49 437.852 287.729 438.705L287.738 438.696Z" fill="#FFD384"/>
</g>
<path d="M23.0703 -7.56458V110.103" stroke="#506179" stroke-opacity="0.23" stroke-width="0.847656" stroke-linecap="round" stroke-linejoin="round"/>
<path d="M53.8515 20.6514H-63.8164" stroke="#506179" stroke-opacity="0.23" stroke-width="0.847656" stroke-linecap="round" stroke-linejoin="round"/>
<path d="M53.8515 49.9869H-63.8164" stroke="#506179" stroke-opacity="0.23" stroke-width="0.847656" stroke-linecap="round" stroke-linejoin="round"/>
<path d="M52.5683 78.6797H-65.0996" stroke="#506179" stroke-opacity="0.23" stroke-width="0.847656" stroke-linecap="round" stroke-linejoin="round"/>
<path d="M52.6599 -7.60724H-64.9844V110.037H52.6599V-7.60724Z" stroke="#506179" stroke-opacity="0.23" stroke-width="0.847656" stroke-miterlimit="10"/>
<path d="M82.1357 -9.48877V108.179" stroke="#506179" stroke-opacity="0.23" stroke-width="0.847656" stroke-linecap="round" stroke-linejoin="round"/>
<path d="M111.493 -9.48877V108.179" stroke="#506179" stroke-opacity="0.23" stroke-width="0.847656" stroke-linecap="round" stroke-linejoin="round"/>
<path d="M140.83 -9.48877V108.179" stroke="#506179" stroke-opacity="0.23" stroke-width="0.847656" stroke-linecap="round" stroke-linejoin="round"/>
<path d="M170.305 20.0101H52.6602" stroke="#506179" stroke-opacity="0.23" stroke-width="0.847656" stroke-linecap="round" stroke-linejoin="round"/>
<path d="M170.305 49.3455H52.6602" stroke="#506179" stroke-opacity="0.23" stroke-width="0.847656" stroke-linecap="round" stroke-linejoin="round"/>
<path d="M170.305 78.6799H52.6602" stroke="#506179" stroke-opacity="0.23" stroke-width="0.847656" stroke-linecap="round" stroke-linejoin="round"/>
<path d="M170.349 -9.18262H52.7051V108.462H170.349V-9.18262Z" stroke="#506179" stroke-opacity="0.23" stroke-width="0.847656" stroke-miterlimit="10"/>
<path d="M199.667 -9.48877V108.179" stroke="#506179" stroke-opacity="0.23" stroke-width="0.847656" stroke-linecap="round" stroke-linejoin="round"/>
<path d="M229.004 -9.48877V108.179" stroke="#506179" stroke-opacity="0.23" stroke-width="0.847656" stroke-linecap="round" stroke-linejoin="round"/>
<path d="M258.335 -9.48877V108.179" stroke="#506179" stroke-opacity="0.23" stroke-width="0.847656" stroke-linecap="round" stroke-linejoin="round"/>
<path d="M287.836 20.0101H170.191" stroke="#506179" stroke-opacity="0.23" stroke-width="0.847656" stroke-linecap="round" stroke-linejoin="round"/>
<path d="M287.836 49.3455H170.191" stroke="#506179" stroke-opacity="0.23" stroke-width="0.847656" stroke-linecap="round" stroke-linejoin="round"/>
<path d="M287.836 78.6799H170.191" stroke="#506179" stroke-opacity="0.23" stroke-width="0.847656" stroke-linecap="round" stroke-linejoin="round"/>
<path d="M287.882 -9.18262H170.237V108.462H287.882V-9.18262Z" stroke="#506179" stroke-opacity="0.23" stroke-width="0.847656" stroke-miterlimit="10"/>
<path d="M317.312 -9.48877V108.179" stroke="#506179" stroke-opacity="0.23" stroke-width="0.847656" stroke-linecap="round" stroke-linejoin="round"/>
<path d="M405.477 20.0101H287.81" stroke="#506179" stroke-opacity="0.23" stroke-width="0.847656" stroke-linecap="round" stroke-linejoin="round"/>
<path d="M405.477 49.3455H287.81" stroke="#506179" stroke-opacity="0.23" stroke-width="0.847656" stroke-linecap="round" stroke-linejoin="round"/>
<path d="M405.477 78.6799H287.81" stroke="#506179" stroke-opacity="0.23" stroke-width="0.847656" stroke-linecap="round" stroke-linejoin="round"/>
<path d="M405.5 -9.18262H287.855V108.462H405.5V-9.18262Z" stroke="#506179" stroke-opacity="0.23" stroke-width="0.847656" stroke-miterlimit="10"/>
<path d="M23.0195 110.162V227.806" stroke="#506179" stroke-opacity="0.23" stroke-width="0.847656" stroke-linecap="round" stroke-linejoin="round"/>
<path d="M52.2079 139.638H-64.2285" stroke="#506179" stroke-opacity="0.23" stroke-width="0.847656" stroke-linecap="round" stroke-linejoin="round"/>
<path d="M52.2089 167.713H-64.2275" stroke="#506179" stroke-opacity="0.23" stroke-width="0.847656" stroke-linecap="round" stroke-linejoin="round"/>
<path d="M52.2089 197.048H-64.2275" stroke="#506179" stroke-opacity="0.23" stroke-width="0.847656" stroke-linecap="round" stroke-linejoin="round"/>
<path d="M51.7406 109.812H-64.3535V228.472H51.7406V109.812Z" stroke="#506179" stroke-opacity="0.23" stroke-width="0.847656" stroke-miterlimit="10"/>
<path d="M81.8584 108.698V226.343" stroke="#506179" stroke-opacity="0.23" stroke-width="0.847656" stroke-linecap="round" stroke-linejoin="round"/>
<path d="M111.217 108.698V226.343" stroke="#506179" stroke-opacity="0.23" stroke-width="0.847656" stroke-linecap="round" stroke-linejoin="round"/>
<path d="M140.554 108.698V226.343" stroke="#506179" stroke-opacity="0.23" stroke-width="0.847656" stroke-linecap="round" stroke-linejoin="round"/>
<path d="M170.028 137.326H52.3838" stroke="#506179" stroke-opacity="0.23" stroke-width="0.847656" stroke-linecap="round" stroke-linejoin="round"/>
<path d="M170.028 166.897H52.3838" stroke="#506179" stroke-opacity="0.23" stroke-width="0.847656" stroke-linecap="round" stroke-linejoin="round"/>
<path d="M170.028 196.867H52.3838" stroke="#506179" stroke-opacity="0.23" stroke-width="0.847656" stroke-linecap="round" stroke-linejoin="round"/>
<path d="M169.759 108.529H52.3818V227.831H169.759V108.529Z" stroke="#506179" stroke-opacity="0.23" stroke-width="0.847656" stroke-miterlimit="10"/>
<path d="M199.667 108.057V225.701" stroke="#506179" stroke-opacity="0.23" stroke-width="0.847656" stroke-linecap="round" stroke-linejoin="round"/>
<path d="M229.004 108.057V225.701" stroke="#506179" stroke-opacity="0.23" stroke-width="0.847656" stroke-linecap="round" stroke-linejoin="round"/>
<path d="M258.335 108.057V225.701" stroke="#506179" stroke-opacity="0.23" stroke-width="0.847656" stroke-linecap="round" stroke-linejoin="round"/>
<path d="M287.836 137.533H170.191" stroke="#506179" stroke-opacity="0.23" stroke-width="0.847656" stroke-linecap="round" stroke-linejoin="round"/>
<path d="M287.836 166.891H170.191" stroke="#506179" stroke-opacity="0.23" stroke-width="0.847656" stroke-linecap="round" stroke-linejoin="round"/>
<path d="M287.836 196.226H170.191" stroke="#506179" stroke-opacity="0.23" stroke-width="0.847656" stroke-linecap="round" stroke-linejoin="round"/>
<path d="M287.882 108.34H170.237V225.984H287.882V108.34Z" stroke="#506179" stroke-opacity="0.23" stroke-width="0.847656" stroke-miterlimit="10"/>
<path d="M317.281 106.605V227.831" stroke="#506179" stroke-opacity="0.23" stroke-width="0.847656" stroke-linecap="round" stroke-linejoin="round"/>
<path d="M405.477 137.513H287.81" stroke="#506179" stroke-opacity="0.23" stroke-width="0.847656" stroke-linecap="round" stroke-linejoin="round"/>
<path d="M405.477 166.852H287.81" stroke="#506179" stroke-opacity="0.23" stroke-width="0.847656" stroke-linecap="round" stroke-linejoin="round"/>
<path d="M405.477 196.167H287.81" stroke="#506179" stroke-opacity="0.23" stroke-width="0.847656" stroke-linecap="round" stroke-linejoin="round"/>
<path d="M405.795 108.53H287.776V227.831H405.795V108.53Z" stroke="#506179" stroke-opacity="0.23" stroke-width="0.847656" stroke-miterlimit="10"/>
<path d="M23.0195 228.349V345.993" stroke="#506179" stroke-opacity="0.23" stroke-width="0.847656" stroke-linecap="round" stroke-linejoin="round"/>
<path d="M52.2079 257.183H-64.2285" stroke="#506179" stroke-opacity="0.23" stroke-width="0.847656" stroke-linecap="round" stroke-linejoin="round"/>
<path d="M52.2079 286.518H-64.2285" stroke="#506179" stroke-opacity="0.23" stroke-width="0.847656" stroke-linecap="round" stroke-linejoin="round"/>
<path d="M52.2079 315.852H-64.2285" stroke="#506179" stroke-opacity="0.23" stroke-width="0.847656" stroke-linecap="round" stroke-linejoin="round"/>
<path d="M52.2568 228.632H-64.1562V346.276H52.2568V228.632Z" stroke="#506179" stroke-opacity="0.23" stroke-width="0.847656" stroke-miterlimit="10"/>
<path d="M81.7334 227.526V345.171" stroke="#506179" stroke-opacity="0.23" stroke-width="0.847656" stroke-linecap="round" stroke-linejoin="round"/>
<path d="M111.091 227.526V345.171" stroke="#506179" stroke-opacity="0.23" stroke-width="0.847656" stroke-linecap="round" stroke-linejoin="round"/>
<path d="M140.429 227.526V345.171" stroke="#506179" stroke-opacity="0.23" stroke-width="0.847656" stroke-linecap="round" stroke-linejoin="round"/>
<path d="M169.902 257.002H52.2578" stroke="#506179" stroke-opacity="0.23" stroke-width="0.847656" stroke-linecap="round" stroke-linejoin="round"/>
<path d="M169.902 286.337H52.2578" stroke="#506179" stroke-opacity="0.23" stroke-width="0.847656" stroke-linecap="round" stroke-linejoin="round"/>
<path d="M169.902 315.671H52.2578" stroke="#506179" stroke-opacity="0.23" stroke-width="0.847656" stroke-linecap="round" stroke-linejoin="round"/>
<path d="M169.947 227.81H52.3027V345.454H169.947V227.81Z" stroke="#506179" stroke-opacity="0.23" stroke-width="0.847656" stroke-miterlimit="10"/>
<path d="M199.378 227.526V345.171" stroke="#506179" stroke-opacity="0.23" stroke-width="0.847656" stroke-linecap="round" stroke-linejoin="round"/>
<path d="M229.355 227.526V345.171" stroke="#506179" stroke-opacity="0.23" stroke-width="0.847656" stroke-linecap="round" stroke-linejoin="round"/>
<path d="M258.045 227.526V345.171" stroke="#506179" stroke-opacity="0.23" stroke-width="0.847656" stroke-linecap="round" stroke-linejoin="round"/>
<path d="M287.547 257.002H169.902" stroke="#506179" stroke-opacity="0.23" stroke-width="0.847656" stroke-linecap="round" stroke-linejoin="round"/>
<path d="M287.547 286.337H169.902" stroke="#506179" stroke-opacity="0.23" stroke-width="0.847656" stroke-linecap="round" stroke-linejoin="round"/>
<path d="M287.547 315.671H169.902" stroke="#506179" stroke-opacity="0.23" stroke-width="0.847656" stroke-linecap="round" stroke-linejoin="round"/>
<path d="M287.591 227.81H169.946V345.454H287.591V227.81Z" stroke="#506179" stroke-opacity="0.23" stroke-width="0.847656" stroke-miterlimit="10"/>
<path d="M317.278 227.526V345.171" stroke="#506179" stroke-opacity="0.23" stroke-width="0.847656" stroke-linecap="round" stroke-linejoin="round"/>
<path d="M405.444 257.002H287.776" stroke="#506179" stroke-opacity="0.23" stroke-width="0.847656" stroke-linecap="round" stroke-linejoin="round"/>
<path d="M405.444 286.337H287.776" stroke="#506179" stroke-opacity="0.23" stroke-width="0.847656" stroke-linecap="round" stroke-linejoin="round"/>
<path d="M405.444 315.671H287.776" stroke="#506179" stroke-opacity="0.23" stroke-width="0.847656" stroke-linecap="round" stroke-linejoin="round"/>
<path d="M405.466 227.81H287.821V345.454H405.466V227.81Z" stroke="#506179" stroke-opacity="0.23" stroke-width="0.847656" stroke-miterlimit="10"/>
<path d="M23.0703 346.331V463.975" stroke="#506179" stroke-opacity="0.23" stroke-width="0.847656" stroke-linecap="round" stroke-linejoin="round"/>
<path d="M51.9267 375.188H-65.7412" stroke="#506179" stroke-opacity="0.23" stroke-width="0.847656" stroke-linecap="round" stroke-linejoin="round"/>
<path d="M53.2099 404.524H-64.458" stroke="#506179" stroke-opacity="0.23" stroke-width="0.847656" stroke-linecap="round" stroke-linejoin="round"/>
<path d="M53.8515 433.858H-63.8164" stroke="#506179" stroke-opacity="0.23" stroke-width="0.847656" stroke-linecap="round" stroke-linejoin="round"/>
<path d="M52.2578 346.176H-64.1553V463.82H52.2578V346.176Z" stroke="#506179" stroke-opacity="0.23" stroke-width="0.847656" stroke-miterlimit="10"/>
<path d="M81.7334 345.689V463.334" stroke="#506179" stroke-opacity="0.23" stroke-width="0.847656" stroke-linecap="round" stroke-linejoin="round"/>
<path d="M111.091 345.689V463.334" stroke="#506179" stroke-opacity="0.23" stroke-width="0.847656" stroke-linecap="round" stroke-linejoin="round"/>
<path d="M140.429 345.689V463.334" stroke="#506179" stroke-opacity="0.23" stroke-width="0.847656" stroke-linecap="round" stroke-linejoin="round"/>
<path d="M169.902 375.188H52.2578" stroke="#506179" stroke-opacity="0.23" stroke-width="0.847656" stroke-linecap="round" stroke-linejoin="round"/>
<path d="M169.902 404.524H52.2578" stroke="#506179" stroke-opacity="0.23" stroke-width="0.847656" stroke-linecap="round" stroke-linejoin="round"/>
<path d="M169.902 433.858H52.2578" stroke="#506179" stroke-opacity="0.23" stroke-width="0.847656" stroke-linecap="round" stroke-linejoin="round"/>
<path d="M169.947 345.996H52.3027V463.64H169.947V345.996Z" stroke="#506179" stroke-opacity="0.23" stroke-width="0.847656" stroke-miterlimit="10"/>
<path d="M199.378 345.689V463.334" stroke="#506179" stroke-opacity="0.23" stroke-width="0.847656" stroke-linecap="round" stroke-linejoin="round"/>
<path d="M229.355 345.689V463.334" stroke="#506179" stroke-opacity="0.23" stroke-width="0.847656" stroke-linecap="round" stroke-linejoin="round"/>
<path d="M258.045 345.689V463.334" stroke="#506179" stroke-opacity="0.23" stroke-width="0.847656" stroke-linecap="round" stroke-linejoin="round"/>
<path d="M287.547 375.188H169.902" stroke="#506179" stroke-opacity="0.23" stroke-width="0.847656" stroke-linecap="round" stroke-linejoin="round"/>
<path d="M287.547 404.524H169.902" stroke="#506179" stroke-opacity="0.23" stroke-width="0.847656" stroke-linecap="round" stroke-linejoin="round"/>
<path d="M287.547 433.858H169.902" stroke="#506179" stroke-opacity="0.23" stroke-width="0.847656" stroke-linecap="round" stroke-linejoin="round"/>
<path d="M287.591 345.996H169.946V463.64H287.591V345.996Z" stroke="#506179" stroke-opacity="0.23" stroke-width="0.847656" stroke-miterlimit="10"/>
<path d="M317.346 345.048V462.692" stroke="#506179" stroke-opacity="0.23" stroke-width="0.847656" stroke-linecap="round" stroke-linejoin="round"/>
<path d="M405.187 374.547H287.52" stroke="#506179" stroke-opacity="0.23" stroke-width="0.847656" stroke-linecap="round" stroke-linejoin="round"/>
<path d="M405.187 403.882H287.52" stroke="#506179" stroke-opacity="0.23" stroke-width="0.847656" stroke-linecap="round" stroke-linejoin="round"/>
<path d="M405.187 433.217H287.52" stroke="#506179" stroke-opacity="0.23" stroke-width="0.847656" stroke-linecap="round" stroke-linejoin="round"/>
<path d="M405.209 345.354H287.564V462.998H405.209V345.354Z" stroke="#506179" stroke-opacity="0.23" stroke-width="0.847656" stroke-miterlimit="10"/>
<path d="M406.621 -7.66833H-64.9941V463.946H406.621V-7.66833Z" stroke="url(#paint1_linear_3391_22649)" stroke-opacity="0.3" stroke-width="0.847656" stroke-miterlimit="10"/>
<path d="M287.777 108.53H52.3818V345.849H287.777V108.53Z" stroke="url(#paint2_linear_3391_22649)" stroke-opacity="0.3" stroke-width="0.847656" stroke-miterlimit="10"/>
<path d="M199.765 196.729H139.835V257.048H199.765V196.729Z" stroke="url(#paint3_linear_3391_22649)" stroke-opacity="0.3" stroke-width="0.847656" stroke-miterlimit="10"/>
<path d="M170.08 286.198C202.847 286.198 229.41 259.492 229.41 226.548C229.41 193.604 202.847 166.897 170.08 166.897C137.313 166.897 110.75 193.604 110.75 226.548C110.75 259.492 137.313 286.198 170.08 286.198Z" stroke="url(#paint4_linear_3391_22649)" stroke-opacity="0.3" stroke-width="0.847656" stroke-miterlimit="10"/>
<path d="M52.0986 108.418L287.51 345.357" stroke="url(#paint5_linear_3391_22649)" stroke-opacity="0.3" stroke-width="0.847656" stroke-miterlimit="10"/>
<path d="M287.51 108.418L52.0986 345.357" stroke="url(#paint6_linear_3391_22649)" stroke-opacity="0.3" stroke-width="0.847656" stroke-miterlimit="10"/>
<path d="M58.2609 102.217H45.9375V114.62H58.2609V102.217Z" fill="#FE9A4C" stroke="url(#paint7_linear_3391_22649)" stroke-opacity="0.3" stroke-width="0.847656" stroke-linecap="round" stroke-linejoin="round"/>
<path d="M294.36 102.217H282.036V114.62H294.36V102.217Z" fill="#FE9A4C" stroke="url(#paint8_linear_3391_22649)" stroke-opacity="0.3" stroke-width="0.847656" stroke-linecap="round" stroke-linejoin="round"/>
<path d="M176.62 108.655C176.446 108.912 176.373 109.123 176.235 109.187C172.493 110.865 171.475 114.314 170.558 117.845C170.548 117.882 170.558 117.937 170.53 117.965C170.402 118.12 170.255 118.267 170.117 118.414C169.98 118.258 169.787 118.13 169.723 117.946C169.191 116.424 168.751 114.874 168.155 113.379C167.421 111.562 166.137 110.205 164.339 109.361C164.11 109.251 163.798 108.958 163.816 108.783C163.844 108.545 164.11 108.242 164.348 108.132C166.66 107.087 167.87 105.133 168.705 102.886C169.099 101.813 169.365 100.694 169.714 99.6022C169.778 99.4096 169.989 99.2628 170.127 99.0886C170.264 99.2628 170.466 99.4096 170.53 99.6114C171.044 101.07 171.456 102.565 172.025 104.005C172.777 105.894 174.089 107.297 175.96 108.16C176.18 108.261 176.354 108.462 176.602 108.655H176.62ZM164.385 108.646C164.422 108.765 164.431 108.793 164.44 108.802C164.623 108.912 164.798 109.031 164.981 109.132C166.513 109.893 167.577 111.113 168.292 112.626C168.659 113.388 168.971 114.186 169.255 114.984C169.567 115.873 169.824 116.781 170.127 117.763C171.218 114.149 172.007 110.453 176.042 108.737C171.979 107.022 171.236 103.308 170.117 99.7398C169.806 100.74 169.549 101.638 169.255 102.519C168.384 105.151 167.164 107.518 164.376 108.646H164.385Z" fill="black"/>
<path d="M176.061 108.738C172.603 110.215 171.53 113.131 170.613 116.204C170.457 116.717 170.301 117.249 170.145 117.763C169.833 116.782 169.585 115.874 169.264 114.984C168.98 114.186 168.668 113.397 168.301 112.627C167.577 111.104 166.522 109.893 164.99 109.132C164.798 109.04 164.623 108.912 164.44 108.811C164.421 108.802 164.421 108.765 164.385 108.655C167.173 107.527 168.393 105.17 169.264 102.528C169.558 101.648 169.815 100.749 170.126 99.7493C170.42 100.685 170.686 101.63 170.998 102.547C171.86 105.133 173.052 107.481 176.052 108.747L176.061 108.738Z" fill="#FFD384"/>
<g style="mix-blend-mode:multiply" opacity="0.5">
<path d="M170.2 113.067C170.493 114.094 170.53 115.158 170.613 116.204C170.457 116.717 170.301 117.249 170.145 117.763C169.833 116.782 169.585 115.874 169.264 114.984C168.98 114.186 168.668 113.397 168.301 112.627C167.577 111.104 166.522 109.893 164.99 109.132C164.798 109.04 164.623 108.912 164.44 108.811C164.421 108.802 164.421 108.765 164.385 108.655C167.173 107.527 168.393 105.17 169.264 102.528C169.558 101.648 169.815 100.749 170.126 99.7493C170.42 100.685 170.686 101.63 170.998 102.547C170.86 104.225 170.337 105.876 169.494 107.362C168.732 108.71 168.43 109.306 169.099 110.847C169.448 111.636 169.952 112.223 170.191 113.076L170.2 113.067Z" fill="#FFD384"/>
</g>
<path d="M58.2609 338.967H45.9375V351.371H58.2609V338.967Z" fill="#FE9A4C" stroke="url(#paint9_linear_3391_22649)" stroke-opacity="0.3" stroke-width="0.847656" stroke-linecap="round" stroke-linejoin="round"/>
<path d="M293.718 338.967H281.395V351.37H293.718V338.967Z" fill="#FE9A4C" stroke="url(#paint10_linear_3391_22649)" stroke-opacity="0.3" stroke-width="0.847656" stroke-linecap="round" stroke-linejoin="round"/>
<path d="M176.447 345.794C176.273 346.051 176.2 346.262 176.062 346.326C172.32 348.005 171.302 351.453 170.385 354.985C170.376 355.021 170.385 355.076 170.357 355.104C170.229 355.26 170.082 355.407 169.945 355.553C169.807 355.397 169.614 355.269 169.55 355.086C169.018 353.563 168.578 352.013 167.982 350.518C167.248 348.702 165.964 347.344 164.166 346.501C163.937 346.39 163.625 346.097 163.643 345.923C163.671 345.684 163.937 345.382 164.175 345.271C166.487 344.226 167.697 342.272 168.532 340.025C168.926 338.952 169.192 337.833 169.541 336.742C169.605 336.549 169.816 336.402 169.954 336.228C170.091 336.402 170.293 336.549 170.357 336.751C170.871 338.209 171.284 339.704 171.852 341.144C172.604 343.034 173.916 344.437 175.787 345.299C176.007 345.4 176.181 345.602 176.429 345.794H176.447ZM164.212 345.785C164.249 345.904 164.258 345.932 164.267 345.941C164.451 346.051 164.625 346.17 164.808 346.271C166.34 347.033 167.404 348.252 168.119 349.766C168.486 350.527 168.798 351.325 169.082 352.123C169.394 353.013 169.651 353.921 169.954 354.902C171.045 351.288 171.834 347.592 175.87 345.877C171.806 344.162 171.064 340.447 169.945 336.879C169.633 337.879 169.376 338.778 169.082 339.658C168.211 342.291 166.991 344.657 164.203 345.785H164.212Z" fill="black"/>
<path d="M175.888 345.877C172.43 347.354 171.357 350.27 170.44 353.343C170.284 353.857 170.128 354.389 169.972 354.902C169.66 353.921 169.412 353.013 169.091 352.123C168.807 351.325 168.495 350.536 168.128 349.766C167.404 348.243 166.349 347.023 164.817 346.271C164.625 346.18 164.45 346.051 164.267 345.95C164.249 345.941 164.249 345.904 164.212 345.794C167 344.666 168.22 342.309 169.091 339.668C169.385 338.787 169.642 337.888 169.954 336.888C170.247 337.824 170.513 338.769 170.825 339.686C171.687 342.272 172.879 344.62 175.879 345.886L175.888 345.877Z" fill="#FFD384"/>
<g style="mix-blend-mode:multiply" opacity="0.5">
<path d="M170.027 350.197C170.32 351.224 170.357 352.288 170.44 353.334C170.284 353.847 170.128 354.379 169.972 354.893C169.66 353.911 169.412 353.003 169.091 352.114C168.807 351.316 168.495 350.527 168.128 349.757C167.404 348.234 166.349 347.014 164.817 346.262C164.625 346.17 164.45 346.042 164.267 345.941C164.249 345.932 164.249 345.895 164.212 345.785C167 344.657 168.22 342.3 169.091 339.658C169.385 338.778 169.642 337.879 169.954 336.879C170.247 337.815 170.513 338.759 170.825 339.676C170.687 341.355 170.165 343.006 169.321 344.492C168.559 345.84 168.257 346.436 168.926 347.977C169.275 348.766 169.779 349.353 170.018 350.206L170.027 350.197Z" fill="#FFD384"/>
</g>
<path d="M29.3635 228.308C29.1892 228.565 29.1158 228.776 28.9782 228.84C25.2361 230.519 24.218 233.968 23.3008 237.499C23.2916 237.535 23.3008 237.59 23.2733 237.618C23.1449 237.774 22.9981 237.921 22.8605 238.067C22.723 237.912 22.5303 237.783 22.4661 237.6C21.9342 236.077 21.4939 234.527 20.8977 233.032C20.164 231.216 18.8799 229.859 17.0822 229.015C16.8529 228.905 16.541 228.611 16.5594 228.437C16.5869 228.198 16.8529 227.896 17.0914 227.786C19.4027 226.74 20.6134 224.786 21.4481 222.539C21.8424 221.466 22.1084 220.347 22.457 219.256C22.5212 219.063 22.7321 218.916 22.8697 218.742C23.0073 218.916 23.2091 219.063 23.2733 219.265C23.7869 220.723 24.1996 222.218 24.7683 223.658C25.5204 225.548 26.832 226.951 28.7031 227.813C28.9232 227.914 29.0975 228.116 29.3451 228.308H29.3635ZM17.1281 228.299C17.1647 228.419 17.1739 228.446 17.1831 228.455C17.3665 228.565 17.5408 228.684 17.7242 228.785C19.2559 229.547 20.3199 230.767 21.0353 232.28C21.4022 233.041 21.714 233.839 21.9984 234.637C22.3102 235.527 22.567 236.435 22.8697 237.416C23.9612 233.802 24.75 230.106 28.7856 228.391C24.7224 226.676 23.9795 222.961 22.8605 219.393C22.5487 220.393 22.2919 221.292 21.9984 222.172C21.127 224.805 19.9072 227.171 17.1189 228.299H17.1281Z" fill="black"/>
<path d="M28.8038 228.391C25.346 229.868 24.2729 232.785 23.3557 235.857C23.1998 236.371 23.0439 236.903 22.8879 237.416C22.5761 236.435 22.3284 235.527 22.0074 234.637C21.7231 233.839 21.4112 233.051 21.0444 232.28C20.3198 230.758 19.265 229.538 17.7333 228.786C17.5406 228.694 17.3664 228.565 17.183 228.465C17.1646 228.455 17.1646 228.419 17.1279 228.309C19.9162 227.18 21.1361 224.823 22.0074 222.182C22.3009 221.301 22.5577 220.402 22.8696 219.403C23.1631 220.338 23.4291 221.283 23.7409 222.2C24.6031 224.787 25.7955 227.135 28.7947 228.4L28.8038 228.391Z" fill="#FFD384"/>
<g style="mix-blend-mode:multiply" opacity="0.5">
<path d="M22.943 232.711C23.2365 233.738 23.2731 234.802 23.3557 235.848C23.1998 236.361 23.0439 236.893 22.8879 237.407C22.5761 236.426 22.3284 235.518 22.0074 234.628C21.7231 233.83 21.4112 233.041 21.0444 232.271C20.3198 230.748 19.265 229.528 17.7333 228.776C17.5406 228.684 17.3664 228.556 17.183 228.455C17.1646 228.446 17.1646 228.409 17.1279 228.299C19.9162 227.171 21.1361 224.814 22.0074 222.172C22.3009 221.292 22.5577 220.393 22.8696 219.393C23.1631 220.329 23.4291 221.274 23.7409 222.191C23.6033 223.869 23.0805 225.52 22.2367 227.006C21.4754 228.354 21.1728 228.95 21.8423 230.491C22.1909 231.28 22.6953 231.867 22.9338 232.72L22.943 232.711Z" fill="#FFD384"/>
</g>
<path d="M90.2917 197.181C90.0441 197.529 89.9523 197.823 89.7689 197.905C84.6326 200.198 83.2384 204.94 81.991 209.774C81.9727 209.829 81.991 209.902 81.9452 209.939C81.7617 210.15 81.5691 210.352 81.3857 210.554C81.2022 210.343 80.9363 210.159 80.8537 209.912C80.1291 207.83 79.5238 205.692 78.6983 203.647C77.6985 201.152 75.9375 199.3 73.4703 198.135C73.1584 197.988 72.7273 197.584 72.7457 197.337C72.7824 197.016 73.1492 196.603 73.4794 196.447C76.6438 195.016 78.3131 192.338 79.4504 189.256C80.0007 187.789 80.3493 186.248 80.8354 184.753C80.9179 184.487 81.2114 184.285 81.404 184.056C81.5967 184.294 81.8718 184.505 81.9635 184.771C82.6606 186.771 83.2384 188.825 84.0181 190.788C85.0453 193.375 86.843 195.31 89.4112 196.484C89.7138 196.621 89.9523 196.897 90.2917 197.163V197.181ZM73.5253 197.163C73.5803 197.328 73.5803 197.364 73.5987 197.373C73.8463 197.529 74.0848 197.695 74.3416 197.823C76.442 198.869 77.8912 200.538 78.8817 202.62C79.377 203.665 79.8173 204.757 80.2025 205.848C80.6336 207.068 80.9821 208.316 81.404 209.664C82.9082 204.711 83.9722 199.648 89.5121 197.291C83.9447 194.943 82.9174 189.843 81.3857 184.955C80.9638 186.33 80.6061 187.55 80.2025 188.77C79.0102 192.384 77.3317 195.622 73.5069 197.163H73.5253Z" fill="black"/>
<path d="M89.5213 197.3C84.6602 199.373 83.2385 203.528 81.9544 207.857C81.771 208.463 81.5967 209.068 81.4133 209.673C80.9914 208.316 80.652 207.068 80.2209 205.858C79.8265 204.766 79.3954 203.675 78.891 202.629C77.9004 200.547 76.4512 198.878 74.3509 197.832C74.0849 197.704 73.8464 197.539 73.5988 197.392C73.5804 197.374 73.5804 197.337 73.5254 197.172C77.3409 195.631 79.0194 192.393 80.2117 188.78C80.6153 187.569 80.973 186.34 81.3949 184.964C81.5876 185.588 81.771 186.211 81.9728 186.835C83.266 191.109 84.6694 195.246 89.5213 197.3Z" fill="#FFD384"/>
<g style="mix-blend-mode:multiply" opacity="0.5">
<path d="M81.2293 203.29C81.5595 204.785 81.7704 206.326 81.9447 207.857C81.7612 208.463 81.587 209.068 81.4035 209.673C80.9816 208.316 80.6422 207.068 80.2112 205.858C79.8168 204.766 79.3857 203.675 78.8812 202.629C77.8907 200.547 76.4415 198.878 74.3411 197.832C74.0751 197.704 73.8366 197.539 73.589 197.392C73.5706 197.374 73.5707 197.337 73.5156 197.172C77.3312 195.631 79.0097 192.393 80.202 188.78C80.6056 187.569 80.9633 186.34 81.3852 184.964C81.5778 185.588 81.7612 186.211 81.963 186.835C81.9355 190.22 80.5597 193.31 79.4499 196.75C78.6703 199.162 80.6973 200.859 81.2293 203.29Z" fill="#FFD384"/>
</g>
<path d="M266.557 256.847C266.31 257.196 266.218 257.489 266.035 257.572C260.898 259.865 259.504 264.607 258.257 269.44C258.238 269.495 258.257 269.569 258.211 269.605C258.027 269.816 257.835 270.018 257.651 270.22C257.468 270.009 257.202 269.826 257.119 269.578C256.395 267.496 255.789 265.359 254.964 263.313C253.964 260.819 252.203 258.966 249.736 257.801C249.424 257.654 248.993 257.251 249.011 257.003C249.048 256.682 249.415 256.269 249.745 256.113C252.909 254.683 254.579 252.004 255.716 248.923C256.266 247.455 256.615 245.914 257.101 244.419C257.184 244.153 257.477 243.951 257.67 243.722C257.862 243.961 258.137 244.171 258.229 244.437C258.926 246.437 259.504 248.491 260.284 250.454C261.311 253.041 263.109 254.976 265.677 256.15C265.979 256.288 266.218 256.563 266.557 256.829V256.847ZM249.791 256.829C249.846 256.994 249.846 257.031 249.864 257.04C250.112 257.196 250.35 257.361 250.607 257.489C252.708 258.535 254.157 260.204 255.147 262.286C255.643 263.332 256.083 264.423 256.468 265.515C256.899 266.735 257.248 267.982 257.67 269.33C259.174 264.377 260.238 259.314 265.778 256.957C260.21 254.609 259.183 249.51 257.651 244.621C257.229 245.997 256.872 247.217 256.468 248.436C255.276 252.05 253.597 255.288 249.773 256.829H249.791Z" fill="black"/>
<path d="M265.788 256.967C260.927 259.039 259.505 263.194 258.221 267.524C258.038 268.129 257.863 268.734 257.68 269.34C257.258 267.982 256.919 266.735 256.488 265.524C256.093 264.433 255.662 263.341 255.158 262.295C254.167 260.213 252.718 258.544 250.617 257.499C250.351 257.37 250.113 257.205 249.865 257.058C249.847 257.04 249.847 257.003 249.792 256.838C253.608 255.297 255.286 252.06 256.478 248.446C256.882 247.235 257.24 246.006 257.662 244.63C257.854 245.254 258.038 245.878 258.239 246.501C259.533 250.775 260.936 254.912 265.788 256.967Z" fill="#FFD384"/>
<g style="mix-blend-mode:multiply" opacity="0.5">
<path d="M257.495 262.956C257.825 264.451 258.036 265.992 258.21 267.524C258.027 268.129 257.853 268.734 257.669 269.34C257.247 267.982 256.908 266.735 256.477 265.524C256.082 264.433 255.651 263.341 255.147 262.295C254.156 260.213 252.707 258.544 250.607 257.499C250.341 257.37 250.102 257.205 249.855 257.058C249.836 257.04 249.836 257.003 249.781 256.838C253.597 255.297 255.275 252.06 256.468 248.446C256.871 247.235 257.229 246.006 257.651 244.63C257.843 245.254 258.027 245.878 258.229 246.501C258.201 249.886 256.825 252.977 255.716 256.416C254.936 258.828 256.963 260.525 257.495 262.956Z" fill="#FFD384"/>
</g>
<path d="M37.7715 -6.43998L37.7715 214.515C37.7715 218.261 40.8076 221.297 44.5527 221.297L115.838 221.297" stroke="#506179" stroke-width="0.847656" stroke-dasharray="3.39 3.39"/>
<path d="M23.9326 -3.93512L23.9326 215.147C23.9326 226.382 33.0408 235.491 44.2764 235.491L115.839 235.491" stroke="#506179" stroke-width="0.847656" stroke-dasharray="3.39 3.39"/>
<path d="M31.0293 -2.2011L31.0293 216.526C31.0293 223.08 36.3424 228.393 42.8965 228.393H115.838" stroke="url(#paint11_linear_3391_22649)" stroke-width="1.69531"/>
<path d="M287.606 -1.89209L287.607 215.678C287.607 222.233 282.294 227.546 275.74 227.546H206.347" stroke="#506179" stroke-width="0.847656"/>
<path d="M279.443 -5.22462L279.443 213.668C279.443 217.413 276.407 220.449 272.662 220.449L206.344 220.449" stroke="#506179" stroke-width="0.847656" stroke-dasharray="3.39 3.39"/>
<path d="M296.122 -1.33669L296.122 214.299C296.122 225.535 287.014 234.643 275.778 234.643L206.345 234.643" stroke="#506179" stroke-width="0.847656" stroke-dasharray="3.39 3.39"/>
<rect x="236.359" y="101.281" width="80.2979" height="33.2251" rx="5.64893" fill="#FFECD4"/>
<rect x="236.359" y="101.281" width="80.2979" height="33.2251" rx="5.64893" fill="#506179" fill-opacity="0.1"/>
<rect x="236.359" y="101.281" width="80.2979" height="33.2251" rx="5.64893" stroke="#141416" stroke-width="0.847656"/>
<path d="M251.239 126.19C250.161 126.19 249.148 125.977 248.199 125.552C247.25 125.12 246.415 124.524 245.694 123.765C244.973 123.005 244.408 122.129 243.998 121.134C243.588 120.132 243.383 119.062 243.383 117.923C243.383 116.785 243.588 115.718 243.998 114.724C244.408 113.722 244.973 112.841 245.694 112.082C246.415 111.323 247.25 110.731 248.199 110.306C249.148 109.873 250.161 109.657 251.239 109.657C252.325 109.657 253.342 109.873 254.291 110.306C255.24 110.731 256.075 111.323 256.796 112.082C257.517 112.841 258.079 113.722 258.481 114.724C258.891 115.718 259.096 116.785 259.096 117.923C259.096 119.062 258.891 120.132 258.481 121.134C258.079 122.129 257.517 123.005 256.796 123.765C256.075 124.524 255.24 125.12 254.291 125.552C253.342 125.977 252.325 126.19 251.239 126.19ZM251.239 124.277C252.067 124.277 252.837 124.11 253.551 123.776C254.272 123.442 254.902 122.983 255.441 122.398C255.988 121.806 256.413 121.13 256.716 120.371C257.027 119.605 257.183 118.789 257.183 117.923C257.183 117.058 257.027 116.242 256.716 115.475C256.405 114.701 255.976 114.025 255.43 113.448C254.891 112.864 254.261 112.405 253.539 112.071C252.826 111.737 252.059 111.57 251.239 111.57C250.412 111.57 249.638 111.737 248.917 112.071C248.203 112.405 247.573 112.868 247.026 113.46C246.487 114.044 246.062 114.72 245.751 115.487C245.447 116.246 245.296 117.058 245.296 117.923C245.296 118.796 245.451 119.616 245.762 120.383C246.074 121.149 246.499 121.825 247.038 122.41C247.584 122.994 248.214 123.453 248.928 123.787C249.649 124.114 250.42 124.277 251.239 124.277ZM267.261 116.42H264.676L264.665 125.894H262.752L262.763 116.42H260.805V114.507H262.763L262.752 110.932H264.665L264.676 114.507H267.261V116.42ZM279.368 118.811V125.894H277.455V119.233C277.455 118.656 277.314 118.132 277.033 117.661C276.753 117.191 276.377 116.819 275.906 116.546C275.435 116.265 274.912 116.124 274.335 116.124C273.765 116.124 273.242 116.265 272.763 116.546C272.293 116.819 271.917 117.191 271.636 117.661C271.355 118.132 271.215 118.656 271.215 119.233V125.894H269.302V108.814H271.215V115.931C271.617 115.399 272.126 114.978 272.741 114.667C273.356 114.348 274.024 114.189 274.745 114.189C275.595 114.189 276.369 114.397 277.068 114.815C277.773 115.225 278.331 115.779 278.741 116.477C279.159 117.176 279.368 117.954 279.368 118.811ZM286.432 126.19C285.385 126.19 284.428 125.92 283.563 125.381C282.705 124.842 282.018 124.121 281.502 123.218C280.993 122.307 280.739 121.301 280.739 120.201C280.739 119.366 280.887 118.588 281.183 117.866C281.479 117.138 281.885 116.5 282.402 115.953C282.925 115.399 283.533 114.967 284.223 114.655C284.914 114.344 285.65 114.189 286.432 114.189C287.29 114.189 288.076 114.363 288.789 114.712C289.51 115.054 290.125 115.532 290.634 116.147C291.15 116.762 291.533 117.475 291.784 118.288C292.042 119.1 292.137 119.969 292.069 120.895H282.777C282.868 121.54 283.081 122.117 283.415 122.626C283.749 123.127 284.174 123.525 284.69 123.821C285.214 124.118 285.795 124.269 286.432 124.277C287.116 124.277 287.734 124.102 288.288 123.753C288.842 123.396 289.29 122.911 289.632 122.296L291.579 122.751C291.124 123.761 290.437 124.588 289.518 125.233C288.6 125.871 287.571 126.19 286.432 126.19ZM282.72 119.392H290.144C290.084 118.755 289.879 118.174 289.529 117.65C289.18 117.119 288.736 116.694 288.197 116.375C287.658 116.056 287.07 115.897 286.432 115.897C285.795 115.897 285.21 116.052 284.679 116.363C284.147 116.675 283.707 117.096 283.358 117.627C283.016 118.151 282.804 118.739 282.72 119.392ZM293.987 125.894V114.507H295.9V115.931C296.303 115.399 296.811 114.978 297.426 114.667C298.041 114.348 298.709 114.189 299.43 114.189C299.87 114.189 300.295 114.245 300.705 114.359L299.931 116.272C299.62 116.174 299.316 116.124 299.02 116.124C298.451 116.124 297.927 116.265 297.449 116.546C296.978 116.819 296.602 117.191 296.322 117.661C296.041 118.132 295.9 118.656 295.9 119.233V125.894H293.987ZM305.578 126.11C304.963 126.087 304.363 125.974 303.778 125.769C303.202 125.556 302.693 125.271 302.253 124.915C301.82 124.55 301.505 124.133 301.308 123.662L302.947 122.956C303.061 123.214 303.266 123.457 303.562 123.685C303.858 123.913 304.2 124.095 304.587 124.231C304.974 124.368 305.365 124.436 305.76 124.436C306.177 124.436 306.568 124.372 306.933 124.243C307.297 124.114 307.593 123.924 307.821 123.673C308.056 123.415 308.174 123.108 308.174 122.751C308.174 122.372 308.045 122.076 307.787 121.863C307.536 121.643 307.217 121.472 306.83 121.351C306.45 121.222 306.063 121.1 305.669 120.986C304.887 120.789 304.188 120.554 303.574 120.28C302.959 119.999 302.473 119.646 302.116 119.221C301.767 118.789 301.592 118.238 301.592 117.57C301.592 116.864 301.786 116.253 302.173 115.737C302.568 115.221 303.084 114.822 303.722 114.542C304.359 114.261 305.042 114.12 305.771 114.12C306.69 114.12 307.528 114.318 308.288 114.712C309.047 115.107 309.612 115.642 309.984 116.318L308.447 117.217C308.318 116.944 308.121 116.705 307.855 116.5C307.589 116.287 307.286 116.12 306.944 115.999C306.602 115.878 306.253 115.813 305.896 115.805C305.456 115.79 305.042 115.847 304.655 115.976C304.276 116.105 303.968 116.303 303.733 116.568C303.505 116.826 303.391 117.149 303.391 117.536C303.391 117.916 303.513 118.204 303.756 118.402C304.006 118.599 304.329 118.758 304.724 118.88C305.126 118.994 305.562 119.126 306.033 119.278C306.724 119.498 307.369 119.753 307.969 120.041C308.568 120.33 309.05 120.69 309.415 121.123C309.787 121.556 309.969 122.091 309.961 122.728C309.961 123.427 309.753 124.038 309.335 124.562C308.918 125.078 308.375 125.473 307.707 125.746C307.046 126.019 306.337 126.141 305.578 126.11Z" fill="#141416"/>
<rect x="108.655" y="310.52" width="119.278" height="52.0556" rx="13.2611" fill="url(#paint12_linear_3391_22649)"/>
<rect x="108.655" y="310.52" width="119.278" height="52.0556" rx="13.2611" fill="#FFECD4" fill-opacity="0.8"/>
<rect x="108.655" y="310.52" width="119.278" height="52.0556" rx="13.2611" stroke="url(#paint13_linear_3391_22649)" stroke-width="2.41111"/>
<g clip-path="url(#clip1_3391_22649)">
<path d="M128.256 338.087C126.811 339.751 126.882 342.333 128.41 343.926C129.263 344.82 130.406 345.264 131.543 345.264C132.656 345.264 133.763 344.838 134.61 343.991C134.995 343.606 135.297 343.162 135.504 342.694L141.1 331.846C141.248 331.538 140.929 331.218 140.621 331.366L129.772 336.962C129.21 337.211 128.694 337.59 128.256 338.087ZM130.234 339.615C130.595 339.254 131.069 339.07 131.543 339.07C132.016 339.07 132.49 339.254 132.857 339.615C133.58 340.338 133.58 341.516 132.857 342.238C132.496 342.6 132.022 342.783 131.543 342.783C131.069 342.783 130.595 342.6 130.234 342.238C129.506 341.51 129.506 340.338 130.234 339.615ZM143.161 342.298C143.161 340.249 142.622 338.235 141.598 336.477C141.201 335.79 141.432 334.913 142.119 334.517C142.806 334.12 143.682 334.351 144.079 335.038C145.352 337.235 146.027 339.745 146.027 342.298C146.027 343.091 145.388 343.731 144.594 343.731C143.806 343.731 143.161 343.091 143.161 342.298ZM117.094 342.298C117.094 334.321 123.584 327.831 131.56 327.831C133.414 327.831 135.22 328.174 136.925 328.861C137.66 329.157 138.015 329.987 137.725 330.721C137.429 331.455 136.6 331.81 135.865 331.52C134.498 330.975 133.047 330.697 131.56 330.697C125.165 330.697 119.96 335.902 119.96 342.298C119.96 343.091 119.32 343.731 118.527 343.731C117.733 343.731 117.094 343.091 117.094 342.298Z" fill="url(#paint14_linear_3391_22649)"/>
</g>
<path d="M161.419 347.548L166.261 339.192C165.128 339.526 164.01 339.586 162.909 339.37C161.819 339.143 160.825 338.7 159.929 338.042C159.033 337.373 158.315 336.53 157.775 335.516C157.236 334.501 156.966 333.373 156.966 332.131C156.966 331.073 157.166 330.08 157.565 329.151C157.964 328.223 158.515 327.408 159.217 326.706C159.919 326.004 160.728 325.454 161.646 325.054C162.574 324.655 163.568 324.455 164.626 324.455C166.029 324.455 167.303 324.801 168.447 325.492C169.603 326.182 170.526 327.111 171.217 328.277C171.918 329.432 172.269 330.717 172.269 332.131C172.269 332.898 172.172 333.578 171.978 334.172C171.794 334.755 171.513 335.391 171.136 336.082L164.561 347.548H161.419ZM164.593 337.07C165.554 337.07 166.407 336.844 167.152 336.39C167.908 335.926 168.496 335.316 168.917 334.56C169.349 333.804 169.565 332.995 169.565 332.131C169.565 331.192 169.338 330.35 168.885 329.605C168.431 328.849 167.827 328.255 167.071 327.823C166.315 327.381 165.5 327.16 164.626 327.16C163.665 327.16 162.806 327.392 162.051 327.856C161.306 328.32 160.717 328.935 160.286 329.702C159.865 330.458 159.654 331.267 159.654 332.131C159.654 333.038 159.87 333.869 160.302 334.625C160.744 335.37 161.338 335.964 162.083 336.406C162.839 336.849 163.676 337.07 164.593 337.07ZM182.932 347.969C181.583 347.969 180.374 347.667 179.305 347.062C178.236 346.447 177.318 345.599 176.552 344.52C175.785 343.44 175.202 342.193 174.803 340.779C174.403 339.354 174.204 337.831 174.204 336.212C174.204 334.593 174.403 333.07 174.803 331.645C175.202 330.22 175.785 328.973 176.552 327.904C177.318 326.825 178.236 325.983 179.305 325.378C180.374 324.763 181.583 324.455 182.932 324.455C184.271 324.455 185.475 324.763 186.543 325.378C187.623 325.983 188.535 326.825 189.28 327.904C190.036 328.973 190.614 330.22 191.013 331.645C191.423 333.07 191.628 334.593 191.628 336.212C191.628 337.831 191.423 339.354 191.013 340.779C190.614 342.193 190.036 343.44 189.28 344.52C188.535 345.599 187.623 346.447 186.543 347.062C185.475 347.667 184.271 347.969 182.932 347.969ZM182.932 345.248C184.282 345.248 185.41 344.833 186.317 344.001C187.234 343.159 187.92 342.053 188.373 340.682C188.827 339.31 189.054 337.821 189.054 336.212C189.054 334.517 188.816 332.989 188.341 331.629C187.877 330.258 187.186 329.173 186.268 328.374C185.361 327.575 184.249 327.176 182.932 327.176C181.896 327.176 180.989 327.419 180.212 327.904C179.445 328.39 178.808 329.054 178.301 329.896C177.793 330.738 177.41 331.705 177.151 332.795C176.903 333.875 176.778 335.014 176.778 336.212C176.778 337.821 177.011 339.316 177.475 340.698C177.939 342.069 178.625 343.17 179.531 344.001C180.449 344.833 181.583 345.248 182.932 345.248ZM195.342 347.548L208.427 324.876H211.568L198.483 347.548H195.342ZM198.03 333.993C197.264 333.993 196.567 333.81 195.941 333.443C195.326 333.076 194.829 332.579 194.451 331.953C194.073 331.327 193.884 330.63 193.884 329.864C193.884 329.076 194.073 328.374 194.451 327.759C194.829 327.133 195.331 326.636 195.957 326.269C196.583 325.902 197.274 325.718 198.03 325.718C198.786 325.718 199.477 325.907 200.103 326.285C200.729 326.652 201.226 327.149 201.593 327.775C201.971 328.39 202.16 329.087 202.16 329.864C202.16 330.641 201.971 331.343 201.593 331.969C201.215 332.585 200.713 333.076 200.087 333.443C199.461 333.81 198.775 333.993 198.03 333.993ZM198.03 332.002C198.624 332.002 199.126 331.796 199.536 331.386C199.957 330.965 200.168 330.458 200.168 329.864C200.168 329.259 199.957 328.752 199.536 328.342C199.126 327.921 198.624 327.71 198.03 327.71C197.436 327.71 196.929 327.921 196.508 328.342C196.087 328.752 195.876 329.259 195.876 329.864C195.876 330.458 196.087 330.965 196.508 331.386C196.929 331.796 197.436 332.002 198.03 332.002ZM208.896 346.722C208.141 346.722 207.444 346.533 206.807 346.155C206.181 345.766 205.679 345.259 205.301 344.633C204.934 343.996 204.751 343.31 204.751 342.576C204.751 341.799 204.94 341.097 205.317 340.471C205.706 339.845 206.213 339.348 206.84 338.981C207.466 338.614 208.151 338.431 208.896 338.431C209.674 338.431 210.375 338.625 211.001 339.014C211.628 339.391 212.124 339.893 212.491 340.52C212.858 341.146 213.042 341.831 213.042 342.576C213.042 343.343 212.853 344.039 212.475 344.665C212.108 345.291 211.611 345.793 210.985 346.171C210.359 346.538 209.663 346.722 208.896 346.722ZM208.896 344.73C209.49 344.73 209.997 344.52 210.418 344.098C210.84 343.677 211.05 343.17 211.05 342.576C211.05 341.982 210.84 341.475 210.418 341.054C209.997 340.633 209.49 340.422 208.896 340.422C208.302 340.422 207.795 340.633 207.374 341.054C206.953 341.475 206.742 341.982 206.742 342.576C206.742 343.17 206.953 343.677 207.374 344.098C207.795 344.52 208.302 344.73 208.896 344.73Z" fill="#141416"/>
<g clip-path="url(#clip2_3391_22649)">
<path d="M36.9055 196.806C36.9055 193.435 34.173 190.703 30.8023 190.703C27.4317 190.703 24.6992 193.435 24.6992 196.806C24.6992 200.177 27.4317 202.909 30.8023 202.909C34.173 202.909 36.9055 200.177 36.9055 196.806Z" fill="url(#paint15_linear_3391_22649)"/>
<path d="M31.84 198.003C29.9177 198.563 28.3274 199.379 27.332 200.335L27.2881 200.378C27.5528 200.62 27.843 200.838 28.1568 201.022L28.2242 200.942C28.4961 200.62 28.7873 200.31 29.0909 200.016C29.9054 199.23 30.8374 198.549 31.8411 198.002L31.84 198.003Z" fill="#141416"/>
<path d="M25.7168 197.174C25.7934 198.172 26.1757 199.087 26.7756 199.831L26.8032 199.804C27.4194 199.215 28.2217 198.679 29.1895 198.212C30.0378 197.803 31.0117 197.451 32.0613 197.174H25.7168Z" fill="#141416"/>
<path d="M29.6283 193.074C31.3483 194.734 33.5129 195.833 35.8869 196.249C35.6008 193.787 33.4383 191.872 30.8107 191.872C30.1168 191.872 29.4556 192.006 28.8516 192.248C29.0968 192.534 29.3585 192.812 29.6283 193.074Z" fill="#141416"/>
<path d="M27.333 193.277C28.3284 194.234 29.9187 195.049 31.841 195.61C30.8374 195.062 29.9054 194.382 29.0908 193.596C28.7883 193.303 28.4971 192.993 28.2242 192.67L28.1567 192.59C27.843 192.775 27.5527 192.992 27.2891 193.234L27.333 193.277Z" fill="#141416"/>
<path d="M29.6283 200.538C29.3574 200.8 29.0958 201.078 28.8516 201.364C29.4545 201.606 30.1168 201.74 30.8107 201.74C33.4383 201.74 35.6008 199.825 35.888 197.362C33.5139 197.778 31.3493 198.876 29.6293 200.537L29.6283 200.538Z" fill="#141416"/>
<path d="M29.1895 195.4C28.2217 194.933 27.4194 194.397 26.8032 193.808L26.7756 193.781C26.1757 194.525 25.7934 195.44 25.7168 196.438H32.0603C31.0107 196.161 30.0378 195.809 29.1885 195.399L29.1895 195.4Z" fill="#141416"/>
</g>
<g clip-path="url(#clip3_3391_22649)">
<path d="M36.9055 182.565C36.9055 179.195 34.173 176.462 30.8023 176.462C27.4317 176.462 24.6992 179.195 24.6992 182.565C24.6992 185.936 27.4317 188.669 30.8023 188.669C34.173 188.669 36.9055 185.936 36.9055 182.565Z" fill="url(#paint16_linear_3391_22649)"/>
<path d="M31.84 183.763C29.9177 184.322 28.3274 185.138 27.332 186.095L27.2881 186.137C27.5528 186.38 27.843 186.597 28.1568 186.781L28.2242 186.702C28.4961 186.38 28.7873 186.069 29.0909 185.776C29.9054 184.989 30.8374 184.308 31.8411 183.762L31.84 183.763Z" fill="#141416"/>
<path d="M25.7168 182.933C25.7934 183.931 26.1757 184.846 26.7756 185.59L26.8032 185.563C27.4194 184.974 28.2217 184.438 29.1895 183.972C30.0378 183.562 31.0117 183.211 32.0613 182.933H25.7168Z" fill="#141416"/>
<path d="M29.6283 178.833C31.3483 180.494 33.5129 181.592 35.8869 182.009C35.6008 179.546 33.4383 177.631 30.8107 177.631C30.1168 177.631 29.4556 177.765 28.8516 178.007C29.0968 178.293 29.3585 178.571 29.6283 178.833Z" fill="#141416"/>
<path d="M27.333 179.036C28.3284 179.993 29.9187 180.809 31.841 181.369C30.8374 180.821 29.9054 180.141 29.0908 179.355C28.7883 179.063 28.4971 178.752 28.2242 178.429L28.1567 178.349C27.843 178.534 27.5527 178.751 27.2891 178.994L27.333 179.036Z" fill="#141416"/>
<path d="M29.6283 186.298C29.3574 186.559 29.0958 186.837 28.8516 187.124C29.4545 187.365 30.1168 187.5 30.8107 187.5C33.4383 187.5 35.6008 185.584 35.888 183.121C33.5139 183.537 31.3493 184.636 29.6293 186.297L29.6283 186.298Z" fill="#141416"/>
<path d="M29.1895 181.159C28.2217 180.692 27.4194 180.156 26.8032 179.567L26.7756 179.541C26.1757 180.285 25.7934 181.2 25.7168 182.197H32.0603C31.0107 181.92 30.0378 181.569 29.1885 181.158L29.1895 181.159Z" fill="#141416"/>
</g>
<g clip-path="url(#clip4_3391_22649)">
<path d="M36.9055 168.325C36.9055 164.954 34.173 162.221 30.8023 162.221C27.4317 162.221 24.6992 164.954 24.6992 168.325C24.6992 171.695 27.4317 174.428 30.8023 174.428C34.173 174.428 36.9055 171.695 36.9055 168.325Z" fill="url(#paint17_linear_3391_22649)"/>
<path d="M31.84 169.522C29.9177 170.082 28.3274 170.898 27.332 171.854L27.2881 171.896C27.5528 172.139 27.843 172.356 28.1568 172.541L28.2242 172.461C28.4961 172.139 28.7873 171.828 29.0909 171.535C29.9054 170.749 30.8374 170.068 31.8411 169.521L31.84 169.522Z" fill="#141416"/>
<path d="M25.7168 168.693C25.7934 169.691 26.1757 170.605 26.7756 171.35L26.8032 171.323C27.4194 170.734 28.2217 170.198 29.1895 169.731C30.0378 169.321 31.0117 168.97 32.0613 168.693H25.7168Z" fill="#141416"/>
<path d="M29.6283 164.592C31.3483 166.253 33.5129 167.352 35.8869 167.768C35.6008 165.306 33.4383 163.39 30.8107 163.39C30.1168 163.39 29.4556 163.524 28.8516 163.766C29.0968 164.052 29.3585 164.331 29.6283 164.592Z" fill="#141416"/>
<path d="M27.333 164.796C28.3284 165.753 29.9187 166.568 31.841 167.129C30.8374 166.581 29.9054 165.901 29.0908 165.114C28.7883 164.822 28.4971 164.511 28.2242 164.189L28.1567 164.109C27.843 164.293 27.5527 164.51 27.2891 164.753L27.333 164.796Z" fill="#141416"/>
<path d="M29.6283 172.057C29.3574 172.319 29.0958 172.597 28.8516 172.883C29.4545 173.125 30.1168 173.259 30.8107 173.259C33.4383 173.259 35.6008 171.344 35.888 168.88C33.5139 169.297 31.3493 170.395 29.6293 172.056L29.6283 172.057Z" fill="#141416"/>
<path d="M29.1895 166.918C28.2217 166.452 27.4194 165.916 26.8032 165.327L26.7756 165.3C26.1757 166.044 25.7934 166.959 25.7168 167.957H32.0603C31.0107 167.679 30.0378 167.328 29.1885 166.917L29.1895 166.918Z" fill="#141416"/>
</g>
<g clip-path="url(#clip5_3391_22649)">
<path d="M36.9055 154.443C36.9055 151.072 34.173 148.34 30.8023 148.34C27.4317 148.34 24.6992 151.072 24.6992 154.443C24.6992 157.814 27.4317 160.546 30.8023 160.546C34.173 160.546 36.9055 157.814 36.9055 154.443Z" fill="url(#paint18_linear_3391_22649)"/>
<path d="M31.84 155.64C29.9177 156.2 28.3274 157.016 27.332 157.972L27.2881 158.015C27.5528 158.258 27.843 158.475 28.1568 158.659L28.2242 158.579C28.4961 158.258 28.7873 157.947 29.0909 157.654C29.9054 156.867 30.8374 156.186 31.8411 155.639L31.84 155.64Z" fill="#141416"/>
<path d="M25.7168 154.811C25.7934 155.809 26.1757 156.724 26.7756 157.468L26.8032 157.441C27.4194 156.852 28.2217 156.316 29.1895 155.849C30.0378 155.44 31.0117 155.089 32.0613 154.811H25.7168Z" fill="#141416"/>
<path d="M29.6283 150.711C31.3483 152.372 33.5129 153.47 35.8869 153.886C35.6008 151.424 33.4383 149.509 30.8107 149.509C30.1168 149.509 29.4556 149.643 28.8516 149.885C29.0968 150.171 29.3585 150.449 29.6283 150.711Z" fill="#141416"/>
<path d="M27.333 150.914C28.3284 151.871 29.9187 152.686 31.841 153.247C30.8374 152.699 29.9054 152.019 29.0908 151.233C28.7883 150.941 28.4971 150.63 28.2242 150.307L28.1567 150.227C27.843 150.412 27.5527 150.629 27.2891 150.872L27.333 150.914Z" fill="#141416"/>
<path d="M29.6283 158.175C29.3574 158.437 29.0958 158.715 28.8516 159.001C29.4545 159.243 30.1168 159.377 30.8107 159.377C33.4383 159.377 35.6008 157.462 35.888 154.999C33.5139 155.415 31.3493 156.514 29.6293 158.174L29.6283 158.175Z" fill="#141416"/>
<path d="M29.1895 153.037C28.2217 152.57 27.4194 152.034 26.8032 151.445L26.7756 151.418C26.1757 152.163 25.7934 153.077 25.7168 154.075H32.0603C31.0107 153.798 30.0378 153.446 29.1885 153.036L29.1895 153.037Z" fill="#141416"/>
</g>
<g clip-path="url(#clip6_3391_22649)">
<path d="M36.9055 140.561C36.9055 137.191 34.173 134.458 30.8023 134.458C27.4317 134.458 24.6992 137.191 24.6992 140.561C24.6992 143.932 27.4317 146.665 30.8023 146.665C34.173 146.665 36.9055 143.932 36.9055 140.561Z" fill="url(#paint19_linear_3391_22649)"/>
<path d="M31.84 141.759C29.9177 142.318 28.3274 143.134 27.332 144.091L27.2881 144.133C27.5528 144.376 27.843 144.593 28.1568 144.778L28.2242 144.698C28.4961 144.376 28.7873 144.065 29.0909 143.772C29.9054 142.985 30.8374 142.305 31.8411 141.758L31.84 141.759Z" fill="#141416"/>
<path d="M25.7168 140.93C25.7934 141.927 26.1757 142.842 26.7756 143.586L26.8032 143.56C27.4194 142.97 28.2217 142.435 29.1895 141.968C30.0378 141.558 31.0117 141.207 32.0613 140.93H25.7168Z" fill="#141416"/>
<path d="M29.6283 136.829C31.3483 138.49 33.5129 139.588 35.8869 140.005C35.6008 137.542 33.4383 135.627 30.8107 135.627C30.1168 135.627 29.4556 135.761 28.8516 136.003C29.0968 136.289 29.3585 136.567 29.6283 136.829Z" fill="#141416"/>
<path d="M27.333 137.032C28.3284 137.99 29.9187 138.805 31.841 139.365C30.8374 138.818 29.9054 138.138 29.0908 137.351C28.7883 137.059 28.4971 136.748 28.2242 136.425L28.1567 136.345C27.843 136.53 27.5527 136.747 27.2891 136.99L27.333 137.032Z" fill="#141416"/>
<path d="M29.6283 144.294C29.3574 144.555 29.0958 144.834 28.8516 145.12C29.4545 145.362 30.1168 145.496 30.8107 145.496C33.4383 145.496 35.6008 143.58 35.888 141.117C33.5139 141.534 31.3493 142.632 29.6293 144.293L29.6283 144.294Z" fill="#141416"/>
<path d="M29.1895 139.155C28.2217 138.688 27.4194 138.153 26.8032 137.563L26.7756 137.537C26.1757 138.281 25.7934 139.196 25.7168 140.194H32.0603C31.0107 139.916 30.0378 139.565 29.1885 139.154L29.1895 139.155Z" fill="#141416"/>
</g>
<g clip-path="url(#clip7_3391_22649)">
<path d="M36.9055 211.046C36.9055 207.676 34.173 204.943 30.8023 204.943C27.4317 204.943 24.6992 207.676 24.6992 211.046C24.6992 214.417 27.4317 217.149 30.8023 217.149C34.173 217.149 36.9055 214.417 36.9055 211.046Z" fill="url(#paint20_linear_3391_22649)"/>
<path d="M31.84 212.244C29.9177 212.803 28.3274 213.619 27.332 214.576L27.2881 214.618C27.5528 214.861 27.843 215.078 28.1568 215.263L28.2242 215.183C28.4961 214.861 28.7873 214.55 29.0909 214.257C29.9054 213.47 30.8374 212.79 31.8411 212.243L31.84 212.244Z" fill="#141416"/>
<path d="M25.7168 211.415C25.7934 212.412 26.1757 213.327 26.7756 214.071L26.8032 214.045C27.4194 213.455 28.2217 212.92 29.1895 212.453C30.0378 212.043 31.0117 211.692 32.0613 211.415H25.7168Z" fill="#141416"/>
<path d="M29.6283 207.314C31.3483 208.975 33.5129 210.073 35.8869 210.49C35.6008 208.028 33.4383 206.112 30.8107 206.112C30.1168 206.112 29.4556 206.246 28.8516 206.488C29.0968 206.774 29.3585 207.053 29.6283 207.314Z" fill="#141416"/>
<path d="M27.333 207.518C28.3284 208.475 29.9187 209.29 31.841 209.85C30.8374 209.303 29.9054 208.623 29.0908 207.836C28.7883 207.544 28.4971 207.233 28.2242 206.911L28.1567 206.831C27.843 207.015 27.5527 207.232 27.2891 207.475L27.333 207.518Z" fill="#141416"/>
<path d="M29.6283 214.779C29.3574 215.04 29.0958 215.319 28.8516 215.605C29.4545 215.847 30.1168 215.981 30.8107 215.981C33.4383 215.981 35.6008 214.065 35.888 211.602C33.5139 212.019 31.3493 213.117 29.6293 214.778L29.6283 214.779Z" fill="#141416"/>
<path d="M29.1895 209.64C28.2217 209.174 27.4194 208.638 26.8032 208.049L26.7756 208.022C26.1757 208.766 25.7934 209.681 25.7168 210.679H32.0603C31.0107 210.401 30.0378 210.05 29.1885 209.639L29.1895 209.64Z" fill="#141416"/>
</g>
<g clip-path="url(#clip8_3391_22649)">
<path d="M38.926 225.272C38.926 221.901 36.1935 219.169 32.8229 219.169C29.4522 219.169 26.7197 221.901 26.7197 225.272C26.7197 228.643 29.4522 231.375 32.8229 231.375C36.1935 231.375 38.926 228.643 38.926 225.272Z" fill="url(#paint21_linear_3391_22649)"/>
<path d="M33.8596 226.47C31.9372 227.029 30.347 227.845 29.3516 228.802L29.3076 228.844C29.5723 229.087 29.8626 229.304 30.1763 229.488L30.2438 229.409C30.5156 229.087 30.8069 228.776 31.1104 228.483C31.925 227.696 32.857 227.015 33.8606 226.469L33.8596 226.47Z" fill="#141416"/>
<path d="M27.7363 225.64C27.813 226.638 28.1952 227.553 28.7951 228.297L28.8227 228.271C29.439 227.681 30.2412 227.145 31.209 226.679C32.0573 226.269 33.0313 225.918 34.0808 225.64H27.7363Z" fill="#141416"/>
<path d="M31.6488 221.54C33.3688 223.201 35.5334 224.299 37.9074 224.716C37.6213 222.254 35.4588 220.338 32.8312 220.338C32.1373 220.338 31.4761 220.472 30.8721 220.714C31.1173 221 31.379 221.279 31.6488 221.54Z" fill="#141416"/>
<path d="M29.3516 221.743C30.347 222.701 31.9372 223.516 33.8596 224.076C32.856 223.529 31.9239 222.849 31.1094 222.062C30.8069 221.77 30.5156 221.459 30.2427 221.136L30.1753 221.056C29.8615 221.241 29.5713 221.458 29.3076 221.701L29.3516 221.743Z" fill="#141416"/>
<path d="M31.6488 229.005C31.378 229.266 31.1163 229.544 30.8721 229.831C31.475 230.072 32.1373 230.207 32.8312 230.207C35.4588 230.207 37.6213 228.291 37.9085 225.828C35.5344 226.244 33.3698 227.343 31.6498 229.004L31.6488 229.005Z" fill="#141416"/>
<path d="M31.209 223.866C30.2412 223.399 29.439 222.863 28.8227 222.274L28.7951 222.247C28.1952 222.992 27.813 223.906 27.7363 224.904H34.0798C33.0303 224.627 32.0573 224.275 31.208 223.865L31.209 223.866Z" fill="#141416"/>
</g>
<g clip-path="url(#clip9_3391_22649)">
<path d="M52.8723 227.521C52.8723 224.15 50.1398 221.418 46.7691 221.418C43.3985 221.418 40.666 224.15 40.666 227.521C40.666 230.892 43.3985 233.624 46.7691 233.624C50.1398 233.624 52.8723 230.892 52.8723 227.521Z" fill="url(#paint22_linear_3391_22649)"/>
<path d="M47.8068 228.718C45.8845 229.278 44.2942 230.094 43.2988 231.05L43.2549 231.093C43.5196 231.335 43.8098 231.553 44.1236 231.737L44.191 231.657C44.4629 231.335 44.7541 231.025 45.0577 230.731C45.8722 229.945 46.8042 229.264 47.8079 228.717L47.8068 228.718Z" fill="#141416"/>
<path d="M41.6836 227.889C41.7602 228.887 42.1425 229.802 42.7424 230.546L42.77 230.519C43.3862 229.93 44.1885 229.394 45.1563 228.927C46.0046 228.518 46.9785 228.166 48.0281 227.889H41.6836Z" fill="#141416"/>
<path d="M45.5951 223.789C47.3151 225.45 49.4797 226.548 51.8537 226.964C51.5676 224.502 49.405 222.587 46.7775 222.587C46.0836 222.587 45.4224 222.721 44.8184 222.963C45.0636 223.249 45.3253 223.527 45.5951 223.789Z" fill="#141416"/>
<path d="M43.2988 223.992C44.2942 224.949 45.8845 225.764 47.8068 226.325C46.8032 225.777 45.8712 225.097 45.0566 224.311C44.7541 224.019 44.4629 223.708 44.19 223.385L44.1226 223.305C43.8088 223.49 43.5186 223.707 43.2549 223.949L43.2988 223.992Z" fill="#141416"/>
<path d="M45.5951 231.253C45.3242 231.515 45.0626 231.793 44.8184 232.079C45.4213 232.321 46.0836 232.455 46.7775 232.455C49.405 232.455 51.5676 230.54 51.8548 228.077C49.4807 228.493 47.3161 229.591 45.5961 231.252L45.5951 231.253Z" fill="#141416"/>
<path d="M45.1563 226.115C44.1885 225.648 43.3862 225.112 42.77 224.523L42.7424 224.496C42.1425 225.24 41.7602 226.155 41.6836 227.153H48.0271C46.9775 226.876 46.0046 226.524 45.1553 226.114L45.1563 226.115Z" fill="#141416"/>
</g>
<g clip-path="url(#clip10_3391_22649)">
<path d="M66.9133 227.521C66.9133 224.15 64.1808 221.418 60.8102 221.418C57.4395 221.418 54.707 224.15 54.707 227.521C54.707 230.892 57.4395 233.624 60.8102 233.624C64.1808 233.624 66.9133 230.892 66.9133 227.521Z" fill="url(#paint23_linear_3391_22649)"/>
<path d="M61.8478 228.718C59.9255 229.278 58.3353 230.094 57.3398 231.05L57.2959 231.093C57.5606 231.335 57.8508 231.553 58.1646 231.737L58.232 231.657C58.5039 231.335 58.7952 231.025 59.0987 230.731C59.9132 229.945 60.8453 229.264 61.8489 228.717L61.8478 228.718Z" fill="#141416"/>
<path d="M55.7246 227.889C55.8013 228.887 56.1835 229.802 56.7834 230.546L56.811 230.519C57.4272 229.93 58.2295 229.394 59.1973 228.927C60.0456 228.518 61.0195 228.166 62.0691 227.889H55.7246Z" fill="#141416"/>
<path d="M59.6371 223.789C61.3571 225.45 63.5217 226.548 65.8957 226.964C65.6096 224.502 63.447 222.587 60.8195 222.587C60.1256 222.587 59.4643 222.721 58.8604 222.963C59.1056 223.249 59.3673 223.527 59.6371 223.789Z" fill="#141416"/>
<path d="M57.3398 223.992C58.3353 224.949 59.9255 225.764 61.8478 226.325C60.8443 225.777 59.9122 225.097 59.0977 224.311C58.7952 224.018 58.5039 223.708 58.231 223.385L58.1636 223.305C57.8498 223.489 57.5596 223.707 57.2959 223.949L57.3398 223.992Z" fill="#141416"/>
<path d="M59.6371 231.253C59.3662 231.515 59.1046 231.793 58.8604 232.079C59.4633 232.321 60.1256 232.455 60.8195 232.455C63.447 232.455 65.6096 230.54 65.8968 228.077C63.5227 228.493 61.3581 229.591 59.6381 231.252L59.6371 231.253Z" fill="#141416"/>
<path d="M59.1973 226.115C58.2295 225.648 57.4272 225.112 56.811 224.523L56.7834 224.496C56.1835 225.24 55.8013 226.155 55.7246 227.153H62.0681C61.0185 226.876 60.0456 226.524 59.1963 226.114L59.1973 226.115Z" fill="#141416"/>
</g>
<g clip-path="url(#clip11_3391_22649)">
<path d="M81.9719 227.521C81.9719 224.15 79.2394 221.418 75.8687 221.418C72.4981 221.418 69.7656 224.15 69.7656 227.521C69.7656 230.892 72.4981 233.624 75.8687 233.624C79.2394 233.624 81.9719 230.892 81.9719 227.521Z" fill="url(#paint24_linear_3391_22649)"/>
<path d="M76.9064 228.718C74.9841 229.278 73.3939 230.094 72.3984 231.05L72.3545 231.093C72.6192 231.335 72.9094 231.553 73.2232 231.737L73.2906 231.657C73.5625 231.335 73.8538 231.025 74.1573 230.732C74.9718 229.945 75.9038 229.264 76.9075 228.717L76.9064 228.718Z" fill="#141416"/>
<path d="M70.7822 227.889C70.8589 228.887 71.2411 229.802 71.841 230.546L71.8686 230.519C72.4849 229.93 73.2871 229.394 74.2549 228.927C75.1032 228.518 76.0771 228.166 77.1267 227.889H70.7822Z" fill="#141416"/>
<path d="M74.6947 223.789C76.4147 225.45 78.5793 226.548 80.9533 226.964C80.6672 224.502 78.5047 222.587 75.8771 222.587C75.1832 222.587 74.522 222.721 73.918 222.963C74.1632 223.249 74.4249 223.527 74.6947 223.789Z" fill="#141416"/>
<path d="M72.3984 223.992C73.3939 224.949 74.9841 225.764 76.9064 226.325C75.9028 225.777 74.9708 225.097 74.1563 224.311C73.8538 224.018 73.5625 223.708 73.2896 223.385L73.2222 223.305C72.9084 223.489 72.6182 223.707 72.3545 223.949L72.3984 223.992Z" fill="#141416"/>
<path d="M74.6947 231.253C74.4239 231.515 74.1622 231.793 73.918 232.079C74.5209 232.321 75.1832 232.455 75.8771 232.455C78.5047 232.455 80.6672 230.54 80.9544 228.077C78.5803 228.493 76.4157 229.591 74.6957 231.252L74.6947 231.253Z" fill="#141416"/>
<path d="M74.2549 226.115C73.2871 225.648 72.4849 225.112 71.8686 224.523L71.841 224.496C71.2411 225.24 70.8589 226.155 70.7822 227.153H77.1257C76.0761 226.876 75.1032 226.524 74.2539 226.114L74.2549 226.115Z" fill="#141416"/>
</g>
<g clip-path="url(#clip12_3391_22649)">
<path d="M96.0139 227.521C96.0139 224.15 93.2814 221.418 89.9107 221.418C86.5401 221.418 83.8076 224.15 83.8076 227.521C83.8076 230.892 86.5401 233.624 89.9107 233.624C93.2814 233.624 96.0139 230.892 96.0139 227.521Z" fill="url(#paint25_linear_3391_22649)"/>
<path d="M90.9474 228.718C89.0251 229.278 87.4349 230.094 86.4395 231.05L86.3955 231.093C86.6602 231.335 86.9504 231.553 87.2642 231.737L87.3317 231.657C87.6035 231.335 87.8948 231.025 88.1983 230.732C89.0128 229.945 89.9449 229.264 90.9485 228.717L90.9474 228.718Z" fill="#141416"/>
<path d="M84.8242 227.889C84.9009 228.887 85.2831 229.802 85.883 230.546L85.9106 230.519C86.5269 229.93 87.3291 229.394 88.2969 228.927C89.1452 228.518 90.1191 228.166 91.1687 227.889H84.8242Z" fill="#141416"/>
<path d="M88.7357 223.789C90.4557 225.45 92.6203 226.548 94.9944 226.964C94.7082 224.502 92.5457 222.587 89.9181 222.587C89.2242 222.587 88.563 222.721 87.959 222.963C88.2043 223.249 88.4659 223.527 88.7357 223.789Z" fill="#141416"/>
<path d="M86.4404 223.992C87.4358 224.949 89.0261 225.764 90.9484 226.325C89.9448 225.777 89.0128 225.097 88.1983 224.311C87.8957 224.018 87.6045 223.708 87.3316 223.385L87.2642 223.305C86.9504 223.489 86.6602 223.707 86.3965 223.949L86.4404 223.992Z" fill="#141416"/>
<path d="M88.7357 231.253C88.4649 231.515 88.2032 231.793 87.959 232.079C88.562 232.321 89.2242 232.455 89.9181 232.455C92.5457 232.455 94.7082 230.54 94.9954 228.077C92.6213 228.493 90.4567 229.591 88.7367 231.252L88.7357 231.253Z" fill="#141416"/>
<path d="M88.2969 226.115C87.3291 225.648 86.5269 225.112 85.9106 224.523L85.883 224.496C85.2831 225.24 84.9009 226.155 84.8242 227.153H91.1677C90.1181 226.876 89.1452 226.524 88.2959 226.114L88.2969 226.115Z" fill="#141416"/>
</g>
<g clip-path="url(#clip13_3391_22649)">
<path d="M110.144 227.521C110.144 224.15 107.411 221.418 104.041 221.418C100.67 221.418 97.9375 224.15 97.9375 227.521C97.9375 230.892 100.67 233.624 104.041 233.624C107.411 233.624 110.144 230.892 110.144 227.521Z" fill="url(#paint26_linear_3391_22649)"/>
<path d="M105.078 228.718C103.156 229.278 101.566 230.094 100.57 231.05L100.526 231.093C100.791 231.335 101.081 231.553 101.395 231.737L101.463 231.657C101.734 231.335 102.026 231.025 102.329 230.731C103.144 229.945 104.076 229.264 105.079 228.717L105.078 228.718Z" fill="#141416"/>
<path d="M98.9551 227.889C99.0317 228.887 99.414 229.802 100.014 230.546L100.041 230.519C100.658 229.93 101.46 229.394 102.428 228.927C103.276 228.518 104.25 228.166 105.3 227.889H98.9551Z" fill="#141416"/>
<path d="M102.867 223.789C104.587 225.45 106.751 226.548 109.125 226.964C108.839 224.502 106.677 222.587 104.049 222.587C103.355 222.587 102.694 222.721 102.09 222.963C102.335 223.249 102.597 223.527 102.867 223.789Z" fill="#141416"/>
<path d="M100.57 223.992C101.566 224.949 103.156 225.764 105.078 226.325C104.075 225.777 103.143 225.097 102.328 224.311C102.026 224.018 101.734 223.708 101.461 223.385L101.394 223.305C101.08 223.489 100.79 223.707 100.526 223.949L100.57 223.992Z" fill="#141416"/>
<path d="M102.867 231.253C102.596 231.515 102.334 231.793 102.09 232.079C102.693 232.321 103.355 232.455 104.049 232.455C106.677 232.455 108.839 230.54 109.126 228.077C106.752 228.493 104.588 229.591 102.868 231.252L102.867 231.253Z" fill="#141416"/>
<path d="M102.428 226.115C101.46 225.648 100.658 225.112 100.041 224.523L100.014 224.496C99.4139 225.24 99.0317 226.155 98.9551 227.153H105.299C104.249 226.876 103.276 226.524 102.427 226.114L102.428 226.115Z" fill="#141416"/>
</g>
<g clip-path="url(#clip14_3391_22649)">
<path d="M256.788 227.521C256.788 224.15 254.056 221.418 250.685 221.418C247.314 221.418 244.582 224.15 244.582 227.521C244.582 230.892 247.314 233.624 250.685 233.624C254.056 233.624 256.788 230.892 256.788 227.521Z" fill="url(#paint27_linear_3391_22649)"/>
<path d="M251.723 228.718C249.8 229.278 248.21 230.094 247.215 231.05L247.171 231.093C247.436 231.335 247.726 231.553 248.04 231.737L248.107 231.657C248.379 231.335 248.67 231.025 248.974 230.731C249.788 229.945 250.72 229.264 251.724 228.717L251.723 228.718Z" fill="#141416"/>
<path d="M245.6 227.889C245.676 228.887 246.058 229.802 246.658 230.546L246.686 230.519C247.302 229.93 248.105 229.394 249.072 228.927C249.921 228.518 250.895 228.166 251.944 227.889H245.6Z" fill="#141416"/>
<path d="M249.511 223.789C251.231 225.45 253.396 226.548 255.77 226.964C255.484 224.502 253.321 222.587 250.694 222.587C250 222.587 249.338 222.721 248.734 222.963C248.98 223.249 249.241 223.527 249.511 223.789Z" fill="#141416"/>
<path d="M247.215 223.992C248.21 224.949 249.8 225.764 251.723 226.325C250.719 225.777 249.787 225.097 248.973 224.311C248.67 224.018 248.379 223.708 248.106 223.385L248.039 223.305C247.725 223.489 247.435 223.707 247.171 223.949L247.215 223.992Z" fill="#141416"/>
<path d="M249.511 231.253C249.24 231.515 248.979 231.793 248.734 232.079C249.337 232.321 250 232.455 250.694 232.455C253.321 232.455 255.484 230.54 255.771 228.077C253.397 228.493 251.232 229.591 249.512 231.252L249.511 231.253Z" fill="#141416"/>
<path d="M249.072 226.115C248.105 225.648 247.302 225.112 246.686 224.523L246.658 224.496C246.058 225.24 245.676 226.155 245.6 227.153H251.943C250.894 226.876 249.921 226.524 249.071 226.114L249.072 226.115Z" fill="#141416"/>
</g>
<g clip-path="url(#clip15_3391_22649)">
<path d="M297.476 173.939C297.476 170.568 294.743 167.836 291.373 167.836C288.002 167.836 285.27 170.568 285.27 173.939C285.27 177.31 288.002 180.042 291.373 180.042C294.743 180.042 297.476 177.31 297.476 173.939Z" fill="url(#paint28_linear_3391_22649)"/>
<path d="M292.41 175.136C290.488 175.696 288.898 176.512 287.902 177.468L287.858 177.511C288.123 177.753 288.413 177.971 288.727 178.155L288.795 178.075C289.066 177.753 289.358 177.443 289.661 177.149C290.476 176.363 291.408 175.682 292.411 175.135L292.41 175.136Z" fill="#141416"/>
<path d="M286.287 174.307C286.364 175.305 286.746 176.22 287.346 176.964L287.373 176.937C287.99 176.348 288.792 175.812 289.76 175.345C290.608 174.936 291.582 174.584 292.632 174.307H286.287Z" fill="#141416"/>
<path d="M290.199 170.207C291.919 171.868 294.083 172.966 296.457 173.382C296.171 170.92 294.009 169.005 291.381 169.005C290.687 169.005 290.026 169.139 289.422 169.381C289.667 169.667 289.929 169.945 290.199 170.207Z" fill="#141416"/>
<path d="M287.902 170.41C288.898 171.367 290.488 172.182 292.41 172.743C291.407 172.195 290.475 171.515 289.66 170.729C289.358 170.436 289.066 170.126 288.794 169.803L288.726 169.723C288.412 169.908 288.122 170.125 287.858 170.367L287.902 170.41Z" fill="#141416"/>
<path d="M290.199 177.671C289.928 177.933 289.666 178.211 289.422 178.497C290.025 178.739 290.687 178.873 291.381 178.873C294.009 178.873 296.171 176.958 296.458 174.495C294.084 174.911 291.92 176.009 290.2 177.67L290.199 177.671Z" fill="#141416"/>
<path d="M289.76 172.533C288.792 172.066 287.99 171.53 287.373 170.941L287.346 170.914C286.746 171.658 286.364 172.573 286.287 173.571H292.631C291.581 173.294 290.608 172.942 289.759 172.532L289.76 172.533Z" fill="#141416"/>
</g>
<rect x="108.694" y="197.506" width="119.197" height="60.1803" rx="10.0983" fill="url(#paint29_linear_3391_22649)"/>
<rect x="108.694" y="197.506" width="119.197" height="60.1803" rx="10.0983" fill="#FFECD4" fill-opacity="0.8"/>
<rect x="108.694" y="197.506" width="119.197" height="60.1803" rx="10.0983" stroke="url(#paint30_linear_3391_22649)" stroke-width="1.83606"/>
<path d="M121.291 242.096V213.178H138.249V216.648H124.761V224.869H136.266V228.339H124.761V242.096H121.291ZM148.292 242.633C146.391 242.633 144.656 242.144 143.086 241.166C141.53 240.188 140.284 238.88 139.348 237.242C138.425 235.589 137.964 233.765 137.964 231.768C137.964 230.253 138.232 228.842 138.769 227.533C139.306 226.211 140.043 225.055 140.98 224.063C141.93 223.058 143.031 222.273 144.284 221.709C145.538 221.144 146.873 220.862 148.292 220.862C149.848 220.862 151.273 221.178 152.567 221.812C153.876 222.431 154.991 223.299 155.914 224.414C156.85 225.53 157.545 226.824 158 228.298C158.468 229.771 158.64 231.348 158.516 233.028H141.661C141.826 234.198 142.212 235.245 142.818 236.168C143.424 237.076 144.195 237.799 145.131 238.336C146.081 238.873 147.135 239.149 148.292 239.163C149.531 239.163 150.653 238.846 151.659 238.212C152.664 237.565 153.476 236.684 154.096 235.569L157.628 236.395C156.802 238.226 155.556 239.727 153.889 240.898C152.223 242.054 150.357 242.633 148.292 242.633ZM141.558 230.301H155.025C154.915 229.145 154.543 228.091 153.91 227.141C153.277 226.177 152.471 225.406 151.493 224.828C150.516 224.249 149.448 223.96 148.292 223.96C147.135 223.96 146.075 224.242 145.111 224.807C144.147 225.371 143.348 226.136 142.715 227.1C142.095 228.05 141.709 229.117 141.558 230.301ZM170.964 242.633C169.064 242.633 167.329 242.144 165.759 241.166C164.203 240.188 162.957 238.88 162.021 237.242C161.098 235.589 160.637 233.765 160.637 231.768C160.637 230.253 160.905 228.842 161.442 227.533C161.979 226.211 162.716 225.055 163.652 224.063C164.603 223.058 165.704 222.273 166.957 221.709C168.21 221.144 169.546 220.862 170.964 220.862C172.521 220.862 173.946 221.178 175.24 221.812C176.548 222.431 177.664 223.299 178.586 224.414C179.523 225.53 180.218 226.824 180.673 228.298C181.141 229.771 181.313 231.348 181.189 233.028H164.334C164.499 234.198 164.885 235.245 165.491 236.168C166.097 237.076 166.868 237.799 167.804 238.336C168.754 238.873 169.808 239.149 170.964 239.163C172.204 239.163 173.326 238.846 174.331 238.212C175.337 237.565 176.149 236.684 176.769 235.569L180.301 236.395C179.475 238.226 178.228 239.727 176.562 240.898C174.896 242.054 173.03 242.633 170.964 242.633ZM164.231 230.301H177.698C177.588 229.145 177.216 228.091 176.583 227.141C175.949 226.177 175.144 225.406 174.166 224.828C173.188 224.249 172.121 223.96 170.964 223.96C169.808 223.96 168.747 224.242 167.784 224.807C166.82 225.371 166.021 226.136 165.387 227.1C164.768 228.05 164.382 229.117 164.231 230.301ZM183.137 242.096L188.735 213.178H191.399L199.207 233.709L206.994 213.178H209.659L215.277 242.096H211.745L207.676 221.11L200.343 240.526H198.05L190.717 221.11L186.669 242.096H183.137Z" fill="#141416"/>
<rect x="16.1309" y="102.977" width="110.907" height="33.2251" rx="5.64893" fill="url(#paint31_linear_3391_22649)"/>
<rect x="16.1309" y="102.977" width="110.907" height="33.2251" rx="5.64893" fill="#FFECD4" fill-opacity="0.8"/>
<rect x="16.1309" y="102.977" width="110.907" height="33.2251" rx="5.64893" stroke="url(#paint32_linear_3391_22649)" stroke-width="0.847656"/>
<path d="M25.1709 127.218C25.1709 124.877 28.207 122.98 31.9521 122.98C35.6973 122.98 38.7334 124.877 38.7334 127.218" stroke="#141416" stroke-width="1.69531" stroke-linecap="round" stroke-linejoin="round"/>
<path d="M31.9521 120.437C34.2929 120.437 36.1904 118.539 36.1904 116.198C36.1904 113.858 34.2929 111.96 31.9521 111.96C29.6114 111.96 27.7139 113.858 27.7139 116.198C27.7139 118.539 29.6114 120.437 31.9521 120.437Z" stroke="#141416" stroke-width="1.69531" stroke-linecap="round" stroke-linejoin="round"/>
<path d="M44.781 127.589V111.648H50.2806C51.0701 111.648 51.7874 111.811 52.4327 112.138C53.0855 112.457 53.6017 112.923 53.9812 113.538C54.3608 114.153 54.5505 114.889 54.5505 115.747C54.5505 116.21 54.4708 116.658 54.3114 117.091C54.1596 117.516 53.9471 117.884 53.6738 118.195C53.4081 118.499 53.1045 118.704 52.7629 118.81C53.2411 118.932 53.6472 119.148 53.9812 119.459C54.3152 119.763 54.5847 120.12 54.7897 120.53C55.0022 120.939 55.154 121.368 55.2451 121.816C55.3362 122.264 55.3818 122.697 55.3818 123.114C55.3818 123.995 55.1806 124.773 54.7783 125.448C54.3835 126.116 53.8522 126.64 53.1842 127.02C52.5162 127.399 51.7798 127.589 50.9752 127.589H44.781ZM46.6939 125.904H50.8044C51.3282 125.904 51.8026 125.771 52.2277 125.505C52.6604 125.232 53.0058 124.86 53.2639 124.39C53.522 123.919 53.651 123.388 53.651 122.795C53.651 122.272 53.522 121.778 53.2639 121.315C53.0058 120.845 52.6604 120.465 52.2277 120.177C51.8026 119.888 51.3282 119.744 50.8044 119.744H46.6939V125.904ZM46.6939 118.093H50.0985C50.7968 118.093 51.3927 117.888 51.8861 117.478C52.3871 117.06 52.6376 116.48 52.6376 115.736C52.6376 114.931 52.3871 114.332 51.8861 113.937C51.3927 113.534 50.7968 113.333 50.0985 113.333H46.6939V118.093ZM56.9351 123.262V116.203H58.848V122.841C58.848 123.418 58.9885 123.942 59.2693 124.412C59.5502 124.883 59.9259 125.259 60.3966 125.54C60.8748 125.813 61.3986 125.949 61.9679 125.949C62.5448 125.949 63.0648 125.813 63.5279 125.54C63.9985 125.259 64.3742 124.883 64.6551 124.412C64.936 123.942 65.0764 123.418 65.0764 122.841V116.203H66.9893L67.0007 127.589H65.0878L65.0764 126.143C64.6741 126.674 64.1655 127.099 63.5506 127.418C62.9358 127.73 62.2716 127.885 61.558 127.885C60.7078 127.885 59.9297 127.68 59.2238 127.27C58.5254 126.853 57.9675 126.295 57.55 125.596C57.1401 124.898 56.9351 124.12 56.9351 123.262ZM69.2885 116.203H71.2014V127.589H69.2885V116.203ZM70.2677 114.347C69.9641 114.347 69.7098 114.248 69.5048 114.051C69.2999 113.853 69.1974 113.607 69.1974 113.311C69.1974 113.014 69.2999 112.768 69.5048 112.57C69.7098 112.373 69.9603 112.274 70.2563 112.274C70.5524 112.274 70.8029 112.373 71.0078 112.57C71.2128 112.768 71.3153 113.014 71.3153 113.311C71.3153 113.607 71.2128 113.853 71.0078 114.051C70.8105 114.248 70.5638 114.347 70.2677 114.347ZM74.0032 127.589V110.509H75.9161V127.589H74.0032ZM87.706 110.509H89.619V127.589H87.706V125.653C87.3189 126.321 86.7989 126.86 86.1461 127.27C85.4933 127.68 84.7266 127.885 83.846 127.885C83.0186 127.885 82.2444 127.73 81.5232 127.418C80.8021 127.107 80.1644 126.678 79.6103 126.132C79.0637 125.578 78.6349 124.94 78.3236 124.219C78.0124 123.498 77.8568 122.723 77.8568 121.896C77.8568 121.068 78.0124 120.294 78.3236 119.573C78.6349 118.844 79.0637 118.207 79.6103 117.66C80.1644 117.106 80.8021 116.673 81.5232 116.362C82.2444 116.051 83.0186 115.895 83.846 115.895C84.7266 115.895 85.4933 116.1 86.1461 116.51C86.7989 116.92 87.3189 117.459 87.706 118.127V110.509ZM83.8688 126.029C84.6203 126.029 85.2693 125.847 85.8159 125.483C86.37 125.111 86.7951 124.61 87.0912 123.98C87.3948 123.35 87.5466 122.655 87.5466 121.896C87.5466 121.122 87.3948 120.423 87.0912 119.801C86.7875 119.171 86.3587 118.674 85.8045 118.309C85.258 117.937 84.6127 117.751 83.8688 117.751C83.1173 117.751 82.4341 117.937 81.8193 118.309C81.212 118.681 80.7262 119.182 80.3618 119.812C79.9974 120.435 79.8153 121.129 79.8153 121.896C79.8153 122.663 80.0012 123.361 80.3732 123.991C80.7451 124.613 81.2386 125.111 81.8534 125.483C82.4683 125.847 83.1401 126.029 83.8688 126.029ZM97.2493 127.885C96.2017 127.885 95.2453 127.616 94.3799 127.077C93.5221 126.538 92.8352 125.817 92.319 124.913C91.8104 124.002 91.5561 122.997 91.5561 121.896C91.5561 121.061 91.7041 120.283 92.0002 119.562C92.2962 118.833 92.7023 118.195 93.2185 117.649C93.7423 117.095 94.3496 116.662 95.0403 116.351C95.7311 116.039 96.4674 115.884 97.2493 115.884C98.1071 115.884 98.8927 116.058 99.6063 116.408C100.327 116.749 100.942 117.227 101.451 117.842C101.967 118.457 102.35 119.171 102.601 119.983C102.859 120.795 102.954 121.664 102.886 122.59H93.5943C93.6853 123.236 93.8979 123.813 94.2319 124.321C94.5659 124.822 94.991 125.221 95.5072 125.517C96.0309 125.813 96.6117 125.965 97.2493 125.972C97.9325 125.972 98.5511 125.798 99.1053 125.448C99.6594 125.092 100.107 124.606 100.449 123.991L102.396 124.446C101.941 125.456 101.254 126.283 100.335 126.929C99.4165 127.566 98.3879 127.885 97.2493 127.885ZM93.5373 121.087H100.961C100.901 120.45 100.696 119.869 100.346 119.345C99.9972 118.814 99.5531 118.389 99.0142 118.07C98.4752 117.751 97.8869 117.592 97.2493 117.592C96.6117 117.592 96.0272 117.747 95.4958 118.059C94.9644 118.37 94.5241 118.791 94.175 119.323C93.8334 119.846 93.6208 120.435 93.5373 121.087ZM104.804 127.589V116.203H106.717V117.626C107.12 117.095 107.628 116.673 108.243 116.362C108.858 116.043 109.526 115.884 110.247 115.884C110.687 115.884 111.112 115.941 111.522 116.055L110.748 117.968C110.437 117.869 110.133 117.82 109.837 117.82C109.268 117.82 108.744 117.96 108.266 118.241C107.795 118.514 107.419 118.886 107.139 119.357C106.858 119.827 106.717 120.351 106.717 120.928V127.589H104.804ZM116.395 127.805C115.78 127.783 115.18 127.669 114.595 127.464C114.019 127.251 113.51 126.967 113.07 126.61C112.637 126.246 112.322 125.828 112.125 125.357L113.764 124.651C113.878 124.91 114.083 125.152 114.379 125.38C114.675 125.608 115.017 125.79 115.404 125.927C115.791 126.063 116.182 126.132 116.577 126.132C116.994 126.132 117.385 126.067 117.749 125.938C118.114 125.809 118.41 125.619 118.638 125.369C118.873 125.111 118.991 124.803 118.991 124.446C118.991 124.067 118.862 123.771 118.603 123.558C118.353 123.338 118.034 123.167 117.647 123.046C117.267 122.917 116.88 122.795 116.486 122.682C115.704 122.484 115.005 122.249 114.39 121.976C113.776 121.695 113.29 121.342 112.933 120.917C112.584 120.484 112.409 119.934 112.409 119.266C112.409 118.56 112.603 117.949 112.99 117.432C113.385 116.916 113.901 116.518 114.539 116.237C115.176 115.956 115.859 115.816 116.588 115.816C117.507 115.816 118.345 116.013 119.104 116.408C119.864 116.802 120.429 117.338 120.801 118.013L119.264 118.913C119.135 118.639 118.937 118.4 118.672 118.195C118.406 117.983 118.102 117.816 117.761 117.694C117.419 117.573 117.07 117.508 116.713 117.501C116.273 117.486 115.859 117.542 115.472 117.672C115.093 117.801 114.785 117.998 114.55 118.264C114.322 118.522 114.208 118.844 114.208 119.231C114.208 119.611 114.33 119.899 114.573 120.097C114.823 120.294 115.146 120.454 115.541 120.575C115.943 120.689 116.379 120.822 116.85 120.974C117.541 121.194 118.186 121.448 118.786 121.736C119.385 122.025 119.867 122.386 120.232 122.818C120.604 123.251 120.786 123.786 120.778 124.424C120.778 125.122 120.57 125.733 120.152 126.257C119.735 126.773 119.192 127.168 118.524 127.441C117.863 127.714 117.154 127.836 116.395 127.805Z" fill="#141416"/>
</g>
<path d="M0.423828 27.125C0.423828 12.3784 12.3783 0.423828 27.125 0.423828H308.875C323.622 0.423828 335.576 12.3784 335.576 27.125V406.875C335.576 421.622 323.622 433.576 308.875 433.576H27.125C12.3784 433.576 0.423828 421.622 0.423828 406.875V27.125Z" stroke="#506179" stroke-width="0.847656"/>
<defs>
<filter id="filter0_f_3391_22649" x="-565.072" y="-465.381" width="1615.89" height="1294.6" filterUnits="userSpaceOnUse" color-interpolation-filters="sRGB">
<feFlood flood-opacity="0" result="BackgroundImageFix"/>
<feBlend mode="normal" in="SourceGraphic" in2="BackgroundImageFix" result="shape"/>
<feGaussianBlur stdDeviation="232.198" result="effect1_foregroundBlur_3391_22649"/>
</filter>
<linearGradient id="paint0_linear_3391_22649" x1="603.671" y1="188.33" x2="-5.86468" y2="188.33" gradientUnits="userSpaceOnUse">
<stop stop-color="#102D3C"/>
<stop offset="0.161465" stop-color="#214E81"/>
<stop offset="0.363625" stop-color="#506179"/>
<stop offset="0.651499" stop-color="#ED5409"/>
<stop offset="1" stop-color="#FFCB67"/>
</linearGradient>
<linearGradient id="paint1_linear_3391_22649" x1="411.804" y1="170.263" x2="-69.6262" y2="170.263" gradientUnits="userSpaceOnUse">
<stop stop-color="#102D3C"/>
<stop offset="0.161465" stop-color="#214E81"/>
<stop offset="0.363625" stop-color="#506179"/>
<stop offset="0.651499" stop-color="#ED5409"/>
<stop offset="1" stop-color="#FFCB67"/>
</linearGradient>
<linearGradient id="paint2_linear_3391_22649" x1="290.364" y1="198.066" x2="50.0698" y2="198.066" gradientUnits="userSpaceOnUse">
<stop stop-color="#102D3C"/>
<stop offset="0.161465" stop-color="#214E81"/>
<stop offset="0.363625" stop-color="#506179"/>
<stop offset="0.651499" stop-color="#ED5409"/>
<stop offset="1" stop-color="#FFCB67"/>
</linearGradient>
<linearGradient id="paint3_linear_3391_22649" x1="200.424" y1="219.486" x2="139.246" y2="219.486" gradientUnits="userSpaceOnUse">
<stop stop-color="#102D3C"/>
<stop offset="0.161465" stop-color="#214E81"/>
<stop offset="0.363625" stop-color="#506179"/>
<stop offset="0.651499" stop-color="#ED5409"/>
<stop offset="1" stop-color="#FFCB67"/>
</linearGradient>
<linearGradient id="paint4_linear_3391_22649" x1="230.714" y1="211.907" x2="109.585" y2="211.907" gradientUnits="userSpaceOnUse">
<stop stop-color="#102D3C"/>
<stop offset="0.161465" stop-color="#214E81"/>
<stop offset="0.363625" stop-color="#506179"/>
<stop offset="0.651499" stop-color="#ED5409"/>
<stop offset="1" stop-color="#FFCB67"/>
</linearGradient>
<linearGradient id="paint5_linear_3391_22649" x1="290.097" y1="197.811" x2="49.7865" y2="197.811" gradientUnits="userSpaceOnUse">
<stop stop-color="#102D3C"/>
<stop offset="0.161465" stop-color="#214E81"/>
<stop offset="0.363625" stop-color="#506179"/>
<stop offset="0.651499" stop-color="#ED5409"/>
<stop offset="1" stop-color="#FFCB67"/>
</linearGradient>
<linearGradient id="paint6_linear_3391_22649" x1="290.097" y1="197.811" x2="49.7865" y2="197.811" gradientUnits="userSpaceOnUse">
<stop stop-color="#102D3C"/>
<stop offset="0.161465" stop-color="#214E81"/>
<stop offset="0.363625" stop-color="#506179"/>
<stop offset="0.651499" stop-color="#ED5409"/>
<stop offset="1" stop-color="#FFCB67"/>
</linearGradient>
<linearGradient id="paint7_linear_3391_22649" x1="58.3964" y1="106.896" x2="45.8165" y2="106.896" gradientUnits="userSpaceOnUse">
<stop stop-color="#102D3C"/>
<stop offset="0.161465" stop-color="#214E81"/>
<stop offset="0.363625" stop-color="#506179"/>
<stop offset="0.651499" stop-color="#ED5409"/>
<stop offset="1" stop-color="#FFCB67"/>
</linearGradient>
<linearGradient id="paint8_linear_3391_22649" x1="294.495" y1="106.896" x2="281.915" y2="106.896" gradientUnits="userSpaceOnUse">
<stop stop-color="#102D3C"/>
<stop offset="0.161465" stop-color="#214E81"/>
<stop offset="0.363625" stop-color="#506179"/>
<stop offset="0.651499" stop-color="#ED5409"/>
<stop offset="1" stop-color="#FFCB67"/>
</linearGradient>
<linearGradient id="paint9_linear_3391_22649" x1="58.3964" y1="343.647" x2="45.8165" y2="343.647" gradientUnits="userSpaceOnUse">
<stop stop-color="#102D3C"/>
<stop offset="0.161465" stop-color="#214E81"/>
<stop offset="0.363625" stop-color="#506179"/>
<stop offset="0.651499" stop-color="#ED5409"/>
<stop offset="1" stop-color="#FFCB67"/>
</linearGradient>
<linearGradient id="paint10_linear_3391_22649" x1="293.853" y1="343.647" x2="281.273" y2="343.647" gradientUnits="userSpaceOnUse">
<stop stop-color="#102D3C"/>
<stop offset="0.161465" stop-color="#214E81"/>
<stop offset="0.363625" stop-color="#506179"/>
<stop offset="0.651499" stop-color="#ED5409"/>
<stop offset="1" stop-color="#FFCB67"/>
</linearGradient>
<linearGradient id="paint11_linear_3391_22649" x1="-8.71393" y1="66.9368" x2="116.903" y2="229.103" gradientUnits="userSpaceOnUse">
<stop stop-color="#102D3C" stop-opacity="0"/>
<stop offset="0.161465" stop-color="#214E81" stop-opacity="0.7"/>
<stop offset="0.363625" stop-color="#506179"/>
<stop offset="0.651499" stop-color="#ED5409"/>
<stop offset="1" stop-color="#FFCB67"/>
</linearGradient>
<linearGradient id="paint12_linear_3391_22649" x1="106.254" y1="329.864" x2="230.476" y2="329.864" gradientUnits="userSpaceOnUse">
<stop stop-color="#102D3C"/>
<stop offset="0.161465" stop-color="#214E81"/>
<stop offset="0.363625" stop-color="#506179"/>
<stop offset="0.651499" stop-color="#ED5409"/>
<stop offset="1" stop-color="#FFCB67"/>
</linearGradient>
<linearGradient id="paint13_linear_3391_22649" x1="107.449" y1="342.689" x2="229.165" y2="342.393" gradientUnits="userSpaceOnUse">
<stop stop-color="#102D3C"/>
<stop offset="0.161465" stop-color="#214E81"/>
<stop offset="0.363625" stop-color="#506179"/>
<stop offset="0.651499" stop-color="#ED5409"/>
<stop offset="1" stop-color="#FFCB67"/>
</linearGradient>
<linearGradient id="paint14_linear_3391_22649" x1="146.345" y1="334.408" x2="116.81" y2="334.408" gradientUnits="userSpaceOnUse">
<stop stop-color="#FFCB67"/>
<stop offset="0.348501" stop-color="#ED5409"/>
<stop offset="0.636375" stop-color="#506179"/>
<stop offset="0.838535" stop-color="#214E81"/>
<stop offset="1" stop-color="#102D3C"/>
</linearGradient>
<linearGradient id="paint15_linear_3391_22649" x1="37.0396" y1="195.308" x2="24.5793" y2="195.308" gradientUnits="userSpaceOnUse">
<stop stop-color="#1A3746"/>
<stop offset="0.242213" stop-color="#2B588B"/>
<stop offset="0.367213" stop-color="#5A6B83"/>
<stop offset="0.742213" stop-color="#ED5409"/>
<stop offset="1" stop-color="#FFCB67"/>
</linearGradient>
<linearGradient id="paint16_linear_3391_22649" x1="37.0396" y1="181.068" x2="24.5793" y2="181.068" gradientUnits="userSpaceOnUse">
<stop stop-color="#1A3746"/>
<stop offset="0.242213" stop-color="#2B588B"/>
<stop offset="0.367213" stop-color="#5A6B83"/>
<stop offset="0.742213" stop-color="#ED5409"/>
<stop offset="1" stop-color="#FFCB67"/>
</linearGradient>
<linearGradient id="paint17_linear_3391_22649" x1="37.0396" y1="166.827" x2="24.5793" y2="166.827" gradientUnits="userSpaceOnUse">
<stop stop-color="#1A3746"/>
<stop offset="0.242213" stop-color="#2B588B"/>
<stop offset="0.367213" stop-color="#5A6B83"/>
<stop offset="0.742213" stop-color="#ED5409"/>
<stop offset="1" stop-color="#FFCB67"/>
</linearGradient>
<linearGradient id="paint18_linear_3391_22649" x1="37.0396" y1="152.945" x2="24.5793" y2="152.945" gradientUnits="userSpaceOnUse">
<stop stop-color="#1A3746"/>
<stop offset="0.242213" stop-color="#2B588B"/>
<stop offset="0.367213" stop-color="#5A6B83"/>
<stop offset="0.742213" stop-color="#ED5409"/>
<stop offset="1" stop-color="#FFCB67"/>
</linearGradient>
<linearGradient id="paint19_linear_3391_22649" x1="37.0396" y1="139.063" x2="24.5793" y2="139.063" gradientUnits="userSpaceOnUse">
<stop stop-color="#1A3746"/>
<stop offset="0.242213" stop-color="#2B588B"/>
<stop offset="0.367213" stop-color="#5A6B83"/>
<stop offset="0.742213" stop-color="#ED5409"/>
<stop offset="1" stop-color="#FFCB67"/>
</linearGradient>
<linearGradient id="paint20_linear_3391_22649" x1="37.0396" y1="209.548" x2="24.5793" y2="209.548" gradientUnits="userSpaceOnUse">
<stop stop-color="#1A3746"/>
<stop offset="0.242213" stop-color="#2B588B"/>
<stop offset="0.367213" stop-color="#5A6B83"/>
<stop offset="0.742213" stop-color="#ED5409"/>
<stop offset="1" stop-color="#FFCB67"/>
</linearGradient>
<linearGradient id="paint21_linear_3391_22649" x1="39.0601" y1="223.774" x2="26.5998" y2="223.774" gradientUnits="userSpaceOnUse">
<stop stop-color="#1A3746"/>
<stop offset="0.242213" stop-color="#2B588B"/>
<stop offset="0.367213" stop-color="#5A6B83"/>
<stop offset="0.742213" stop-color="#ED5409"/>
<stop offset="1" stop-color="#FFCB67"/>
</linearGradient>
<linearGradient id="paint22_linear_3391_22649" x1="53.0064" y1="226.023" x2="40.5461" y2="226.023" gradientUnits="userSpaceOnUse">
<stop stop-color="#1A3746"/>
<stop offset="0.242213" stop-color="#2B588B"/>
<stop offset="0.367213" stop-color="#5A6B83"/>
<stop offset="0.742213" stop-color="#ED5409"/>
<stop offset="1" stop-color="#FFCB67"/>
</linearGradient>
<linearGradient id="paint23_linear_3391_22649" x1="67.0475" y1="226.023" x2="54.5871" y2="226.023" gradientUnits="userSpaceOnUse">
<stop stop-color="#1A3746"/>
<stop offset="0.242213" stop-color="#2B588B"/>
<stop offset="0.367213" stop-color="#5A6B83"/>
<stop offset="0.742213" stop-color="#ED5409"/>
<stop offset="1" stop-color="#FFCB67"/>
</linearGradient>
<linearGradient id="paint24_linear_3391_22649" x1="82.106" y1="226.023" x2="69.6457" y2="226.023" gradientUnits="userSpaceOnUse">
<stop stop-color="#1A3746"/>
<stop offset="0.242213" stop-color="#2B588B"/>
<stop offset="0.367213" stop-color="#5A6B83"/>
<stop offset="0.742213" stop-color="#ED5409"/>
<stop offset="1" stop-color="#FFCB67"/>
</linearGradient>
<linearGradient id="paint25_linear_3391_22649" x1="96.148" y1="226.023" x2="83.6877" y2="226.023" gradientUnits="userSpaceOnUse">
<stop stop-color="#1A3746"/>
<stop offset="0.242213" stop-color="#2B588B"/>
<stop offset="0.367213" stop-color="#5A6B83"/>
<stop offset="0.742213" stop-color="#ED5409"/>
<stop offset="1" stop-color="#FFCB67"/>
</linearGradient>
<linearGradient id="paint26_linear_3391_22649" x1="110.278" y1="226.023" x2="97.8176" y2="226.023" gradientUnits="userSpaceOnUse">
<stop stop-color="#1A3746"/>
<stop offset="0.242213" stop-color="#2B588B"/>
<stop offset="0.367213" stop-color="#5A6B83"/>
<stop offset="0.742213" stop-color="#ED5409"/>
<stop offset="1" stop-color="#FFCB67"/>
</linearGradient>
<linearGradient id="paint27_linear_3391_22649" x1="256.922" y1="226.023" x2="244.462" y2="226.023" gradientUnits="userSpaceOnUse">
<stop stop-color="#1A3746"/>
<stop offset="0.242213" stop-color="#2B588B"/>
<stop offset="0.367213" stop-color="#5A6B83"/>
<stop offset="0.742213" stop-color="#ED5409"/>
<stop offset="1" stop-color="#FFCB67"/>
</linearGradient>
<linearGradient id="paint28_linear_3391_22649" x1="297.61" y1="172.441" x2="285.15" y2="172.441" gradientUnits="userSpaceOnUse">
<stop stop-color="#1A3746"/>
<stop offset="0.242213" stop-color="#2B588B"/>
<stop offset="0.367213" stop-color="#5A6B83"/>
<stop offset="0.742213" stop-color="#ED5409"/>
<stop offset="1" stop-color="#FFCB67"/>
</linearGradient>
<linearGradient id="paint29_linear_3391_22649" x1="230.139" y1="219.985" x2="106.588" y2="219.985" gradientUnits="userSpaceOnUse">
<stop stop-color="#102D3C"/>
<stop offset="0.161465" stop-color="#214E81"/>
<stop offset="0.363625" stop-color="#506179"/>
<stop offset="0.651499" stop-color="#ED5409"/>
<stop offset="1" stop-color="#FFCB67"/>
</linearGradient>
<linearGradient id="paint30_linear_3391_22649" x1="230.139" y1="219.985" x2="106.588" y2="219.985" gradientUnits="userSpaceOnUse">
<stop stop-color="#102D3C"/>
<stop offset="0.161465" stop-color="#214E81"/>
<stop offset="0.363625" stop-color="#506179"/>
<stop offset="0.651499" stop-color="#ED5409"/>
<stop offset="1" stop-color="#FFCB67"/>
</linearGradient>
<linearGradient id="paint31_linear_3391_22649" x1="128.69" y1="115.408" x2="14.6094" y2="115.408" gradientUnits="userSpaceOnUse">
<stop stop-color="#102D3C"/>
<stop offset="0.161465" stop-color="#214E81"/>
<stop offset="0.363625" stop-color="#506179"/>
<stop offset="0.651499" stop-color="#ED5409"/>
<stop offset="1" stop-color="#FFCB67"/>
</linearGradient>
<linearGradient id="paint32_linear_3391_22649" x1="128.69" y1="115.408" x2="14.6094" y2="115.408" gradientUnits="userSpaceOnUse">
<stop stop-color="#102D3C"/>
<stop offset="0.161465" stop-color="#214E81"/>
<stop offset="0.363625" stop-color="#506179"/>
<stop offset="0.651499" stop-color="#ED5409"/>
<stop offset="1" stop-color="#FFCB67"/>
</linearGradient>
<clipPath id="clip0_3391_22649">
<path d="M0 27.125C0 12.1443 12.1443 0 27.125 0H308.875C323.856 0 336 12.1443 336 27.125V406.875C336 421.856 323.856 434 308.875 434H27.125C12.1443 434 0 421.856 0 406.875V27.125Z" fill="white"/>
</clipPath>
<clipPath id="clip1_3391_22649">
<rect width="28.9333" height="28.9333" fill="white" transform="translate(117.094 322.081)"/>
</clipPath>
<clipPath id="clip2_3391_22649">
<rect width="12.2062" height="12.2062" fill="white" transform="translate(24.6992 190.703)"/>
</clipPath>
<clipPath id="clip3_3391_22649">
<rect width="12.2062" height="12.2062" fill="white" transform="translate(24.6992 176.462)"/>
</clipPath>
<clipPath id="clip4_3391_22649">
<rect width="12.2062" height="12.2062" fill="white" transform="translate(24.6992 162.221)"/>
</clipPath>
<clipPath id="clip5_3391_22649">
<rect width="12.2062" height="12.2062" fill="white" transform="translate(24.6992 148.34)"/>
</clipPath>
<clipPath id="clip6_3391_22649">
<rect width="12.2062" height="12.2062" fill="white" transform="translate(24.6992 134.458)"/>
</clipPath>
<clipPath id="clip7_3391_22649">
<rect width="12.2062" height="12.2062" fill="white" transform="translate(24.6992 204.943)"/>
</clipPath>
<clipPath id="clip8_3391_22649">
<rect width="12.2062" height="12.2062" fill="white" transform="translate(26.7197 219.169)"/>
</clipPath>
<clipPath id="clip9_3391_22649">
<rect width="12.2062" height="12.2062" fill="white" transform="translate(40.666 221.418)"/>
</clipPath>
<clipPath id="clip10_3391_22649">
<rect width="12.2062" height="12.2062" fill="white" transform="translate(54.707 221.418)"/>
</clipPath>
<clipPath id="clip11_3391_22649">
<rect width="12.2062" height="12.2062" fill="white" transform="translate(69.7656 221.418)"/>
</clipPath>
<clipPath id="clip12_3391_22649">
<rect width="12.2062" height="12.2062" fill="white" transform="translate(83.8076 221.418)"/>
</clipPath>
<clipPath id="clip13_3391_22649">
<rect width="12.2062" height="12.2062" fill="white" transform="translate(97.9375 221.418)"/>
</clipPath>
<clipPath id="clip14_3391_22649">
<rect width="12.2062" height="12.2062" fill="white" transform="translate(244.582 221.418)"/>
</clipPath>
<clipPath id="clip15_3391_22649">
<rect width="12.2062" height="12.2062" fill="white" transform="translate(285.27 167.836)"/>
</clipPath>
</defs>
</svg>
