<svg width="1032" height="651" viewBox="0 0 1032 651" fill="none" xmlns="http://www.w3.org/2000/svg">
<g clip-path="url(#clip0_3375_1121)">
<rect y="651" width="650.5" height="1032" transform="rotate(-90 0 651)" fill="#070707" fill-opacity="0.7"/>
<rect y="651" width="650.5" height="1032" transform="rotate(-90 0 651)" fill="url(#paint0_radial_3375_1121)"/>
<rect y="651" width="650.5" height="1032" transform="rotate(-90 0 651)" fill="url(#paint1_linear_3375_1121)"/>
<g filter="url(#filter0_i_3375_1121)">
<rect x="119.75" y="218.75" width="137" height="98" rx="17.5" fill="url(#paint2_linear_3375_1121)"/>
</g>
<path d="M119.592 252.669H166.179C169.129 243.61 177.422 224.944 187 222.75C190.557 223.997 198.868 228.484 203.657 236.463M119.592 284.083H166.179C166.179 299.641 180.06 311.01 187 314.75C198.66 310.96 207.647 292.727 210.684 284.083H256.75M256.75 260.148H210.684C208.602 256.242 205.687 247.233 210.684 242.446" stroke="url(#paint3_linear_3375_1121)" stroke-width="1.5"/>
<path d="M300.75 264C302.417 267 304.75 274.4 300.75 280M311.75 258.25C314.25 263 317.75 275.15 311.75 285.75M321.5 252.25C324.75 258.667 329.3 275.4 321.5 291M332 247.5C336.167 255.083 342 275.35 332 295.75" stroke="white" stroke-width="5.5" stroke-linecap="round" stroke-linejoin="round"/>
<path d="M89.2731 563.438V563.501C89.2731 566.427 86.9737 568.747 84.0473 568.747H83.9845C81.0581 568.747 78.7378 566.427 78.7378 563.501V563.438C78.7378 560.511 81.0581 558.212 83.9845 558.212H84.0473C86.9737 558.212 89.2731 560.511 89.2731 563.438ZM108.17 563.438V563.501C108.17 566.427 105.87 568.747 102.944 568.747H102.881C99.9547 568.747 97.6344 566.427 97.6344 563.501V563.438C97.6344 560.511 99.9547 558.212 102.881 558.212H102.944C105.87 558.212 108.17 560.511 108.17 563.438ZM127.066 563.438V563.501C127.066 566.427 124.767 568.747 121.841 568.747H121.778C118.851 568.747 116.531 566.427 116.531 563.501V563.438C116.531 560.511 118.851 558.212 121.778 558.212H121.841C124.767 558.212 127.066 560.511 127.066 563.438ZM145.963 563.438V563.501C145.963 566.427 143.664 568.747 140.737 568.747H140.674C137.748 568.747 135.428 566.427 135.428 563.501V563.438C135.428 560.511 137.748 558.212 140.674 558.212H140.737C143.664 558.212 145.963 560.511 145.963 563.438ZM181.018 576.273C173.827 576.273 168.852 572.698 168.852 567.514V567.472C168.852 563.563 171.758 560.679 175.813 559.884V559.759C172.322 558.902 169.96 556.373 169.96 553.153V553.112C169.96 548.45 174.496 545.064 181.018 545.064C187.519 545.064 192.076 548.45 192.076 553.112V553.153C192.076 556.373 189.693 558.902 186.223 559.759V559.884C190.257 560.679 193.163 563.563 193.163 567.472V567.514C193.163 572.698 188.209 576.273 181.018 576.273ZM181.018 557.857C183.861 557.857 185.826 556.164 185.826 553.739V553.697C185.826 551.293 183.84 549.621 181.018 549.621C178.196 549.621 176.189 551.293 176.189 553.697V553.739C176.189 556.164 178.175 557.857 181.018 557.857ZM181.018 571.674C184.3 571.674 186.62 569.751 186.62 567.096V567.054C186.62 564.379 184.342 562.435 181.018 562.435C177.694 562.435 175.395 564.379 175.395 567.054V567.096C175.395 569.751 177.715 571.674 181.018 571.674ZM211.432 575.75V570.211H196.424V564.943L208.527 545.586H217.432V565.173H221.403V570.211H217.432V575.75H211.432ZM201.921 565.34H211.558V550.143H211.411L201.921 565.173V565.34ZM239.15 575.75V570.211H224.142V564.943L236.245 545.586H245.15V565.173H249.121V570.211H245.15V575.75H239.15ZM229.639 565.34H239.276V550.143H239.129L229.639 565.173V565.34ZM253.636 575.75L266.617 550.729V550.603H251.274V545.586H272.846V550.666L260.263 575.75H253.636Z" fill="white"/>
<g clip-path="url(#clip1_3375_1121)">
<mask id="mask0_3375_1121" style="mask-type:luminance" maskUnits="userSpaceOnUse" x="774" y="519" width="207" height="67">
<path d="M881.285 540.926C881.168 550.061 889.535 555.158 895.839 558.189C902.315 561.299 904.49 563.293 904.465 566.074C904.416 570.33 899.299 572.209 894.51 572.282C886.155 572.41 881.298 570.056 877.436 568.275L874.426 582.173C878.301 583.935 885.475 585.472 892.916 585.539C910.379 585.539 921.805 577.032 921.867 563.842C921.935 547.103 898.403 546.176 898.564 538.694C898.619 536.425 900.813 534.004 905.621 533.388C908 533.077 914.569 532.84 922.016 536.224L924.938 522.778C920.934 521.339 915.786 519.961 909.378 519.961C892.94 519.961 881.378 528.583 881.285 540.926ZM953.025 521.119C949.836 521.119 947.148 522.955 945.949 525.772L921.002 584.551H938.453L941.926 575.081H963.252L965.267 584.551H980.648L967.226 521.119H953.025ZM955.466 538.255L960.502 562.074H946.709L955.466 538.255ZM860.126 521.119L846.37 584.551H863L876.75 521.119H860.126ZM835.525 521.119L818.216 564.293L811.215 527.583C810.393 523.485 807.148 521.119 803.546 521.119H775.249L774.854 522.961C780.662 524.205 787.262 526.211 791.26 528.358C793.708 529.669 794.406 530.815 795.209 533.931L808.471 584.551H826.046L852.989 521.119H835.525Z" fill="white"/>
</mask>
<g mask="url(#mask0_3375_1121)">
<path d="M753.303 527.793L956.071 454.104L1002.2 577.709L799.434 651.398" fill="url(#paint4_linear_3375_1121)"/>
<path d="M753.303 527.793L956.071 454.104L1002.2 577.709L799.434 651.398" fill="url(#paint5_linear_3375_1121)"/>
</g>
</g>
<path d="M105.803 110.176C112.954 107.565 117.892 100.238 117.892 91.4368C117.892 84.4465 114.529 77.7511 109.08 73.9612C104.44 70.7608 99.545 70.087 93.1171 70.087H74.5571V134.937H84.6459V80.1514H91.4996C97.1187 80.1514 100.822 80.1514 103.589 82.6358C106.101 84.9099 107.335 87.8156 107.335 91.5633C107.335 97.543 102.865 101.585 96.2671 101.585H86.8169L107.548 134.937H119.552L105.164 111.945C104.738 111.229 105.079 110.429 105.803 110.176Z" fill="white" fill-opacity="0.87"/>
<path d="M147.051 83.4799C131.982 83.4799 121.042 94.3444 121.042 109.293C121.042 123.569 132.578 135.191 146.796 135.191C157.693 135.191 166.207 129.212 170.762 118.389C170.762 118.389 171.996 116.326 171.571 115.863C171.273 115.526 170.336 115.61 170.336 115.61H162.035C162.035 115.61 161.354 115.61 160.971 115.778C160.631 115.947 160.418 116.789 160.418 116.789C157.778 122.432 152.713 125.632 146.626 125.632C138.75 125.632 132.876 120.705 131.428 113.168H170.336C170.336 113.168 171.443 113.294 171.911 112.873C172.465 112.368 172.38 110.725 172.38 110.725C172.337 94.6812 161.95 83.4799 147.051 83.4799ZM131.769 104.24C133.642 97.2078 139.048 92.9549 146.2 92.9549C153.947 92.9549 158.885 96.6604 161.269 104.24H131.769Z" fill="white" fill-opacity="0.87"/>
<path d="M255.645 83.3141C241.726 83.3141 230.402 94.9785 230.402 109.38C230.402 123.613 241.896 135.194 256.071 135.194C270.119 135.194 281.572 123.361 281.572 108.791C281.572 94.7257 269.949 83.3141 255.645 83.3141ZM256.071 125.593C247.26 125.593 240.576 118.56 240.576 109.254C240.576 98.9791 248.196 92.8309 255.56 92.8309C264.713 92.8309 271.396 99.6949 271.396 109.17C271.396 118.56 264.798 125.593 256.071 125.593Z" fill="white" fill-opacity="0.87"/>
<path d="M448.865 84.6156L435.498 117.757L422.727 84.6156H411.661L430.048 131.653L423.067 148.413H433.754L460.059 84.6156H448.865Z" fill="white" fill-opacity="0.87"/>
<path d="M226.696 70.1285H216.863C216.82 70.1285 216.82 70.1285 216.82 70.1706V88.9519C212.691 85.541 207.455 83.7721 201.495 83.7721C187.022 83.7721 176.082 94.7629 176.082 109.333C176.082 123.777 187.235 135.147 201.495 135.147C207.2 135.147 212.606 133.294 216.82 129.967V133.925C216.82 133.968 216.82 133.968 216.863 133.968H226.696C226.739 133.968 226.739 133.968 226.739 133.925L226.696 70.1285ZM201.836 125.672C194.131 125.672 186.171 119.44 186.171 108.996C186.171 100.237 193.11 93.0787 201.666 93.0787C208.434 93.0787 215.628 98.6794 216.82 107.27V111.986C215.671 119.398 209.03 125.672 201.836 125.672Z" fill="white" fill-opacity="0.87"/>
<path d="M408.555 84.7816H398.723C398.68 84.7816 398.68 84.7816 398.68 84.8238V88.9084C394.635 85.5397 389.483 83.7711 383.735 83.7711C368.964 83.7711 357.813 94.8459 357.813 109.584C357.813 124.155 368.751 135.146 383.225 135.146C389.1 135.146 394.592 133.25 398.68 129.924V133.924C398.68 133.966 398.68 133.966 398.723 133.966H408.555C408.597 133.966 408.597 133.966 408.597 133.924L408.555 84.7816C408.597 84.7816 408.597 84.7816 408.555 84.7816ZM383.395 125.671C374.839 125.671 367.9 118.554 367.9 109.753C367.9 99.3095 375.86 93.0773 383.565 93.0773C391.188 93.0773 398.17 100.11 398.68 108.069V110.048C398.17 119.438 390.546 125.671 383.395 125.671Z" fill="white" fill-opacity="0.87"/>
<path d="M348.995 72.8657C345.081 70.5917 339.886 70.1285 333.373 70.1285H326.647H321.456H320.219C319.198 70.1285 318.389 70.9286 318.389 71.9393V133.126C318.389 134.136 319.198 134.936 320.219 134.936H326.647C327.668 134.936 328.476 134.136 328.476 133.126V109.375H334.437C341.886 109.375 346.4 108.365 350.105 105.964C355.338 102.511 358.448 96.4052 358.448 89.5834C358.363 82.3826 355.04 76.4451 348.995 72.8657ZM335.245 99.2268H328.434V80.1508H334.735C345.506 80.1508 347.719 84.0249 347.719 89.8362C347.676 94.4682 346.229 99.2268 335.245 99.2268Z" fill="white" fill-opacity="0.87"/>
<path d="M312.348 124.238H306.43C306.43 124.238 306.43 124.238 306.387 124.238C302.473 122.554 301.877 117.332 301.835 114.51V113.163C301.835 113.037 301.835 112.658 301.835 112.658V96.74H309.837C310.816 96.74 311.624 95.9397 311.624 94.9714V88.6971C311.624 87.7284 310.816 86.9281 309.837 86.9281H301.835V80.4012C301.835 79.4327 301.026 78.6326 300.044 78.6326H293.705C292.722 78.6326 291.914 79.4327 291.914 80.4012V86.8863H284.124C283.146 86.8863 282.337 87.6862 282.337 88.6549V94.9292C282.337 95.8979 283.146 96.6978 284.124 96.6978H291.914V120.953C292.042 123.522 293.233 131.902 303.409 133.881C303.664 133.923 303.707 134.007 303.962 134.05H312.348C313.326 134.05 314.135 133.249 314.135 132.281V126.007C314.135 125.038 313.326 124.238 312.348 124.238Z" fill="white" fill-opacity="0.87"/>
<path d="M943.833 120.167C926.302 125.27 911.8 132.713 902.722 141.434L902.321 141.821C904.735 144.035 907.382 146.015 910.243 147.698L910.858 146.969C913.338 144.035 915.994 141.2 918.762 138.527C926.19 131.354 934.69 125.144 943.842 120.158L943.833 120.167Z" fill="url(#paint6_radial_3375_1121)"/>
<path d="M943.833 120.167C926.302 125.27 911.8 132.713 902.722 141.434L902.321 141.821C904.735 144.035 907.382 146.015 910.243 147.698L910.858 146.969C913.338 144.035 915.994 141.2 918.762 138.527C926.19 131.354 934.69 125.144 943.842 120.158L943.833 120.167Z" fill="#F5F5F5"/>
<path d="M887.987 112.607C888.686 121.706 892.172 130.049 897.642 136.835L897.894 136.592C903.514 131.219 910.83 126.332 919.657 122.075C927.392 118.34 936.274 115.136 945.846 112.607H887.987Z" fill="url(#paint7_radial_3375_1121)"/>
<path d="M887.987 112.607C888.686 121.706 892.172 130.049 897.642 136.835L897.894 136.592C903.514 131.219 910.83 126.332 919.657 122.075C927.392 118.34 936.274 115.136 945.846 112.607H887.987Z" fill="#F5F5F5"/>
<path d="M923.664 75.212C939.35 90.359 959.09 100.376 980.741 104.174C978.131 81.719 958.41 64.25 934.448 64.25C928.119 64.25 922.089 65.474 916.581 67.679C918.818 70.289 921.204 72.827 923.664 75.212Z" fill="url(#paint8_radial_3375_1121)"/>
<path d="M923.664 75.212C939.35 90.359 959.09 100.376 980.741 104.174C978.131 81.719 958.41 64.25 934.448 64.25C928.119 64.25 922.089 65.474 916.581 67.679C918.818 70.289 921.204 72.827 923.664 75.212Z" fill="#F5F5F5"/>
<path d="M902.722 77.066C911.8 85.796 926.302 93.23 943.833 98.342C934.681 93.347 926.181 87.146 918.753 79.973C915.994 77.309 913.338 74.474 910.849 71.531L910.234 70.802C907.373 72.485 904.726 74.465 902.321 76.679L902.722 77.066Z" fill="url(#paint9_radial_3375_1121)"/>
<path d="M902.722 77.066C911.8 85.796 926.302 93.23 943.833 98.342C934.681 93.347 926.181 87.146 918.753 79.973C915.994 77.309 913.338 74.474 910.849 71.531L910.234 70.802C907.373 72.485 904.726 74.465 902.321 76.679L902.722 77.066Z" fill="#F5F5F5"/>
<path d="M923.664 143.288C921.194 145.673 918.809 148.211 916.581 150.821C922.08 153.026 928.119 154.25 934.448 154.25C958.41 154.25 978.131 136.781 980.75 114.317C959.099 118.115 939.359 128.132 923.674 143.279L923.664 143.288Z" fill="url(#paint10_radial_3375_1121)"/>
<path d="M923.664 143.288C921.194 145.673 918.809 148.211 916.581 150.821C922.08 153.026 928.119 154.25 934.448 154.25C958.41 154.25 978.131 136.781 980.75 114.317C959.099 118.115 939.359 128.132 923.674 143.279L923.664 143.288Z" fill="#F5F5F5"/>
<path d="M919.657 96.425C910.83 92.168 903.514 87.281 897.894 81.908L897.642 81.665C892.172 88.451 888.686 96.794 887.987 105.893H945.837C936.265 103.364 927.392 100.16 919.647 96.416L919.657 96.425Z" fill="url(#paint11_radial_3375_1121)"/>
<path d="M919.657 96.425C910.83 92.168 903.514 87.281 897.894 81.908L897.642 81.665C892.172 88.451 888.686 96.794 887.987 105.893H945.837C936.265 103.364 927.392 100.16 919.647 96.416L919.657 96.425Z" fill="#F5F5F5"/>
</g>
<defs>
<filter id="filter0_i_3375_1121" x="119.75" y="218.75" width="137" height="98" filterUnits="userSpaceOnUse" color-interpolation-filters="sRGB">
<feFlood flood-opacity="0" result="BackgroundImageFix"/>
<feBlend mode="normal" in="SourceGraphic" in2="BackgroundImageFix" result="shape"/>
<feColorMatrix in="SourceAlpha" type="matrix" values="0 0 0 0 0 0 0 0 0 0 0 0 0 0 0 0 0 0 127 0" result="hardAlpha"/>
<feOffset dx="-1.5" dy="-1.5"/>
<feComposite in2="hardAlpha" operator="arithmetic" k2="-1" k3="1"/>
<feColorMatrix type="matrix" values="0 0 0 0 0 0 0 0 0 0 0 0 0 0 0 0 0 0 0.25 0"/>
<feBlend mode="normal" in2="shape" result="effect1_innerShadow_3375_1121"/>
</filter>
<radialGradient id="paint0_radial_3375_1121" cx="0" cy="0" r="1" gradientUnits="userSpaceOnUse" gradientTransform="translate(-20.25 636.5) rotate(60.0023) scale(1131.58 713.268)">
<stop stop-color="white" stop-opacity="0.3"/>
<stop offset="1" stop-color="white" stop-opacity="0"/>
</radialGradient>
<linearGradient id="paint1_linear_3375_1121" x1="4.57804" y1="1675.7" x2="634.566" y2="668.252" gradientUnits="userSpaceOnUse">
<stop stop-color="#FFCB67"/>
<stop offset="0.312213" stop-color="#ED5409"/>
<stop offset="0.636375" stop-color="#506179"/>
<stop offset="0.838535" stop-color="#214E81"/>
<stop offset="1" stop-color="#102D3C"/>
</linearGradient>
<linearGradient id="paint2_linear_3375_1121" x1="119.75" y1="218.75" x2="242.5" y2="316.75" gradientUnits="userSpaceOnUse">
<stop stop-color="#ABABAB"/>
<stop offset="0.3125" stop-color="white"/>
<stop offset="0.630208" stop-color="#BDBDBD"/>
<stop offset="1" stop-color="#5E5E5E"/>
</linearGradient>
<linearGradient id="paint3_linear_3375_1121" x1="124.75" y1="224.25" x2="247.5" y2="312.25" gradientUnits="userSpaceOnUse">
<stop stop-color="#7D7D7D"/>
<stop offset="0.494792" stop-color="white"/>
<stop offset="1" stop-color="#1C1C1C"/>
</linearGradient>
<linearGradient id="paint4_linear_3375_1121" x1="793.495" y1="583.546" x2="966.379" y2="519.023" gradientUnits="userSpaceOnUse">
<stop stop-color="#222357"/>
<stop offset="1" stop-color="#254AA5"/>
</linearGradient>
<linearGradient id="paint5_linear_3375_1121" x1="983.704" y1="584.851" x2="780.291" y2="513.981" gradientUnits="userSpaceOnUse">
<stop stop-color="white"/>
<stop offset="1" stop-color="#F5F5F5"/>
</linearGradient>
<radialGradient id="paint6_radial_3375_1121" cx="0" cy="0" r="1" gradientUnits="userSpaceOnUse" gradientTransform="translate(934.368 109.25) rotate(90) scale(45 46.3817)">
<stop stop-color="#1C294B"/>
<stop offset="0.317213" stop-color="#FF4433"/>
<stop offset="0.597213" stop-color="#FE9A4C"/>
<stop offset="1" stop-color="#E0E0E0"/>
</radialGradient>
<radialGradient id="paint7_radial_3375_1121" cx="0" cy="0" r="1" gradientUnits="userSpaceOnUse" gradientTransform="translate(934.368 109.25) rotate(90) scale(45 46.3817)">
<stop stop-color="#1C294B"/>
<stop offset="0.317213" stop-color="#FF4433"/>
<stop offset="0.597213" stop-color="#FE9A4C"/>
<stop offset="1" stop-color="#E0E0E0"/>
</radialGradient>
<radialGradient id="paint8_radial_3375_1121" cx="0" cy="0" r="1" gradientUnits="userSpaceOnUse" gradientTransform="translate(934.368 109.25) rotate(90) scale(45 46.3817)">
<stop stop-color="#1C294B"/>
<stop offset="0.317213" stop-color="#FF4433"/>
<stop offset="0.597213" stop-color="#FE9A4C"/>
<stop offset="1" stop-color="#E0E0E0"/>
</radialGradient>
<radialGradient id="paint9_radial_3375_1121" cx="0" cy="0" r="1" gradientUnits="userSpaceOnUse" gradientTransform="translate(934.368 109.25) rotate(90) scale(45 46.3817)">
<stop stop-color="#1C294B"/>
<stop offset="0.317213" stop-color="#FF4433"/>
<stop offset="0.597213" stop-color="#FE9A4C"/>
<stop offset="1" stop-color="#E0E0E0"/>
</radialGradient>
<radialGradient id="paint10_radial_3375_1121" cx="0" cy="0" r="1" gradientUnits="userSpaceOnUse" gradientTransform="translate(934.368 109.25) rotate(90) scale(45 46.3817)">
<stop stop-color="#1C294B"/>
<stop offset="0.317213" stop-color="#FF4433"/>
<stop offset="0.597213" stop-color="#FE9A4C"/>
<stop offset="1" stop-color="#E0E0E0"/>
</radialGradient>
<radialGradient id="paint11_radial_3375_1121" cx="0" cy="0" r="1" gradientUnits="userSpaceOnUse" gradientTransform="translate(934.368 109.25) rotate(90) scale(45 46.3817)">
<stop stop-color="#1C294B"/>
<stop offset="0.317213" stop-color="#FF4433"/>
<stop offset="0.597213" stop-color="#FE9A4C"/>
<stop offset="1" stop-color="#E0E0E0"/>
</radialGradient>
<clipPath id="clip0_3375_1121">
<rect width="1032" height="650.5" fill="white" transform="translate(0 0.5)"/>
</clipPath>
<clipPath id="clip1_3375_1121">
<rect width="206" height="66" fill="white" transform="translate(774.75 519.75)"/>
</clipPath>
</defs>
</svg>
