<svg width="421" height="265" viewBox="0 0 421 265" fill="none" xmlns="http://www.w3.org/2000/svg">
<g clip-path="url(#clip0_4031_1179)">
<g filter="url(#filter0_bii_4031_1179)">
<rect y="264.852" width="264.852" height="420.181" rx="15.2682" transform="rotate(-90 0 264.852)" fill="#F5F5F5" fill-opacity="0.5"/>
<rect y="264.852" width="264.852" height="420.181" rx="15.2682" transform="rotate(-90 0 264.852)" fill="url(#paint0_radial_4031_1179)"/>
</g>
<g filter="url(#filter1_i_4031_1179)">
<rect x="48.7563" y="88.8608" width="55.7798" height="39.9009" rx="7.12516" fill="url(#paint1_linear_4031_1179)"/>
</g>
<path d="M48.6921 102.671H67.66C68.861 98.9826 72.2377 91.3827 76.1373 90.4894C77.5855 90.9969 80.9693 92.8242 82.9191 96.0725M48.6921 115.461H67.66C67.66 121.796 73.3115 126.425 76.1373 127.947C80.8845 126.404 84.5439 118.98 85.7802 115.461H104.536M104.536 105.716H85.7802C84.9324 104.126 83.7456 100.458 85.7802 98.5088" stroke="url(#paint2_linear_4031_1179)" stroke-width="0.610728"/>
<path d="M122.451 107.285C123.13 108.506 124.08 111.519 122.451 113.799M126.93 104.943C127.947 106.877 129.373 111.824 126.93 116.14M130.899 102.5C132.223 105.113 134.075 111.926 130.899 118.278M135.174 100.567C136.871 103.654 139.246 111.906 135.174 120.212" stroke="#141416" stroke-width="2.23933" stroke-linecap="round" stroke-linejoin="round"/>
<path d="M36.3476 228.915V228.941C36.3476 230.132 35.4114 231.077 34.2199 231.077H34.1943C33.0028 231.077 32.0581 230.132 32.0581 228.941V228.915C32.0581 227.724 33.0028 226.787 34.1943 226.787H34.2199C35.4114 226.787 36.3476 227.724 36.3476 228.915ZM44.0414 228.915V228.941C44.0414 230.132 43.1052 231.077 41.9137 231.077H41.8882C40.6966 231.077 39.7519 230.132 39.7519 228.941V228.915C39.7519 227.724 40.6966 226.787 41.8882 226.787H41.9137C43.1052 226.787 44.0414 227.724 44.0414 228.915ZM51.7352 228.915V228.941C51.7352 230.132 50.799 231.077 49.6075 231.077H49.582C48.3904 231.077 47.4457 230.132 47.4457 228.941V228.915C47.4457 227.724 48.3904 226.787 49.582 226.787H49.6075C50.799 226.787 51.7352 227.724 51.7352 228.915ZM59.429 228.915V228.941C59.429 230.132 58.4928 231.077 57.3013 231.077H57.2758C56.0842 231.077 55.1395 230.132 55.1395 228.941V228.915C55.1395 227.724 56.0842 226.787 57.2758 226.787H57.3013C58.4928 226.787 59.429 227.724 59.429 228.915ZM73.7017 234.141C70.774 234.141 68.7484 232.685 68.7484 230.575V230.558C68.7484 228.966 69.9314 227.792 71.5825 227.468V227.417C70.1612 227.068 69.1994 226.038 69.1994 224.728V224.711C69.1994 222.813 71.0463 221.434 73.7017 221.434C76.3486 221.434 78.2039 222.813 78.2039 224.711V224.728C78.2039 226.038 77.2337 227.068 75.8209 227.417V227.468C77.4635 227.792 78.6465 228.966 78.6465 230.558V230.575C78.6465 232.685 76.6294 234.141 73.7017 234.141ZM73.7017 226.643C74.8592 226.643 75.6592 225.953 75.6592 224.966V224.949C75.6592 223.97 74.8506 223.289 73.7017 223.289C72.5527 223.289 71.7357 223.97 71.7357 224.949V224.966C71.7357 225.953 72.5442 226.643 73.7017 226.643ZM73.7017 232.268C75.0379 232.268 75.9826 231.485 75.9826 230.404V230.387C75.9826 229.298 75.0549 228.507 73.7017 228.507C72.3485 228.507 71.4123 229.298 71.4123 230.387V230.404C71.4123 231.485 72.357 232.268 73.7017 232.268ZM86.085 233.928V231.673H79.9742V229.528L84.902 221.647H88.5276V229.621H90.1446V231.673H88.5276V233.928H86.085ZM82.2125 229.69H86.136V223.502H86.0765L82.2125 229.621V229.69ZM97.3703 233.928V231.673H91.2596V229.528L96.1873 221.647H99.813V229.621H101.43V231.673H99.813V233.928H97.3703ZM93.4979 229.69H97.4214V223.502H97.3618L93.4979 229.621V229.69ZM103.268 233.928L108.554 223.74V223.689H102.307V221.647H111.09V223.715L105.966 233.928H103.268Z" fill="#141416"/>
<g clip-path="url(#clip1_4031_1179)">
<mask id="mask0_4031_1179" style="mask-type:luminance" maskUnits="userSpaceOnUse" x="315" y="211" width="85" height="28">
<path d="M358.817 220.035C358.769 223.755 362.176 225.83 364.742 227.064C367.379 228.33 368.265 229.142 368.255 230.275C368.235 232.008 366.151 232.772 364.201 232.802C360.8 232.854 358.822 231.896 357.25 231.171L356.024 236.829C357.602 237.547 360.523 238.172 363.552 238.2C370.663 238.2 375.315 234.736 375.34 229.366C375.368 222.55 365.787 222.173 365.852 219.127C365.875 218.203 366.768 217.217 368.725 216.967C369.694 216.84 372.369 216.743 375.4 218.121L376.59 212.646C374.96 212.06 372.864 211.499 370.255 211.499C363.562 211.499 358.855 215.01 358.817 220.035ZM388.026 211.971C386.728 211.971 385.633 212.718 385.145 213.865L374.988 237.797H382.093L383.507 233.942H392.19L393.01 237.797H399.273L393.808 211.971H388.026ZM389.02 218.948L391.07 228.646H385.455L389.02 218.948ZM350.202 211.971L344.601 237.797H351.372L356.97 211.971H350.202ZM340.186 211.971L333.138 229.55L330.288 214.603C329.953 212.934 328.632 211.971 327.165 211.971H315.644L315.483 212.721C317.848 213.227 320.535 214.044 322.163 214.918C323.16 215.452 323.444 215.919 323.771 217.188L329.17 237.797H336.326L347.296 211.971H340.186Z" fill="white"/>
</mask>
<g mask="url(#mask0_4031_1179)">
<path d="M306.709 214.688L389.266 184.686L408.048 235.012L325.491 265.014" fill="url(#paint3_linear_4031_1179)"/>
<path d="M306.709 214.688L389.266 184.686L408.048 235.012L325.491 265.014" fill="url(#paint4_linear_4031_1179)"/>
<path d="M306.709 214.688L389.266 184.686L408.048 235.012L325.491 265.014" fill="#141416" fill-opacity="0.9"/>
</g>
</g>
<path d="M43.0776 44.6549C45.9894 43.5918 47.9999 40.6086 47.9999 37.0251C47.9999 34.179 46.6307 31.453 44.4121 29.9099C42.523 28.6068 40.5298 28.3325 37.9127 28.3325H30.356L30.356 54.7362H34.4636V32.4302H37.2541C39.5419 32.4302 41.0498 32.4302 42.1764 33.4418C43.1989 34.3677 43.7016 35.5507 43.7016 37.0766C43.7016 39.5113 41.8818 41.1571 39.1952 41.1571H35.3475L43.7882 54.7362H48.6758L42.8176 45.3749C42.6443 45.0835 42.783 44.7577 43.0776 44.6549Z" fill="#141416" fill-opacity="0.87"/>
<path d="M59.872 33.7854C53.7365 33.7854 49.2822 38.2089 49.2822 44.2955C49.2822 50.1077 53.9792 54.8398 59.768 54.8398C64.205 54.8398 67.6714 52.4052 69.526 47.9989C69.526 47.9989 70.0285 47.1587 69.8553 46.9702C69.7339 46.833 69.3526 46.8673 69.3526 46.8673H65.9728C65.9728 46.8673 65.6957 46.8673 65.5396 46.9358C65.401 47.0044 65.3143 47.3474 65.3143 47.3474C64.2396 49.6448 62.1771 50.9478 59.6988 50.9478C56.4923 50.9478 54.1004 48.9419 53.5111 45.8729L69.3526 45.8729C69.3526 45.8729 69.8033 45.9243 69.9939 45.7528C70.2192 45.5471 70.1846 44.8784 70.1846 44.8784C70.1672 38.3461 65.9382 33.7854 59.872 33.7854ZM53.6499 42.238C54.4125 39.3748 56.6136 37.6432 59.5254 37.6432C62.6798 37.6432 64.6903 39.1519 65.6609 42.238L53.6499 42.238Z" fill="#141416" fill-opacity="0.87"/>
<path d="M104.086 33.7179C98.4189 33.7179 93.8086 38.4671 93.8086 44.3307C93.8086 50.1258 98.4882 54.8408 104.26 54.8408C109.979 54.8408 114.642 50.0229 114.642 44.0907C114.642 38.3642 109.91 33.7179 104.086 33.7179ZM104.26 50.9317C100.672 50.9317 97.9509 48.0684 97.9509 44.2794C97.9509 40.0959 101.053 37.5927 104.052 37.5927C107.778 37.5927 110.499 40.3874 110.499 44.245C110.499 48.0684 107.813 50.9317 104.26 50.9317Z" fill="#141416" fill-opacity="0.87"/>
<path d="M182.756 34.2478L177.314 47.7412L172.114 34.2478H167.608L175.095 53.3992L172.253 60.223H176.604L187.314 34.2478H182.756Z" fill="#141416" fill-opacity="0.87"/>
<path d="M92.2998 28.3494L88.2961 28.3494C88.2788 28.3494 88.2788 28.3494 88.2788 28.3666V36.0134C86.5976 34.6246 84.4658 33.9044 82.0392 33.9044C76.1464 33.9044 71.6921 38.3793 71.6921 44.3117C71.6921 50.1924 76.233 54.8216 82.0392 54.8216C84.3617 54.8216 86.5629 54.0673 88.2788 52.7128V54.3245C88.2788 54.3416 88.2788 54.3416 88.2961 54.3416L92.2998 54.3416C92.3172 54.3416 92.3172 54.3416 92.3172 54.3245L92.2998 28.3494ZM82.1779 50.964C79.0408 50.964 75.7998 48.4266 75.7998 44.1744C75.7998 40.6083 78.6249 37.6936 82.1087 37.6936C84.8644 37.6936 87.7935 39.9739 88.2788 43.4715V45.3918C87.8108 48.4094 85.107 50.964 82.1779 50.964Z" fill="#141416" fill-opacity="0.87"/>
<path d="M166.344 34.3154H162.34C162.323 34.3154 162.323 34.3154 162.323 34.3326V35.9956C160.676 34.6241 158.578 33.904 156.238 33.904C150.224 33.904 145.684 38.4131 145.684 44.4139C145.684 50.3463 150.138 54.8212 156.03 54.8212C158.423 54.8212 160.659 54.0496 162.323 52.6952V54.3239C162.323 54.3411 162.323 54.3411 162.34 54.3411L166.344 54.3411C166.361 54.3411 166.361 54.3411 166.361 54.3239L166.344 34.3154C166.361 34.3154 166.361 34.3154 166.344 34.3154ZM156.1 50.9634C152.616 50.9634 149.791 48.066 149.791 44.4826C149.791 40.2305 153.032 37.693 156.169 37.693C159.273 37.693 162.115 40.5563 162.323 43.7968V44.6026C162.115 48.426 159.011 50.9634 156.1 50.9634Z" fill="#141416" fill-opacity="0.87"/>
<path d="M142.094 29.4639C140.5 28.538 138.385 28.3494 135.733 28.3494H132.995H130.881H130.377C129.962 28.3494 129.633 28.6752 129.633 29.0867V53.9988C129.633 54.4102 129.962 54.736 130.377 54.736H132.995C133.41 54.736 133.74 54.4102 133.74 53.9988V44.3287H136.166C139.199 44.3287 141.037 43.9173 142.546 42.94C144.676 41.5341 145.942 39.048 145.942 36.2705C145.908 33.3387 144.555 30.9212 142.094 29.4639ZM136.495 40.1968H133.722V32.43H136.288C140.673 32.43 141.574 34.0074 141.574 36.3734C141.557 38.2594 140.968 40.1968 136.495 40.1968Z" fill="#141416" fill-opacity="0.87"/>
<path d="M127.173 50.3801H124.763C124.763 50.3801 124.763 50.3801 124.746 50.3801C123.152 49.6944 122.91 47.5684 122.893 46.4195V45.871C122.893 45.8196 122.893 45.6652 122.893 45.6652V39.1843H126.151C126.549 39.1843 126.878 38.8585 126.878 38.4642V35.9096C126.878 35.5152 126.549 35.1894 126.151 35.1894H122.893V32.5319C122.893 32.1376 122.563 31.8118 122.164 31.8118L119.582 31.8118C119.182 31.8118 118.853 32.1376 118.853 32.5319V35.1724H115.682C115.283 35.1724 114.954 35.498 114.954 35.8924V38.447C114.954 38.8414 115.283 39.1671 115.682 39.1671H118.853V49.0429C118.905 50.0886 119.39 53.5006 123.533 54.3064C123.637 54.3236 123.655 54.3578 123.759 54.375H127.173C127.571 54.375 127.9 54.0492 127.9 53.6549V51.1003C127.9 50.7059 127.571 50.3801 127.173 50.3801Z" fill="#141416" fill-opacity="0.87"/>
<path d="M384.283 48.7227C377.145 50.8004 371.241 53.8308 367.545 57.3816L367.382 57.5391C368.365 58.4406 369.442 59.2467 370.607 59.932L370.858 59.6351C371.867 58.4406 372.949 57.2863 374.076 56.198C377.1 53.2775 380.561 50.7491 384.287 48.719L384.283 48.7227Z" fill="#141416"/>
<path d="M361.545 45.6446C361.83 49.3493 363.249 52.7461 365.477 55.5091L365.579 55.4101C367.867 53.2225 370.846 51.2327 374.44 49.4995C377.589 47.9788 381.206 46.6743 385.103 45.6446H361.545Z" fill="#141416"/>
<path d="M376.072 30.4191C382.458 36.5863 390.495 40.6647 399.31 42.2111C398.248 33.0685 390.218 25.9559 380.462 25.9559C377.885 25.9559 375.43 26.4543 373.188 27.3521C374.098 28.4147 375.07 29.4481 376.072 30.4191Z" fill="#141416"/>
<path d="M367.545 31.174C371.241 34.7284 377.145 37.7552 384.283 39.8366C380.557 37.8028 377.096 35.2781 374.072 32.3576C372.949 31.2729 371.867 30.1187 370.854 28.9204L370.603 28.6236C369.438 29.3088 368.361 30.115 367.382 31.0164L367.545 31.174Z" fill="#141416"/>
<path d="M376.072 58.1364C375.066 59.1075 374.095 60.1408 373.188 61.2035C375.426 62.1012 377.885 62.5996 380.462 62.5996C390.218 62.5996 398.248 55.4871 399.314 46.3408C390.499 47.8872 382.462 51.9656 376.075 58.1327L376.072 58.1364Z" fill="#141416"/>
<path d="M374.44 39.056C370.846 37.3228 367.867 35.333 365.579 33.1454L365.477 33.0465C363.249 35.8094 361.83 39.2063 361.545 42.911H385.099C381.202 41.8813 377.589 40.5768 374.436 39.0524L374.44 39.056Z" fill="#141416"/>
</g>
<defs>
<filter id="filter0_bii_4031_1179" x="-50.894" y="-50.8939" width="521.969" height="366.64" filterUnits="userSpaceOnUse" color-interpolation-filters="sRGB">
<feFlood flood-opacity="0" result="BackgroundImageFix"/>
<feGaussianBlur in="BackgroundImageFix" stdDeviation="25.447"/>
<feComposite in2="SourceAlpha" operator="in" result="effect1_backgroundBlur_4031_1179"/>
<feBlend mode="normal" in="SourceGraphic" in2="effect1_backgroundBlur_4031_1179" result="shape"/>
<feColorMatrix in="SourceAlpha" type="matrix" values="0 0 0 0 0 0 0 0 0 0 0 0 0 0 0 0 0 0 127 0" result="hardAlpha"/>
<feOffset dx="-0.407152" dy="-0.407152"/>
<feGaussianBlur stdDeviation="0.305364"/>
<feComposite in2="hardAlpha" operator="arithmetic" k2="-1" k3="1"/>
<feColorMatrix type="matrix" values="0 0 0 0 0 0 0 0 0 0 0 0 0 0 0 0 0 0 0.36 0"/>
<feBlend mode="normal" in2="shape" result="effect2_innerShadow_4031_1179"/>
<feColorMatrix in="SourceAlpha" type="matrix" values="0 0 0 0 0 0 0 0 0 0 0 0 0 0 0 0 0 0 127 0" result="hardAlpha"/>
<feOffset dx="1.01788" dy="0.814304"/>
<feGaussianBlur stdDeviation="0.407152"/>
<feComposite in2="hardAlpha" operator="arithmetic" k2="-1" k3="1"/>
<feColorMatrix type="matrix" values="0 0 0 0 1 0 0 0 0 1 0 0 0 0 1 0 0 0 0.25 0"/>
<feBlend mode="normal" in2="effect2_innerShadow_4031_1179" result="effect3_innerShadow_4031_1179"/>
</filter>
<filter id="filter1_i_4031_1179" x="48.7563" y="88.8608" width="55.7798" height="39.9009" filterUnits="userSpaceOnUse" color-interpolation-filters="sRGB">
<feFlood flood-opacity="0" result="BackgroundImageFix"/>
<feBlend mode="normal" in="SourceGraphic" in2="BackgroundImageFix" result="shape"/>
<feColorMatrix in="SourceAlpha" type="matrix" values="0 0 0 0 0 0 0 0 0 0 0 0 0 0 0 0 0 0 127 0" result="hardAlpha"/>
<feOffset dx="-0.610728" dy="-0.610728"/>
<feComposite in2="hardAlpha" operator="arithmetic" k2="-1" k3="1"/>
<feColorMatrix type="matrix" values="0 0 0 0 0 0 0 0 0 0 0 0 0 0 0 0 0 0 0.25 0"/>
<feBlend mode="normal" in2="shape" result="effect1_innerShadow_4031_1179"/>
</filter>
<radialGradient id="paint0_radial_4031_1179" cx="0" cy="0" r="1" gradientUnits="userSpaceOnUse" gradientTransform="translate(-8.24481 258.949) rotate(60.0023) scale(460.725 290.408)">
<stop stop-color="white" stop-opacity="0.4"/>
<stop offset="1" stop-color="white" stop-opacity="0.3"/>
</radialGradient>
<linearGradient id="paint1_linear_4031_1179" x1="48.7563" y1="88.8608" x2="98.7342" y2="128.762" gradientUnits="userSpaceOnUse">
<stop stop-color="#ABABAB"/>
<stop offset="0.3125" stop-color="white"/>
<stop offset="0.630208" stop-color="#BDBDBD"/>
<stop offset="1" stop-color="#5E5E5E"/>
</linearGradient>
<linearGradient id="paint2_linear_4031_1179" x1="50.7921" y1="91.1001" x2="100.77" y2="126.929" gradientUnits="userSpaceOnUse">
<stop stop-color="#7D7D7D"/>
<stop offset="0.494792" stop-color="white"/>
<stop offset="1" stop-color="#1C1C1C"/>
</linearGradient>
<linearGradient id="paint3_linear_4031_1179" x1="323.073" y1="237.388" x2="393.463" y2="211.118" gradientUnits="userSpaceOnUse">
<stop stop-color="#222357"/>
<stop offset="1" stop-color="#254AA5"/>
</linearGradient>
<linearGradient id="paint4_linear_4031_1179" x1="400.517" y1="237.92" x2="317.697" y2="209.065" gradientUnits="userSpaceOnUse">
<stop stop-color="white"/>
<stop offset="1" stop-color="#F5F5F5"/>
</linearGradient>
<clipPath id="clip0_4031_1179">
<rect width="420.181" height="264.852" fill="white"/>
</clipPath>
<clipPath id="clip1_4031_1179">
<rect width="83.8733" height="26.872" fill="white" transform="translate(315.441 211.414)"/>
</clipPath>
</defs>
</svg>
