<svg width="421" height="265" viewBox="0 0 421 265" fill="none" xmlns="http://www.w3.org/2000/svg">
<g clip-path="url(#clip0_4012_1141)">
<g filter="url(#filter0_bii_4012_1141)">
<rect x="0.368652" y="264.852" width="264.852" height="420.181" rx="15.2682" transform="rotate(-90 0.368652 264.852)" fill="#070707" fill-opacity="0.7"/>
<rect x="0.368652" y="264.852" width="264.852" height="420.181" rx="15.2682" transform="rotate(-90 0.368652 264.852)" fill="url(#paint0_radial_4012_1141)"/>
<rect x="0.368652" y="264.852" width="264.852" height="420.181" rx="15.2682" transform="rotate(-90 0.368652 264.852)" fill="url(#paint1_linear_4012_1141)"/>
</g>
<g filter="url(#filter1_i_4012_1141)">
<rect x="49.125" y="88.8608" width="55.7798" height="39.9009" rx="7.12516" fill="url(#paint2_linear_4012_1141)"/>
</g>
<path d="M49.0608 102.671H68.0287C69.2296 98.9826 72.6064 91.3827 76.5059 90.4894C77.9541 90.997 81.338 92.8242 83.2877 96.0726M49.0608 115.461H68.0287C68.0287 121.796 73.6802 126.425 76.5059 127.947C81.2532 126.404 84.9126 118.98 86.1488 115.461H104.905M104.905 105.716H86.1488C85.3011 104.126 84.1143 100.458 86.1488 98.5089" stroke="url(#paint3_linear_4012_1141)" stroke-width="0.610728"/>
<path d="M122.82 107.285C123.498 108.506 124.448 111.519 122.82 113.799M127.298 104.943C128.316 106.877 129.741 111.824 127.298 116.14M131.268 102.5C132.591 105.113 134.444 111.926 131.268 118.278M135.543 100.566C137.24 103.654 139.615 111.906 135.543 120.212" stroke="white" stroke-width="2.23933" stroke-linecap="round" stroke-linejoin="round"/>
<path d="M36.7162 228.915V228.941C36.7162 230.132 35.7801 231.077 34.5885 231.077H34.563C33.3715 231.077 32.4268 230.132 32.4268 228.941V228.915C32.4268 227.724 33.3715 226.787 34.563 226.787H34.5885C35.7801 226.787 36.7162 227.724 36.7162 228.915ZM44.41 228.915V228.941C44.41 230.132 43.4739 231.077 42.2823 231.077H42.2568C41.0653 231.077 40.1206 230.132 40.1206 228.941V228.915C40.1206 227.724 41.0653 226.787 42.2568 226.787H42.2823C43.4739 226.787 44.41 227.724 44.41 228.915ZM52.1038 228.915V228.941C52.1038 230.132 51.1677 231.077 49.9761 231.077H49.9506C48.7591 231.077 47.8144 230.132 47.8144 228.941V228.915C47.8144 227.724 48.7591 226.787 49.9506 226.787H49.9761C51.1677 226.787 52.1038 227.724 52.1038 228.915ZM59.7977 228.915V228.941C59.7977 230.132 58.8615 231.077 57.6699 231.077H57.6444C56.4529 231.077 55.5082 230.132 55.5082 228.941V228.915C55.5082 227.724 56.4529 226.787 57.6444 226.787H57.6699C58.8615 226.787 59.7977 227.724 59.7977 228.915ZM74.0703 234.141C71.1426 234.141 69.117 232.685 69.117 230.575V230.558C69.117 228.966 70.3 227.792 71.9511 227.468V227.417C70.5298 227.068 69.5681 226.038 69.5681 224.728V224.711C69.5681 222.813 71.415 221.434 74.0703 221.434C76.7172 221.434 78.5726 222.813 78.5726 224.711V224.728C78.5726 226.038 77.6023 227.068 76.1895 227.417V227.468C77.8321 227.792 79.0151 228.966 79.0151 230.558V230.575C79.0151 232.685 76.9981 234.141 74.0703 234.141ZM74.0703 226.643C75.2278 226.643 76.0278 225.953 76.0278 224.966V224.949C76.0278 223.97 75.2193 223.289 74.0703 223.289C72.9214 223.289 72.1043 223.97 72.1043 224.949V224.966C72.1043 225.953 72.9129 226.643 74.0703 226.643ZM74.0703 232.268C75.4065 232.268 76.3512 231.485 76.3512 230.404V230.387C76.3512 229.298 75.4236 228.507 74.0703 228.507C72.7171 228.507 71.7809 229.298 71.7809 230.387V230.404C71.7809 231.485 72.7256 232.268 74.0703 232.268ZM86.4536 233.928V231.673H80.3428V229.528L85.2706 221.647H88.8962V229.621H90.5133V231.673H88.8962V233.928H86.4536ZM82.5812 229.69H86.5047V223.502H86.4451L82.5812 229.621V229.69ZM97.739 233.928V231.673H91.6282V229.528L96.556 221.647H100.182V229.621H101.799V231.673H100.182V233.928H97.739ZM93.8666 229.69H97.7901V223.502H97.7305L93.8666 229.621V229.69ZM103.637 233.928L108.922 223.74V223.689H102.675V221.647H111.458V223.715L106.335 233.928H103.637Z" fill="white"/>
<g clip-path="url(#clip1_4012_1141)">
<mask id="mask0_4012_1141" style="mask-type:luminance" maskUnits="userSpaceOnUse" x="315" y="211" width="85" height="28">
<path d="M359.186 220.035C359.138 223.755 362.545 225.83 365.111 227.064C367.748 228.33 368.634 229.142 368.623 230.275C368.603 232.008 366.52 232.772 364.57 232.802C361.168 232.854 359.191 231.896 357.618 231.171L356.393 236.829C357.971 237.547 360.892 238.172 363.921 238.2C371.031 238.2 375.684 234.736 375.709 229.366C375.736 222.55 366.155 222.173 366.221 219.127C366.243 218.203 367.136 217.217 369.094 216.967C370.063 216.84 372.737 216.743 375.769 218.121L376.959 212.646C375.329 212.06 373.233 211.499 370.624 211.499C363.931 211.499 359.224 215.01 359.186 220.035ZM388.395 211.971C387.096 211.971 386.002 212.718 385.514 213.865L375.356 237.797H382.462L383.876 233.942H392.559L393.379 237.797H399.641L394.177 211.971H388.395ZM389.388 218.948L391.439 228.646H385.823L389.388 218.948ZM350.571 211.971L344.97 237.797H351.741L357.339 211.971H350.571ZM340.554 211.971L333.507 229.55L330.656 214.603C330.322 212.934 329.001 211.971 327.534 211.971H316.013L315.852 212.721C318.217 213.227 320.904 214.044 322.532 214.918C323.528 215.452 323.813 215.919 324.14 217.188L329.539 237.797H336.695L347.665 211.971H340.554Z" fill="white"/>
</mask>
<g mask="url(#mask0_4012_1141)">
<path d="M307.077 214.688L389.635 184.686L408.416 235.012L325.86 265.014" fill="url(#paint4_linear_4012_1141)"/>
<path d="M307.077 214.688L389.635 184.686L408.416 235.012L325.86 265.014" fill="url(#paint5_linear_4012_1141)"/>
</g>
</g>
<path d="M43.4463 44.6548C46.3581 43.5918 48.3686 40.6085 48.3686 37.0251C48.3686 34.179 46.9993 31.4529 44.7808 29.9099C42.8917 28.6068 40.8985 28.3325 38.2813 28.3325H30.7246L30.7246 54.7362H34.8323V32.4302H37.6228C39.9106 32.4302 41.4184 32.4302 42.545 33.4417C43.5676 34.3677 44.0702 35.5507 44.0702 37.0766C44.0702 39.5113 42.2504 41.1571 39.5638 41.1571H35.7162L44.1568 54.7362H49.0445L43.1863 45.3749C43.0129 45.0834 43.1516 44.7576 43.4463 44.6548Z" fill="white" fill-opacity="0.87"/>
<path d="M60.2406 33.7854C54.1051 33.7854 49.6509 38.2089 49.6509 44.2955C49.6509 50.1077 54.3478 54.8398 60.1367 54.8398C64.5736 54.8398 68.04 52.4052 69.8946 47.9989C69.8946 47.9989 70.3972 47.1587 70.2239 46.9702C70.1025 46.833 69.7213 46.8673 69.7213 46.8673H66.3415C66.3415 46.8673 66.0643 46.8673 65.9083 46.9358C65.7697 47.0044 65.6829 47.3474 65.6829 47.3474C64.6083 49.6448 62.5458 50.9478 60.0674 50.9478C56.861 50.9478 54.4691 48.9419 53.8798 45.8729L69.7213 45.8729C69.7213 45.8729 70.172 45.9243 70.3625 45.7528C70.5879 45.5471 70.5532 44.8784 70.5532 44.8784C70.5359 38.3461 66.3068 33.7854 60.2406 33.7854ZM54.0185 42.238C54.7812 39.3748 56.9823 37.6432 59.894 37.6432C63.0485 37.6432 65.059 39.1519 66.0295 42.238L54.0185 42.238Z" fill="white" fill-opacity="0.87"/>
<path d="M104.455 33.7179C98.7876 33.7179 94.1772 38.4671 94.1772 44.3307C94.1772 50.1258 98.8569 54.8408 104.628 54.8408C110.348 54.8408 115.011 50.0229 115.011 44.0907C115.011 38.3642 110.279 33.7179 104.455 33.7179ZM104.628 50.9317C101.041 50.9317 98.3195 48.0684 98.3195 44.2794C98.3195 40.0959 101.422 37.5927 104.42 37.5927C108.147 37.5927 110.868 40.3874 110.868 44.245C110.868 48.0684 108.181 50.9317 104.628 50.9317Z" fill="white" fill-opacity="0.87"/>
<path d="M183.125 34.2478L177.682 47.7413L172.483 34.2478H167.977L175.464 53.3992L172.621 60.223H176.972L187.682 34.2478H183.125Z" fill="white" fill-opacity="0.87"/>
<path d="M92.6685 28.3494L88.6648 28.3494C88.6475 28.3494 88.6475 28.3494 88.6475 28.3665V36.0134C86.9662 34.6246 84.8344 33.9044 82.4079 33.9044C76.515 33.9044 72.0608 38.3793 72.0608 44.3117C72.0608 50.1924 76.6017 54.8216 82.4079 54.8216C84.7304 54.8216 86.9316 54.0673 88.6475 52.7128V54.3244C88.6475 54.3416 88.6475 54.3416 88.6648 54.3416L92.6685 54.3416C92.6858 54.3416 92.6858 54.3416 92.6858 54.3244L92.6685 28.3494ZM82.5466 50.964C79.4095 50.964 76.1684 48.4265 76.1684 44.1744C76.1684 40.6082 78.9936 37.6936 82.4773 37.6936C85.233 37.6936 88.1621 39.9739 88.6475 43.4715V45.3918C88.1794 48.4094 85.4757 50.964 82.5466 50.964Z" fill="white" fill-opacity="0.87"/>
<path d="M166.712 34.3155H162.709C162.692 34.3155 162.692 34.3155 162.692 34.3326V35.9957C161.045 34.6241 158.947 33.904 156.607 33.904C150.593 33.904 146.053 38.4131 146.053 44.4139C146.053 50.3463 150.506 54.8212 156.399 54.8212C158.791 54.8212 161.027 54.0496 162.692 52.6952V54.3239C162.692 54.3411 162.692 54.3411 162.709 54.3411L166.712 54.3411C166.73 54.3411 166.73 54.3411 166.73 54.3239L166.712 34.3155C166.73 34.3155 166.73 34.3155 166.712 34.3155ZM156.468 50.9635C152.985 50.9635 150.16 48.066 150.16 44.4827C150.16 40.2305 153.401 37.6931 156.538 37.6931C159.641 37.6931 162.484 40.5563 162.692 43.7968V44.6026C162.484 48.426 159.38 50.9635 156.468 50.9635Z" fill="white" fill-opacity="0.87"/>
<path d="M142.462 29.4639C140.869 28.538 138.754 28.3494 136.102 28.3494H133.363H131.25H130.746C130.33 28.3494 130.001 28.6752 130.001 29.0867V53.9988C130.001 54.4102 130.33 54.736 130.746 54.736H133.363C133.779 54.736 134.108 54.4102 134.108 53.9988V44.3287H136.535C139.568 44.3287 141.406 43.9173 142.914 42.94C145.045 41.5341 146.311 39.048 146.311 36.2705C146.276 33.3387 144.924 30.9212 142.462 29.4639ZM136.864 40.1968H134.091V32.43H136.656C141.042 32.43 141.943 34.0074 141.943 36.3734C141.925 38.2594 141.336 40.1968 136.864 40.1968Z" fill="white" fill-opacity="0.87"/>
<path d="M127.541 50.3801H125.132C125.132 50.3801 125.132 50.3801 125.115 50.3801C123.521 49.6944 123.278 47.5684 123.261 46.4195V45.871C123.261 45.8196 123.261 45.6652 123.261 45.6652V39.1843H126.519C126.918 39.1843 127.247 38.8585 127.247 38.4642V35.9096C127.247 35.5152 126.918 35.1894 126.519 35.1894H123.261V32.5319C123.261 32.1376 122.932 31.8118 122.532 31.8118L119.951 31.8118C119.551 31.8118 119.222 32.1376 119.222 32.5319V35.1724H116.05C115.652 35.1724 115.323 35.498 115.323 35.8924V38.447C115.323 38.8414 115.652 39.1671 116.05 39.1671H119.222V49.0429C119.274 50.0886 119.759 53.5006 123.902 54.3064C124.006 54.3236 124.023 54.3578 124.127 54.375H127.541C127.94 54.375 128.269 54.0492 128.269 53.6549V51.1003C128.269 50.7059 127.94 50.3801 127.541 50.3801Z" fill="white" fill-opacity="0.87"/>
<path d="M384.652 48.7226C377.514 50.8003 371.61 53.8308 367.914 57.3815L367.75 57.5391C368.733 58.4405 369.811 59.2467 370.976 59.9319L371.226 59.6351C372.236 58.4405 373.317 57.2862 374.444 56.1979C377.469 53.2774 380.929 50.749 384.656 48.719L384.652 48.7226Z" fill="url(#paint6_radial_4012_1141)"/>
<path d="M384.652 48.7226C377.514 50.8003 371.61 53.8308 367.914 57.3815L367.75 57.5391C368.733 58.4405 369.811 59.2467 370.976 59.9319L371.226 59.6351C372.236 58.4405 373.317 57.2862 374.444 56.1979C377.469 53.2774 380.929 50.749 384.656 48.719L384.652 48.7226Z" fill="#F5F5F5"/>
<path d="M361.914 45.6445C362.199 49.3492 363.618 52.7461 365.845 55.509L365.948 55.4101C368.236 53.2225 371.215 51.2327 374.808 49.4995C377.958 47.9788 381.574 46.6742 385.472 45.6445H361.914Z" fill="url(#paint7_radial_4012_1141)"/>
<path d="M361.914 45.6445C362.199 49.3492 363.618 52.7461 365.845 55.509L365.948 55.4101C368.236 53.2225 371.215 51.2327 374.808 49.4995C377.958 47.9788 381.574 46.6742 385.472 45.6445H361.914Z" fill="#F5F5F5"/>
<path d="M376.44 30.4191C382.827 36.5862 390.864 40.6647 399.679 42.211C398.617 33.0684 390.587 25.9559 380.831 25.9559C378.254 25.9559 375.799 26.4543 373.556 27.352C374.467 28.4147 375.438 29.448 376.44 30.4191Z" fill="url(#paint8_radial_4012_1141)"/>
<path d="M376.44 30.4191C382.827 36.5862 390.864 40.6647 399.679 42.211C398.617 33.0684 390.587 25.9559 380.831 25.9559C378.254 25.9559 375.799 26.4543 373.556 27.352C374.467 28.4147 375.438 29.448 376.44 30.4191Z" fill="#F5F5F5"/>
<path d="M367.914 31.174C371.61 34.7284 377.514 37.7552 384.652 39.8365C380.926 37.8028 377.465 35.2781 374.44 32.3576C373.317 31.2729 372.236 30.1186 371.222 28.9204L370.972 28.6236C369.807 29.3088 368.729 30.115 367.75 31.0164L367.914 31.174Z" fill="url(#paint9_radial_4012_1141)"/>
<path d="M367.914 31.174C371.61 34.7284 377.514 37.7552 384.652 39.8365C380.926 37.8028 377.465 35.2781 374.44 32.3576C373.317 31.2729 372.236 30.1186 371.222 28.9204L370.972 28.6236C369.807 29.3088 368.729 30.115 367.75 31.0164L367.914 31.174Z" fill="#F5F5F5"/>
<path d="M376.44 58.1364C375.435 59.1074 374.463 60.1408 373.556 61.2034C375.795 62.1012 378.254 62.5996 380.831 62.5996C390.587 62.5996 398.617 55.487 399.683 46.3408C390.868 47.8871 382.831 51.9656 376.444 58.1327L376.44 58.1364Z" fill="url(#paint10_radial_4012_1141)"/>
<path d="M376.44 58.1364C375.435 59.1074 374.463 60.1408 373.556 61.2034C375.795 62.1012 378.254 62.5996 380.831 62.5996C390.587 62.5996 398.617 55.487 399.683 46.3408C390.868 47.8871 382.831 51.9656 376.444 58.1327L376.44 58.1364Z" fill="#F5F5F5"/>
<path d="M374.808 39.056C371.215 37.3228 368.236 35.333 365.948 33.1454L365.845 33.0464C363.618 35.8094 362.199 39.2062 361.914 42.9109H385.468C381.571 41.8812 377.958 40.5767 374.805 39.0523L374.808 39.056Z" fill="url(#paint11_radial_4012_1141)"/>
<path d="M374.808 39.056C371.215 37.3228 368.236 35.333 365.948 33.1454L365.845 33.0464C363.618 35.8094 362.199 39.2062 361.914 42.9109H385.468C381.571 41.8812 377.958 40.5767 374.805 39.0523L374.808 39.056Z" fill="#F5F5F5"/>
</g>
<defs>
<filter id="filter0_bii_4012_1141" x="-50.5253" y="-50.8939" width="521.969" height="366.64" filterUnits="userSpaceOnUse" color-interpolation-filters="sRGB">
<feFlood flood-opacity="0" result="BackgroundImageFix"/>
<feGaussianBlur in="BackgroundImageFix" stdDeviation="25.447"/>
<feComposite in2="SourceAlpha" operator="in" result="effect1_backgroundBlur_4012_1141"/>
<feBlend mode="normal" in="SourceGraphic" in2="effect1_backgroundBlur_4012_1141" result="shape"/>
<feColorMatrix in="SourceAlpha" type="matrix" values="0 0 0 0 0 0 0 0 0 0 0 0 0 0 0 0 0 0 127 0" result="hardAlpha"/>
<feOffset dx="-0.407152" dy="-0.407152"/>
<feGaussianBlur stdDeviation="0.305364"/>
<feComposite in2="hardAlpha" operator="arithmetic" k2="-1" k3="1"/>
<feColorMatrix type="matrix" values="0 0 0 0 0 0 0 0 0 0 0 0 0 0 0 0 0 0 0.36 0"/>
<feBlend mode="normal" in2="shape" result="effect2_innerShadow_4012_1141"/>
<feColorMatrix in="SourceAlpha" type="matrix" values="0 0 0 0 0 0 0 0 0 0 0 0 0 0 0 0 0 0 127 0" result="hardAlpha"/>
<feOffset dx="1.01788" dy="0.814304"/>
<feGaussianBlur stdDeviation="0.407152"/>
<feComposite in2="hardAlpha" operator="arithmetic" k2="-1" k3="1"/>
<feColorMatrix type="matrix" values="0 0 0 0 1 0 0 0 0 1 0 0 0 0 1 0 0 0 0.25 0"/>
<feBlend mode="normal" in2="effect2_innerShadow_4012_1141" result="effect3_innerShadow_4012_1141"/>
</filter>
<filter id="filter1_i_4012_1141" x="49.125" y="88.8608" width="55.7798" height="39.9009" filterUnits="userSpaceOnUse" color-interpolation-filters="sRGB">
<feFlood flood-opacity="0" result="BackgroundImageFix"/>
<feBlend mode="normal" in="SourceGraphic" in2="BackgroundImageFix" result="shape"/>
<feColorMatrix in="SourceAlpha" type="matrix" values="0 0 0 0 0 0 0 0 0 0 0 0 0 0 0 0 0 0 127 0" result="hardAlpha"/>
<feOffset dx="-0.610728" dy="-0.610728"/>
<feComposite in2="hardAlpha" operator="arithmetic" k2="-1" k3="1"/>
<feColorMatrix type="matrix" values="0 0 0 0 0 0 0 0 0 0 0 0 0 0 0 0 0 0 0.25 0"/>
<feBlend mode="normal" in2="shape" result="effect1_innerShadow_4012_1141"/>
</filter>
<radialGradient id="paint0_radial_4012_1141" cx="0" cy="0" r="1" gradientUnits="userSpaceOnUse" gradientTransform="translate(-7.87616 258.949) rotate(60.0023) scale(460.725 290.408)">
<stop stop-color="white" stop-opacity="0.3"/>
<stop offset="1" stop-color="white" stop-opacity="0"/>
</radialGradient>
<linearGradient id="paint1_linear_4012_1141" x1="2.23261" y1="682.062" x2="258.733" y2="271.876" gradientUnits="userSpaceOnUse">
<stop stop-color="#FFCB67"/>
<stop offset="0.312213" stop-color="#ED5409"/>
<stop offset="0.636375" stop-color="#506179"/>
<stop offset="0.838535" stop-color="#214E81"/>
<stop offset="1" stop-color="#102D3C"/>
</linearGradient>
<linearGradient id="paint2_linear_4012_1141" x1="49.125" y1="88.8608" x2="99.1029" y2="128.762" gradientUnits="userSpaceOnUse">
<stop stop-color="#ABABAB"/>
<stop offset="0.3125" stop-color="white"/>
<stop offset="0.630208" stop-color="#BDBDBD"/>
<stop offset="1" stop-color="#5E5E5E"/>
</linearGradient>
<linearGradient id="paint3_linear_4012_1141" x1="51.1607" y1="91.1001" x2="101.139" y2="126.929" gradientUnits="userSpaceOnUse">
<stop stop-color="#7D7D7D"/>
<stop offset="0.494792" stop-color="white"/>
<stop offset="1" stop-color="#1C1C1C"/>
</linearGradient>
<linearGradient id="paint4_linear_4012_1141" x1="323.442" y1="237.388" x2="393.832" y2="211.118" gradientUnits="userSpaceOnUse">
<stop stop-color="#222357"/>
<stop offset="1" stop-color="#254AA5"/>
</linearGradient>
<linearGradient id="paint5_linear_4012_1141" x1="400.885" y1="237.92" x2="318.066" y2="209.065" gradientUnits="userSpaceOnUse">
<stop stop-color="white"/>
<stop offset="1" stop-color="#F5F5F5"/>
</linearGradient>
<radialGradient id="paint6_radial_4012_1141" cx="0" cy="0" r="1" gradientUnits="userSpaceOnUse" gradientTransform="translate(380.798 44.2777) rotate(90) scale(18.3218 18.8844)">
<stop stop-color="#1C294B"/>
<stop offset="0.317213" stop-color="#FF4433"/>
<stop offset="0.597213" stop-color="#FE9A4C"/>
<stop offset="1" stop-color="#E0E0E0"/>
</radialGradient>
<radialGradient id="paint7_radial_4012_1141" cx="0" cy="0" r="1" gradientUnits="userSpaceOnUse" gradientTransform="translate(380.798 44.2777) rotate(90) scale(18.3218 18.8844)">
<stop stop-color="#1C294B"/>
<stop offset="0.317213" stop-color="#FF4433"/>
<stop offset="0.597213" stop-color="#FE9A4C"/>
<stop offset="1" stop-color="#E0E0E0"/>
</radialGradient>
<radialGradient id="paint8_radial_4012_1141" cx="0" cy="0" r="1" gradientUnits="userSpaceOnUse" gradientTransform="translate(380.798 44.2777) rotate(90) scale(18.3218 18.8844)">
<stop stop-color="#1C294B"/>
<stop offset="0.317213" stop-color="#FF4433"/>
<stop offset="0.597213" stop-color="#FE9A4C"/>
<stop offset="1" stop-color="#E0E0E0"/>
</radialGradient>
<radialGradient id="paint9_radial_4012_1141" cx="0" cy="0" r="1" gradientUnits="userSpaceOnUse" gradientTransform="translate(380.798 44.2777) rotate(90) scale(18.3218 18.8844)">
<stop stop-color="#1C294B"/>
<stop offset="0.317213" stop-color="#FF4433"/>
<stop offset="0.597213" stop-color="#FE9A4C"/>
<stop offset="1" stop-color="#E0E0E0"/>
</radialGradient>
<radialGradient id="paint10_radial_4012_1141" cx="0" cy="0" r="1" gradientUnits="userSpaceOnUse" gradientTransform="translate(380.798 44.2777) rotate(90) scale(18.3218 18.8844)">
<stop stop-color="#1C294B"/>
<stop offset="0.317213" stop-color="#FF4433"/>
<stop offset="0.597213" stop-color="#FE9A4C"/>
<stop offset="1" stop-color="#E0E0E0"/>
</radialGradient>
<radialGradient id="paint11_radial_4012_1141" cx="0" cy="0" r="1" gradientUnits="userSpaceOnUse" gradientTransform="translate(380.798 44.2777) rotate(90) scale(18.3218 18.8844)">
<stop stop-color="#1C294B"/>
<stop offset="0.317213" stop-color="#FF4433"/>
<stop offset="0.597213" stop-color="#FE9A4C"/>
<stop offset="1" stop-color="#E0E0E0"/>
</radialGradient>
<clipPath id="clip0_4012_1141">
<rect width="420.181" height="264.852" fill="white" transform="translate(0.368652)"/>
</clipPath>
<clipPath id="clip1_4012_1141">
<rect width="83.8733" height="26.872" fill="white" transform="translate(315.81 211.414)"/>
</clipPath>
</defs>
</svg>
