<svg width="64" height="25" viewBox="0 0 64 25" fill="none" xmlns="http://www.w3.org/2000/svg">
<g clip-path="url(#clip0_4098_1220)">
<mask id="mask0_4098_1220" style="mask-type:luminance" maskUnits="userSpaceOnUse" x="0" y="0" width="64" height="25">
<path d="M64 0.5H0V24.5H64V0.5Z" fill="white"/>
</mask>
<g mask="url(#mask0_4098_1220)">
<path d="M29.8769 12.1723V19.2601H27.5312V1.78638H33.7536C35.2597 1.76298 36.7164 2.301 37.7782 3.30684C39.9263 5.22497 40.0499 8.42965 38.0252 10.4647C37.9511 10.5349 37.8769 10.6285 37.7782 10.6987C36.6917 11.6811 35.2597 12.2191 33.7536 12.1957L29.8769 12.1723ZM29.8769 3.93842V10.0203H33.8029C35.5806 10.0437 37.0621 8.68696 37.0621 7.00275C37.0621 7.00275 37.0621 7.00275 37.0621 6.97936C37.0621 6.18404 36.7164 5.41211 36.1238 4.8507C35.5313 4.24252 34.6671 3.89164 33.8029 3.91503C33.8029 3.93842 29.8769 3.93842 29.8769 3.93842ZM45.6054 6.90918C47.1116 6.83901 48.5931 7.30684 49.7289 8.24252C50.7659 9.20158 51.3091 10.5349 51.2351 11.8916V19.2601H48.988V17.5992H48.8894C48.0746 18.8858 46.593 19.6577 45.0127 19.6343C43.7535 19.6811 42.4943 19.2601 41.556 18.4647C40.6425 17.7396 40.1485 16.6636 40.1485 15.5408C40.0992 14.3946 40.6425 13.2951 41.6054 12.5934C42.7412 11.8215 44.1238 11.4238 45.5312 11.494C46.7164 11.4472 47.9017 11.7045 48.9635 12.2191V11.7045C48.9635 10.9326 48.6178 10.2074 48.0005 9.7162C47.3832 9.17819 46.5684 8.8741 45.7289 8.89749C44.4696 8.8741 43.2843 9.48228 42.6177 10.4881L40.5436 9.24836C41.6794 7.68111 43.6054 6.79222 45.6054 6.90918ZM42.5683 15.5875C42.5683 16.1723 42.8646 16.7104 43.3584 17.0612C43.8769 17.4589 44.5189 17.646 45.1856 17.646C46.1732 17.646 47.1362 17.2718 47.8275 16.5934C48.5683 15.9618 48.988 15.0729 48.988 14.1373C48.0991 13.5291 47.0127 13.2484 45.9263 13.3185C45.0868 13.2951 44.2473 13.5291 43.5312 13.9735C42.9388 14.301 42.593 14.9092 42.5683 15.5875ZM64.0004 7.28345L56.1732 24.4998H53.7536L56.6671 18.4881L51.4819 7.28345H54.0499L57.7782 15.8682H57.8275L61.4325 7.28345H64.0004Z" fill="#141416"/>
<path d="M20.5186 10.7454C20.5186 10.0436 20.4445 9.34189 20.3211 8.64014H10.4692V12.4764H16.1483C15.926 13.7396 15.1606 14.8624 14.0495 15.5875V18.0904H17.4075C19.4816 16.1723 20.6174 13.5056 20.5186 10.7454Z" fill="#4285F4"/>
<path d="M14.0496 15.611C11.1113 17.4121 7.1854 16.6168 5.28417 13.8332C4.98787 13.3888 4.74096 12.9209 4.59281 12.4297H1.11133V15.0028C2.86441 18.3712 6.49404 20.5233 10.4694 20.5233C13.0373 20.5934 15.5064 19.7279 17.4076 18.0905L14.0496 15.611Z" fill="#34A853"/>
<path d="M4.24691 10.5351C4.24691 9.88016 4.37037 9.24858 4.5679 8.617V6.02051H1.11111C-0.37037 8.85092 -0.37037 12.1959 1.11111 15.0264L4.59259 12.4533C4.37037 11.8217 4.2716 11.1901 4.24691 10.5351Z" fill="#FABB05"/>
<path d="M10.4694 4.47655C11.9755 4.45316 13.4076 4.99117 14.494 5.97362L17.4817 3.11982C15.6052 1.41222 13.0866 0.476548 10.4694 0.49994C6.49404 0.49994 2.86441 2.65199 1.11133 6.02041L4.59281 8.59351C5.40762 6.16076 7.778 4.49994 10.4694 4.47655Z" fill="#E94235"/>
</g>
</g>
<defs>
<clipPath id="clip0_4098_1220">
<rect width="64" height="24" fill="white" transform="translate(0 0.5)"/>
</clipPath>
</defs>
</svg>
