<svg width="880" height="720" viewBox="0 0 880 720" fill="none" xmlns="http://www.w3.org/2000/svg">
<g clip-path="url(#clip0_6111_567)">
<path d="M879.601 0H0.387207V720H879.601V0Z" fill="url(#paint0_radial_6111_567)"/>
<path d="M859.502 720C858.047 706.406 856.604 692.899 855.219 679.536C843.627 684.547 832.715 692.381 822.437 701.698C823.058 707.774 823.704 713.88 824.337 720H859.49H859.502Z" fill="#231F20"/>
<path d="M526.651 720C525.677 709.286 524.773 698.746 523.964 688.45C511.444 687.888 499.195 690.034 487.978 694.987C488.611 703.181 489.303 711.533 490.043 720H526.651Z" fill="#231F20"/>
<path d="M607.411 720C607.294 718.56 607.165 717.106 607.047 715.68C592.674 709.013 578.453 702.403 564.221 697.32C564.819 704.765 565.464 712.339 566.145 720H607.411Z" fill="#231F20"/>
<path d="M758.044 720C757.879 718.171 757.703 716.314 757.551 714.499C755.462 716.414 753.339 718.229 751.191 720H758.044Z" fill="#231F20"/>
<path d="M803.393 720C809.577 713.29 815.854 706.795 822.378 700.877C820.665 683.899 819.01 667.382 817.579 651.398C807.101 660.96 797.28 672.005 787.412 683.107C788.468 695.117 789.642 707.429 790.885 720.014H803.381L803.393 720Z" fill="#231F20"/>
<path d="M880 622.498C869.733 622.858 859.678 625.061 850.244 629.15C851.711 645.163 853.342 661.723 855.102 678.744C863.033 675.317 871.411 673.243 879.988 672.437V622.498H880Z" fill="#231F20"/>
<path d="M129.818 720C129.783 718.517 129.724 717.019 129.7 715.55C126.826 716.846 123.998 718.344 121.229 720H129.818Z" fill="#231F20"/>
<path d="M205.333 720C205.31 719.309 205.286 718.589 205.263 717.898C191.488 713.016 177.948 709.718 164.959 709.114C165.041 712.685 165.147 716.328 165.288 720H205.345H205.333Z" fill="#231F20"/>
<path d="M426.283 720C425.978 714.499 425.709 709.085 425.497 703.8C420.863 709.301 416.24 714.744 411.546 720H426.283Z" fill="#231F20"/>
<path d="M487.954 694.253C476.737 699.192 466.259 706.925 456.497 716.155C455.347 700.92 454.444 686.376 453.869 672.566C463.596 663.322 474.05 655.531 485.244 650.592C485.842 664.416 486.781 678.989 487.942 694.253H487.954Z" fill="#231F20"/>
<path d="M564.198 696.614C550.47 691.69 536.941 688.306 523.87 687.73C522.673 672.466 521.723 657.878 521.089 644.054C534.125 644.63 547.63 648.043 561.335 652.982C562.004 666.806 562.989 681.379 564.198 696.629V696.614Z" fill="#231F20"/>
<path d="M617.889 720H648.525C647.727 709.546 647.047 699.422 646.53 689.702C632.439 684.634 618.312 678.053 603.997 671.357C604.701 685.166 605.71 699.71 606.954 714.946C610.615 716.645 614.264 718.344 617.901 720H617.889Z" fill="#231F20"/>
<path d="M724.134 720C723.383 710.381 722.726 701.035 722.198 692.021C710.946 696.902 698.755 699.048 686.341 698.501C686.729 705.485 687.198 712.642 687.738 720H724.134Z" fill="#231F20"/>
<path d="M787.377 682.344C777.533 693.403 767.806 704.362 757.457 713.808C756.143 698.573 755.028 684.014 754.172 670.219C764.497 660.744 774.2 649.771 784.021 638.654C784.901 652.493 786.039 667.08 787.377 682.358V682.344Z" fill="#231F20"/>
<path d="M850.209 628.416C838.64 633.442 827.739 641.318 817.484 650.678C816.1 635.357 814.938 620.741 814.047 606.874C824.266 597.485 835.143 589.579 846.689 584.539C847.604 598.421 848.824 613.066 850.209 628.416Z" fill="#231F20"/>
<path d="M99.4872 720C99.5459 713.146 99.7219 706.536 100.039 700.214C93.8669 706.32 88.0237 713.059 82.2861 720H99.4872Z" fill="#231F20"/>
<path d="M164.982 708.494C152.604 707.933 140.577 710.064 129.653 714.946C129.407 702.014 129.501 689.89 130.041 678.6C140.929 673.704 152.921 671.587 165.264 672.134C164.759 683.424 164.689 695.549 164.982 708.494Z" fill="#231F20"/>
<path d="M212.631 720H248.183C248.148 712.757 248.219 705.744 248.453 699.077C233.974 692.482 219.66 685.973 205.38 680.918C204.923 692.194 204.899 704.333 205.228 717.264C207.692 718.128 210.167 719.05 212.643 720H212.631Z" fill="#231F20"/>
<path d="M300.021 720C297.112 719.122 294.19 718.157 291.245 717.12C291.21 718.056 291.21 719.05 291.186 720H300.021Z" fill="#231F20"/>
<path d="M396.915 720C396.774 712.325 396.739 704.923 396.88 697.896C387.341 706.997 377.109 714.614 366.174 719.438C366.174 719.626 366.174 719.813 366.174 720H396.927H396.915Z" fill="#231F20"/>
<path d="M453.869 671.904C443.942 681.35 434.72 692.251 425.451 703.195C424.946 690.25 424.747 678.125 424.934 666.835C434.169 655.862 443.368 644.947 453.259 635.486C453.106 646.79 453.329 658.944 453.857 671.904H453.869Z" fill="#231F20"/>
<path d="M521.101 643.406C508.605 642.859 496.391 645.019 485.197 649.973C484.646 636.998 484.376 624.83 484.505 613.526C495.663 608.558 507.842 606.398 520.303 606.946C520.233 618.264 520.526 630.418 521.113 643.406H521.101Z" fill="#231F20"/>
<path d="M603.997 670.752C589.647 664.056 575.45 657.446 561.264 652.32C560.642 639.346 560.302 627.192 560.337 615.874C574.488 621 588.638 627.638 602.941 634.334C602.964 645.638 603.34 657.792 603.997 670.752Z" fill="#231F20"/>
<path d="M686.329 697.882C673.411 697.306 660.035 693.936 646.459 689.054C645.767 676.109 645.345 663.97 645.274 652.666C658.803 657.547 672.144 660.917 685.027 661.507C685.144 672.811 685.602 684.936 686.329 697.882Z" fill="#231F20"/>
<path d="M754.16 669.557C744.116 678.787 733.427 686.491 722.116 691.416C721.365 678.47 720.873 666.331 720.708 655.042C731.996 650.131 742.638 642.398 752.646 633.154C752.869 644.458 753.374 656.611 754.16 669.571V669.557Z" fill="#231F20"/>
<path d="M814.035 606.226C803.581 615.83 793.795 626.904 783.951 638.05C783.13 625.061 782.59 612.907 782.344 601.589C792.153 590.443 801.891 579.326 812.322 569.722C812.592 581.054 813.179 593.222 814.035 606.226Z" fill="#231F20"/>
<path d="M880 540.677C867.844 540.302 855.888 542.52 844.812 547.387C845.117 558.72 845.762 570.902 846.618 583.934C857.155 579.341 868.466 577.109 880 577.21V540.691V540.677Z" fill="#231F20"/>
<path d="M74.1193 720C74.6825 713.534 75.3983 707.371 76.3252 701.611C71.3033 707.875 66.3167 714.082 61.2009 720H74.1311H74.1193Z" fill="#231F20"/>
<path d="M130.099 678.082C119.281 682.934 109.272 690.624 100.038 699.725C100.59 689.285 101.517 679.637 102.913 670.824C112.1 661.709 122.085 654.048 132.856 649.181C131.519 657.994 130.615 667.642 130.087 678.067L130.099 678.082Z" fill="#231F20"/>
<path d="M205.427 680.429C191.676 675.591 178.194 672.221 165.24 671.631C165.722 661.191 166.59 651.557 167.869 642.744C180.775 643.335 194.21 646.69 207.891 651.528C206.683 660.341 205.861 669.989 205.427 680.429Z" fill="#231F20"/>
<path d="M291.304 716.63C277.13 711.634 262.886 705.139 248.43 698.558C248.817 688.133 249.58 678.485 250.73 669.658C265.127 676.238 279.312 682.733 293.428 687.73C292.336 696.557 291.644 706.205 291.304 716.63Z" fill="#231F20"/>
<path d="M363.546 720C364.437 719.64 365.341 719.309 366.221 718.92C366.479 708.494 367.066 698.846 368.051 690.019C357.151 694.858 345.23 696.96 333.015 696.413C332.159 703.728 331.584 711.619 331.244 720.014H363.546V720Z" fill="#231F20"/>
<path d="M424.97 666.317C415.759 677.261 406.642 688.09 396.868 697.421C397.091 686.995 397.643 677.347 398.581 668.52C408.32 659.189 417.413 648.374 426.589 637.43C425.685 646.258 425.169 655.891 424.981 666.317H424.97Z" fill="#231F20"/>
<path d="M484.528 613.008C473.369 617.962 462.95 625.752 453.247 635.011C453.399 624.571 453.892 614.952 454.749 606.125C464.405 596.866 474.789 589.09 485.901 584.122C485.091 592.934 484.633 602.554 484.516 612.994L484.528 613.008Z" fill="#231F20"/>
<path d="M560.373 615.384C546.715 610.445 533.257 607.046 520.256 606.442C520.338 596.002 520.737 586.382 521.5 577.57C534.442 578.16 547.853 581.558 561.452 586.498C560.748 595.31 560.408 604.944 560.361 615.37L560.373 615.384Z" fill="#231F20"/>
<path d="M645.31 652.176C631.265 647.107 617.185 640.498 602.906 633.802C602.906 623.376 603.187 613.742 603.821 604.915C618.042 611.597 632.063 618.206 646.061 623.275C645.498 632.102 645.251 641.736 645.31 652.162V652.176Z" fill="#231F20"/>
<path d="M720.731 654.523C709.514 659.419 697.37 661.565 684.98 661.018C684.863 650.592 685.062 640.958 685.567 632.131C697.898 632.693 709.995 630.518 721.166 625.637C720.696 634.464 720.567 644.098 720.72 654.523H720.731Z" fill="#231F20"/>
<path d="M782.367 601.056C772.593 612.187 762.901 623.16 752.623 632.664C752.423 622.238 752.552 612.619 752.951 603.792C763.206 594.317 772.839 583.315 782.578 572.198C782.214 581.011 782.156 590.63 782.367 601.07V601.056Z" fill="#231F20"/>
<path d="M844.824 546.869C833.313 551.923 822.483 559.858 812.287 569.246C812.041 558.821 812.064 549.202 812.381 540.389C822.53 530.986 833.325 523.094 844.789 518.026C844.519 526.824 844.519 536.443 844.824 546.869Z" fill="#231F20"/>
<path d="M52.3071 720C53.1636 716.256 54.114 712.67 55.1348 709.258C51.2042 713.16 47.121 716.76 42.897 720H52.3071Z" fill="#231F20"/>
<path d="M102.995 670.406C93.6321 679.709 85.008 690.437 76.3723 701.237C77.6864 693.072 79.423 685.598 81.4059 678.758C90.0299 667.987 98.5953 657.274 107.935 647.986C105.964 654.797 104.274 662.256 103.007 670.406H102.995Z" fill="#231F20"/>
<path d="M167.962 642.355C155.677 641.808 143.733 643.925 132.88 648.821C134.135 640.699 135.743 633.24 137.69 626.443C148.485 621.562 160.371 619.459 172.609 619.992C170.743 626.789 169.159 634.234 167.962 642.355Z" fill="#231F20"/>
<path d="M250.812 669.283C236.391 662.702 222.135 656.165 207.915 651.125C209.064 643.003 210.566 635.544 212.361 628.747C226.512 633.758 240.697 640.282 255.047 646.862C253.323 653.674 251.891 661.147 250.812 669.283Z" fill="#231F20"/>
<path d="M333.086 696.01C320.296 695.434 306.991 692.107 293.427 687.326C294.448 679.19 295.809 671.717 297.463 664.877C310.957 669.672 324.204 672.984 336.934 673.546C335.362 680.386 334.048 687.874 333.086 696.01Z" fill="#231F20"/>
<path d="M398.652 668.088C389.16 677.189 378.963 684.806 368.063 689.63C368.978 681.494 370.222 674.021 371.747 667.181C382.601 662.357 392.75 654.768 402.207 645.682C400.729 652.507 399.532 659.966 398.652 668.088Z" fill="#231F20"/>
<path d="M454.819 605.722C444.951 615.182 435.799 626.083 426.6 637.056C427.433 628.949 428.595 621.504 430.038 614.707C439.202 603.763 448.319 592.877 458.14 583.43C456.755 590.213 455.629 597.629 454.831 605.722H454.819Z" fill="#231F20"/>
<path d="M521.57 577.195C509.168 576.634 497.036 578.808 485.924 583.762C486.687 575.683 487.766 568.282 489.104 561.514C500.169 556.56 512.242 554.386 524.586 554.962C523.307 561.73 522.286 569.131 521.57 577.195Z" fill="#231F20"/>
<path d="M603.891 604.555C589.647 597.859 575.555 591.221 561.463 586.109C562.12 578.03 563.071 570.629 564.279 563.861C578.312 568.958 592.334 575.582 606.508 582.278C605.381 589.075 604.49 596.491 603.891 604.57V604.555Z" fill="#231F20"/>
<path d="M685.637 631.728C672.801 631.152 659.519 627.797 646.049 622.886C646.577 614.794 647.398 607.363 648.454 600.566C661.866 605.448 675.089 608.803 687.855 609.379C686.869 616.205 686.107 623.635 685.637 631.728Z" fill="#231F20"/>
<path d="M752.986 603.36C743.013 612.59 732.406 620.309 721.177 625.248C721.611 617.155 722.28 609.725 723.231 602.914C734.412 597.989 744.961 590.285 754.899 581.069C754.019 587.866 753.373 595.282 752.986 603.36Z" fill="#231F20"/>
<path d="M812.428 539.971C802.044 549.59 792.34 560.678 782.566 571.824C782.907 563.76 783.517 556.373 784.338 549.59C794.065 538.459 803.745 527.414 814.07 517.795C813.296 524.549 812.733 531.922 812.428 539.957V539.971Z" fill="#231F20"/>
<path d="M880 488.808C868.337 488.592 856.885 490.81 846.267 495.518C845.539 502.243 845.035 509.602 844.777 517.637C855.865 512.755 867.833 510.523 880.012 510.941V488.808H880Z" fill="#231F20"/>
<path d="M-0.000244141 718.171V720H29.4152C30.4478 717.221 31.5272 714.528 32.6067 711.893C22.516 716.443 11.4398 718.459 -0.000244141 718.186V718.171Z" fill="#231F20"/>
<path d="M81.5234 678.427C72.9346 689.17 64.4162 699.797 55.2056 708.97C57.1533 702.504 59.4061 696.528 61.7176 690.826C70.9048 681.696 79.3645 671.083 87.9181 660.37C85.6301 666.029 83.436 671.99 81.5234 678.427Z" fill="#231F20"/>
<path d="M137.808 626.112C127.072 630.979 117.145 638.626 107.993 647.712C109.871 641.304 112.03 635.371 114.282 629.741C123.388 620.669 133.279 613.051 143.956 608.213C141.75 613.814 139.626 619.733 137.808 626.112Z" fill="#231F20"/>
<path d="M212.491 628.459C198.868 623.621 185.504 620.266 172.668 619.69C174.439 613.31 176.493 607.392 178.64 601.805C191.418 602.381 204.711 605.736 218.252 610.546C216.175 616.147 214.204 622.08 212.491 628.459Z" fill="#231F20"/>
<path d="M297.581 664.574C283.536 659.578 269.421 653.112 255.094 646.546C256.725 640.152 258.638 634.219 260.621 628.589C274.865 635.141 288.898 641.606 302.872 646.574C300.96 652.219 299.129 658.181 297.581 664.589V664.574Z" fill="#231F20"/>
<path d="M371.841 666.864C360.988 671.674 349.137 673.776 336.97 673.243C338.46 666.835 340.22 660.859 342.05 655.2C354.147 655.733 365.951 653.659 376.746 648.835C374.974 654.494 373.273 660.456 371.841 666.864Z" fill="#231F20"/>
<path d="M430.121 614.362C420.981 625.277 411.934 636.077 402.242 645.394C403.639 639.014 405.281 633.067 407.006 627.437C416.663 618.149 425.662 607.378 434.755 596.491C433.078 602.093 431.47 607.997 430.121 614.362Z" fill="#231F20"/>
<path d="M489.186 561.197C478.122 566.15 467.784 573.912 458.175 583.157C459.477 576.835 461.038 570.946 462.68 565.387C472.243 556.171 482.533 548.438 493.539 543.499C491.943 549.043 490.441 554.904 489.174 561.211L489.186 561.197Z" fill="#231F20"/>
<path d="M564.374 563.558C550.845 558.634 537.493 555.221 524.609 554.645C525.818 548.352 527.261 542.491 528.786 536.962C541.599 537.552 554.881 540.922 568.328 545.846C566.873 551.39 565.5 557.266 564.362 563.558H564.374Z" fill="#231F20"/>
<path d="M648.537 600.278C634.609 595.21 620.67 588.6 606.508 581.947C607.576 575.626 608.878 569.75 610.239 564.178C624.319 570.83 638.188 577.397 652.045 582.451C650.754 588.053 649.534 593.942 648.537 600.278Z" fill="#231F20"/>
<path d="M723.301 602.597C712.189 607.478 700.139 609.624 687.866 609.077C688.805 602.741 689.943 596.822 691.163 591.221C703.366 591.768 715.357 589.622 726.41 584.77C725.249 590.371 724.157 596.275 723.289 602.597H723.301Z" fill="#231F20"/>
<path d="M784.408 549.259C774.717 560.362 765.119 571.334 754.911 580.795C755.72 574.488 756.753 568.598 757.867 563.026C768.017 553.579 777.556 542.635 787.212 531.59C786.156 537.134 785.171 542.981 784.397 549.259H784.408Z" fill="#231F20"/>
<path d="M846.325 495.202C834.92 500.256 824.173 508.133 814.082 517.522C814.798 511.272 815.748 505.454 816.757 499.954C826.801 490.594 837.49 482.746 848.848 477.706C847.909 483.192 847.017 488.981 846.337 495.216L846.325 495.202Z" fill="#231F20"/>
<path d="M-0.000244141 700.862V714.73C1.95922 710.251 3.95389 705.816 5.86642 701.338C3.93042 701.251 1.97096 701.078 -0.000244141 700.877V700.862Z" fill="#231F20"/>
<path d="M61.8463 690.538C52.882 699.451 43.1786 706.925 32.7007 711.634C35.0239 706.061 37.4644 700.618 39.7759 695.088C50.2068 690.379 59.8634 682.934 68.7924 674.064C66.5279 679.579 64.1343 684.994 61.8463 690.538Z" fill="#231F20"/>
<path d="M114.411 629.467C105.119 638.727 96.5886 649.411 87.9998 660.154C90.2408 654.639 92.5992 649.253 94.8286 643.781C103.359 633.067 111.865 622.426 121.123 613.195C118.929 618.639 116.594 623.981 114.411 629.467Z" fill="#231F20"/>
<path d="M178.769 601.546C166.602 600.998 154.775 603.101 144.039 607.968C146.186 602.496 148.474 597.182 150.609 591.768C161.287 586.915 173.067 584.813 185.164 585.36C183.087 590.774 180.87 596.088 178.769 601.546Z" fill="#231F20"/>
<path d="M260.75 628.344C246.482 621.778 232.379 615.298 218.31 610.286C220.34 604.829 222.476 599.486 224.482 594.072C238.468 599.069 252.501 605.534 266.687 612.072C264.763 617.515 262.698 622.872 260.75 628.344Z" fill="#231F20"/>
<path d="M342.179 654.941C329.519 654.365 316.342 651.082 302.931 646.301C304.797 640.8 306.78 635.429 308.634 629.971C321.974 634.738 335.08 638.035 347.67 638.597C345.887 644.069 343.974 649.454 342.191 654.955L342.179 654.941Z" fill="#231F20"/>
<path d="M407.111 627.163C397.701 636.221 387.599 643.795 376.804 648.59C378.541 643.09 380.383 637.704 382.108 632.246C392.855 627.451 402.899 619.906 412.274 610.891C410.596 616.32 408.801 621.677 407.123 627.163H407.111Z" fill="#231F20"/>
<path d="M462.786 565.099C453.012 574.502 443.931 585.36 434.814 596.275C436.456 590.832 438.205 585.504 439.836 580.104C448.905 569.232 457.94 558.403 467.679 549.029C466.095 554.4 464.382 559.685 462.786 565.085V565.099Z" fill="#231F20"/>
<path d="M528.892 536.702C516.607 536.141 504.592 538.301 493.598 543.24C495.146 537.854 496.801 532.598 498.338 527.256C509.285 522.331 521.23 520.171 533.444 520.747C531.966 526.075 530.37 531.331 528.892 536.717V536.702Z" fill="#231F20"/>
<path d="M610.345 563.933C596.241 557.28 582.314 550.656 568.363 545.573C569.771 540.187 571.296 534.917 572.704 529.574C586.573 534.643 600.442 541.224 614.452 547.862C613.114 553.219 611.694 558.518 610.345 563.918V563.933Z" fill="#231F20"/>
<path d="M691.257 590.962C678.55 590.4 665.409 587.03 652.068 582.178C653.324 576.749 654.685 571.435 655.94 566.064C669.199 570.902 682.281 574.243 694.907 574.819C693.733 580.205 692.443 585.533 691.257 590.962Z" fill="#231F20"/>
<path d="M757.95 562.752C748.071 571.939 737.581 579.629 726.446 584.525C727.572 579.096 728.793 573.782 729.919 568.397C740.995 563.515 751.438 555.869 761.259 546.696C760.203 552.053 759.018 557.352 757.95 562.752Z" fill="#231F20"/>
<path d="M816.827 499.68C806.537 509.242 796.928 520.272 787.248 531.374C788.269 526.018 789.395 520.747 790.416 515.434C800.049 504.389 809.623 493.402 819.843 483.854C818.869 489.139 817.813 494.366 816.827 499.694V499.68Z" fill="#231F20"/>
<path d="M880 455.112C870.226 455.544 860.663 457.733 851.699 461.707C850.784 466.963 849.763 472.162 848.848 477.461C858.692 473.098 869.24 470.866 880 470.736V455.098V455.112Z" fill="#231F20"/>
<path d="M39.9048 694.829C29.4152 699.552 17.8578 701.597 5.93677 701.064C8.3421 695.448 10.6418 689.544 12.613 683.237C24.4754 683.755 35.9858 681.739 46.405 677.016C44.4808 683.323 42.228 689.198 39.893 694.829H39.9048Z" fill="#231F20"/>
<path d="M94.958 643.478C86.4396 654.149 78.0033 664.719 68.863 673.834C71.151 668.232 73.3569 662.371 75.246 656.078C84.351 647.006 92.7404 636.451 101.224 625.81C99.358 632.059 97.2108 637.906 94.9462 643.478H94.958Z" fill="#231F20"/>
<path d="M150.738 591.494C140.108 596.318 130.264 603.922 121.206 612.95C123.423 607.406 125.547 601.603 127.366 595.368C136.389 586.354 146.186 578.794 156.758 573.97C154.986 580.176 152.921 585.965 150.727 591.48L150.738 591.494Z" fill="#231F20"/>
<path d="M224.611 593.813C211.141 589.003 197.93 585.662 185.222 585.101C187.323 579.586 189.353 573.811 191.077 567.605C203.714 568.166 216.867 571.493 230.255 576.302C228.601 582.509 226.653 588.298 224.611 593.827V593.813Z" fill="#231F20"/>
<path d="M308.751 629.712C294.859 624.758 280.908 618.322 266.746 611.784C268.717 606.24 270.571 600.422 272.155 594.216C286.246 600.725 300.127 607.147 313.937 612.086C312.423 618.322 310.628 624.139 308.751 629.712Z" fill="#231F20"/>
<path d="M382.214 631.987C371.478 636.768 359.732 638.856 347.706 638.323C349.513 632.75 351.238 626.904 352.692 620.669C364.66 621.216 376.347 619.128 387.024 614.347C385.628 620.582 383.962 626.414 382.214 631.973V631.987Z" fill="#231F20"/>
<path d="M439.941 579.816C430.895 590.659 421.931 601.387 412.321 610.646C414.022 605.102 415.642 599.285 416.991 593.078C426.554 583.848 435.483 573.149 444.494 562.334C443.18 568.512 441.607 574.301 439.953 579.816H439.941Z" fill="#231F20"/>
<path d="M498.432 526.997C487.473 531.922 477.242 539.626 467.726 548.813C469.345 543.326 470.871 537.581 472.15 531.432C481.63 522.288 491.803 514.598 502.703 509.688C501.483 515.822 500.004 521.554 498.432 527.011V526.997Z" fill="#231F20"/>
<path d="M572.81 529.344C559.434 524.448 546.234 521.064 533.491 520.488C534.993 515.03 536.413 509.314 537.586 503.194C550.258 503.77 563.388 507.139 576.705 512.021C575.602 518.141 574.253 523.886 572.821 529.344H572.81Z" fill="#231F20"/>
<path d="M656.034 565.819C642.259 560.793 628.472 554.227 614.475 547.603C615.824 542.117 617.091 536.357 618.135 530.222C632.051 536.832 645.779 543.355 659.472 548.381C658.498 554.53 657.313 560.304 656.034 565.819Z" fill="#231F20"/>
<path d="M730.001 568.138C718.995 572.976 707.086 575.122 694.942 574.574C696.15 569.059 697.265 563.27 698.18 557.107C710.254 557.654 722.116 555.523 733.063 550.699C732.207 556.848 731.151 562.622 730.013 568.138H730.001Z" fill="#231F20"/>
<path d="M790.486 515.131C780.877 526.147 771.384 537.048 761.282 546.466C762.373 540.979 763.37 535.219 764.18 529.085C774.236 519.71 783.693 508.838 793.244 497.851C792.481 503.957 791.507 509.674 790.486 515.131Z" fill="#231F20"/>
<path d="M851.77 461.448C840.482 466.459 829.84 474.293 819.855 483.61C820.852 478.181 821.767 472.493 822.471 466.43C832.41 457.128 842.993 449.338 854.222 444.326C853.565 450.374 852.697 456.048 851.758 461.448H851.77Z" fill="#231F20"/>
<path d="M-0.000244141 658.742V681.494C4.30589 682.229 8.56509 682.747 12.7539 682.934C14.819 676.282 16.5907 669.053 17.9518 661.205C12.0851 660.946 6.08936 660.082 -0.000244141 658.757L-0.000244141 658.742Z" fill="#231F20"/>
<path d="M75.363 655.747C66.4809 664.603 56.8596 672.019 46.4873 676.714C48.5054 670.075 50.2185 662.832 51.5444 654.984C61.8814 650.304 71.4676 642.902 80.3028 634.061C79.0238 641.894 77.346 649.123 75.3748 655.747H75.363Z" fill="#231F20"/>
<path d="M127.471 595.051C118.26 604.253 109.8 614.866 101.294 625.536C103.23 618.926 104.872 611.726 106.128 603.907C114.599 593.251 123.024 582.653 132.199 573.48C130.979 581.285 129.372 588.47 127.471 595.051Z" fill="#231F20"/>
<path d="M191.195 567.317C179.156 566.77 167.447 568.872 156.816 573.696C158.682 567.13 160.242 559.958 161.427 552.168C172.011 547.344 183.662 545.256 195.654 545.789C194.515 553.579 193.014 560.75 191.195 567.302V567.317Z" fill="#231F20"/>
<path d="M272.26 593.942C258.156 587.434 244.206 580.968 230.29 575.986C232.026 569.419 233.481 562.234 234.561 554.443C248.406 559.426 262.287 565.848 276.32 572.357C275.299 580.147 273.914 587.333 272.248 593.928L272.26 593.942Z" fill="#231F20"/>
<path d="M352.798 620.366C340.267 619.819 327.243 616.507 313.972 611.77C315.568 605.16 316.871 597.96 317.844 590.17C331.056 594.907 344.021 598.176 356.494 598.752C355.579 606.557 354.335 613.757 352.81 620.366H352.798Z" fill="#231F20"/>
<path d="M417.085 592.762C407.757 601.762 397.772 609.293 387.071 614.059C388.537 607.449 389.734 600.25 390.603 592.445C401.256 587.678 411.206 580.162 420.487 571.19C419.654 578.981 418.504 586.152 417.085 592.762Z" fill="#231F20"/>
<path d="M472.232 531.101C462.552 540.461 453.564 551.232 444.529 562.075C445.914 555.494 447.029 548.338 447.826 540.562C456.826 529.747 465.778 518.99 475.423 509.645C474.672 517.406 473.581 524.534 472.243 531.101H472.232Z" fill="#231F20"/>
<path d="M537.668 502.906C525.524 502.358 513.627 504.504 502.738 509.4C504.029 502.862 505.061 495.734 505.777 487.987C516.619 483.106 528.458 480.946 540.543 481.507C539.874 489.24 538.9 496.368 537.657 502.906H537.668Z" fill="#231F20"/>
<path d="M618.229 529.949C604.29 523.325 590.503 516.773 576.705 511.718C577.878 505.181 578.794 498.053 579.404 490.306C593.132 495.346 606.86 501.898 620.729 508.507C620.165 516.254 619.321 523.397 618.229 529.949Z" fill="#231F20"/>
<path d="M698.251 556.805C685.684 556.243 672.672 552.902 659.496 548.078C660.516 541.497 661.291 534.355 661.807 526.594C674.937 531.418 687.879 534.744 700.386 535.305C699.929 543.067 699.213 550.21 698.263 556.805H698.251Z" fill="#231F20"/>
<path d="M764.251 528.768C754.477 537.898 744.081 545.53 733.064 550.397C733.967 543.816 734.636 536.659 735.035 528.912C746.006 524.045 756.331 516.413 766.081 507.326C765.706 515.074 765.107 522.202 764.251 528.768Z" fill="#231F20"/>
<path d="M822.542 466.114C812.369 475.632 802.842 486.576 793.256 497.592C794.077 491.054 794.652 483.941 794.957 476.208C804.508 465.221 813.977 454.291 824.114 444.787C823.833 452.491 823.316 459.59 822.542 466.099V466.114Z" fill="#231F20"/>
<path d="M880 416.462C871.61 417.24 863.409 419.328 855.665 422.77C855.43 430.459 854.937 437.544 854.233 444.038C862.423 440.395 871.106 438.25 880 437.587V416.462Z" fill="#231F20"/>
<path d="M51.6265 654.61C41.2425 659.318 29.7908 661.349 17.9871 660.816C19.4185 652.363 20.4628 643.176 21.0729 633.254C32.8297 633.773 44.2463 631.742 54.5951 627.048C54.0201 636.97 53.0111 646.157 51.6383 654.61H51.6265Z" fill="#231F20"/>
<path d="M106.21 603.504C97.7624 614.131 89.3848 624.629 80.3267 633.701C81.6877 625.262 82.6264 616.061 83.1896 606.139C92.2243 597.067 100.555 586.57 108.979 575.942C108.451 585.864 107.548 595.066 106.21 603.49V603.504Z" fill="#231F20"/>
<path d="M161.509 551.779C150.973 556.589 141.222 564.149 132.235 573.134C133.549 564.71 134.44 555.523 134.922 545.602C143.874 536.63 153.589 529.07 164.091 524.261C163.621 534.182 162.776 543.37 161.509 551.779Z" fill="#231F20"/>
<path d="M234.655 554.083C221.326 549.288 208.243 545.99 195.665 545.414C196.885 537.005 197.695 527.817 198.117 517.896C210.649 518.457 223.684 521.77 236.955 526.565C236.567 536.486 235.817 545.673 234.655 554.097V554.083Z" fill="#231F20"/>
<path d="M317.926 589.81C304.175 584.87 290.365 578.462 276.355 571.982C277.435 563.544 278.15 554.371 278.491 544.45C292.453 550.958 306.205 557.338 319.898 562.277C319.604 572.198 318.959 581.386 317.926 589.824V589.81Z" fill="#231F20"/>
<path d="M390.673 592.07C380.031 596.822 368.415 598.925 356.506 598.378C357.479 589.939 358.078 580.752 358.336 570.83C370.198 571.363 381.791 569.29 392.386 564.523C392.163 574.43 391.612 583.618 390.685 592.07H390.673Z" fill="#231F20"/>
<path d="M447.885 540.158C438.921 550.958 430.027 561.629 420.5 570.845C421.38 562.406 421.896 553.219 422.095 543.312C431.587 534.11 440.434 523.44 449.375 512.64C449.211 522.562 448.73 531.734 447.885 540.158Z" fill="#231F20"/>
<path d="M505.848 487.598C494.994 492.494 484.857 500.17 475.423 509.299C476.233 500.875 476.69 491.702 476.819 481.795C486.218 472.68 496.308 465.005 507.127 460.109C507.033 470.03 506.61 479.189 505.848 487.613V487.598Z" fill="#231F20"/>
<path d="M579.474 489.946C566.227 485.078 553.168 481.709 540.555 481.133C541.27 472.723 541.646 463.55 541.705 453.643C554.271 454.219 567.283 457.574 580.471 462.456C580.46 472.363 580.143 481.536 579.474 489.96V489.946Z" fill="#231F20"/>
<path d="M661.854 526.234C648.22 521.222 634.563 514.714 620.717 508.118C621.304 499.694 621.586 490.522 621.55 480.614C635.349 487.21 648.948 493.718 662.523 498.73C662.594 508.637 662.382 517.81 661.843 526.248L661.854 526.234Z" fill="#231F20"/>
<path d="M735.082 528.523C724.193 533.347 712.378 535.478 700.363 534.917C700.856 526.478 700.996 517.306 700.891 507.398C712.859 507.946 724.627 505.829 735.481 501.005C735.645 510.912 735.516 520.085 735.082 528.523Z" fill="#231F20"/>
<path d="M795.004 475.805C785.488 486.763 776.078 497.606 766.081 506.981C766.468 498.557 766.55 489.384 766.362 479.477C776.336 470.117 785.699 459.274 795.18 448.315C795.402 458.222 795.356 467.381 795.015 475.805H795.004Z" fill="#231F20"/>
<path d="M855.7 422.395C844.518 427.378 833.993 435.182 824.09 444.442C824.384 436.032 824.407 426.874 824.149 416.966C834.005 407.707 844.483 399.902 855.63 394.92C855.911 404.827 855.958 413.986 855.7 422.381V422.395Z" fill="#231F20"/>
<path d="M21.8238 598.478C14.7134 598.162 7.41522 596.938 -0.000244141 595.08V629.568C7.18056 631.31 14.244 632.477 21.1315 632.779C21.7886 622.109 21.9528 610.661 21.8238 598.493V598.478Z" fill="#231F20"/>
<path d="M83.248 605.65C74.4363 614.491 64.8853 621.893 54.5952 626.573C55.2053 615.902 55.3696 604.454 55.1936 592.272C65.4603 587.578 74.9878 580.162 83.7643 571.32C83.9755 583.502 83.8347 594.965 83.248 605.65Z" fill="#231F20"/>
<path d="M134.98 545.098C125.84 554.285 117.427 564.854 108.991 575.51C109.542 564.826 109.671 553.349 109.437 541.138C117.861 530.482 126.239 519.869 135.344 510.682C135.59 522.907 135.508 534.398 134.969 545.098H134.98Z" fill="#231F20"/>
<path d="M198.176 517.406C186.243 516.859 174.627 518.962 164.091 523.771C164.583 513.072 164.642 501.566 164.372 489.326C174.873 484.488 186.466 482.4 198.364 482.947C198.657 495.187 198.633 506.693 198.176 517.392V517.406Z" fill="#231F20"/>
<path d="M278.538 543.974C264.552 537.48 250.742 531.029 236.943 526.061C237.354 515.362 237.342 503.87 237.014 491.63C250.765 496.598 264.54 503.05 278.491 509.558C278.855 521.784 278.89 533.275 278.538 543.974Z" fill="#231F20"/>
<path d="M358.371 570.341C345.946 569.765 333.039 566.496 319.886 561.773C320.203 551.074 320.121 539.597 319.722 527.386C332.84 532.123 345.711 535.406 358.101 535.968C358.524 548.179 358.653 559.642 358.383 570.341H358.371Z" fill="#231F20"/>
<path d="M422.13 542.808C412.884 551.779 402.97 559.296 392.351 564.062C392.574 553.363 392.421 541.886 391.976 529.675C402.559 524.894 412.439 517.378 421.661 508.392C422.13 520.618 422.318 532.094 422.13 542.808Z" fill="#231F20"/>
<path d="M476.842 481.291C467.233 490.622 458.316 501.379 449.351 512.194C449.516 501.48 449.304 489.989 448.8 477.734C457.741 466.906 466.623 456.134 476.209 446.789C476.737 459.058 476.972 470.563 476.842 481.277V481.291Z" fill="#231F20"/>
<path d="M541.728 453.154C529.689 452.606 517.886 454.738 507.103 459.634C507.197 448.906 506.927 437.386 506.387 425.117C517.146 420.221 528.903 418.075 540.918 418.637C541.493 430.92 541.798 442.44 541.74 453.168L541.728 453.154Z" fill="#231F20"/>
<path d="M621.585 480.139C607.763 473.53 594.106 466.992 580.425 461.952C580.425 451.224 580.096 439.704 579.486 427.435C593.12 432.49 606.743 439.042 620.518 445.651C621.163 457.92 621.527 469.426 621.574 480.154L621.585 480.139Z" fill="#231F20"/>
<path d="M700.914 506.938C688.453 506.362 675.558 503.05 662.487 498.226C662.405 487.498 661.994 476.006 661.314 463.752C674.35 468.576 687.209 471.902 699.635 472.478C700.351 484.718 700.773 496.224 700.914 506.938Z" fill="#231F20"/>
<path d="M766.363 478.958C756.671 488.059 746.369 495.677 735.434 500.544C735.269 489.816 734.788 478.325 734.049 466.07C744.949 461.218 755.204 453.557 764.884 444.456C765.624 456.725 766.152 468.23 766.363 478.958Z" fill="#231F20"/>
<path d="M824.173 416.462C814.082 425.952 804.637 436.867 795.133 447.854C794.886 437.126 794.335 425.606 793.56 413.323C803.029 402.322 812.439 391.378 822.506 381.888C823.316 394.186 823.891 405.72 824.173 416.462Z" fill="#231F20"/>
<path d="M880 353.347C870.965 353.952 862.142 356.112 853.834 359.856C854.656 372.168 855.278 383.717 855.594 394.459C863.362 390.989 871.587 388.886 880 388.138V353.362V353.347Z" fill="#231F20"/>
<path d="M55.2056 591.682C44.892 596.39 33.5107 598.435 21.7891 597.902C21.6131 584.971 21.0499 571.378 20.2168 557.165C31.9149 557.683 43.2728 555.653 53.5629 550.93C54.4077 565.157 55.0179 578.765 55.2056 591.696V591.682Z" fill="#231F20"/>
<path d="M109.448 540.533C101.047 551.174 92.7401 561.686 83.7289 570.773C83.506 557.827 82.8724 544.19 82.0276 529.949C91.0153 520.834 99.3108 510.293 107.688 499.622C108.568 513.907 109.202 527.558 109.448 540.533Z" fill="#231F20"/>
<path d="M164.396 488.75C153.93 493.56 144.238 501.12 135.321 510.12C135.039 497.117 134.405 483.437 133.502 469.109C142.408 460.094 152.076 452.506 162.518 447.667C163.445 462.01 164.114 475.718 164.408 488.736L164.396 488.75Z" fill="#231F20"/>
<path d="M237.037 491.054C223.801 486.274 210.813 482.947 198.317 482.371C197.988 469.354 197.296 455.63 196.357 441.288C208.818 441.864 221.795 445.19 234.995 450C235.945 464.342 236.673 478.051 237.037 491.069V491.054Z" fill="#231F20"/>
<path d="M319.722 526.81C306.064 521.885 292.348 515.462 278.432 508.954C278.033 495.95 277.294 482.256 276.308 467.942C290.201 474.466 303.893 480.888 317.516 485.842C318.525 500.141 319.288 513.806 319.71 526.795L319.722 526.81Z" fill="#231F20"/>
<path d="M391.975 529.07C381.415 533.837 369.858 535.925 358.031 535.378C357.573 522.403 356.775 508.738 355.755 494.438C367.558 494.971 379.092 492.883 389.629 488.102C390.673 502.402 391.494 516.067 391.975 529.056V529.07Z" fill="#231F20"/>
<path d="M448.811 477.115C439.894 487.915 431.082 498.6 421.614 507.83C421.097 494.827 420.264 481.133 419.197 466.819C428.642 457.56 437.442 446.846 446.324 436.018C447.403 450.374 448.26 464.098 448.8 477.13L448.811 477.115Z" fill="#231F20"/>
<path d="M506.387 424.512C495.604 429.408 485.537 437.098 476.174 446.227C475.611 433.166 474.731 419.429 473.628 405.029C482.967 395.87 493.011 388.166 503.771 383.242C504.897 397.656 505.789 411.437 506.387 424.498V424.512Z" fill="#231F20"/>
<path d="M579.51 426.859C566.357 421.978 553.379 418.622 540.86 418.046C540.238 404.971 539.311 391.19 538.173 376.762C550.681 377.338 563.634 380.722 576.752 385.603C577.914 400.018 578.864 413.784 579.521 426.859H579.51Z" fill="#231F20"/>
<path d="M661.326 463.176C647.786 458.165 634.222 451.642 620.471 445.046C619.79 431.986 618.804 418.234 617.619 403.848C631.347 410.472 644.876 417.01 658.393 422.035C659.59 436.406 660.599 450.144 661.326 463.176Z" fill="#231F20"/>
<path d="M734.049 465.48C723.231 470.29 711.509 472.435 699.565 471.888C698.814 458.856 697.781 445.133 696.561 430.762C708.47 431.309 720.18 429.178 730.963 424.339C732.207 438.71 733.251 452.448 734.037 465.48H734.049Z" fill="#231F20"/>
<path d="M793.549 412.704C784.092 423.662 774.776 434.534 764.826 443.894C764.016 430.834 762.937 417.082 761.669 402.696C771.584 393.293 780.9 382.421 790.322 371.405C791.613 385.834 792.692 399.614 793.549 412.704Z" fill="#231F20"/>
<path d="M853.823 359.251C842.711 364.248 832.257 372.038 822.436 381.312C821.58 368.208 820.442 354.398 819.139 339.926C828.936 330.624 839.356 322.79 850.444 317.794C851.77 332.28 852.908 346.118 853.811 359.251H853.823Z" fill="#231F20"/>
<path d="M-0.000244141 553.464C6.86376 555.106 13.6222 556.2 20.2163 556.488C19.3598 541.67 18.1747 526.378 16.884 510.682C11.3576 510.437 5.72562 509.616 -0.000244141 508.392V553.464Z" fill="#231F20"/>
<path d="M82.016 529.229C73.2512 538.099 63.7589 545.544 53.504 550.253C52.6122 535.421 51.4389 520.128 50.1248 504.432C60.368 499.709 69.8485 492.235 78.5898 483.322C79.9157 499.046 81.1125 514.382 82.016 529.243V529.229Z" fill="#231F20"/>
<path d="M133.467 468.403C124.373 477.634 116.007 488.261 107.618 498.96C106.679 484.07 105.506 468.691 104.145 452.909C112.523 442.166 120.865 431.482 129.947 422.222C131.308 438.048 132.528 453.47 133.478 468.403H133.467Z" fill="#231F20"/>
<path d="M196.346 440.597C184.472 440.05 172.914 442.152 162.425 446.99C161.463 432.029 160.219 416.578 158.846 400.723C169.301 395.856 180.846 393.754 192.709 394.301C194.105 410.17 195.349 425.621 196.334 440.597H196.346Z" fill="#231F20"/>
<path d="M276.308 467.28C262.393 460.742 248.641 454.277 234.925 449.294C233.916 434.333 232.649 418.896 231.252 403.042C244.957 408.053 258.697 414.547 272.589 421.099C273.997 436.925 275.288 452.347 276.32 467.28H276.308Z" fill="#231F20"/>
<path d="M355.743 493.776C343.388 493.214 330.528 489.917 317.445 485.165C316.389 470.261 315.098 454.853 313.667 439.056C326.738 443.837 339.574 447.134 351.918 447.71C353.361 463.493 354.675 478.872 355.743 493.776Z" fill="#231F20"/>
<path d="M419.173 466.114C409.974 475.114 400.118 482.659 389.558 487.454C388.455 472.55 387.141 457.157 385.675 441.36C396.211 436.536 406.067 428.976 415.243 419.933C416.721 435.758 418.059 451.181 419.173 466.114Z" fill="#231F20"/>
<path d="M473.592 404.323C464.03 413.698 455.171 424.498 446.254 435.355C445.116 420.379 443.755 404.914 442.264 389.045C451.158 378.13 460.005 367.286 469.544 357.883C471.046 373.81 472.431 389.318 473.581 404.323H473.592Z" fill="#231F20"/>
<path d="M538.137 376.07C526.158 375.509 514.424 377.669 503.688 382.579C502.515 367.531 501.119 351.994 499.593 336.038C510.306 331.114 522.027 328.954 533.995 329.501C535.532 345.47 536.94 361.008 538.137 376.07Z" fill="#231F20"/>
<path d="M617.596 403.171C603.844 396.533 590.245 389.966 576.635 384.898C575.414 369.864 573.983 354.326 572.434 338.371C586.033 343.454 599.608 350.064 613.336 356.717C614.897 372.643 616.352 388.152 617.584 403.171H617.596Z" fill="#231F20"/>
<path d="M696.537 430.085C684.135 429.509 671.311 426.168 658.298 421.33C657.031 406.339 655.576 390.859 654.004 374.962C666.993 379.829 679.805 383.17 692.196 383.746C693.792 399.629 695.258 415.109 696.537 430.085Z" fill="#231F20"/>
<path d="M761.634 401.99C752.001 411.134 741.758 418.795 730.881 423.662C729.579 408.672 728.088 393.192 726.481 377.294C737.334 372.398 747.554 364.694 757.175 355.522C758.783 371.448 760.308 386.957 761.622 401.976L761.634 401.99Z" fill="#231F20"/>
<path d="M819.104 339.221C809.072 348.754 799.685 359.726 790.24 370.757C788.891 355.694 787.354 340.142 785.734 324.173C795.156 313.085 804.52 302.069 814.54 292.507C816.194 308.534 817.755 324.13 819.104 339.221Z" fill="#231F20"/>
<path d="M880 263.664C868.161 263.203 856.498 265.421 845.727 270.317C847.393 286.373 848.965 301.997 850.349 317.131C859.713 312.912 869.745 310.694 879.988 310.464V263.664H880Z" fill="#231F20"/>
<path d="M50.0894 503.669C39.8228 508.406 28.4766 510.466 16.7902 509.933C15.4644 493.92 13.986 477.706 12.5076 461.39C24.1822 461.923 35.5166 459.864 45.7716 455.098C47.2734 471.427 48.7401 487.642 50.1012 503.669H50.0894Z" fill="#231F20"/>
<path d="M104.098 452.146C95.7439 462.874 87.4602 473.443 78.4959 482.602C77.1231 466.546 75.6447 450.288 74.1311 433.93C83.0954 424.728 91.3439 414.086 99.698 403.315C101.235 419.731 102.749 436.032 104.11 452.146H104.098Z" fill="#231F20"/>
<path d="M158.823 399.974C148.392 404.827 138.735 412.445 129.865 421.502C128.468 405.346 126.943 388.987 125.406 372.528C134.265 363.427 143.909 355.766 154.329 350.885C155.877 367.387 157.415 383.774 158.823 399.974Z" fill="#231F20"/>
<path d="M231.205 402.307C218.017 397.483 205.063 394.142 192.614 393.566C191.194 377.366 189.634 360.965 188.073 344.448C200.511 345.024 213.452 348.394 226.629 353.232C228.19 369.734 229.774 386.122 231.205 402.307Z" fill="#231F20"/>
<path d="M313.632 438.322C300.021 433.339 286.352 426.888 272.471 420.336C271.016 404.179 269.444 387.821 267.86 371.347C281.717 377.928 295.387 384.422 308.985 389.419C310.581 405.85 312.165 422.179 313.62 438.322H313.632Z" fill="#231F20"/>
<path d="M385.628 440.597C375.115 445.392 363.593 447.495 351.812 446.962C350.334 430.848 348.738 414.533 347.143 398.102C358.923 398.65 370.422 396.533 380.923 391.709C382.542 408.139 384.15 424.469 385.64 440.597H385.628Z" fill="#231F20"/>
<path d="M442.217 388.267C433.347 399.154 424.57 409.91 415.137 419.198C413.623 403.042 412.004 386.669 410.373 370.21C419.783 360.864 428.548 350.05 437.407 339.12C439.049 355.637 440.692 372.053 442.206 388.267H442.217Z" fill="#231F20"/>
<path d="M499.547 335.275C488.799 340.214 478.779 347.962 469.463 357.149C467.925 340.891 466.271 324.418 464.605 307.858C473.91 298.613 483.918 290.837 494.654 285.869C496.332 302.472 497.986 318.974 499.547 335.275Z" fill="#231F20"/>
<path d="M572.41 337.637C559.304 332.726 546.374 329.342 533.89 328.752C532.318 312.451 530.64 295.934 528.95 279.317C541.423 279.907 554.353 283.306 567.436 288.245C569.137 304.848 570.826 321.35 572.41 337.637Z" fill="#231F20"/>
<path d="M653.969 374.213C640.476 369.158 626.959 362.592 613.243 355.939C611.647 339.682 609.934 323.208 608.233 306.634C621.925 313.315 635.431 319.91 648.924 324.994C650.649 341.539 652.35 357.97 653.957 374.198L653.969 374.213Z" fill="#231F20"/>
<path d="M726.434 376.546C715.663 381.398 703.977 383.558 692.079 382.997C690.448 366.782 688.735 350.352 687.01 333.835C698.896 334.397 710.571 332.237 721.319 327.355C723.055 343.901 724.78 360.331 726.434 376.56V376.546Z" fill="#231F20"/>
<path d="M785.676 323.381C776.266 334.426 766.985 345.355 757.082 354.802C755.427 338.53 753.679 322.07 751.919 305.496C761.81 296.006 771.091 285.034 780.454 273.917C782.238 290.534 783.998 307.066 785.664 323.381H785.676Z" fill="#231F20"/>
<path d="M845.68 269.539C834.615 274.565 824.196 282.427 814.434 291.773C812.744 275.414 810.972 258.84 809.177 242.165C818.939 232.79 829.323 224.885 840.376 219.83C842.171 236.549 843.978 253.152 845.68 269.554V269.539Z" fill="#231F20"/>
<path d="M880 213.523C878.404 213.365 876.809 213.235 875.213 213.163C876.832 228.11 878.428 242.942 880 257.63V213.523Z" fill="#231F20"/>
<path d="M1.45838e-05 459.202C4.21228 459.936 8.36588 460.454 12.4608 460.642C10.9707 444.341 9.51575 428.155 8.17815 412.2C5.47948 412.07 2.74561 411.797 -0.0117188 411.422V459.202H1.45838e-05Z" fill="#231F20"/>
<path d="M74.0841 433.138C65.3545 442.08 55.8857 449.597 45.666 454.349C44.1759 438.034 42.6857 421.848 41.3481 405.878C51.5679 401.098 61.0132 393.552 69.7311 384.566C71.0804 400.565 72.5823 416.794 74.0841 433.138Z" fill="#231F20"/>
<path d="M125.359 371.736C116.289 381.038 107.97 391.766 99.6041 402.581C98.0788 386.179 96.5534 369.907 95.2041 353.851C103.547 342.994 111.854 332.222 120.912 322.862C122.296 338.962 123.822 355.291 125.359 371.736Z" fill="#231F20"/>
<path d="M188.05 343.685C176.199 343.138 164.677 345.254 154.223 350.15C152.674 333.662 151.149 317.304 149.741 301.176C160.172 296.266 171.694 294.134 183.521 294.682C184.929 310.824 186.478 327.197 188.05 343.685Z" fill="#231F20"/>
<path d="M267.837 370.613C253.956 364.018 240.228 357.494 226.535 352.454C224.963 335.966 223.403 319.622 221.971 303.494C235.652 308.563 249.369 315.115 263.237 321.739C264.681 337.838 266.253 354.168 267.837 370.613Z" fill="#231F20"/>
<path d="M347.096 397.339C334.764 396.778 321.939 393.451 308.88 388.642C307.285 372.226 305.712 355.925 304.246 339.854C317.293 344.678 330.106 348.019 342.426 348.595C343.904 364.651 345.488 380.938 347.096 397.339Z" fill="#231F20"/>
<path d="M410.338 369.418C401.186 378.504 391.354 386.122 380.817 390.96C379.198 374.544 377.602 358.243 376.112 342.187C386.637 337.32 396.446 329.674 405.586 320.544C407.088 336.643 408.707 352.973 410.338 369.432V369.418Z" fill="#231F20"/>
<path d="M464.546 307.066C455.019 316.526 446.195 327.427 437.313 338.386C435.67 321.883 434.039 305.496 432.514 289.354C441.373 278.338 450.185 267.394 459.7 257.875C461.237 274.075 462.88 290.506 464.546 307.066Z" fill="#231F20"/>
<path d="M528.903 278.554C516.947 277.992 505.249 280.166 494.548 285.12C492.87 268.531 491.216 252.058 489.667 235.829C500.344 230.861 512.042 228.658 523.987 229.234C525.548 245.477 527.225 261.95 528.915 278.554H528.903Z" fill="#231F20"/>
<path d="M608.197 305.899C594.481 299.203 580.905 292.579 567.33 287.467C565.629 270.878 563.951 254.419 562.367 238.19C575.942 243.331 589.494 249.984 603.21 256.723C604.806 272.923 606.496 289.354 608.209 305.914L608.197 305.899Z" fill="#231F20"/>
<path d="M686.963 333.058C674.596 332.482 661.783 329.112 648.806 324.23C647.093 307.699 645.38 291.298 643.784 275.126C656.75 280.037 669.539 283.421 681.894 283.997C683.513 300.154 685.226 316.541 686.951 333.058H686.963Z" fill="#231F20"/>
<path d="M751.872 304.704C742.274 313.92 732.066 321.653 721.224 326.578C719.488 310.046 717.763 293.645 716.12 277.488C726.95 272.534 737.146 264.773 746.721 255.499C748.387 271.699 750.1 288.144 751.872 304.704Z" fill="#231F20"/>
<path d="M809.119 241.358C799.122 250.978 789.771 262.051 780.36 273.182C778.577 256.565 776.829 240.077 775.163 223.834C784.561 212.645 793.889 201.528 803.874 191.851C805.575 208.152 807.335 224.698 809.119 241.358Z" fill="#231F20"/>
<path d="M875.166 212.386C863.104 211.81 851.218 214.042 840.259 219.067C838.464 202.363 836.657 185.789 834.956 169.459C845.891 164.419 857.765 162.173 869.816 162.749C871.54 179.093 873.336 195.682 875.154 212.4L875.166 212.386Z" fill="#231F20"/>
<path d="M41.3132 405.13C31.07 409.91 19.7473 411.984 8.09614 411.451C6.80547 395.856 5.65561 380.678 4.79907 366.019C16.4385 366.552 27.7495 364.478 37.9692 359.669C38.8609 374.342 39.9991 389.52 41.3249 405.13H41.3132Z" fill="#231F20"/>
<path d="M95.1573 353.088C86.8266 363.917 78.5781 374.602 69.6373 383.846C68.2997 368.208 67.1381 352.987 66.2346 338.299C75.1637 329.011 83.3888 318.269 91.7077 307.411C92.6229 322.142 93.8197 337.392 95.1573 353.088Z" fill="#231F20"/>
<path d="M149.694 300.398C139.286 305.309 129.665 313.013 120.818 322.142C119.469 306.403 118.26 291.11 117.322 276.336C126.145 267.149 135.755 259.416 146.15 254.506C147.101 269.309 148.333 284.63 149.694 300.398Z" fill="#231F20"/>
<path d="M221.936 302.76C208.771 297.893 195.841 294.509 183.427 293.933C182.055 278.15 180.799 262.829 179.825 248.011C192.227 248.602 205.146 251.986 218.287 256.882C219.284 271.67 220.54 287.006 221.936 302.76Z" fill="#231F20"/>
<path d="M304.222 339.134C290.635 334.109 276.989 327.586 263.132 320.976C261.724 305.237 260.457 289.944 259.436 275.17C273.27 281.808 286.904 288.36 300.479 293.4C301.524 308.146 302.802 323.424 304.222 339.134Z" fill="#231F20"/>
<path d="M376.077 341.424C365.599 346.277 354.1 348.394 342.344 347.846C340.912 332.15 339.61 316.886 338.542 302.155C350.287 302.702 361.762 300.571 372.228 295.704C373.308 310.45 374.622 325.714 376.077 341.424Z" fill="#231F20"/>
<path d="M432.479 288.576C423.644 299.563 414.902 310.435 405.492 319.824C404.025 304.085 402.7 288.792 401.597 274.018C410.983 264.586 419.701 253.685 428.525 242.64C429.651 257.458 431 272.794 432.479 288.576Z" fill="#231F20"/>
<path d="M489.609 235.051C478.884 240.048 468.899 247.867 459.607 257.141C458.116 241.315 456.744 225.922 455.605 211.075C464.875 201.758 474.848 193.91 485.549 188.899C486.711 203.774 488.095 219.197 489.609 235.051Z" fill="#231F20"/>
<path d="M562.32 237.442C549.238 232.488 536.331 229.061 523.87 228.47C522.345 212.602 520.937 197.179 519.763 182.29C532.212 182.88 545.107 186.322 558.167 191.29C559.363 206.165 560.783 221.573 562.332 237.442H562.32Z" fill="#231F20"/>
<path d="M643.749 274.392C630.268 269.294 616.774 262.656 603.093 255.946C601.545 240.106 600.113 224.726 598.881 209.88C612.55 216.619 626.032 223.286 639.49 228.398C640.734 243.23 642.189 258.595 643.749 274.392Z" fill="#231F20"/>
<path d="M716.062 276.725C705.326 281.635 693.663 283.795 681.789 283.248C680.205 267.451 678.75 252.101 677.483 237.283C689.334 237.845 700.985 235.656 711.697 230.746C712.976 245.578 714.466 260.928 716.062 276.739V276.725Z" fill="#231F20"/>
<path d="M775.104 223.042C765.74 234.216 756.483 245.232 746.615 254.779C745.008 238.939 743.506 223.56 742.203 208.699C752.048 199.109 761.282 188.035 770.633 176.832C771.959 191.722 773.484 207.158 775.104 223.042Z" fill="#231F20"/>
<path d="M834.909 168.682C823.868 173.765 813.495 181.714 803.757 191.131C802.102 175.205 800.589 159.725 799.228 144.792C808.943 135.331 819.292 127.354 830.321 122.256C831.694 137.218 833.243 152.726 834.909 168.682Z" fill="#231F20"/>
<path d="M880 117.504C874.978 116.453 869.991 115.762 865.075 115.517C866.483 130.478 868.008 146.002 869.722 161.971C873.124 162.13 876.562 162.518 880.012 163.08V117.49L880 117.504Z" fill="#231F20"/>
<path d="M-0.000244141 365.011C1.60722 365.17 3.20296 365.299 4.78696 365.371C3.96562 351.36 3.40242 338.011 3.26162 325.382C2.18216 325.339 1.09096 325.238 -0.000244141 325.138L-0.000244141 365.011Z" fill="#231F20"/>
<path d="M66.2232 337.608C57.5288 346.637 48.0952 354.211 37.899 359.021C37.0659 344.995 36.491 331.646 36.3032 319.018C46.4878 314.208 55.9096 306.619 64.5688 297.547C64.78 310.19 65.3784 323.568 66.2232 337.608Z" fill="#231F20"/>
<path d="M117.31 275.645C108.275 285.048 99.98 295.877 91.6493 306.763C90.7928 292.68 90.1827 279.274 89.9363 266.616C98.2552 255.701 106.527 244.843 115.538 235.411C115.808 248.098 116.43 261.533 117.31 275.645Z" fill="#231F20"/>
<path d="M179.813 247.334C167.998 246.773 156.488 248.933 146.08 253.858C145.177 239.717 144.508 226.267 144.25 213.566C154.634 208.627 166.121 206.482 177.913 207.029C178.229 219.744 178.887 233.194 179.813 247.334Z" fill="#231F20"/>
<path d="M259.424 274.507C245.567 267.854 231.874 261.274 218.205 256.19C217.266 242.064 216.562 228.6 216.222 215.899C229.868 220.997 243.525 227.606 257.359 234.274C257.734 246.96 258.462 260.395 259.424 274.507Z" fill="#231F20"/>
<path d="M338.519 301.478C326.211 300.902 313.421 297.547 300.397 292.709C299.412 278.611 298.661 265.205 298.25 252.518C311.251 257.386 324.016 260.741 336.301 261.317C336.735 273.989 337.51 287.395 338.519 301.478Z" fill="#231F20"/>
<path d="M401.573 273.312C392.457 282.47 382.659 290.16 372.146 295.056C371.125 280.958 370.327 267.552 369.858 254.88C380.348 249.984 390.122 242.266 399.215 233.078C399.708 245.765 400.529 259.2 401.573 273.312Z" fill="#231F20"/>
<path d="M455.582 210.384C446.089 219.946 437.301 230.933 428.454 241.992C427.386 227.837 426.553 214.387 426.037 201.672C434.861 190.584 443.625 179.554 453.106 169.978C453.646 182.722 454.502 196.214 455.593 210.384H455.582Z" fill="#231F20"/>
<path d="M519.74 181.613C507.819 181.051 496.132 183.254 485.478 188.237C484.375 174.024 483.495 160.517 482.92 147.758C493.551 142.762 505.214 140.558 517.111 141.12C517.71 153.878 518.613 167.4 519.74 181.613Z" fill="#231F20"/>
<path d="M598.858 209.203C585.165 202.45 571.625 195.754 558.073 190.598C556.923 176.4 555.996 162.878 555.362 150.134C568.891 155.318 582.408 162.029 596.077 168.797C596.746 181.541 597.696 195.034 598.858 209.218V209.203Z" fill="#231F20"/>
<path d="M677.459 236.606C665.115 236.016 652.338 232.618 639.396 227.693C638.211 213.523 637.237 200.059 636.533 187.33C649.451 192.269 662.205 195.682 674.526 196.272C675.253 208.987 676.262 222.451 677.459 236.621V236.606Z" fill="#231F20"/>
<path d="M742.169 208.008C732.606 217.31 722.433 225.101 711.615 230.083C710.383 215.928 709.362 202.45 708.6 189.72C719.394 184.723 729.544 176.904 739.083 167.587C739.857 180.331 740.925 193.824 742.169 208.008Z" fill="#231F20"/>
<path d="M799.193 144.086C789.219 153.792 779.915 164.966 770.551 176.198C769.273 161.986 768.205 148.464 767.395 135.691C776.747 124.43 786.028 113.242 795.966 103.493C796.787 116.28 797.902 129.83 799.193 144.086Z" fill="#231F20"/>
<path d="M865.04 114.84C853.013 114.264 841.151 116.525 830.239 121.579C828.913 107.309 827.81 93.7296 826.942 80.928C837.83 75.8592 849.669 73.584 861.673 74.1744C862.588 86.976 863.726 100.555 865.052 114.84H865.04Z" fill="#231F20"/>
<path d="M36.3262 318.427C26.1299 323.251 14.8424 325.339 3.22644 324.806C3.07391 312.998 3.30858 301.982 3.96564 291.802C15.5464 292.334 26.8104 290.246 36.9715 285.422C36.3379 295.603 36.1619 306.619 36.3262 318.427Z" fill="#231F20"/>
<path d="M89.9477 266.026C81.6522 276.926 73.4506 287.683 64.545 297C64.3455 285.178 64.5098 274.147 65.1082 263.966C73.9903 254.635 82.1685 243.85 90.4405 232.949C89.8538 243.144 89.7365 254.174 89.9477 266.011V266.026Z" fill="#231F20"/>
<path d="M144.261 212.976C133.889 217.915 124.303 225.662 115.503 234.878C115.268 223.027 115.385 211.968 115.925 201.773C124.702 192.557 134.253 184.795 144.601 179.856C144.097 190.051 144.015 201.11 144.261 212.976Z" fill="#231F20"/>
<path d="M216.245 215.338C203.128 210.427 190.244 207.029 177.866 206.438C177.596 194.573 177.631 183.514 178.112 173.304C190.456 173.894 203.315 177.293 216.386 182.203C215.964 192.398 215.952 203.458 216.257 215.323L216.245 215.338Z" fill="#231F20"/>
<path d="M298.261 251.971C284.709 246.902 271.11 240.336 257.3 233.683C256.96 221.832 256.936 210.787 257.312 200.578C271.075 207.245 284.639 213.811 298.156 218.88C297.827 229.075 297.886 240.12 298.261 251.957V251.971Z" fill="#231F20"/>
<path d="M369.858 254.29C359.416 259.171 347.964 261.302 336.242 260.755C335.843 248.918 335.738 237.874 336.031 227.678C347.718 228.226 359.146 226.08 369.553 221.198C369.295 231.394 369.436 242.438 369.858 254.275V254.29Z" fill="#231F20"/>
<path d="M426.026 201.067C417.226 212.126 408.531 223.07 399.168 232.531C398.711 220.68 398.558 209.635 398.769 199.426C408.109 189.965 416.78 179.006 425.556 167.933C425.369 178.142 425.556 189.202 426.026 201.067Z" fill="#231F20"/>
<path d="M482.92 147.168C472.243 152.194 462.281 160.07 453.047 169.416C452.554 157.536 452.332 146.462 452.496 136.253C461.706 126.907 471.621 119.016 482.287 113.99C482.169 124.214 482.404 135.288 482.932 147.182L482.92 147.168Z" fill="#231F20"/>
<path d="M555.374 149.573C542.338 144.59 529.467 141.134 517.053 140.544C516.501 128.635 516.231 117.562 516.314 107.352C528.692 107.942 541.528 111.398 554.529 116.395C554.494 126.619 554.799 137.693 555.386 149.587L555.374 149.573Z" fill="#231F20"/>
<path d="M636.533 186.768C623.099 181.627 609.652 174.946 596.006 168.192C595.396 156.298 595.044 145.238 595.044 135.029C608.655 141.797 622.066 148.478 635.454 153.619C635.512 163.829 635.9 174.888 636.533 186.768Z" fill="#231F20"/>
<path d="M708.599 189.13C697.91 194.069 686.283 196.258 674.455 195.696C673.775 183.83 673.364 172.771 673.259 162.547C685.051 163.109 696.643 160.92 707.297 155.981C707.438 166.19 707.884 177.25 708.588 189.13H708.599Z" fill="#231F20"/>
<path d="M767.384 135.086C758.056 146.318 748.857 157.435 739.024 167.04C738.297 155.146 737.804 144.086 737.64 133.862C747.437 124.229 756.624 113.126 765.917 101.88C766.116 112.104 766.621 123.178 767.384 135.086Z" fill="#231F20"/>
<path d="M826.93 80.3376C815.924 85.4496 805.598 93.456 795.907 102.946C795.121 91.0224 794.581 79.9344 794.346 69.7104C804.003 60.2208 814.293 52.2 825.275 47.088C825.533 57.3264 826.12 68.4144 826.93 80.3376Z" fill="#231F20"/>
<path d="M880 43.5744C873.194 41.8032 866.459 40.6512 859.83 40.3344C860.147 50.5728 860.745 61.6608 861.59 73.5984C867.644 73.8864 873.793 74.88 880 76.392V43.5888V43.5744Z" fill="#231F20"/>
<path d="M-0.000244141 265.003V291.053C1.34909 291.182 2.68669 291.283 4.02429 291.355C4.64616 281.995 5.66696 273.413 7.11016 265.666C4.76349 265.55 2.39336 265.32 0.0114892 265.018L-0.000244141 265.003Z" fill="#231F20"/>
<path d="M65.1554 263.491C56.5079 272.549 47.1213 280.166 36.9719 284.99C37.5703 275.63 38.5325 267.048 39.9287 259.301C50.0546 254.491 59.4061 246.888 68.0183 237.816C66.6573 245.563 65.7186 254.131 65.1554 263.491Z" fill="#231F20"/>
<path d="M115.972 201.283C106.984 210.73 98.7359 221.587 90.4404 232.531C90.9802 223.171 91.9071 214.618 93.2212 206.885C101.481 195.955 109.695 185.098 118.659 175.666C117.357 183.384 116.477 191.938 115.96 201.298L115.972 201.283Z" fill="#231F20"/>
<path d="M178.159 172.858C166.402 172.296 154.95 174.456 144.602 179.395C145.083 170.05 145.951 161.496 147.195 153.778C157.508 148.838 168.925 146.693 180.635 147.24C179.426 154.958 178.616 163.498 178.159 172.858Z" fill="#231F20"/>
<path d="M257.383 200.146C243.596 193.464 229.974 186.869 216.363 181.757C216.762 172.411 217.525 163.858 218.686 156.139C232.238 161.251 245.802 167.846 259.542 174.514C258.439 182.246 257.735 190.8 257.371 200.146H257.383Z" fill="#231F20"/>
<path d="M336.078 227.218C323.84 226.627 311.098 223.272 298.144 218.419C298.461 209.074 299.118 200.52 300.162 192.773C313.069 197.64 325.764 200.995 337.955 201.571C336.97 209.318 336.36 217.872 336.09 227.218H336.078Z" fill="#231F20"/>
<path d="M398.804 198.936C389.734 208.138 379.984 215.856 369.541 220.752C369.788 211.406 370.351 202.853 371.29 195.106C381.709 190.21 391.424 182.491 400.459 173.304C399.555 181.037 399.027 189.59 398.816 198.936H398.804Z" fill="#231F20"/>
<path d="M452.531 135.763C443.086 145.354 434.344 156.384 425.544 167.486C425.732 158.141 426.225 149.602 427.093 141.883C435.858 130.781 444.564 119.765 453.986 110.174C453.153 117.893 452.684 126.418 452.531 135.763Z" fill="#231F20"/>
<path d="M516.349 106.891C504.486 106.315 492.858 108.533 482.263 113.544C482.392 104.198 482.815 95.6736 483.613 87.9696C494.173 82.9584 505.753 80.7552 517.569 81.3312C516.83 89.0352 516.442 97.56 516.349 106.891Z" fill="#231F20"/>
<path d="M595.079 134.597C581.457 127.814 567.975 121.104 554.494 115.92C554.541 106.589 554.881 98.064 555.561 90.3456C569.008 95.5296 582.419 102.226 595.994 109.008C595.384 116.726 595.079 125.251 595.079 134.597Z" fill="#231F20"/>
<path d="M673.294 162.101C661.009 161.51 648.29 158.112 635.418 153.158C635.372 143.827 635.618 135.288 636.181 127.555C649.017 132.494 661.678 135.907 673.916 136.498C673.399 144.23 673.212 152.77 673.294 162.101Z" fill="#231F20"/>
<path d="M737.663 133.387C728.147 142.704 718.045 150.552 707.285 155.549C707.168 146.218 707.321 137.678 707.778 129.946C718.503 124.949 728.57 117.115 738.05 107.798C737.628 115.517 737.511 124.042 737.675 133.387H737.663Z" fill="#231F20"/>
<path d="M794.358 69.2208C784.432 78.9552 775.186 90.1728 765.87 101.448C765.682 92.1168 765.764 83.6064 766.151 75.888C775.432 64.6128 784.643 53.424 794.523 43.6896C794.182 51.3792 794.124 59.8896 794.358 69.2208Z" fill="#231F20"/>
<path d="M859.854 39.8736C847.886 39.2976 836.082 41.5728 825.229 46.6272C824.982 37.296 824.982 28.8 825.276 21.1104C836.094 16.0416 847.851 13.7952 859.772 14.3568C859.513 22.0464 859.584 30.5424 859.854 39.8592V39.8736Z" fill="#231F20"/>
<path d="M40.0223 258.941C29.8965 263.75 18.6794 265.853 7.13379 265.32C8.47139 258.206 10.1962 251.77 12.2261 246.01C23.713 246.542 34.8831 244.454 44.9621 239.645C42.9909 245.419 41.313 251.842 40.0223 258.941Z" fill="#231F20"/>
<path d="M93.3034 206.496C85.0548 217.397 76.9119 228.168 68.0532 237.485C69.3322 230.4 70.9396 223.978 72.8874 218.232C81.7108 208.944 89.8303 198.173 98.0436 187.301C96.1428 193.032 94.5354 199.426 93.3034 206.496Z" fill="#231F20"/>
<path d="M147.277 153.432C136.964 158.371 127.448 166.133 118.707 175.334C119.927 168.293 121.487 161.914 123.353 156.211C132.059 147.024 141.551 139.291 151.818 134.352C149.999 140.04 148.462 146.39 147.289 153.418L147.277 153.432Z" fill="#231F20"/>
<path d="M218.78 155.808C205.756 150.898 192.955 147.499 180.658 146.909C181.785 139.882 183.263 133.531 185.035 127.858C197.273 128.434 210.015 131.846 222.98 136.742C221.267 142.43 219.848 148.795 218.768 155.822L218.78 155.808Z" fill="#231F20"/>
<path d="M300.233 192.442C286.775 187.373 273.27 180.806 259.553 174.139C260.563 167.098 261.935 160.733 263.566 155.016C277.212 161.654 290.659 168.221 304.058 173.275C302.486 179.006 301.195 185.386 300.233 192.427V192.442Z" fill="#231F20"/>
<path d="M371.36 194.76C360.999 199.642 349.606 201.787 337.967 201.226C338.882 194.184 340.114 187.79 341.628 182.045C353.22 182.592 364.555 180.461 374.868 175.594C373.413 181.339 372.228 187.718 371.36 194.76Z" fill="#231F20"/>
<path d="M427.152 141.523C418.41 152.597 409.775 163.526 400.47 172.987C401.303 165.96 402.441 159.595 403.861 153.878C413.13 144.446 421.731 133.517 430.437 122.472C429.064 128.174 427.95 134.51 427.152 141.523Z" fill="#231F20"/>
<path d="M483.66 87.624C473.041 92.6496 463.162 100.526 453.986 109.872C454.749 102.888 455.828 96.5664 457.154 90.8928C466.295 81.576 476.127 73.7136 486.699 68.688C485.408 74.3328 484.376 80.64 483.648 87.6096L483.66 87.624Z" fill="#231F20"/>
<path d="M555.62 90.0144C542.678 85.032 529.901 81.576 517.557 80.9856C518.238 74.016 519.223 67.7232 520.455 62.0784C532.74 62.6688 545.459 66.1248 558.342 71.0928C557.169 76.752 556.254 83.0448 555.62 90.0288V90.0144Z" fill="#231F20"/>
<path d="M636.24 127.224C622.888 122.083 609.535 115.402 595.983 108.648C596.57 101.664 597.415 95.3568 598.518 89.6832C612.011 96.4368 625.305 103.09 638.587 108.216C637.554 113.918 636.756 120.24 636.24 127.224Z" fill="#231F20"/>
<path d="M707.813 129.586C697.206 134.525 685.649 136.714 673.904 136.152C674.373 129.154 675.112 122.832 676.086 117.115C687.784 117.691 699.283 115.488 709.843 110.563C708.928 116.266 708.236 122.587 707.813 129.586Z" fill="#231F20"/>
<path d="M766.198 75.528C756.941 86.76 747.812 97.8768 738.038 107.482C738.437 100.512 739.059 94.2048 739.939 88.5168C749.654 78.912 758.771 67.8528 767.982 56.6352C767.16 62.2944 766.55 68.5728 766.21 75.528H766.198Z" fill="#231F20"/>
<path d="M825.323 20.7648C814.399 25.8912 804.133 33.8832 794.523 43.3728C794.84 36.4464 795.403 30.1824 796.177 24.552C805.752 15.0912 815.96 7.1136 826.848 2.0016C826.121 7.6176 825.605 13.8528 825.323 20.7648Z" fill="#231F20"/>
<path d="M880 0H860.617C860.206 4.3344 859.913 9 859.748 14.0256C866.401 14.3424 873.171 15.5232 880 17.3088V0Z" fill="#231F20"/>
<path d="M-0.000244141 227.952V244.267C4.16509 245.03 8.29522 245.549 12.3432 245.736C14.2558 240.322 16.4616 235.397 18.7496 230.774C12.6248 230.486 6.35922 229.493 -0.000244141 227.952Z" fill="#231F20"/>
<path d="M73.005 217.958C64.4279 226.987 55.1116 234.59 45.0327 239.386C46.8983 233.986 49.0572 229.061 51.2866 224.438C61.3186 219.643 70.5996 212.083 79.1415 203.069C76.9474 207.662 74.8236 212.573 73.0167 217.944L73.005 217.958Z" fill="#231F20"/>
<path d="M123.458 155.938C114.529 165.355 106.339 176.184 98.114 187.085C99.9092 181.742 101.986 176.861 104.145 172.31C112.347 161.438 120.489 150.638 129.383 141.264C127.26 145.786 125.206 150.624 123.458 155.938Z" fill="#231F20"/>
<path d="M185.152 127.598C173.489 127.037 162.131 129.197 151.865 134.122C153.578 128.822 155.596 124.027 157.661 119.506C167.881 114.61 179.191 112.45 190.784 112.997C188.754 117.49 186.818 122.299 185.14 127.584L185.152 127.598Z" fill="#231F20"/>
<path d="M263.683 154.8C250.014 148.147 236.509 141.566 223.027 136.469C224.623 131.184 226.5 126.36 228.471 121.853C241.894 126.922 255.317 133.488 268.916 140.126C267.027 144.648 265.22 149.501 263.683 154.8Z" fill="#231F20"/>
<path d="M341.722 181.8C329.578 181.224 316.952 177.869 304.104 173.016C305.571 167.702 307.308 162.835 309.126 158.285C321.916 163.109 334.47 166.464 346.556 167.04C344.807 171.605 343.141 176.486 341.722 181.8Z" fill="#231F20"/>
<path d="M403.943 153.59C394.944 162.763 385.276 170.453 374.903 175.349C376.264 170.035 377.884 165.168 379.573 160.603C389.899 155.722 399.52 148.046 408.484 138.917C406.83 143.453 405.257 148.291 403.943 153.59Z" fill="#231F20"/>
<path d="M457.248 90.6192C447.873 100.181 439.202 111.182 430.473 122.256C431.752 117 433.289 112.19 434.896 107.683C443.591 96.6528 452.215 85.68 461.554 76.1472C459.982 80.6112 458.492 85.392 457.248 90.6192Z" fill="#231F20"/>
<path d="M520.549 61.8192C508.793 61.2576 497.259 63.4608 486.746 68.4432C487.942 63.2448 489.397 58.4928 490.923 54.0432C501.377 49.0608 512.852 46.872 524.562 47.4336C523.095 51.8688 521.699 56.6208 520.549 61.8048V61.8192Z" fill="#231F20"/>
<path d="M598.599 89.4384C585.094 82.6704 571.73 75.9888 558.354 70.8192C559.445 65.6208 560.771 60.8688 562.167 56.4192C575.473 61.5744 588.767 68.2416 602.201 74.9808C600.876 79.4448 599.632 84.2256 598.599 89.4384Z" fill="#231F20"/>
<path d="M676.157 116.87C663.978 116.28 651.364 112.882 638.598 107.957C639.549 102.73 640.746 97.92 642.001 93.4272C654.708 98.3376 667.251 101.736 679.372 102.312C678.187 106.819 677.06 111.629 676.157 116.87Z" fill="#231F20"/>
<path d="M739.997 88.2432C730.576 97.5456 720.544 105.35 709.866 110.333C710.711 105.106 711.779 100.296 712.905 95.8032C723.536 90.8352 733.509 83.0448 742.896 73.7856C741.804 78.2496 740.784 83.0304 739.997 88.2432Z" fill="#231F20"/>
<path d="M796.236 24.2784C786.391 33.9984 777.228 45.1584 767.982 56.4048C768.756 51.2352 769.707 46.4832 770.751 42.048C779.95 30.8448 789.078 19.7136 798.876 10.0224C797.89 14.4288 796.951 19.1232 796.236 24.264V24.2784Z" fill="#231F20"/>
<path d="M827.106 0C827.024 0.5904 826.93 1.1664 826.848 1.7712C828.197 1.1376 829.57 0.5472 830.943 0H827.106Z" fill="#231F20"/>
<path d="M51.4035 224.222C41.3715 229.018 30.2483 231.106 18.8201 230.558C21.0611 226.051 23.4078 221.688 25.6371 217.21C37.0067 217.742 48.0713 215.669 58.0563 210.888C55.8857 215.366 53.5859 219.715 51.3918 224.222H51.4035Z" fill="#231F20"/>
<path d="M104.262 172.066C96.0842 182.909 87.9999 193.622 79.2117 202.896C81.3589 198.418 83.6234 194.098 85.7471 189.648C94.5002 180.403 102.561 169.733 110.692 158.933C108.592 163.339 106.374 167.645 104.262 172.08V172.066Z" fill="#231F20"/>
<path d="M157.79 119.29C147.57 124.2 138.137 131.918 129.466 141.077C131.543 136.67 133.737 132.422 135.79 128.045C144.438 118.944 153.824 111.24 163.997 106.344C161.979 110.693 159.832 114.926 157.802 119.304L157.79 119.29Z" fill="#231F20"/>
<path d="M228.6 121.651C215.705 116.77 203.033 113.4 190.854 112.81C192.825 108.446 194.926 104.213 196.885 99.8784C209.006 100.454 221.607 103.838 234.432 108.691C232.531 113.04 230.501 117.288 228.589 121.666L228.6 121.651Z" fill="#231F20"/>
<path d="M309.244 158.083C295.915 153.043 282.551 146.52 268.975 139.896C270.817 135.504 272.765 131.227 274.595 126.864C288.1 133.474 301.394 139.982 314.653 144.994C312.905 149.386 311.016 153.677 309.256 158.098L309.244 158.083Z" fill="#231F20"/>
<path d="M379.679 160.387C369.412 165.24 358.125 167.371 346.603 166.824C348.304 162.389 350.123 158.098 351.812 153.691C363.288 154.238 374.516 152.122 384.724 147.283C383.093 151.675 381.333 155.966 379.679 160.387Z" fill="#231F20"/>
<path d="M434.99 107.438C426.319 118.44 417.754 129.312 408.531 138.73C410.139 134.338 411.852 130.061 413.436 125.698C422.623 116.309 431.153 105.48 439.777 94.5072C438.228 98.8416 436.55 103.061 434.99 107.424V107.438Z" fill="#231F20"/>
<path d="M491.017 53.8416C480.492 58.8528 470.706 66.672 461.613 75.96C463.138 71.64 464.769 67.4496 466.283 63.1584C475.341 53.8992 485.08 46.0944 495.546 41.112C494.079 45.3744 492.495 49.5504 491.017 53.8272V53.8416Z" fill="#231F20"/>
<path d="M562.273 56.232C549.46 51.2784 536.8 47.8368 524.586 47.2464C526.005 42.9696 527.542 38.808 528.95 34.5456C541.106 35.136 553.696 38.5632 566.439 43.488C565.089 47.7504 563.634 51.9264 562.273 56.2176V56.232Z" fill="#231F20"/>
<path d="M642.095 93.24C628.883 88.128 615.648 81.4896 602.237 74.7648C603.528 70.4592 604.912 66.2544 606.191 61.9632C619.532 68.6592 632.685 75.2832 645.838 80.3664C644.641 84.672 643.315 88.8912 642.095 93.2256V93.24Z" fill="#231F20"/>
<path d="M712.988 95.5728C702.475 100.483 691.035 102.658 679.395 102.096C680.545 97.7472 681.801 93.5136 682.939 89.1936C694.508 89.7552 705.901 87.5808 716.355 82.6848C715.264 86.9904 714.079 91.224 712.976 95.5584L712.988 95.5728Z" fill="#231F20"/>
<path d="M770.833 41.8176C761.658 52.9776 752.611 64.0368 742.919 73.5984C743.987 69.2928 745.114 65.088 746.146 60.8112C755.779 51.2928 764.802 40.2912 773.919 29.1456C772.922 33.3936 771.819 37.5552 770.821 41.8176H770.833Z" fill="#231F20"/>
<path d="M801.234 0C800.46 3.2832 799.662 6.5376 798.899 9.864C802.454 6.3504 806.092 3.0384 809.823 0H801.222H801.234Z" fill="#231F20"/>
<path d="M1.45826e-05 195.538V212.256C8.78828 214.877 17.424 216.605 25.7781 217.008C28.0309 212.443 30.1899 207.59 32.0437 202.306C21.7067 201.816 10.9589 199.282 -0.0117188 195.538H1.45826e-05Z" fill="#231F20"/>
<path d="M85.8645 189.403C77.3579 198.374 68.1237 205.92 58.1387 210.686C60.3445 206.136 62.4683 201.298 64.2517 196.013C74.2016 191.261 83.3888 183.744 91.8603 174.787C90.1003 180.043 88.0235 184.867 85.8645 189.403Z" fill="#231F20"/>
<path d="M135.907 127.8C127.049 137.146 118.953 147.931 110.774 158.731C112.91 154.224 114.951 149.443 116.676 144.216C124.807 133.416 132.88 122.688 141.703 113.371C140.002 118.57 138.007 123.322 135.907 127.786V127.8Z" fill="#231F20"/>
<path d="M197.015 99.6624C185.481 99.1008 174.228 101.246 164.056 106.142C166.109 101.707 168.068 96.9696 169.735 91.8C179.86 86.9328 191.054 84.7872 202.529 85.3488C200.922 90.5184 199.009 95.2416 197.015 99.6768V99.6624Z" fill="#231F20"/>
<path d="M274.712 126.677C261.196 120.067 247.831 113.53 234.49 108.475C236.426 104.026 238.257 99.288 239.817 94.1184C253.1 99.1584 266.382 105.682 279.828 112.262C278.338 117.446 276.566 122.198 274.712 126.677Z" fill="#231F20"/>
<path d="M351.918 153.49C339.903 152.928 327.407 149.587 314.688 144.763C316.483 140.27 318.185 135.49 319.604 130.291C332.253 135.101 344.69 138.413 356.646 138.989C355.274 144.187 353.643 148.982 351.918 153.49Z" fill="#231F20"/>
<path d="M413.541 125.482C404.624 134.582 395.05 142.229 384.771 147.096C386.437 142.589 388.021 137.808 389.347 132.624C399.579 127.771 409.106 120.154 417.988 111.082C416.709 116.251 415.172 121.003 413.541 125.496V125.482Z" fill="#231F20"/>
<path d="M466.377 62.9424C457.084 72.432 448.495 83.3616 439.836 94.3488C441.42 89.8992 442.922 85.176 444.166 80.0352C452.778 69.0768 461.331 58.1904 470.589 48.7296C469.38 53.8416 467.926 58.5216 466.377 62.9424Z" fill="#231F20"/>
<path d="M529.044 34.3584C517.405 33.7968 505.988 35.9856 495.581 40.9392C497.083 36.5616 498.502 31.8816 499.664 26.7984C510.025 21.8592 521.382 19.6848 532.963 20.232C531.849 25.3008 530.488 29.9664 529.044 34.344V34.3584Z" fill="#231F20"/>
<path d="M606.285 61.776C592.92 55.0656 579.709 48.4272 566.473 43.2864C567.858 38.8944 569.149 34.2288 570.205 29.1456C583.381 34.2576 596.522 40.8816 609.816 47.5776C608.831 52.6752 607.599 57.3696 606.296 61.776H606.285Z" fill="#231F20"/>
<path d="M683.021 89.0064C670.971 88.4304 658.486 85.0464 645.85 80.1504C647.082 75.7152 648.243 70.992 649.17 65.8944C661.737 70.776 674.15 74.1456 686.154 74.7216C685.274 79.8336 684.194 84.5712 683.021 89.0064Z" fill="#231F20"/>
<path d="M746.228 60.5808C736.9 69.8256 726.962 77.5728 716.39 82.512C717.505 78.0768 718.549 73.3536 719.37 68.2416C729.895 63.3024 739.775 55.5696 749.067 46.3824C748.281 51.4656 747.296 56.16 746.228 60.5808Z" fill="#231F20"/>
<path d="M789.02 0C784.878 4.8672 780.771 9.864 776.664 14.8752C775.925 19.9296 774.987 24.5952 773.954 28.9728C782.191 18.9072 790.393 8.9424 799.052 0H789.008L789.02 0Z" fill="#231F20"/>
<path d="M64.3692 195.754C54.4311 200.52 43.4252 202.579 32.1025 202.046C34.0385 196.43 35.7047 190.195 36.9719 183.341C48.2359 183.874 59.2065 181.8 69.0977 177.048C67.8657 183.902 66.2817 190.138 64.3692 195.739V195.754Z" fill="#231F20"/>
<path d="M116.77 143.942C108.662 154.714 100.637 165.341 91.9189 174.557C93.7845 168.955 95.3451 162.749 96.5419 155.909C105.225 146.722 113.215 136.109 121.299 125.352C120.138 132.178 118.601 138.37 116.77 143.942Z" fill="#231F20"/>
<path d="M169.828 91.5264C159.702 96.4224 150.339 104.054 141.75 113.155C143.545 107.611 145.059 101.434 146.185 94.6368C154.751 85.5792 164.067 77.9184 174.146 73.0512C173.043 79.8336 171.588 85.9968 169.816 91.5264H169.828Z" fill="#231F20"/>
<path d="M239.923 93.8736C227.169 89.0352 214.626 85.6656 202.564 85.0896C204.277 79.56 205.697 73.4112 206.753 66.6288C218.756 67.2048 231.24 70.56 243.936 75.3984C242.927 82.1808 241.566 88.344 239.911 93.8736H239.923Z" fill="#231F20"/>
<path d="M319.71 130.061C306.521 125.05 293.298 118.57 279.863 111.989C281.447 106.43 282.738 100.267 283.7 93.4704C297.064 100.037 310.229 106.502 323.359 111.499C322.455 118.296 321.223 124.474 319.698 130.061H319.71Z" fill="#231F20"/>
<path d="M389.43 132.35C379.257 137.174 368.087 139.291 356.67 138.744C358.125 133.157 359.298 126.979 360.155 120.168C371.525 120.715 382.648 118.598 392.774 113.789C391.964 120.586 390.826 126.763 389.418 132.35H389.43Z" fill="#231F20"/>
<path d="M444.247 79.7616C435.658 90.6912 427.163 101.491 418.023 110.837C419.384 105.278 420.475 99.1008 421.262 92.3184C430.367 82.9872 438.826 72.216 447.38 61.3008C446.629 68.0688 445.573 74.2032 444.247 79.7472V79.7616Z" fill="#231F20"/>
<path d="M499.758 26.5392C489.338 31.5072 479.635 39.2832 470.624 48.5136C471.914 42.9984 472.935 36.8784 473.651 30.1392C482.627 20.9376 492.284 13.176 502.656 8.2224C501.975 14.9472 501.001 21.0528 499.746 26.5392H499.758Z" fill="#231F20"/>
<path d="M570.287 28.9152C557.615 23.9904 545.084 20.592 532.999 20.0016C534.195 14.5152 535.122 8.4096 535.756 1.6992C547.794 2.2608 560.267 5.688 572.88 10.5984C572.293 17.3232 571.413 23.4288 570.287 28.9296V28.9152Z" fill="#231F20"/>
<path d="M649.264 65.6496C636.181 60.5808 623.099 53.9856 609.828 47.304C610.896 41.7888 611.705 35.6688 612.245 28.9296C625.457 35.5968 638.481 42.1632 651.505 47.232C651.024 53.9712 650.273 60.1056 649.276 65.6496H649.264Z" fill="#231F20"/>
<path d="M719.429 67.9824C709.022 72.8496 697.687 75.024 686.177 74.4624C687.115 68.904 687.796 62.784 688.254 56.0304C699.717 56.592 711.004 54.4176 721.365 49.5648C720.966 56.304 720.321 62.4384 719.441 67.9824H719.429Z" fill="#231F20"/>
<path d="M775.385 0C767.36 9.792 759.358 19.368 750.874 27.792C750.522 34.5168 749.9 40.6224 749.067 46.1664C758.654 36.6624 767.63 25.704 776.711 14.616C777.356 10.152 777.838 5.2704 778.178 0.0144H775.374L775.385 0Z" fill="#231F20"/>
<path d="M37.0654 183.01C25.203 182.448 12.8126 179.179 0.140625 174.47C1.56036 167.026 2.54596 158.789 3.13263 149.818C15.746 154.541 28.1012 157.795 39.9166 158.357C39.3417 167.314 38.4265 175.55 37.0537 183.01H37.0654Z" fill="#231F20"/>
<path d="M96.6357 155.563C88.1995 164.491 79.0475 171.979 69.1445 176.746C70.4587 169.286 71.3504 161.05 71.8901 152.093C81.7579 147.326 90.8747 139.838 99.2875 130.925C98.7829 139.882 97.9029 148.104 96.6357 155.563Z" fill="#231F20"/>
<path d="M146.28 94.2912C137.492 103.579 129.454 114.293 121.346 125.064C122.602 117.619 123.447 109.411 123.928 100.454C131.989 89.6832 140.026 78.9984 148.779 69.7104C148.333 78.6672 147.5 86.8752 146.28 94.3056V94.2912Z" fill="#231F20"/>
<path d="M206.847 66.2976C195.419 65.7504 184.272 67.8816 174.193 72.7344C175.39 65.3184 176.165 57.1104 176.599 48.1536C186.631 43.2864 197.742 41.1696 209.135 41.7168C208.736 50.6592 208.009 58.8672 206.847 66.2832V66.2976Z" fill="#231F20"/>
<path d="M283.783 93.168C270.395 86.6016 257.171 80.1072 243.96 75.0528C245.063 67.6224 245.755 59.4288 246.107 50.472C259.272 55.4976 272.448 62.0064 285.777 68.5728C285.461 77.5152 284.803 85.7232 283.783 93.168Z" fill="#231F20"/>
<path d="M360.237 119.837C348.339 119.261 335.96 115.949 323.371 111.168C324.344 103.723 324.955 95.5152 325.224 86.5584C337.767 91.3536 350.099 94.6512 361.962 95.2272C361.727 104.17 361.175 112.392 360.248 119.837H360.237Z" fill="#231F20"/>
<path d="M421.32 91.9728C412.485 101.016 402.981 108.619 392.797 113.472C393.677 106.027 394.193 97.8192 394.392 88.8624C404.542 84.024 414.011 76.4208 422.811 67.392C422.635 76.3344 422.153 84.5424 421.309 91.9872L421.32 91.9728Z" fill="#231F20"/>
<path d="M473.71 29.7792C464.488 39.2256 455.981 50.0832 447.392 61.0128C448.202 53.5824 448.659 45.3888 448.8 36.4464C457.342 25.5168 465.837 14.6736 475.024 5.2272C474.907 14.1696 474.484 22.3488 473.698 29.7648L473.71 29.7792Z" fill="#231F20"/>
<path d="M503.29 0C503.114 2.7072 502.926 5.3712 502.668 7.9056C512.981 2.9952 524.292 0.8064 535.814 1.3536C535.85 0.9072 535.885 0.4464 535.92 0H503.278L503.29 0Z" fill="#231F20"/>
<path d="M573.514 0C573.361 3.5568 573.15 6.984 572.868 10.2384C585.974 15.336 599.057 21.9456 612.292 28.6272C612.879 21.1968 613.125 13.0176 613.102 4.0896C610.391 2.7216 607.693 1.3536 604.994 0H573.502H573.514Z" fill="#231F20"/>
<path d="M688.3 55.7136C676.368 55.1376 664.001 51.768 651.493 46.9008C652.009 39.4704 652.232 31.2768 652.162 22.3488C664.634 27.2016 676.943 30.5712 688.84 31.1472C688.946 40.0896 688.77 48.2688 688.3 55.7136Z" fill="#231F20"/>
<path d="M750.921 27.432C741.664 36.6192 731.831 44.3232 721.353 49.248C721.776 41.8176 721.905 33.624 721.764 24.696C732.207 19.7712 742.016 12.0672 751.226 2.89439C751.391 11.8224 751.308 20.0016 750.921 27.432Z" fill="#231F20"/>
<path d="M3.90696 117.907C2.60456 117.418 1.30216 116.899 -0.000244141 116.395V148.176C1.06749 148.594 2.13522 149.011 3.20296 149.414C3.84829 139.694 4.03602 129.168 3.89522 117.922L3.90696 117.907Z" fill="#231F20"/>
<path d="M71.9372 151.632C62.0812 156.384 51.1575 158.443 39.9287 157.91C40.5271 148.19 40.6914 137.664 40.5271 126.418C51.7207 126.95 62.621 124.877 72.4535 120.125C72.6412 131.371 72.5004 141.898 71.949 151.618L71.9372 151.632Z" fill="#231F20"/>
<path d="M123.963 99.9792C115.913 110.722 107.935 121.306 99.2874 130.507C99.8036 120.773 99.9327 110.246 99.7215 98.9856C108.357 89.7984 116.289 79.1712 124.326 68.4288C124.561 79.704 124.467 90.2304 123.963 99.9792Z" fill="#231F20"/>
<path d="M176.633 47.7216C166.59 52.6032 157.308 60.2352 148.767 69.2928C149.259 59.5584 149.318 49.0176 149.072 37.7136C157.59 28.656 166.836 20.9952 176.856 16.128C177.126 27.432 177.091 37.9728 176.633 47.7216Z" fill="#231F20"/>
<path d="M246.166 50.0544C233.517 45.216 221.08 41.8752 209.124 41.2992C209.534 31.5504 209.546 21.0096 209.253 9.7056C221.174 10.296 233.576 13.6512 246.189 18.4752C246.518 29.7792 246.529 40.32 246.166 50.0688V50.0544Z" fill="#231F20"/>
<path d="M325.272 86.1408C312.201 81.144 299.083 74.6928 285.765 68.1264C286.094 58.3776 286.035 47.8368 285.683 36.5472C298.965 43.1136 312.036 49.5936 325.084 54.576C325.471 65.8656 325.565 76.392 325.272 86.1408Z" fill="#231F20"/>
<path d="M394.428 88.416C384.337 93.2256 373.261 95.328 361.938 94.7808C362.185 85.032 362.056 74.5056 361.645 63.2304C372.932 63.7776 383.997 61.6752 394.052 56.8512C394.487 68.1264 394.639 78.6672 394.428 88.4016V88.416Z" fill="#231F20"/>
<path d="M448.835 35.9856C440.305 46.8864 431.88 57.6432 422.799 66.9744C422.975 57.2256 422.799 46.6848 422.341 35.3952C431.399 26.064 439.801 15.2928 448.295 4.37759C448.777 15.6816 448.976 26.2224 448.835 35.9856Z" fill="#231F20"/>
<path d="M475.024 0C475.024 1.6272 475.024 3.2544 475.012 4.8384C476.632 3.168 478.286 1.5696 479.952 0H475.036H475.024Z" fill="#231F20"/>
<path d="M613.031 0C613.043 1.2096 613.067 2.448 613.078 3.6288C626.243 10.2816 639.22 16.848 652.186 21.9168C652.127 15.0048 651.916 7.6896 651.564 0L613.031 0Z" fill="#231F20"/>
<path d="M687.644 0C688.277 10.9584 688.688 21.2112 688.805 30.7152C700.222 31.2768 711.474 29.1024 721.788 24.2496C721.67 16.6464 721.365 8.5536 720.908 0L687.644 0Z" fill="#231F20"/>
<path d="M40.5389 125.885C28.7469 125.338 16.4386 122.054 3.86048 117.346C3.69621 105.322 3.16821 92.6208 2.38208 79.2864C14.9367 84.0096 27.2215 87.2928 38.9901 87.8544C39.7997 101.174 40.3511 113.875 40.5389 125.885Z" fill="#231F20"/>
<path d="M99.7332 98.424C91.3556 107.352 82.2506 114.854 72.4063 119.606C72.1834 107.582 71.6202 94.8816 70.7871 81.5616C80.6196 76.7952 89.7012 69.2784 98.0554 60.3216C98.9002 73.6704 99.4868 86.3856 99.7215 98.424H99.7332Z" fill="#231F20"/>
<path d="M146.291 -0.000156883C137.973 9.07184 130.287 19.3534 122.567 29.7358C123.4 43.1134 124.033 55.8574 124.291 67.9102C132.341 57.139 140.343 46.4399 149.072 37.1374C148.802 25.4014 148.192 12.9886 147.359 -0.0145569H146.28L146.291 -0.000156883Z" fill="#231F20"/>
<path d="M176.258 0C176.493 5.3136 176.692 10.5264 176.821 15.5952C186.83 10.728 197.906 8.6112 209.264 9.1584C209.182 6.1488 209.076 3.096 208.959 0H176.258Z" fill="#231F20"/>
<path d="M245.403 0C245.72 6.12 245.966 12.096 246.142 17.8992C259.272 22.9248 272.401 29.4336 285.707 36.0144C285.343 24.624 284.674 12.5856 283.806 0L245.403 0Z" fill="#231F20"/>
<path d="M361.657 62.6976C349.829 62.1216 337.533 58.824 325.025 54.0288C324.603 41.9616 323.864 29.2032 322.901 15.8112C335.386 20.6064 347.659 23.9184 359.462 24.5088C360.448 37.8864 361.211 50.6448 361.657 62.6976Z" fill="#231F20"/>
<path d="M416.604 -0.000156886C408.824 7.55984 400.552 13.8958 391.741 18.115C392.738 31.507 393.524 44.2654 393.994 56.3182C404.119 51.4798 413.553 43.8766 422.33 34.819C421.872 23.7886 421.156 12.139 420.264 -0.0145569H416.592L416.604 -0.000156886Z" fill="#231F20"/>
<path d="M-0.000244141 45.1296V77.7312C0.797623 78.0336 1.58376 78.3648 2.38162 78.6528C1.72456 67.7664 0.914956 56.5632 -0.000244141 45.1152V45.1296Z" fill="#231F20"/>
<path d="M70.7875 80.9136C60.9784 85.6944 50.1016 87.7392 38.9315 87.2208C38.075 73.296 36.9603 58.8816 35.7166 44.0784C46.875 44.6112 57.74 42.5232 67.5374 37.7568C68.8046 52.5744 69.9427 66.9888 70.7992 80.928L70.7875 80.9136Z" fill="#231F20"/>
<path d="M108.463 -0.000156886C103.993 5.77424 99.452 11.3326 94.7 16.459C95.9554 31.3054 97.1053 45.7486 98.0088 59.7022C106.621 50.4718 114.541 39.8302 122.555 29.059C121.945 19.5838 121.206 9.87824 120.408 -0.0145569H108.463V-0.000156886Z" fill="#231F20"/>
<path d="M289.414 0C300.667 5.5728 311.802 10.9152 322.901 15.1776C322.538 10.1808 322.139 5.112 321.728 0H289.426H289.414Z" fill="#231F20"/>
<path d="M357.468 0C358.16 8.0928 358.817 16.056 359.392 23.8608C370.656 24.408 381.697 22.2768 391.729 17.4672C391.295 11.736 390.826 5.8896 390.321 0L357.468 0Z" fill="#231F20"/>
<path d="M-0.000244141 35.1073C12.2259 39.6721 24.2056 42.8401 35.6808 43.3873C34.4723 29.0737 33.1464 14.5873 31.7971 0.0145416H-0.000244141V35.1217V35.1073Z" fill="#231F20"/>
<path d="M64.0991 0C65.249 12.4416 66.3754 24.8256 67.4314 37.0656C77.2405 32.2848 86.3103 24.7248 94.6527 15.7536C94.2069 10.5408 93.7258 5.2704 93.2447 0.0144H64.0874L64.0991 0Z" fill="#231F20"/>
</g>
<defs>
<radialGradient id="paint0_radial_6111_567" cx="0" cy="0" r="1" gradientUnits="userSpaceOnUse" gradientTransform="translate(422.006 406.42) rotate(-162.607) scale(450.87 8897.02)">
<stop stop-color="#102D3C"/>
<stop offset="0.161465" stop-color="#214E81"/>
<stop offset="0.363625" stop-color="#506179"/>
<stop offset="0.651499" stop-color="#ED5409"/>
<stop offset="1" stop-color="#FFCB67"/>
</radialGradient>
<clipPath id="clip0_6111_567">
<rect width="880" height="720" fill="white"/>
</clipPath>
</defs>
</svg>
