<svg width="188" height="40" viewBox="0 0 188 40" fill="none" xmlns="http://www.w3.org/2000/svg">
<path d="M35.7292 14.6026L39.8031 9.83157L44.0077 4.90803H64.4754L68.5493 0.136967H41.7965L37.7226 4.90803L33.518 9.83157L29.7491 14.2432L29.4441 14.6026L24.4878 20.4956L24.4551 20.4521L21.5032 16.9991L31.8296 4.90803L35.9035 0.136967H0.828613L4.90255 4.90803L15.2289 16.9991L18.3661 20.6808L21.318 24.1338L21.3725 24.1992L24.4551 27.8047L24.5096 27.8701L31.4919 36.1595L34.6072 39.8631L37.7444 36.1922L43.1254 29.907L56.1859 14.6026L60.2598 9.83157H44.9227L40.8488 14.6026H49.9008L39.9774 26.2361L34.6181 32.4995L27.614 24.1774L32.8862 17.914L35.7183 14.6026H35.7292ZM11.1768 4.89712H25.5444L18.3551 13.3173L11.1659 4.89712H11.1768Z" fill="#F5F5F5"/>
<path d="M79.8345 20.049V19.9945C79.8345 14.9729 83.4727 10.3762 89.028 10.3762C92.0562 10.3762 93.9733 11.2803 95.836 12.8161L94.9319 13.851C93.4723 12.5765 91.773 11.618 88.9518 11.618C84.4313 11.618 81.2723 15.4413 81.2723 19.9401V19.9945C81.2723 24.8092 84.2788 28.3929 89.2459 28.3929C91.6096 28.3929 93.8209 27.4125 95.1716 26.2688V20.9313H88.9518V19.6568H96.5005V26.8352C94.823 28.3275 92.2196 29.6238 89.1914 29.6238C83.3202 29.6238 79.8345 25.2884 79.8345 20.0599V20.049Z" fill="#F5F5F5"/>
<path d="M113.548 10.5723H114.877L123.536 29.3079H122.022L119.658 24.1012H108.679L106.315 29.3079H104.877L113.537 10.5723H113.548ZM119.081 22.8485L114.19 12.0864L109.278 22.8485H119.081Z" fill="#F5F5F5"/>
<path d="M130.867 26.5957L131.771 25.5608C133.819 27.4453 135.703 28.3276 138.437 28.3276C141.171 28.3276 143.143 26.759 143.143 24.6349V24.5805C143.143 22.6089 142.108 21.476 137.882 20.6264C133.416 19.7223 131.608 18.2082 131.608 15.3869V15.3325C131.608 12.5657 134.135 10.4416 137.588 10.4416C140.3 10.4416 142.076 11.1823 143.96 12.6964L143.078 13.7857C141.324 12.2716 139.57 11.6834 137.522 11.6834C134.788 11.6834 132.98 13.252 132.98 15.1909V15.2453C132.98 17.2169 133.993 18.4043 138.405 19.3084C142.707 20.1907 144.516 21.7266 144.516 24.4389V24.4933C144.516 27.4997 141.934 29.5694 138.35 29.5694C135.376 29.5694 133.089 28.589 130.856 26.5957H130.867Z" fill="#F5F5F5"/>
<path d="M154.069 10.703H155.452V28.0335H166.378V29.3079H154.069V10.703Z" fill="#F5F5F5"/>
<path d="M178.12 21.9444L170.146 10.703H171.878L178.839 20.6917L185.832 10.703H187.477L179.503 21.9226V29.3079H178.12V21.9444Z" fill="#F5F5F5"/>
</svg>
