<svg width="64" height="64" viewBox="0 0 64 64" fill="none" xmlns="http://www.w3.org/2000/svg">
<path d="M61.4513 21.7782C57.2348 9.12869 45.4158 0.695679 32.0635 0.695679C14.8142 0.695679 0.695312 14.7507 0.695312 32C0.695312 34.4916 1.07863 37.1109 1.84527 40.1775C5.55068 53.7853 18.0085 63.3044 32.1274 63.3044C49.3129 63.3044 63.304 49.2494 63.304 32C63.304 28.5502 62.6651 25.2281 61.4513 21.7782ZM32.0635 60.0462C19.414 60.0462 8.23391 51.5493 4.91182 39.347C4.20907 36.536 3.88963 34.236 3.88963 32C3.88963 16.5395 16.5391 3.89 32.0635 3.89C44.0103 3.89 54.6155 11.5564 58.3848 22.8643C59.5347 25.9308 60.0458 28.9335 60.0458 32C60.0458 47.5244 47.5241 60.0462 32.0635 60.0462Z" fill="black"/>
<path d="M61.4513 21.7782C57.2348 9.12869 45.4158 0.695679 32.0635 0.695679C14.8142 0.695679 0.695312 14.7507 0.695312 32C0.695312 34.4916 1.07863 37.1109 1.84527 40.1775C5.55068 53.7853 18.0085 63.3044 32.1274 63.3044C49.3129 63.3044 63.304 49.2494 63.304 32C63.304 28.5502 62.6651 25.2281 61.4513 21.7782ZM32.0635 60.0462C19.414 60.0462 8.23391 51.5493 4.91182 39.347C4.20907 36.536 3.88963 34.236 3.88963 32C3.88963 16.5395 16.5391 3.89 32.0635 3.89C44.0103 3.89 54.6155 11.5564 58.3848 22.8643C59.5347 25.9308 60.0458 28.9335 60.0458 32C60.0458 47.5244 47.5241 60.0462 32.0635 60.0462Z" fill="url(#paint0_linear_1216_5258)"/>
<path d="M11.6836 19.4783L29.8912 14.8785C31.2328 14.5591 32.6383 14.3674 33.98 14.3674H34.0438C34.4272 14.3674 43.4351 13.7925 50.3349 19.095L51.7404 18.7756C46.7572 11.5564 37.877 8.10657 29.3162 10.0232L20.8832 12.1314L21.1388 9.00098L11.6836 19.4783Z" fill="black"/>
<path d="M11.6836 19.4783L29.8912 14.8785C31.2328 14.5591 32.6383 14.3674 33.98 14.3674H34.0438C34.4272 14.3674 43.4351 13.7925 50.3349 19.095L51.7404 18.7756C46.7572 11.5564 37.877 8.10657 29.3162 10.0232L20.8832 12.1314L21.1388 9.00098L11.6836 19.4783Z" fill="url(#paint1_linear_1216_5258)"/>
<path d="M34.1079 48.802C32.7663 49.1214 31.3608 49.3131 30.0192 49.3131H29.9553C29.572 49.3131 20.564 49.888 13.6643 44.5855L12.2588 44.9049C17.2419 52.1241 26.1221 55.5739 34.6829 53.7212L43.1159 51.613L42.8604 54.7434L52.3156 44.2021L34.1079 48.802Z" fill="black"/>
<path d="M34.1079 48.802C32.7663 49.1214 31.3608 49.3131 30.0192 49.3131H29.9553C29.572 49.3131 20.564 49.888 13.6643 44.5855L12.2588 44.9049C17.2419 52.1241 26.1221 55.5739 34.6829 53.7212L43.1159 51.613L42.8604 54.7434L52.3156 44.2021L34.1079 48.802Z" fill="url(#paint2_linear_1216_5258)"/>
<path d="M26.1217 18.7759C23.3107 18.7759 21.0107 20.8841 21.0107 23.4396V41.0722C21.0107 43.6277 23.3107 45.7359 26.1217 45.7359H42.9877C42.9877 42.7333 40.3044 40.3695 37.0462 40.3695H33.7241C30.402 40.3695 27.7827 37.9418 27.7827 34.9391H36.4713C38.1323 34.9391 39.41 33.7253 39.41 32.2559C39.41 30.7865 38.0684 29.5727 36.4713 29.5727H27.7827C27.7827 26.6339 30.402 24.2062 33.6603 24.2062H37.0462C40.3044 24.2062 42.9877 21.7785 42.9877 18.8398L26.1217 18.7759Z" fill="black"/>
<path d="M26.1217 18.7759C23.3107 18.7759 21.0107 20.8841 21.0107 23.4396V41.0722C21.0107 43.6277 23.3107 45.7359 26.1217 45.7359H42.9877C42.9877 42.7333 40.3044 40.3695 37.0462 40.3695H33.7241C30.402 40.3695 27.7827 37.9418 27.7827 34.9391H36.4713C38.1323 34.9391 39.41 33.7253 39.41 32.2559C39.41 30.7865 38.0684 29.5727 36.4713 29.5727H27.7827C27.7827 26.6339 30.402 24.2062 33.6603 24.2062H37.0462C40.3044 24.2062 42.9877 21.7785 42.9877 18.8398L26.1217 18.7759Z" fill="url(#paint3_linear_1216_5258)"/>
<path d="M26.1217 18.7759C23.3107 18.7759 21.0107 20.8841 21.0107 23.4396V28.8699C21.0107 26.3145 23.3107 24.2062 26.1217 24.2062H27.7188H36.9823C40.2406 24.2062 42.9238 21.7785 42.9238 18.8398H26.1217V18.7759Z" fill="black"/>
<path d="M26.1217 18.7759C23.3107 18.7759 21.0107 20.8841 21.0107 23.4396V28.8699C21.0107 26.3145 23.3107 24.2062 26.1217 24.2062H27.7188H36.9823C40.2406 24.2062 42.9238 21.7785 42.9238 18.8398H26.1217V18.7759Z" fill="url(#paint4_linear_1216_5258)"/>
<path d="M21.0107 41.0725C21.0107 43.628 23.3107 45.7362 26.1217 45.7362H42.9877C42.9877 42.7336 40.3044 40.3698 37.0462 40.3698H27.7827H26.1855C23.3745 40.3698 21.0746 38.2615 21.0746 35.7061V41.0725H21.0107Z" fill="black"/>
<path d="M21.0107 41.0725C21.0107 43.628 23.3107 45.7362 26.1217 45.7362H42.9877C42.9877 42.7336 40.3044 40.3698 37.0462 40.3698H27.7827H26.1855C23.3745 40.3698 21.0746 38.2615 21.0746 35.7061V41.0725H21.0107Z" fill="url(#paint5_linear_1216_5258)"/>
<path d="M21.0107 30.2754C21.0107 32.8309 23.3107 34.9391 26.1217 34.9391H42.6682C42.6682 31.9364 39.985 29.5726 36.7268 29.5726H36.8546H26.1217C23.3107 29.5726 21.0107 27.4644 21.0107 24.9089V30.2754Z" fill="black"/>
<path d="M21.0107 30.2754C21.0107 32.8309 23.3107 34.9391 26.1217 34.9391H42.6682C42.6682 31.9364 39.985 29.5726 36.7268 29.5726H36.8546H26.1217C23.3107 29.5726 21.0107 27.4644 21.0107 24.9089V30.2754Z" fill="url(#paint6_linear_1216_5258)"/>
<defs>
<linearGradient id="paint0_linear_1216_5258" x1="0.695312" y1="32" x2="63.304" y2="32" gradientUnits="userSpaceOnUse">
<stop stop-color="#0051C9"/>
<stop offset="1" stop-color="#2EFEEF"/>
</linearGradient>
<linearGradient id="paint1_linear_1216_5258" x1="11.6836" y1="14.2397" x2="51.7404" y2="14.2397" gradientUnits="userSpaceOnUse">
<stop stop-color="#0051C9"/>
<stop offset="1" stop-color="#2EFEEF"/>
</linearGradient>
<linearGradient id="paint2_linear_1216_5258" x1="12.2588" y1="49.4728" x2="52.3156" y2="49.4728" gradientUnits="userSpaceOnUse">
<stop stop-color="#0051C9"/>
<stop offset="1" stop-color="#2EFEEF"/>
</linearGradient>
<linearGradient id="paint3_linear_1216_5258" x1="31.9992" y1="45.7359" x2="31.9992" y2="18.7759" gradientUnits="userSpaceOnUse">
<stop stop-color="#0051C9"/>
<stop offset="1" stop-color="#2EFEEF"/>
</linearGradient>
<linearGradient id="paint4_linear_1216_5258" x1="21.0107" y1="23.8229" x2="42.9238" y2="23.8229" gradientUnits="userSpaceOnUse">
<stop stop-color="#0051C9"/>
<stop offset="1" stop-color="#2EFEEF"/>
</linearGradient>
<linearGradient id="paint5_linear_1216_5258" x1="21.0107" y1="40.7211" x2="42.9877" y2="40.7211" gradientUnits="userSpaceOnUse">
<stop stop-color="#0051C9"/>
<stop offset="1" stop-color="#2EFEEF"/>
</linearGradient>
<linearGradient id="paint6_linear_1216_5258" x1="21.0107" y1="29.924" x2="42.6682" y2="29.924" gradientUnits="userSpaceOnUse">
<stop stop-color="#0051C9"/>
<stop offset="1" stop-color="#2EFEEF"/>
</linearGradient>
</defs>
</svg>
