<svg width="74" height="74" viewBox="0 0 74 74" fill="none" xmlns="http://www.w3.org/2000/svg">
<g clip-path="url(#clip0_1044_5435)">
<path d="M37.0168 73.4416C32.098 73.4416 27.3257 72.4774 22.8311 70.5772C18.4908 68.7413 14.5953 66.1135 11.2476 62.7683C7.90234 59.423 5.2745 55.525 3.43861 51.1847C1.53844 46.6901 0.574219 41.9178 0.574219 36.999C0.574219 32.0802 1.53844 27.3079 3.43861 22.8133C5.2745 18.473 7.90234 14.5775 11.2476 11.2297C14.5953 7.88451 18.4908 5.25668 22.8311 3.42079C27.3257 1.52062 32.098 0.556396 37.0168 0.556396C41.9357 0.556396 46.7079 1.52062 51.2025 3.42079C55.5428 5.25668 59.4383 7.88451 62.7861 11.2297C66.1313 14.575 68.7591 18.473 70.595 22.8133C72.4952 27.3079 73.4594 32.0802 73.4594 36.999C73.4594 41.9178 72.4952 46.6901 70.595 51.1847C68.7591 55.525 66.1313 59.4205 62.7861 62.7683C59.4409 66.1135 55.5428 68.7413 51.2025 70.5772C46.7079 72.4799 41.9357 73.4416 37.0168 73.4416Z" fill="white"/>
<path d="M37.0106 71.5105C56.0708 71.5105 71.5222 56.0591 71.5222 36.9989C71.5222 17.9387 56.0708 2.4873 37.0106 2.4873C17.9504 2.4873 2.49902 17.9387 2.49902 36.9989C2.49902 56.0591 17.9504 71.5105 37.0106 71.5105Z" fill="black"/>
<path d="M55.1923 36.9973C55.1923 33.2998 54.0815 29.8594 52.1787 26.9847L57.8227 21.3408L52.747 16.2651L47.1185 21.8936C44.2284 19.9523 40.752 18.8184 37.016 18.8184C33.3185 18.8184 29.8781 19.9292 27.0034 21.8319L21.3569 16.188L16.2812 21.2637L21.9097 26.8922C19.9684 29.7823 18.8345 33.2586 18.8345 36.9947C18.8345 40.6922 19.9453 44.1325 21.848 47.0072L16.2041 52.6537L21.2798 57.7294L26.9083 52.1009C29.7984 54.0422 33.2748 55.1761 37.0108 55.1761C40.7083 55.1761 44.1487 54.0653 47.0233 52.1626L52.6698 57.8091L57.7455 52.7334L52.117 47.1049C54.0583 44.2097 55.1923 40.7333 55.1923 36.9973ZM26.0161 36.9973C26.0161 30.9316 30.9503 25.9974 37.016 25.9974C43.0816 25.9974 48.0158 30.9316 48.0158 36.9973C48.0158 43.0629 43.0816 47.9972 37.016 47.9972C30.9503 47.9972 26.0161 43.0629 26.0161 36.9973Z" fill="white"/>
</g>
<defs>
<clipPath id="clip0_1044_5435">
<rect width="72.8852" height="72.8852" fill="white" transform="translate(0.571289 0.557373)"/>
</clipPath>
</defs>
</svg>
