<svg width="48" height="54" viewBox="0 0 48 54" fill="none" xmlns="http://www.w3.org/2000/svg">
<path d="M28.5409 22.2986V0.338379H15.993C11.8623 0.381903 7.91554 2.05335 5.00996 4.98971C2.10439 7.92606 0.474609 11.8902 0.474609 16.0211C0.474609 20.152 2.10439 24.1162 5.00996 27.0525C7.91554 29.9889 11.8623 31.6603 15.993 31.7038H19.1269V22.2986H28.5409Z" fill="#141416"/>
<path d="M31.6771 22.2987H28.5431V31.7005H19.1309V53.6607H31.6771C33.7504 53.6825 35.8076 53.293 37.7295 52.5147C39.6513 51.7363 41.3998 50.5846 42.8737 49.1262C44.3476 47.6677 45.5177 45.9315 46.3162 44.0179C47.1147 42.1043 47.5259 40.0514 47.5259 37.9779C47.5259 35.9044 47.1147 33.8515 46.3162 31.9379C45.5177 30.0243 44.3476 28.2881 42.8737 26.8297C41.3998 25.3712 39.6513 24.2195 37.7295 23.4412C35.8076 22.6628 33.7504 22.2733 31.6771 22.2952V22.2987Z" fill="#141416"/>
</svg>
