<svg width="121" height="22" viewBox="0 0 121 22" fill="none" xmlns="http://www.w3.org/2000/svg">
<path d="M110.984 16.4165V8.57495H112.833V9.52908H112.937C113.25 8.94767 114.026 8.38116 115.144 8.38116C116.903 8.38116 117.976 9.61852 117.976 11.2882V16.4165H116.038V11.7951C116.038 10.841 115.427 10.1999 114.532 10.1999C113.593 10.1999 112.922 10.9453 112.922 11.9292V16.4165H110.984Z" fill="white"/>
<path d="M109.013 7.87738C108.312 7.87738 107.82 7.44505 107.82 6.74438C107.82 6.07352 108.312 5.62628 109.013 5.62628C109.714 5.62628 110.206 6.07352 110.206 6.74438C110.206 7.44505 109.714 7.87738 109.013 7.87738ZM108.044 16.4166V8.57501H109.982V16.4166H108.044Z" fill="white"/>
<path d="M100.298 16.6103C97.9876 16.6103 96.3477 14.881 96.3477 12.5405C96.3477 10.0658 98.0025 8.38116 100.298 8.38116C102.818 8.38116 104.189 10.2446 104.189 12.451V13.0622H98.2261C98.2858 14.2549 99.1056 15.0599 100.358 15.0599C101.312 15.0599 102.043 14.6127 102.311 13.9716H104.115C103.727 15.5668 102.326 16.6103 100.298 16.6103ZM98.256 11.6907H102.341C102.251 10.6323 101.431 9.93159 100.298 9.93159C99.21 9.93159 98.3752 10.7068 98.256 11.6907Z" fill="white"/>
<path d="M87.2969 19.3389V8.57495H89.2052V9.57379H89.3095C89.5183 9.24583 90.2338 8.38116 91.6649 8.38116C93.8565 8.38116 95.3623 10.021 95.3623 12.4659C95.3623 14.9108 93.8714 16.6103 91.7246 16.6103C90.3381 16.6103 89.5928 15.8351 89.3394 15.4028H89.235V19.3389H87.2969ZM91.2924 14.8512C92.5446 14.8512 93.3943 13.8822 93.3943 12.4957C93.3943 11.0646 92.5446 10.1403 91.2775 10.1403C89.9954 10.1403 89.1903 11.1689 89.1903 12.4957C89.1903 13.9567 90.0847 14.8512 91.2924 14.8512Z" fill="white"/>
<path d="M73.3688 16.6103C71.0579 16.6103 69.418 14.881 69.418 12.5405C69.418 10.0658 71.0728 8.38116 73.3688 8.38116C75.8882 8.38116 77.2597 10.2446 77.2597 12.451V13.0622H71.2964C71.3561 14.2549 72.1759 15.0599 73.4284 15.0599C74.3824 15.0599 75.1128 14.6127 75.3812 13.9716H77.1851C76.7975 15.5668 75.3961 16.6103 73.3688 16.6103ZM71.3263 11.6907H75.411C75.3216 10.6323 74.5017 9.93159 73.3688 9.93159C72.2803 9.93159 71.4456 10.7068 71.3263 11.6907Z" fill="white"/>
<path d="M60.5 16.4165V14.5822L65.9265 7.50687V7.39897H60.6938V5.62628H68.4011V7.44521L62.9747 14.5206V14.6439H68.431V16.4165H60.5Z" fill="white"/>
<path d="M52.5234 16.4165V8.57495H54.3719V9.52908H54.4762C54.7894 8.94767 55.5645 8.38116 56.6827 8.38116C58.4417 8.38116 59.5153 9.61852 59.5153 11.2882V16.4165H57.5771V11.7951C57.5771 10.841 56.9658 10.1999 56.0714 10.1999C55.1323 10.1999 54.4613 10.9453 54.4613 11.9292V16.4165H52.5234Z" fill="white"/>
<path d="M47.6459 16.6103C45.3352 16.6103 43.6953 14.881 43.6953 12.5405C43.6953 10.0658 45.3501 8.38116 47.6459 8.38116C50.1653 8.38116 51.5368 10.2446 51.5368 12.451V13.0622H45.5738C45.6334 14.2549 46.4533 15.0599 47.7055 15.0599C48.6598 15.0599 49.3902 14.6127 49.6586 13.9716H51.4623C51.0748 15.5668 49.6735 16.6103 47.6459 16.6103ZM45.6036 11.6907H49.6884C49.5989 10.6323 48.7788 9.93159 47.6459 9.93159C46.5576 9.93159 45.7229 10.7068 45.6036 11.6907Z" fill="white"/>
<path d="M34.6445 19.3277V8.54759H36.5526V9.57379H36.657C36.8657 9.24583 37.5814 8.38116 39.0126 8.38116C41.204 8.38116 42.7097 10.021 42.7097 12.4659C42.7097 14.9108 41.2189 16.6103 39.072 16.6103C37.6858 16.6103 36.9403 15.8351 36.6868 15.4028H36.5824V19.3277H34.6445ZM38.6398 14.8512C39.8921 14.8512 40.7417 13.8822 40.7417 12.4957C40.7417 11.0646 39.8921 10.1403 38.6249 10.1403C37.3429 10.1403 36.5377 11.1689 36.5377 12.4957C36.5377 13.9567 37.4323 14.8512 38.6398 14.8512Z" fill="white"/>
<path d="M27.9469 16.6108C24.6717 16.6108 22.2617 14.2162 22.2617 11.0028C22.2617 7.82032 24.6872 5.39484 27.9623 5.39484C31.2375 5.39484 33.6631 7.85122 33.6631 11.0028C33.6631 14.1853 31.2221 16.6108 27.9469 16.6108ZM27.9623 14.6487C30.0325 14.6487 31.5155 13.1039 31.5155 11.0028C31.5155 8.93264 30.0325 7.35686 27.9623 7.35686C25.8769 7.35686 24.3936 8.93264 24.3936 11.0028C24.3936 13.1039 25.8769 14.6487 27.9623 14.6487Z" fill="white"/>
<path d="M107.056 5.58038H105.176V16.4164H107.056V5.58038Z" fill="white"/>
<path d="M107.056 5.58038H105.176V16.4164H107.056V5.58038Z" fill="white"/>
<path d="M78.2461 19.3389V8.57495H80.1544V9.57379H80.2588C80.4673 9.24581 81.183 8.38116 82.6142 8.38116C84.8055 8.38116 86.3112 10.021 86.3112 12.4659C86.3112 14.9108 84.8204 16.6103 82.6738 16.6103C81.2874 16.6103 80.5418 15.8351 80.2886 15.4028H80.1842V19.3389H78.2461ZM82.2414 14.8512C83.4936 14.8512 84.3435 13.8822 84.3435 12.4957C84.3435 11.0646 83.4936 10.1403 82.2265 10.1403C80.9444 10.1403 80.1395 11.1689 80.1395 12.4957C80.1395 13.9567 81.0339 14.8512 82.2414 14.8512Z" fill="white"/>
<path d="M3.16406 19.355C5.01208 16.1576 6.58242 13.5206 8.57832 9.90641C9.28336 8.68683 10.5016 7.92902 12.0055 7.92902H14.3685L7.7694 19.355H3.16406Z" fill="white"/>
<path d="M3.18359 2.70929H17.363L14.9402 6.93359H3.18359V2.70929Z" fill="white"/>
<path d="M10.2869 16.7244C10.8201 15.7818 11.6772 15.1961 12.8777 15.1961L17.3664 15.1839V19.3556H8.76562C9.3041 18.432 9.77169 17.6351 10.2869 16.7244Z" fill="white"/>
</svg>
