<svg width="176" height="28" viewBox="0 0 176 28" fill="none" xmlns="http://www.w3.org/2000/svg">
<g clip-path="url(#clip0_1831_9588)">
<path d="M57.2505 5.50833V1.36963H43.3652V23.3173H47.9493V14.8517H56.9848V10.713H47.9493V5.50833H57.2505Z" fill="#F5F5F5"/>
<path d="M72.4618 23.7649C79.4313 23.7649 85.0206 18.7443 85.0206 12.3431C85.0206 5.91056 79.4313 0.921387 72.4618 0.921387C65.4923 0.921387 59.9375 5.91056 59.9375 12.3431C59.9375 18.7443 65.4923 23.7649 72.4618 23.7649ZM72.4618 19.5288C68.0801 19.5288 64.6642 16.5479 64.6642 12.3431C64.6642 8.10706 68.0801 5.1261 72.4618 5.1261C76.8437 5.1261 80.2593 8.10706 80.2593 12.3431C80.2593 16.5479 76.8437 19.5288 72.4618 19.5288Z" fill="#F5F5F5"/>
<path d="M101.511 23.3173H106.52L101.31 15.0398C103.999 13.8797 105.848 11.4028 105.848 8.64371C105.848 4.63042 102.352 1.36963 98.0154 1.36963H88.6035V23.3173H93.2423V15.6982H96.7717L101.511 23.3173ZM93.2423 5.41426H98.0154C99.7635 5.41426 101.209 6.82519 101.209 8.64371C101.209 10.4622 99.7635 11.9045 98.0154 11.9045H93.2423V5.41426Z" fill="#F5F5F5"/>
<path d="M119.17 1.36963H109.654V23.3173H119.17C125.777 23.3173 130.706 18.5201 130.706 12.3434C130.706 6.16676 125.777 1.36963 119.17 1.36963ZM119.17 19.1785H114.378V5.50833H119.17C123.312 5.50833 126.188 8.29881 126.188 12.3434C126.188 16.388 123.312 19.1785 119.17 19.1785Z" fill="#F5F5F5"/>
<path d="M139 19.1785V14.256H148.046V10.18H139V5.50833H148.899V1.36963H134.289V23.3173H149.07V19.1785H139Z" fill="#F5F5F5"/>
<path d="M166.988 5.50833V1.36963H152.654V23.3173H157.386V14.8517H166.713V10.713H157.386V5.50833H166.988Z" fill="#F5F5F5"/>
<path d="M171.02 1.36963V23.3173H175.499V1.36963H171.02Z" fill="#F5F5F5"/>
<path d="M14.8332 19.7026H0.5V23.2395C0.5 25.7388 2.53188 27.765 5.03836 27.765H10.8177L14.8332 19.7026Z" fill="#F5F5F5"/>
<path d="M0.5 10.2964H27.8227L24.6506 17.015H0.5V10.2964Z" fill="#F5F5F5"/>
<path d="M10.082 -0.00537109H0.5V7.60911L33.1976 7.60915V-0.00534898H23.6158V5.68153H21.6394V-0.00534898H12.0575V5.68153H10.082V-0.00537109Z" fill="#F5F5F5"/>
</g>
<defs>
<clipPath id="clip0_1831_9588">
<rect width="175" height="28" fill="white" transform="translate(0.5 -0.00537109)"/>
</clipPath>
</defs>
</svg>
