<svg width="107" height="38" viewBox="0 0 107 38" fill="none" xmlns="http://www.w3.org/2000/svg">
<g clip-path="url(#clip0_1044_14220)">
<path d="M40.7822 22.1216V19.6153H46.6299C47.5241 19.6153 48.2218 19.3573 48.7225 18.8413C49.2228 18.3253 49.4733 17.6451 49.4733 16.8041C49.4733 15.9631 49.2228 15.2696 48.7225 14.767C48.2218 14.2644 47.5241 14.0131 46.6299 14.0131H38.9203V26.2411H36.3965V11.4214H46.6299C47.4713 11.4214 48.2218 11.547 48.8837 11.7983C49.544 12.0496 50.102 12.4031 50.5564 12.8588C51.0108 13.3145 51.358 13.8673 51.5984 14.519C51.8388 15.1707 51.959 15.9045 51.959 16.7204C51.959 17.5363 51.8388 18.2516 51.5984 18.9117C51.358 19.5701 51.0108 20.138 50.5564 20.6138C50.102 21.0896 49.5456 21.4598 48.8837 21.7245C48.2238 21.9892 47.4713 22.1216 46.6299 22.1216H40.7822Z" fill="#F5F5F5"/>
<path d="M60.2409 26.2378V20.6121L52.5117 11.4214H55.9359L61.6041 18.2483L67.2905 11.4214H70.5352L62.7846 20.6121V26.2378H60.2409Z" fill="#F5F5F5"/>
<path d="M79.3053 26.2378V14.0097H72.6074V11.4214H88.556V14.0097H81.8487V26.2378H79.3053Z" fill="#F5F5F5"/>
<path d="M104.468 11.4219H107.001V26.2383H104.468V11.4219Z" fill="#F5F5F5"/>
<path d="M93.5356 26.238V19.8249H102.962V17.5314H93.5356V11.4216H91.002V26.238H93.5356Z" fill="#F5F5F5"/>
<path d="M18.1954 15.2952C18.1954 17.3407 16.5655 18.9993 14.5554 18.9993V22.7034C18.5756 22.7034 21.8353 19.3863 21.8353 15.2952C21.8353 11.2041 18.5756 7.88696 14.5554 7.88696C13.2301 7.88696 11.9855 8.24718 10.9154 8.87875C8.73897 10.1587 7.27539 12.5527 7.27539 15.2952V33.8158L10.5483 37.1461L10.9154 37.5198V15.2952C10.9154 13.2496 12.5452 11.5911 14.5554 11.5911C16.5655 11.5911 18.1954 13.2496 18.1954 15.2952Z" fill="#F5F5F5"/>
<path d="M14.556 0.479736C11.9038 0.479736 9.41792 1.20179 7.27605 2.4633C5.90469 3.26912 4.67655 4.29609 3.63607 5.49729C1.37076 8.10906 -0.00390625 11.5401 -0.00390625 15.2962V26.4084L3.63607 30.1125V15.2962C3.63607 12.0058 5.04203 9.04893 7.27605 7.01343C8.3264 6.05851 9.55949 5.30461 10.9161 4.81879C12.0536 4.40665 13.2802 4.18384 14.556 4.18384C20.5865 4.18384 25.476 9.15949 25.476 15.2962C25.476 21.4328 20.5865 26.4084 14.556 26.4084V30.1125C22.5982 30.1125 29.116 23.4783 29.116 15.2962C29.116 7.11393 22.5982 0.479736 14.556 0.479736Z" fill="#F5F5F5"/>
</g>
<defs>
<clipPath id="clip0_1044_14220">
<rect width="107.006" height="37.0404" fill="white" transform="translate(-0.00390625 0.479736)"/>
</clipPath>
</defs>
</svg>
