<svg width="100" height="38" viewBox="0 0 100 38" fill="none" xmlns="http://www.w3.org/2000/svg">
<g clip-path="url(#clip0_1044_14246)">
<path fill-rule="evenodd" clip-rule="evenodd" d="M26.8535 6.52938C24.5792 4.89582 21.8716 3.97328 19.073 3.8784C16.2744 3.78353 13.5106 4.52059 11.1309 5.99637C8.75129 7.47219 6.86274 9.62033 5.70413 12.1692C4.54551 14.718 4.16891 17.5532 4.62168 20.3161C5.07445 23.0789 6.33657 25.6457 8.2484 27.6914C10.1602 29.7372 12.6356 31.1702 15.362 31.8092C18.0884 32.4481 20.9431 32.2644 23.565 31.2812C26.1867 30.2981 28.4581 28.5596 30.0919 26.2856C31.1766 24.7758 31.9532 23.0672 32.3775 21.2573C32.8018 19.4473 32.8655 17.5715 32.5649 15.737C32.2641 13.9024 31.605 12.1451 30.625 10.5653C29.645 8.98543 28.3634 7.61394 26.8535 6.52938ZM19.172 0.957313C22.5484 1.07173 25.8148 2.18477 28.5584 4.15551C30.3802 5.46395 31.9263 7.11844 33.1086 9.0245C34.291 10.9304 35.0862 13.0506 35.449 15.2639C35.8118 17.4773 35.7351 19.7404 35.2231 21.9241C34.7112 24.1078 33.7741 26.1692 32.4654 27.9907C30.4944 30.7342 27.7542 32.8316 24.5911 34.0177C21.428 35.2038 17.9842 35.4254 14.6951 34.6545C11.4061 33.8837 8.41945 32.1548 6.11312 29.6867C3.80679 27.2186 2.28394 24.1222 1.73759 20.7887C1.19121 17.4553 1.64567 14.0347 3.04349 10.9596C4.44135 7.88444 6.71969 5.29281 9.5906 3.51249C12.4615 1.73216 15.7959 0.842899 19.1722 0.957313H19.172Z" fill="#F5F5F5"/>
<path d="M14.4872 34.1037L14.4669 34.098L14.4467 34.0941H14.4462L14.4449 34.0938L14.4353 34.092L14.3913 34.0827L14.2099 34.0404L13.5143 33.8428C12.918 33.654 12.0785 33.3427 11.1183 32.8544C9.32135 31.9411 7.1086 30.413 5.26562 27.9174L6.71231 27.444L12.7679 25.4636L35.2082 18.1379C35.2113 18.411 35.2057 18.7675 35.1784 19.1913C35.1105 20.2415 34.9086 21.7005 34.372 23.3275C33.3024 26.5711 30.9002 30.4981 25.5301 33.2019L25.5223 33.2055L25.4806 33.2247L25.3088 33.2997C25.0871 33.3932 24.863 33.4806 24.6366 33.5621C24.0518 33.7738 23.209 34.0401 22.1838 34.2555C20.1301 34.6873 17.3669 34.9108 14.4872 34.1037Z" fill="#F5F5F5" stroke="#F5F5F5" stroke-width="5.04971"/>
<path d="M45.9502 9.4939H51.873C52.93 9.4939 53.886 9.67048 54.7411 10.0235C55.6117 10.3767 56.3501 10.9062 56.9563 11.6124C57.5782 12.3025 58.0523 13.1771 58.3788 14.2364C58.7207 15.2797 58.8917 16.4993 58.8917 17.8955C58.8917 19.2918 58.7207 20.5196 58.3788 21.5789C58.0523 22.6221 57.5782 23.4967 56.9563 24.2029C56.3501 24.893 55.6117 25.4146 54.7411 25.7676C53.886 26.1208 52.93 26.2973 51.873 26.2973H45.9502V9.4939ZM51.873 23.4806C53.0233 23.4806 53.9328 23.1356 54.6012 22.4455C55.2852 21.7394 55.6271 20.6641 55.6271 19.2197V16.5716C55.6271 15.1272 55.2852 14.0598 54.6012 13.3698C53.9328 12.6636 53.0233 12.3104 51.873 12.3104H49.0281V23.4806H51.873ZM68.8823 24.2029H68.7658C68.6569 24.5239 68.5093 24.8288 68.3228 25.1177C68.1517 25.3905 67.9263 25.6393 67.6465 25.8639C67.3822 26.0887 67.0558 26.2651 66.6671 26.3935C66.2941 26.5219 65.8587 26.5862 65.3614 26.5862C64.1022 26.5862 63.1384 26.1608 62.47 25.3103C61.8015 24.4597 61.4673 23.2479 61.4673 21.6751V13.7309H64.4519V21.3621C64.4519 22.2289 64.6152 22.8949 64.9416 23.3604C65.2681 23.8097 65.7889 24.0343 66.5039 24.0343C66.7993 24.0343 67.0869 23.9943 67.3668 23.914C67.662 23.8338 67.9185 23.7134 68.1363 23.5529C68.3539 23.3763 68.5326 23.1677 68.6725 22.9269C68.8125 22.6701 68.8823 22.3733 68.8823 22.0362V13.7309H71.8671V26.2973H68.8823V24.2029ZM75.0824 26.2973V13.7309H78.0671V15.8252H78.1838C78.4325 15.1512 78.8211 14.5894 79.3496 14.1401C79.8938 13.6746 80.6399 13.442 81.5882 13.442C82.8474 13.442 83.8112 13.8673 84.4796 14.7178C85.148 15.5684 85.4823 16.7802 85.4823 18.353V26.2973H82.4976V18.666C82.4976 17.7671 82.342 17.0932 82.0312 16.6438C81.7203 16.1945 81.2074 15.9697 80.4922 15.9697C80.1834 15.9694 79.8764 16.0182 79.5828 16.1141C79.3046 16.1935 79.0436 16.3242 78.8133 16.4993C78.5957 16.6598 78.4168 16.8684 78.277 17.1252C78.1371 17.3659 78.0671 17.6548 78.0671 17.9919V26.2973H75.0824ZM93.4779 26.5862C92.5763 26.5862 91.7679 26.4337 91.0527 26.1287C90.3532 25.8078 89.7547 25.3664 89.2573 24.8048C88.7754 24.227 88.4022 23.5368 88.1381 22.7344C87.8738 21.9159 87.7416 21.0011 87.7416 19.99C87.7416 18.9949 87.8659 18.0962 88.1146 17.2937C88.3789 16.4913 88.752 15.8092 89.234 15.2474C89.7159 14.6697 90.3065 14.2283 91.006 13.9235C91.7057 13.6025 92.4985 13.442 93.3846 13.442C94.3328 13.442 95.1567 13.6105 95.8563 13.9475C96.556 14.2846 97.131 14.7419 97.5818 15.3197C98.0326 15.8975 98.3669 16.5716 98.5845 17.3419C98.8177 18.0962 98.9342 18.9067 98.9342 19.7733V20.7843H90.8428V21.0973C90.8428 22.0121 91.0916 22.7504 91.589 23.3122C92.0865 23.8579 92.8249 24.1306 93.8042 24.1306C94.5504 24.1306 95.1566 23.9702 95.6231 23.6492C96.105 23.3281 96.5325 22.919 96.9056 22.4214L98.5145 24.2752C98.0171 24.9973 97.3331 25.5671 96.4626 25.9844C95.6075 26.3855 94.6126 26.5862 93.4779 26.5862ZM93.4312 15.7531C92.6384 15.7531 92.0087 16.0259 91.5425 16.5716C91.0762 17.1173 90.8428 17.8234 90.8428 18.6901V18.8826H95.8329V18.666C95.8329 17.7993 95.6231 17.1012 95.2034 16.5716C94.7993 16.0259 94.2085 15.7531 93.4312 15.7531Z" fill="#F5F5F5"/>
</g>
<defs>
<clipPath id="clip0_1044_14246">
<rect width="98.7743" height="37.0404" fill="white" transform="translate(0.345703 0.479736)"/>
</clipPath>
</defs>
</svg>
