<svg width="80" height="24" viewBox="0 0 80 24" fill="none" xmlns="http://www.w3.org/2000/svg">
<g clip-path="url(#clip0_1044_14251)">
<path d="M39.3611 11.3056C38.5468 10.9783 37.5522 10.7055 36.3773 10.4866H36.3524C35.211 10.2852 34.3547 10.1003 33.784 9.93193C33.2133 9.76452 32.7645 9.53766 32.4369 9.25182C32.1094 8.96649 31.9461 8.57172 31.9461 8.06751C31.9461 7.32844 32.2233 6.76576 32.777 6.37949C33.3312 5.99321 34.0611 5.79982 34.9673 5.79982C35.9579 5.79982 36.7588 6.05168 37.3719 6.55588C37.9221 7.00862 38.2592 7.58379 38.383 8.28038C38.4075 8.4193 38.5248 8.52174 38.6656 8.52324L41.4516 8.54423C41.6224 8.54573 41.7592 8.39882 41.7422 8.22841C41.6488 7.29645 41.3418 6.44895 40.8215 5.68639C40.2423 4.83838 39.445 4.17876 38.4294 3.70803C37.4139 3.23781 36.26 3.00244 34.9673 3.00244C33.7421 3.00244 32.6387 3.22931 31.6566 3.68305C30.675 4.13678 29.911 4.76642 29.3653 5.57295C28.8196 6.37949 28.547 7.28646 28.547 8.29438C28.547 9.40323 28.7901 10.2937 29.2769 10.9653C29.7638 11.6374 30.4013 12.1456 31.1902 12.4899C31.9791 12.8342 32.9272 13.1071 34.0352 13.309L34.161 13.334C35.3353 13.5523 36.2131 13.7457 36.7922 13.9136C37.3714 14.082 37.8283 14.3169 38.1643 14.6192C38.4998 14.9215 38.6676 15.3333 38.6676 15.854C38.6676 16.5936 38.3655 17.1727 37.7614 17.5925C37.1572 18.0127 36.3763 18.2226 35.4197 18.2226C34.2778 18.2226 33.3551 17.9328 32.6501 17.3531C32.0086 16.8259 31.6311 16.1488 31.5178 15.3223C31.4983 15.1794 31.3795 15.071 31.2357 15.069L28.4531 15.027C28.2839 15.0245 28.1471 15.1674 28.16 15.3363C28.2389 16.3527 28.5565 17.2687 29.1127 18.0842C29.7253 18.9832 30.5686 19.6888 31.6431 20.201C32.717 20.7137 33.9508 20.9695 35.3443 20.9695C36.6365 20.9695 37.7948 20.7347 38.8189 20.2639C39.8424 19.7937 40.6443 19.1426 41.2234 18.3111C41.8026 17.4796 42.0922 16.5431 42.0922 15.5012C42.0922 14.3923 41.8401 13.4979 41.3368 12.8173C40.8335 12.1367 40.1744 11.6329 39.3606 11.3051L39.3611 11.3056Z" fill="#F5F5F5"/>
<path d="M56.4704 18.0972H56.0355C55.7839 18.0972 55.5861 18.0302 55.4438 17.8953C55.301 17.7614 55.2296 17.5425 55.2296 17.2402V12.4269C55.2296 10.8983 54.7428 9.73501 53.7697 8.93697C52.7961 8.13943 51.6497 7.73267 49.8538 7.73267C48.1582 7.73267 46.8336 8.10145 45.7931 8.82353C44.8444 9.48215 44.2727 10.3841 44.077 11.531C44.0466 11.7094 44.1814 11.8728 44.3616 11.8728H46.9205C47.0488 11.8728 47.1636 11.7883 47.1976 11.6644C47.3144 11.2401 47.572 10.8938 47.9705 10.6255C48.4318 10.3147 48.98 10.1593 49.702 10.1593C51.0636 10.1593 52.0317 10.9993 52.0317 12.2505V12.6418C52.0317 12.8017 51.9024 12.9312 51.7426 12.9312H49.4249C47.5451 12.9312 46.1181 13.3009 45.145 14.04C44.1714 14.7796 43.6846 15.8295 43.6846 17.1897C43.6846 18.366 44.1294 19.29 45.0192 19.9616C45.6867 20.4653 46.4846 20.7561 47.3059 20.8835C47.9335 20.981 48.5781 21.0165 49.2072 20.9155C49.8663 20.8101 50.4015 20.5382 50.9373 20.1505C51.4186 19.8027 51.82 19.3569 52.1865 18.8132C52.3652 18.5059 52.8341 18.6294 52.8341 18.9846V19.4119C52.8336 20.1884 53.4622 20.8181 54.2381 20.8181H56.4704C56.6301 20.8181 56.7595 20.6887 56.7595 20.5288V18.386C56.7595 18.2261 56.6301 18.0967 56.4704 18.0967V18.0972ZM52.0322 15.5017C52.0322 16.1233 51.9019 16.665 51.6418 17.1267C51.0965 18.0952 50.1209 18.6009 49.023 18.6009C48.3849 18.6009 47.8731 18.45 47.4872 18.1476C47.1007 17.8453 46.908 17.442 46.908 16.9378C46.908 16.3672 47.1222 15.9259 47.5501 15.6151C47.978 15.3048 48.5861 15.1489 49.3755 15.1489H51.7431C51.9029 15.1489 52.0322 15.2783 52.0322 15.4382V15.5017Z" fill="#F5F5F5"/>
<path d="M65.7983 3.18701H62.4685C60.712 3.18701 59.2881 4.61219 59.2881 6.37017V7.76886C59.2881 7.92877 59.1587 8.05819 58.999 8.05819H57.0977C56.9379 8.05819 56.8086 8.18762 56.8086 8.34752V10.5153C56.8086 10.6752 56.9379 10.8046 57.0977 10.8046H58.999C59.1587 10.8046 59.2881 10.934 59.2881 11.0939V20.5295C59.2881 20.6894 59.4174 20.8188 59.5772 20.8188H62.1715C62.3312 20.8188 62.4605 20.6894 62.4605 20.5295V11.0939C62.4605 10.934 62.5899 10.8046 62.7496 10.8046H65.7728C65.9326 10.8046 66.0619 10.6752 66.0619 10.5153V8.34752C66.0619 8.18762 65.9326 8.05819 65.7728 8.05819H62.7496C62.5899 8.05819 62.4605 7.92877 62.4605 7.76886V6.51209C62.4605 6.19227 62.7197 5.93342 63.0387 5.93342H65.7978C65.9576 5.93342 66.0869 5.804 66.0869 5.64409V3.47634C66.0869 3.31644 65.9576 3.18701 65.7978 3.18701H65.7983Z" fill="#F5F5F5"/>
<path d="M78.5079 10.6635C77.9457 9.723 77.1773 9.00042 76.2042 8.49621C75.2306 7.9925 74.1057 7.73315 72.8305 7.73315C71.5553 7.73315 70.4549 8.01349 69.4818 8.55918C68.5082 9.10536 67.7527 9.87791 67.216 10.8773C66.6788 11.8773 66.4102 13.0486 66.4102 14.3928C66.4102 15.737 66.6873 16.8584 67.241 17.8578C67.7952 18.8572 68.5881 19.6258 69.6201 20.1635C70.6521 20.7011 71.8649 20.97 73.2584 20.97C74.3324 20.97 75.2935 20.7726 76.1413 20.3778C76.9886 19.9836 77.6726 19.4414 78.1929 18.7528C78.6383 18.1631 78.9423 17.5175 79.1051 16.8164C79.1475 16.6345 79.0102 16.4596 78.8235 16.4596H76.2172C76.0924 16.4596 75.983 16.5406 75.9431 16.659C75.7594 17.2022 75.4353 17.6314 74.9705 17.9462C74.4497 18.299 73.8036 18.4754 73.0317 18.4754C72.3936 18.4754 71.8359 18.341 71.3576 18.0722C70.8793 17.8038 70.5018 17.4255 70.2247 16.9383C70.1154 16.7459 70.026 16.5426 69.9546 16.3332C69.8782 16.1083 69.8233 15.8764 69.7854 15.6416C69.7724 15.5596 69.7604 15.4767 69.7504 15.3937C69.7309 15.2228 69.8662 15.0734 70.038 15.0734H79.0257C79.1715 15.0734 79.2963 14.9655 79.3128 14.82C79.3253 14.7136 79.3338 14.6052 79.3383 14.4937C79.3468 14.2924 79.3507 14.1075 79.3507 13.9396C79.3507 12.6968 79.0696 11.6049 78.5074 10.664L78.5079 10.6635ZM75.8073 12.8807H70.1783C69.9936 12.8807 69.8543 12.7093 69.8952 12.5289C69.9851 12.1336 70.1408 11.7768 70.3625 11.457C70.6476 11.0457 71.0171 10.7304 71.4705 10.512C71.9238 10.2937 72.4186 10.1842 72.9558 10.1842C73.8286 10.1842 74.5506 10.4196 75.1213 10.8898C75.6111 11.2936 75.9336 11.8393 76.0899 12.5274C76.1308 12.7083 75.9925 12.8807 75.8073 12.8807Z" fill="#F5F5F5"/>
<path d="M21.6896 11.998H19.2222C18.4852 11.998 17.8881 12.5957 17.8881 13.3333V16.9177C17.8881 17.6553 17.2909 18.2529 16.554 18.2529H6.73742C6.00047 18.2529 5.40332 18.8506 5.40332 19.5881V22.0577C5.40332 22.7953 6.00047 23.3929 6.73742 23.3929H17.1221C17.8591 23.3929 18.4478 22.7953 18.4478 22.0577V20.0764C18.4478 19.3388 19.0449 18.8156 19.7819 18.8156H21.6891C22.4261 18.8156 23.0233 18.2179 23.0233 17.4804V13.3178C23.0233 12.5802 22.4261 11.998 21.6891 11.998H21.6896Z" fill="#F5F5F5"/>
<path d="M5.40132 7.09195C5.40132 6.35438 5.99847 5.75672 6.73542 5.75672H16.546C17.2829 5.75672 17.8801 5.15907 17.8801 4.42149V1.95193C17.8801 1.21435 17.2829 0.616699 16.546 0.616699H6.16673C5.42978 0.616699 4.83263 1.21435 4.83263 1.95193V3.85482C4.83263 4.5924 4.23548 5.19005 3.49852 5.19005H1.59973C0.862775 5.19005 0.265625 5.7877 0.265625 6.52528V10.6924C0.265625 11.4299 0.865272 11.9976 1.60222 11.9976H4.06971C4.80666 11.9976 5.40381 11.4 5.40381 10.6624L5.40132 7.09245V7.09195Z" fill="#F5F5F5"/>
<path d="M10.482 9.4021H12.8521C13.6245 9.4021 14.2512 10.0297 14.2512 10.8023V13.1744C14.2512 13.9475 13.624 14.5746 12.8521 14.5746H10.482C9.70962 14.5746 9.08301 13.947 9.08301 13.1744V10.8023C9.08301 10.0292 9.71011 9.4021 10.482 9.4021Z" fill="#F5F5F5"/>
</g>
<defs>
<clipPath id="clip0_1044_14251">
<rect width="79.3722" height="22.9298" fill="white" transform="translate(0.0429688 0.535156)"/>
</clipPath>
</defs>
</svg>
