<svg width="94" height="20" viewBox="0 0 94 20" fill="none" xmlns="http://www.w3.org/2000/svg">
<g clip-path="url(#clip0_1044_14261)">
<path d="M10.9643 6.2291C10.9643 6.45535 10.7381 6.6816 10.5118 6.60619C9.90851 6.53077 9.30517 6.53077 8.77726 6.60619C7.64601 6.75702 6.6656 7.05869 5.7606 7.43577C5.68518 7.43577 5.68518 7.51118 5.60977 7.51118C4.70477 7.88827 3.79977 8.18993 2.74394 8.18993C2.36686 8.18993 1.91436 8.18993 1.38644 8.0391C0.933944 7.96368 0.632278 7.66202 0.556862 7.20952C0.481445 6.90785 0.481445 6.53077 0.481445 6.15369C0.481445 3.28786 2.81936 0.949951 5.68518 0.949951C8.55101 0.949951 10.9643 3.28786 10.9643 6.2291Z" fill="url(#paint0_radial_1044_14261)"/>
<path d="M0.935087 8.79309C0.558004 8.71767 0.180922 9.09475 0.407171 9.47184L5.53549 18.8989C5.61091 19.0497 5.83716 19.0497 5.91258 18.8989L11.5688 8.49142C11.7951 8.11434 11.5688 7.66184 11.1917 7.58642C10.2867 7.43559 9.53257 7.36018 8.85382 7.43559C7.79799 7.51101 6.96841 7.88809 6.06341 8.18976C6.01313 8.18976 5.96285 8.2149 5.91258 8.26517C5.00758 8.64226 3.95175 8.94392 2.8205 9.01934C2.21717 9.01934 1.61384 9.01934 0.935087 8.79309Z" fill="url(#paint1_linear_1044_14261)"/>
<path d="M5.68555 8.56749C5.68555 8.49207 5.76096 8.34124 5.83638 8.34124C5.9118 8.34124 5.9118 8.34124 5.98721 8.26582C6.89221 7.96416 7.72179 7.58707 8.77762 7.51166C9.45637 7.43624 10.2105 7.43624 11.1155 7.66249C11.4926 7.73791 11.7189 8.19041 11.4926 8.56749L5.83638 18.975C5.83638 19.0504 5.76096 19.0504 5.68555 19.0504V8.56749Z" fill="url(#paint2_linear_1044_14261)"/>
<path fill-rule="evenodd" clip-rule="evenodd" d="M27.3305 1.50043C26.3652 1.17614 25.5055 1.07056 24.6457 1.07056C23.0318 1.07056 21.531 1.50043 20.1358 2.14147C18.7406 2.89564 17.7753 3.86097 17.0211 5.25617C16.2669 6.65138 15.9502 8.15216 15.9502 9.87166C15.9502 11.5912 16.3801 13.0919 17.1342 14.4871C17.8884 15.8824 18.9593 16.8477 20.2489 17.6018C21.5386 18.356 22.9338 18.7859 24.6533 18.7859C26.154 18.7859 27.5492 18.4616 28.7333 17.8206C29.9173 17.1795 30.8827 16.2066 31.6293 14.9246C32.3834 13.6349 32.7002 12.1342 32.7002 10.3091V9.12504C32.7002 9.01945 32.5946 8.80075 32.3759 8.80075H25.2868C25.1812 8.80075 24.9625 8.90633 24.9625 9.12504V11.5912C24.9625 11.6967 25.068 11.9154 25.2868 11.9154H28.507C28.6126 11.9154 28.7182 12.021 28.7182 12.1266C28.6126 12.4509 28.507 12.8808 28.3939 13.0919C28.0696 13.8461 27.6397 14.276 26.9987 14.7059C26.3577 15.0301 25.6035 15.2413 24.5326 15.2413C23.6728 15.2413 22.9187 14.917 22.1721 14.6003C21.4179 14.1704 20.8824 13.5294 20.4526 12.6696C20.0227 11.8099 19.8115 10.9501 19.8115 9.77362C19.8115 8.7027 20.0227 7.72983 20.4526 6.87763C20.8824 6.02542 21.4179 5.37684 22.1721 4.94696C22.9262 4.51709 23.786 4.30592 24.6382 4.30592C25.4904 4.30592 26.2521 4.51709 26.9987 4.84138C27.6397 5.16567 28.1827 5.70113 28.6126 6.34217C28.7182 6.44775 28.9369 6.55333 29.0425 6.44775L31.6217 4.72826C31.7273 4.62267 31.8329 4.51709 31.7273 4.29838C31.2974 3.54422 30.6564 3.00876 30.0078 2.4733C28.9369 2.14901 28.1827 1.71914 27.323 1.50797L27.3305 1.50043ZM49.1334 2.03589L52.1426 1.28172C52.3537 1.28172 52.4669 1.38731 52.4669 1.60601V18.356C52.4669 18.4616 52.3613 18.6803 52.1426 18.6803H49.1334C49.0279 18.6803 48.8092 18.5747 48.8092 18.356V2.2546C48.9147 2.14901 49.0203 2.04343 49.1334 2.04343V2.03589ZM84.994 9.12504C85.4239 8.80075 85.9593 8.69516 86.4948 8.69516C87.1358 8.69516 87.5657 8.90633 87.9956 9.12504C88.4254 9.34375 88.7497 9.76608 89.0665 10.3091C89.3832 10.8521 89.4963 11.4931 89.4963 12.2397C89.4963 12.9864 89.3908 13.6349 89.0665 14.1704C88.8553 14.7059 88.531 15.1357 87.9956 15.3544C87.5657 15.6787 87.0302 15.7843 86.4948 15.7843C85.9593 15.7843 85.4239 15.6787 84.994 15.3544C84.5641 15.0301 84.2398 14.7134 83.9231 14.1704C83.6063 13.6274 83.4932 12.9864 83.4932 12.2397C83.4932 11.4931 83.5988 10.8445 83.9231 10.3091C84.1342 9.77362 84.4585 9.34375 84.994 9.12504ZM89.9338 6.33463C88.9684 5.79917 87.7844 5.47488 86.4948 5.47488C85.3107 5.47488 84.1342 5.79917 83.0558 6.33463C81.9773 6.87008 81.3363 7.72983 80.6952 8.69516C80.0542 9.76608 79.8355 10.8445 79.8355 12.1342C79.8355 13.4238 80.1598 14.6003 80.6952 15.5731C81.2307 16.6441 82.0904 17.3982 83.0558 17.9337C84.1267 18.4691 85.2051 18.7934 86.4948 18.7934C87.7844 18.7934 88.8553 18.4691 89.9338 17.9337C91.0122 17.3982 91.7588 16.5385 92.2943 15.5731C92.8298 14.6078 93.154 13.4238 93.154 12.1342C93.154 10.8445 92.8298 9.66804 92.2943 8.69516C91.7588 7.62425 90.8991 6.87008 89.9338 6.33463ZM64.0584 17.2851C64.1639 17.1795 64.1639 17.2851 64.0584 17.2851L64.1639 18.2504C64.1639 18.356 64.2695 18.5747 64.4882 18.5747H67.4974C67.6029 18.5747 67.8216 18.4691 67.8216 18.2504V6.22904C67.8216 6.12346 67.7161 5.90475 67.4974 5.90475H64.4882C64.3827 5.90475 64.1639 6.01034 64.1639 6.22904V7.29996C64.1639 7.40554 64.0584 7.40554 63.9528 7.40554C63.7416 7.19438 63.5229 6.97567 63.3117 6.7645C62.5576 6.01034 61.4867 5.69359 60.3026 5.69359C59.2317 5.69359 58.2588 6.01788 57.4066 6.55333C56.5544 7.08879 55.9058 7.94854 55.476 8.91387C55.0461 9.98479 54.8349 11.0632 54.8349 12.3529C54.8349 13.5369 55.0461 14.7134 55.476 15.7919C55.9058 16.8628 56.5469 17.5113 57.4066 18.1524C58.2664 18.7934 59.2317 19.0121 60.3026 19.0121C61.5922 19.0121 62.5576 18.5823 63.4173 18.0468C63.7416 17.7225 63.9528 17.5114 64.0584 17.2926V17.2851ZM62.8743 15.2489C62.4445 15.5731 61.909 15.6787 61.3735 15.6787C60.8381 15.6787 60.3026 15.5731 59.8728 15.2489C59.4429 14.9246 59.1186 14.6078 58.8018 14.0648C58.5907 13.5294 58.4775 12.8808 58.4775 12.2397C58.4775 11.5987 58.5831 11.0557 58.8018 10.5202C59.1261 10.0904 59.4429 9.66049 59.8728 9.3362C60.3026 9.01191 60.8381 8.90633 61.3735 8.90633C61.909 8.90633 62.4445 9.01191 62.8743 9.3362C63.3042 9.66049 63.6285 9.97724 63.9452 10.5202C64.1564 10.9501 64.2695 11.5912 64.2695 12.2397C64.2695 12.8883 64.1639 13.5294 63.9452 14.0648C63.6209 14.6003 63.1911 14.9246 62.8743 15.2489ZM75.7555 8.69516C75.6851 8.69516 75.6851 8.69516 75.7555 8.69516L75.6499 13.6349C75.6499 14.819 76.0797 15.3544 77.0451 15.3544H78.116C78.2216 15.3544 78.4403 15.46 78.4403 15.6787V18.258C78.4403 18.3636 78.3347 18.5823 78.116 18.5823H76.6152C75.22 18.5823 74.036 18.1524 73.2893 17.3982C72.4296 16.5385 72.1053 15.4676 72.1053 13.9592V8.91387C72.1053 8.91387 72.1053 8.80829 71.9997 8.80829H69.8503C69.6392 8.80829 69.5261 8.59712 69.5261 8.37841L70.2802 6.12346C70.2802 6.01788 70.3858 5.91229 70.6045 5.91229H71.9997C71.9997 5.91229 72.1053 5.91229 72.1053 5.80671V2.36018C72.1053 2.2546 72.2109 2.14901 72.3165 2.03589L75.4312 1.17614C75.5368 1.17614 75.6423 1.28172 75.6423 1.38731V5.6785C75.6423 5.6785 75.6423 5.78409 75.7479 5.78409H78.214C78.4252 5.78409 78.5383 5.99525 78.5383 6.21396L77.7842 8.46891C77.7842 8.5745 77.6786 8.68008 77.4599 8.68008H75.7404L75.7555 8.69516ZM40.6491 5.47488C41.8331 5.47488 42.904 5.79917 43.7638 6.33463C44.6235 6.87008 45.3777 7.72983 45.9132 8.69516C46.4486 9.76608 46.6673 10.8445 46.6673 12.1342V12.7752C46.6673 12.8808 46.5617 13.0995 46.343 13.0995H38.2886C38.183 13.0995 38.0774 13.2051 38.0774 13.3107C38.183 13.6349 38.183 13.9517 38.2886 14.1704C38.6128 14.7059 38.9296 15.1357 39.3595 15.3544C39.7893 15.5656 40.3248 15.7843 40.9734 15.7843C41.622 15.7843 42.1574 15.6787 42.5873 15.46C43.0172 15.2489 43.3415 15.0301 43.6582 14.6003C43.7638 14.4947 43.9825 14.4947 44.0881 14.6003L46.1319 16.3198C46.2375 16.4254 46.2375 16.6441 46.1319 16.7496C45.5964 17.5038 44.8422 18.0393 43.9825 18.3636C43.0172 18.7934 42.0518 19.0046 40.8678 19.0046C39.5782 19.0046 38.4017 18.6803 37.4288 18.1448C36.3579 17.6094 35.6037 16.7496 35.0683 15.7843C34.5328 14.7134 34.2085 13.6349 34.2085 12.3453C34.2085 11.0557 34.5328 9.8792 35.0683 8.90633C35.6037 7.83542 36.3579 7.18683 37.3232 6.54579C38.3941 5.79163 39.367 5.47488 40.6491 5.47488ZM38.2886 10.6258C38.183 10.6258 38.0774 10.5202 38.0774 10.4147C38.183 9.8792 38.4017 9.55491 38.6128 9.23062C39.0427 8.58958 39.6838 8.26529 40.5435 8.26529C41.4033 8.26529 42.0443 8.58958 42.4742 9.23062C42.6853 9.55491 42.7985 9.98479 43.0096 10.4147C43.0096 10.5202 42.904 10.6258 42.7985 10.6258H38.2886Z" fill="#F5F5F5"/>
</g>
<defs>
<radialGradient id="paint0_radial_1044_14261" cx="0" cy="0" r="1" gradientUnits="userSpaceOnUse" gradientTransform="translate(8.37662 2.23779) rotate(149.79) scale(9.10277 10.9203)">
<stop offset="0.12" stop-color="white"/>
<stop offset="0.73" stop-color="#8F8F8F"/>
<stop offset="1" stop-color="#9D9D9D"/>
</radialGradient>
<linearGradient id="paint1_linear_1044_14261" x1="6.00308" y1="7.72217" x2="6.00308" y2="19.0497" gradientUnits="userSpaceOnUse">
<stop stop-color="#919191"/>
<stop offset="0.47" stop-color="#7E7E7E"/>
<stop offset="1" stop-color="#969696"/>
</linearGradient>
<linearGradient id="paint2_linear_1044_14261" x1="8.63433" y1="7.44378" x2="8.63433" y2="19.8045" gradientUnits="userSpaceOnUse">
<stop stop-color="white"/>
<stop offset="0.2" stop-color="#EDEDED"/>
<stop offset="1" stop-color="#ABABAB"/>
</linearGradient>
<clipPath id="clip0_1044_14261">
<rect width="92.815" height="18.1" fill="white" transform="translate(0.338867 0.949951)"/>
</clipPath>
</defs>
</svg>
