<svg width="144" height="34" viewBox="0 0 144 34" fill="none" xmlns="http://www.w3.org/2000/svg">
<g clip-path="url(#clip0_1044_14229)">
<mask id="mask0_1044_14229" style="mask-type:luminance" maskUnits="userSpaceOnUse" x="0" y="0" width="144" height="34">
<path d="M143.001 0.558105H0.925781V33.4424H143.001V0.558105Z" fill="white"/>
</mask>
<g mask="url(#mask0_1044_14229)">
<path d="M25.1091 10.1736L34.0419 5.19775L34.0492 14.8655L27.1292 18.7197C22.4091 21.3491 19.6891 24.7979 18.5897 27.8604C17.4908 30.9219 17.6524 32.6775 17.6172 33.4427C17.6172 28.5687 17.6331 27.1111 17.6331 23.0073C17.6331 21.9961 17.7494 20.8836 17.8858 20.3511C17.8858 20.3511 19.0606 13.5429 25.1091 10.1736Z" fill="#F5F5F5"/>
<path d="M17.6135 23.2175L17.6181 33.4426L9.16684 28.748L9.16316 20.8269C9.1607 15.4242 7.46977 11.3703 5.32828 8.92058C3.1874 6.47176 1.57529 5.73164 0.923828 5.32861C5.1418 7.59218 6.25764 8.20287 9.85451 10.1351C10.7455 10.6136 11.9055 11.5246 12.3043 11.9028C12.3043 11.9028 17.6104 16.294 17.6135 23.2175Z" fill="#F5F5F5"/>
<path d="M25.0952 10.1734C28.701 8.19229 31.3201 6.70717 34.0419 5.1975C33.356 5.54379 31.8929 6.55136 28.6652 7.10038C25.436 7.64969 20.8969 7.53131 16.2195 4.7037L9.36223 0.558105L0.923828 5.3297L10.1499 10.2816C12.4478 11.661 18.1849 13.9699 25.0952 10.1734Z" fill="#F5F5F5"/>
<path d="M53.7469 13.268H50.6489V18.2558C50.6489 18.9684 50.7859 19.4801 51.0601 19.7905C51.3526 20.0828 51.8553 20.2291 52.568 20.2291C52.9154 20.2291 53.3082 20.2017 53.7469 20.1468V23.2438C52.8513 23.4446 52.0745 23.5451 51.4165 23.5451C49.9909 23.5451 48.8851 23.1249 48.0992 22.2845C47.3316 21.4258 46.9477 20.1468 46.9477 18.4477V13.268H44.8916V10.4178H46.9477V7.15649H50.6489V10.4178H53.7469V13.268Z" fill="#F5F5F5"/>
<path d="M61.7645 9.97925C62.916 9.97925 63.9761 10.2167 64.9449 10.6917C65.9317 11.1668 66.7268 11.9341 67.33 12.9938C67.9331 14.0535 68.2347 15.3964 68.2347 17.0225C68.2347 17.4062 68.2256 17.6985 68.2073 17.8994H58.9406C59.0869 18.7216 59.3975 19.3795 59.8728 19.8728C60.3479 20.366 60.9969 20.6128 61.8194 20.6128C63.0439 20.6128 63.8664 20.0828 64.2868 19.0232H68.0154C67.668 20.5395 66.9279 21.6906 65.7947 22.4762C64.6798 23.2618 63.3455 23.6547 61.792 23.6547C60.6039 23.6547 59.5073 23.4172 58.5021 22.9421C57.4968 22.4488 56.6834 21.6906 56.0619 20.6674C55.4406 19.626 55.1299 18.3289 55.1299 16.7758C55.1299 15.2411 55.4406 13.9713 56.0619 12.9664C56.6834 11.9433 57.4968 11.1942 58.5021 10.7191C59.5073 10.2259 60.5948 9.97925 61.7645 9.97925ZM61.7371 13.0212C60.933 13.0212 60.3023 13.2679 59.8454 13.7612C59.3885 14.2362 59.0869 14.8849 58.9406 15.707H64.5061C64.2137 13.9165 63.2906 13.0212 61.7371 13.0212Z" fill="#F5F5F5"/>
<path d="M77.8376 10.0344C79.2267 10.0344 80.2868 10.473 81.0179 11.3499C81.749 12.2269 82.1145 13.4327 82.1145 14.9675V23.2167H78.4133V15.8719C78.4133 15.0497 78.2214 14.4194 77.8376 13.9809C77.472 13.5424 76.9237 13.3231 76.1926 13.3231C75.4615 13.3231 74.8949 13.5515 74.4928 14.0083C74.1091 14.465 73.917 15.0863 73.917 15.8719V23.2167H70.2158V10.4182H73.917V12.1721C74.2461 11.624 74.7395 11.1307 75.3976 10.6922C76.0738 10.2537 76.8871 10.0344 77.8376 10.0344Z" fill="#F5F5F5"/>
<path d="M93.354 6.58105H97.0818V23.2164H93.3805V21.8187C92.942 22.385 92.3848 22.8236 91.7085 23.1341C91.0506 23.4447 90.3195 23.6001 89.5152 23.6001C88.4551 23.6001 87.5138 23.3443 86.6914 22.8326C85.8689 22.3029 85.2292 21.5264 84.7722 20.5031C84.3153 19.4801 84.0869 18.256 84.0869 16.8309C84.0869 14.6749 84.5804 13.0031 85.5673 11.8156C86.5725 10.628 87.8886 10.0341 89.5152 10.0341C90.3195 10.0341 91.0506 10.1895 91.7085 10.5001C92.3666 10.8107 92.9146 11.2492 93.354 11.8156V6.58105ZM90.6941 20.4757C91.6628 20.4757 92.3848 20.1378 92.8598 19.4617C93.354 18.7858 93.6006 17.9088 93.6006 16.8309C93.6006 15.7528 93.354 14.8759 92.8598 14.1999C92.3848 13.5056 91.6628 13.1584 90.6941 13.1584C89.7254 13.1584 89.0127 13.4874 88.5557 14.145C88.0988 14.8028 87.8703 15.698 87.8703 16.8309C87.8703 17.9636 88.0988 18.8589 88.5557 19.5166C89.0127 20.1561 89.7254 20.4757 90.6941 20.4757Z" fill="#F5F5F5"/>
<path d="M105.668 9.97925C106.819 9.97925 107.879 10.2167 108.847 10.6917C109.835 11.1668 110.629 11.9341 111.232 12.9938C111.836 14.0535 112.138 15.3964 112.138 17.0225C112.138 17.4062 112.128 17.6985 112.11 17.8994H102.843C102.989 18.7216 103.3 19.3795 103.776 19.8728C104.251 20.366 104.899 20.6128 105.722 20.6128C106.946 20.6128 107.769 20.0828 108.19 19.0232H111.918C111.571 20.5395 110.83 21.6906 109.698 22.4762C108.582 23.2618 107.248 23.6547 105.694 23.6547C104.507 23.6547 103.409 23.4172 102.405 22.9421C101.399 22.4488 100.586 21.6906 99.9649 20.6674C99.3428 19.626 99.0322 18.3289 99.0322 16.7758C99.0322 15.2411 99.3428 13.9713 99.9649 12.9664C100.586 11.9433 101.399 11.1942 102.405 10.7191C103.409 10.2259 104.497 9.97925 105.668 9.97925ZM105.64 13.0212C104.835 13.0212 104.205 13.2679 103.748 13.7612C103.291 14.2362 102.989 14.8849 102.843 15.707H108.409C108.117 13.9165 107.193 13.0212 105.64 13.0212Z" fill="#F5F5F5"/>
<path d="M117.789 12.6377C118.209 11.7425 118.712 11.0847 119.296 10.6646C119.882 10.2443 120.567 10.0342 121.353 10.0342C121.682 10.0342 122.093 10.0799 122.587 10.1712V14.0355H122.477C121.947 13.8162 121.426 13.7065 120.914 13.7065C120.019 13.7065 119.279 14.0263 118.693 14.6658C118.109 15.287 117.817 16.1549 117.817 17.2694V23.2164H114.115V10.4179H117.789V12.6377Z" fill="#F5F5F5"/>
<path d="M127.972 23.2164H124.271V6.55371H127.972V23.2164Z" fill="#F5F5F5"/>
<path d="M136.2 19.2154L138.996 10.418H142.999L136.529 27.6288H132.471L134.336 23.4084L129.455 10.418H133.458L136.2 19.2154Z" fill="#F5F5F5"/>
</g>
</g>
<defs>
<clipPath id="clip0_1044_14229">
<rect width="142.499" height="32.8843" fill="white" transform="translate(0.923828 0.557861)"/>
</clipPath>
</defs>
</svg>
