<svg width="164" height="31" viewBox="0 0 164 31" fill="none" xmlns="http://www.w3.org/2000/svg">
<path fill-rule="evenodd" clip-rule="evenodd" d="M96.4064 23.6701C95.4158 23.2602 94.6242 22.6537 94.0315 21.8504C93.4388 21.0471 93.1262 20.0799 93.0938 18.9488H97.5268C97.5918 19.5881 97.811 20.0758 98.1845 20.4119C98.5579 20.7479 99.0451 20.916 99.6459 20.916C100.263 20.916 100.75 20.7725 101.107 20.4856C101.465 20.1988 101.643 19.8012 101.643 19.293C101.643 18.8668 101.501 18.5143 101.217 18.2356C100.933 17.957 100.584 17.7274 100.17 17.5471C99.7555 17.3668 99.1669 17.1619 98.4037 16.9324C97.2995 16.5881 96.3983 16.2438 95.7 15.8996C95.0018 15.5553 94.4009 15.0471 93.8975 14.375C93.3942 13.7029 93.1425 12.8258 93.1425 11.7438C93.1425 10.1373 93.7189 8.87909 94.8718 7.96925C96.0248 7.05941 97.5268 6.60449 99.378 6.60449C101.262 6.60449 102.78 7.05941 103.933 7.96925C105.086 8.87909 105.703 10.1455 105.784 11.7684H101.278C101.245 11.211 101.042 10.7725 100.669 10.4529C100.295 10.1332 99.8164 9.97335 99.2318 9.97335C98.7284 9.97335 98.3225 10.1086 98.014 10.3791C97.7054 10.6496 97.5512 11.0389 97.5512 11.5471C97.5512 12.1045 97.811 12.5389 98.3306 12.8504C98.8502 13.1619 99.6621 13.4979 100.766 13.8586C101.871 14.2356 102.768 14.5963 103.458 14.9406C104.148 15.2848 104.745 15.7848 105.248 16.4406C105.752 17.0963 106.003 17.9406 106.003 18.9733C106.003 19.957 105.756 20.8504 105.26 21.6537C104.765 22.457 104.046 23.0963 103.105 23.5717C102.163 24.0471 101.051 24.2848 99.7677 24.2848C98.5173 24.2848 97.3969 24.0799 96.4064 23.6701ZM116.136 20.5471V24.1127H114.017C112.507 24.1127 111.329 23.7397 110.485 22.9938C109.641 22.2479 109.218 21.0307 109.218 19.3422V13.8832H107.562V10.3914H109.218V7.04711H113.384V10.3914H116.112V13.8832H113.384V19.3914C113.384 19.8012 113.481 20.0963 113.676 20.2766C113.871 20.457 114.195 20.5471 114.65 20.5471H116.136ZM121.044 23.4488C119.98 22.875 119.144 22.0553 118.535 20.9897C117.926 19.9242 117.622 18.6783 117.622 17.252C117.622 15.8422 117.93 14.6004 118.547 13.5266C119.164 12.4528 120.009 11.6291 121.08 11.0553C122.152 10.4815 123.354 10.1947 124.685 10.1947C126.017 10.1947 127.219 10.4815 128.29 11.0553C129.362 11.6291 130.206 12.4528 130.823 13.5266C131.441 14.6004 131.749 15.8422 131.749 17.252C131.749 18.6619 131.436 19.9037 130.811 20.9774C130.186 22.0512 129.334 22.875 128.254 23.4488C127.174 24.0225 125.968 24.3094 124.637 24.3094C123.305 24.3094 122.108 24.0225 121.044 23.4488ZM126.671 19.7848C127.231 19.1947 127.511 18.3504 127.511 17.252C127.511 16.1537 127.239 15.3094 126.695 14.7192C126.151 14.1291 125.481 13.834 124.685 13.834C123.873 13.834 123.2 14.125 122.664 14.707C122.128 15.2889 121.86 16.1373 121.86 17.252C121.86 18.3504 122.124 19.1947 122.652 19.7848C123.179 20.375 123.841 20.6701 124.637 20.6701C125.432 20.6701 126.11 20.375 126.671 19.7848ZM146.059 11.8053C147.009 12.8463 147.484 14.2766 147.484 16.0963V24.1127H143.343V16.6619C143.343 15.7438 143.108 15.0307 142.637 14.5225C142.166 14.0143 141.533 13.7602 140.737 13.7602C139.941 13.7602 139.308 14.0143 138.837 14.5225C138.366 15.0307 138.131 15.7438 138.131 16.6619V24.1127H133.966V10.3914H138.131V12.2111C138.553 11.6045 139.121 11.125 139.836 10.7725C140.55 10.4201 141.354 10.2438 142.247 10.2438C143.839 10.2438 145.109 10.7643 146.059 11.8053ZM163.121 18.2602H153.695C153.76 19.1127 154.032 19.7643 154.511 20.2151C154.99 20.666 155.579 20.8914 156.277 20.8914C157.316 20.8914 158.039 20.4488 158.445 19.5635H162.878C162.651 20.4652 162.241 21.2766 161.648 21.9979C161.055 22.7193 160.312 23.2848 159.419 23.6947C158.526 24.1045 157.527 24.3094 156.423 24.3094C155.092 24.3094 153.906 24.0225 152.867 23.4488C151.828 22.875 151.016 22.0553 150.431 20.9897C149.847 19.9242 149.554 18.6783 149.554 17.252C149.554 15.8258 149.843 14.5799 150.419 13.5143C150.996 12.4488 151.803 11.6291 152.843 11.0553C153.882 10.4815 155.075 10.1947 156.423 10.1947C157.739 10.1947 158.908 10.4733 159.931 11.0307C160.954 11.5881 161.753 12.3832 162.33 13.416C162.906 14.4488 163.195 15.6537 163.195 17.0307C163.195 17.4242 163.17 17.834 163.121 18.2602ZM158.932 15.9242C158.932 15.2029 158.688 14.6291 158.201 14.2029C157.714 13.7766 157.105 13.5635 156.374 13.5635C155.676 13.5635 155.088 13.7684 154.609 14.1783C154.13 14.5881 153.833 15.1701 153.72 15.9242H158.932Z" fill="#F5F5F5"/>
<path fill-rule="evenodd" clip-rule="evenodd" d="M54.6661 24.0702L51.1159 17.5673H50.119V24.0702H45.9609V6.84375H52.9396C54.2851 6.84375 55.432 7.08096 56.3803 7.55538C57.3287 8.02981 58.0379 8.68008 58.508 9.50624C58.9781 10.3324 59.2131 11.2526 59.2131 12.2669C59.2131 13.412 58.893 14.4345 58.2527 15.3343C57.6123 16.234 56.6681 16.872 55.4199 17.2483L59.359 24.0702H54.6661ZM50.119 14.5981H52.6965C53.4584 14.5981 54.0298 14.41 54.4107 14.0337C54.7917 13.6574 54.9822 13.1258 54.9822 12.4387C54.9822 11.7843 54.7917 11.269 54.4107 10.8927C54.0298 10.5164 53.4584 10.3283 52.6965 10.3283H50.119V14.5981Z" fill="#F5F5F5"/>
<path fill-rule="evenodd" clip-rule="evenodd" d="M74.5995 18.2597H65.1751C65.24 19.1122 65.5119 19.7639 65.9909 20.2148C66.4698 20.6657 67.0583 20.8911 67.7564 20.8911C68.7955 20.8911 69.5179 20.4484 69.9238 19.5631H74.3559C74.1286 20.4648 73.7187 21.2764 73.1261 21.9978C72.5336 22.7191 71.7908 23.2848 70.8979 23.6946C70.005 24.1045 69.0065 24.3094 67.9025 24.3094C66.5713 24.3094 65.3861 24.0225 64.3471 23.4487C63.308 22.8749 62.4963 22.0551 61.9118 20.9895C61.3274 19.9238 61.0352 18.6778 61.0352 17.2514C61.0352 15.825 61.3233 14.579 61.8997 13.5133C62.476 12.4477 63.2837 11.6279 64.3227 11.0541C65.3618 10.4803 66.555 10.1934 67.9025 10.1934C69.2176 10.1934 70.3865 10.4721 71.4093 11.0295C72.4321 11.5869 73.2317 12.3821 73.808 13.415C74.3843 14.4479 74.6725 15.6529 74.6725 17.0301C74.6725 17.4236 74.6482 17.8334 74.5995 18.2597ZM70.4108 15.9234C70.4108 15.202 70.1673 14.6282 69.6803 14.2019C69.1932 13.7757 68.5844 13.5625 67.8538 13.5625C67.1557 13.5625 66.5672 13.7675 66.0883 14.1773C65.6094 14.5872 65.3131 15.1692 65.1994 15.9234H70.4108Z" fill="#F5F5F5"/>
<path fill-rule="evenodd" clip-rule="evenodd" d="M76.8966 13.3983C77.4246 12.3449 78.1436 11.5346 79.0535 10.9674C79.9634 10.4002 80.9789 10.1166 82.1 10.1166C82.9937 10.1166 83.8101 10.3029 84.5494 10.6757C85.2887 11.0484 85.8695 11.5508 86.292 12.1829V5.88672H90.4596V23.8757H86.292V21.9309C85.902 22.5792 85.3456 23.0978 84.6225 23.4867C83.8995 23.8757 83.0586 24.0701 82.1 24.0701C80.9789 24.0701 79.9634 23.7825 79.0535 23.2072C78.1436 22.6318 77.4246 21.8134 76.8966 20.7519C76.3685 19.6904 76.1045 18.4628 76.1045 17.069C76.1045 15.6753 76.3685 14.4517 76.8966 13.3983ZM85.4268 14.6381C84.85 14.0385 84.1473 13.7387 83.3186 13.7387C82.49 13.7387 81.7872 14.0344 81.2104 14.6259C80.6336 15.2175 80.3452 16.0318 80.3452 17.069C80.3452 18.1062 80.6336 18.9287 81.2104 19.5364C81.7872 20.1442 82.49 20.448 83.3186 20.448C84.1473 20.448 84.85 20.1482 85.4268 19.5486C86.0036 18.949 86.292 18.1306 86.292 17.0934C86.292 16.0561 86.0036 15.2377 85.4268 14.6381Z" fill="#F5F5F5"/>
<path fill-rule="evenodd" clip-rule="evenodd" d="M29.0415 14.9064L24.5959 7.55425L26.8985 3.78607L33.6226 14.9064H29.0415ZM13.9088 25.2389H22.8967L25.1404 28.9166H11.7055L13.9088 25.2389ZM22.8935 6.55931H13.898L11.6993 2.87296H25.146L22.8935 6.55931ZM22.8867 23.2607H13.8955L9.44398 15.8991L13.8955 8.5375H22.8867L27.338 15.8991L22.8867 23.2607ZM9.95321 3.79399L12.1912 7.54607L7.74195 14.904H3.23539L9.95321 3.79399ZM3.23333 16.8822H7.73461L12.1965 24.261L9.95634 28.0006L3.23333 16.8822ZM26.8956 28.0083L24.5975 24.2413L29.046 16.8845H33.6218L26.8956 28.0083ZM27.7416 1.37035C27.563 1.07506 27.2441 0.894775 26.9002 0.894775H9.95634C9.61241 0.894775 9.29345 1.07506 9.11499 1.37035L0.643148 15.3812C0.452344 15.6967 0.452254 16.0927 0.643059 16.4082L9.11499 30.4191C9.29345 30.7145 9.61241 30.8948 9.95634 30.8948H26.9002C27.2441 30.8948 27.563 30.7145 27.7416 30.4191L36.2135 16.4082C36.4044 16.0927 36.4044 15.6967 36.2135 15.3812L27.7416 1.37035Z" fill="#F5F5F5"/>
<path fill-rule="evenodd" clip-rule="evenodd" d="M23.4852 17.44C23.026 17.1478 22.4177 17.2848 22.1267 17.7463L20.3843 20.5103C20.0935 20.9717 20.2299 21.5828 20.6892 21.8751C20.8527 21.9791 21.035 22.0287 21.2151 22.0287C21.5411 22.0287 21.8603 21.8661 22.0477 21.5688L23.7901 18.8048C24.081 18.3434 23.9445 17.7323 23.4852 17.44Z" fill="#F5F5F5"/>
<path fill-rule="evenodd" clip-rule="evenodd" d="M24.9186 14.894C24.4502 14.6171 23.8465 14.7742 23.5709 15.2451L23.4427 15.464C23.1671 15.9348 23.3235 16.5411 23.7922 16.818C23.9489 16.9107 24.1207 16.9548 24.2903 16.9548C24.6277 16.9548 24.9563 16.7803 25.1398 16.467L25.268 16.2481C25.5436 15.7772 25.3872 15.1711 24.9186 14.894Z" fill="#F5F5F5"/>
</svg>
