<svg width="123" height="22" viewBox="0 0 123 22" fill="none" xmlns="http://www.w3.org/2000/svg">
<g clip-path="url(#clip0_1044_5590)">
<path fill-rule="evenodd" clip-rule="evenodd" d="M29.7008 6.66402C27.3073 9.05757 27.3088 12.9384 29.7008 15.3304C31.7829 17.4109 34.9878 17.6834 37.3611 16.1448L38.7269 17.5106L40.5256 15.7119L39.1645 14.3508C40.7218 11.9744 40.457 8.75234 38.3672 6.66248C35.9736 4.27047 32.0928 4.27047 29.7008 6.66248V6.66402ZM34.9193 10.1056L37.2802 12.4665C37.8735 11.1537 37.6321 9.55592 36.5529 8.47672C35.1607 7.0845 32.9057 7.0845 31.5135 8.47672C30.1213 9.86893 30.1213 12.1239 31.5135 13.5161C32.5849 14.5859 34.1671 14.8336 35.4721 14.2574L33.1191 11.9043L34.9177 10.1056H34.9193ZM68.8761 10.6304H69.9535V14.7168C69.9535 16.4531 70.8692 17.0652 72.7039 17.0652C73.3145 17.0652 73.7972 17.0169 74.2473 16.953V14.846H74.2361C73.9545 14.8787 73.8095 14.8943 73.5076 14.8943C72.8644 14.8943 72.4953 14.7666 72.4953 14.0581V10.632H74.1519V8.50941H72.4953V6.16104H69.9535V8.50786H68.8761V10.6304ZM60.1647 8.50786H62.7369V9.36125C63.2031 8.81464 63.9908 8.33186 65.0687 8.33186C66.8047 8.33186 67.898 9.53725 67.898 11.3873V16.9842H65.3252V12.127C65.3252 11.2736 64.9721 10.6476 64.1359 10.6476C63.4271 10.6476 62.7359 11.1459 62.7359 12.1426V16.9842H60.1631V8.50786H60.1647ZM53.7376 11.9012C51.9529 12.1582 50.4735 12.8651 50.4735 14.6187C50.4735 16.1152 51.696 17.1446 53.4013 17.1446C54.5113 17.1446 55.3465 16.8066 55.9103 16.2289C56.3444 16.953 57.3412 17.2271 58.8207 16.9857V15.0874C58.3225 15.1528 58.1604 15.0235 58.1604 14.5891V11.325C58.1604 9.34568 56.7289 8.33346 54.5737 8.33346C52.4186 8.33346 51.084 9.55592 50.7134 11.0509L53.1739 11.42C53.3343 10.7286 53.7205 10.4078 54.4601 10.4078C55.2964 10.4078 55.6345 10.8095 55.6345 11.4371V11.5819L53.7376 11.9027V11.9012ZM54.1551 13.5083L55.6345 13.2358V13.9428C55.6345 14.8118 54.8463 15.2618 53.9929 15.2618C53.3825 15.2618 52.9808 14.9722 52.9808 14.4411C52.9808 13.8463 53.4791 13.6205 54.1551 13.5083ZM46.7578 16.9826H49.3305V8.50786H46.7578V13.4133C46.7578 14.41 46.0819 14.9083 45.375 14.9083C44.5387 14.9083 44.1696 14.3617 44.1696 13.5099V8.50786H41.597V14.1203C41.597 15.9704 42.7385 17.1602 44.4764 17.1602C45.5369 17.1602 46.2938 16.6774 46.7594 16.1479V16.9842L46.7578 16.9826ZM76.5471 14.0066L75.2127 15.7415C75.9993 16.6571 77.6729 17.157 79.1524 17.157C81.3081 17.157 83.0132 16.1448 83.0132 14.2294C83.0132 12.3139 81.3081 11.9464 79.7801 11.6395L79.7193 11.6287C79.6836 11.6224 79.6479 11.6146 79.6121 11.6084H79.6089C78.6948 11.4387 78.2511 11.3561 78.2511 10.9154C78.2511 10.5292 78.6527 10.2879 79.2804 10.2879C80.1167 10.2879 80.9529 10.6585 81.5961 11.3328L82.8825 9.67581C82.1737 8.90338 80.8233 8.32568 79.2959 8.32568C77.2057 8.32568 75.6767 9.46717 75.6767 11.1895C75.6767 13.0224 77.1732 13.3931 78.5716 13.6656L78.6591 13.6812C78.7071 13.6905 78.7556 13.6983 78.802 13.7061C79.9871 13.9163 80.4857 14.0035 80.4857 14.533C80.4857 14.9831 79.922 15.2089 79.2473 15.2089C78.3321 15.2089 77.2372 14.7588 76.5455 14.0035L76.5471 14.0066ZM83.7044 10.6289H84.7823V14.7152C84.7823 16.4516 85.6996 17.0636 87.5321 17.0636C88.1428 17.0636 88.6255 17.0153 89.0756 16.9515V14.8444H89.0649C88.7828 14.8772 88.6383 14.8928 88.3359 14.8928C87.6927 14.8928 87.3236 14.765 87.3236 14.0565V10.6304H88.9807V8.50786H87.3236V6.15944H84.7823V8.50632H83.7044V10.6289ZM90.122 14.6187C90.122 12.8651 91.6015 12.1582 93.386 11.9012L95.2847 11.5804V11.4355C95.2847 10.808 94.9465 10.4062 94.1103 10.4062C93.3705 10.4062 92.9844 10.727 92.8239 11.4184L90.3636 11.0494C90.7327 9.55437 92.0687 8.33186 94.2239 8.33186C96.3796 8.33186 97.8105 9.34413 97.8105 11.3234V14.5875C97.8105 15.022 97.9711 15.1513 98.4708 15.0858V16.9842C96.9913 17.2256 95.9945 16.953 95.5588 16.2273C94.9967 16.8066 94.1604 17.143 93.05 17.143C91.3444 17.143 90.122 16.1137 90.122 14.6187ZM93.8036 13.5083L95.2831 13.2358V13.9428C95.2831 14.8118 94.4948 15.2618 93.6431 15.2618C93.0329 15.2618 92.6308 14.9722 92.6308 14.4411C92.6308 13.8463 93.1295 13.6205 93.8052 13.5083H93.8036ZM99.6639 16.9826H102.238V12.141C102.238 11.1443 102.898 10.646 103.573 10.646C104.409 10.646 104.729 11.2736 104.729 12.1255V16.9826H107.302V12.141C107.302 11.1443 107.963 10.646 108.637 10.646C109.457 10.646 109.794 11.2736 109.794 12.1255V16.9826H112.366V11.3857C112.366 9.53565 111.225 8.33032 109.503 8.33032C108.201 8.33032 107.365 8.95789 106.881 9.48738C106.399 8.76328 105.563 8.33032 104.55 8.33032C103.473 8.33032 102.7 8.81309 102.235 9.3597V8.50632H99.6623V16.9811L99.6639 16.9826ZM116.224 16.1479V19.8138H113.651V8.50786H116.224V9.36125C116.707 8.7508 117.51 8.33186 118.524 8.33186C120.855 8.33186 122.174 10.3252 122.174 12.7546C122.174 15.184 120.855 17.1617 118.524 17.1617C117.512 17.1617 116.707 16.7443 116.224 16.1495V16.1479ZM116.207 12.9788C116.207 14.2496 116.898 14.9722 117.864 14.9722C118.99 14.9722 119.584 14.0549 119.584 12.753C119.584 11.4511 118.99 10.5339 117.864 10.5339C116.9 10.5339 116.207 11.2409 116.207 12.5272V12.9773V12.9788Z" fill="white"/>
<path d="M19.8145 10.9992C19.8145 9.32979 19.3349 7.68526 18.416 6.28686L21.7985 2.88571L19.2632 0.333313L15.8792 3.73444C13.0294 1.86413 9.34169 1.86413 6.49187 3.73444L3.10165 0.333313L0.558594 2.88571L3.94103 6.28686C2.07851 9.15379 2.07851 12.854 3.94103 15.7209L0.558594 19.1142L3.10165 21.6666L6.48409 18.2655C9.3339 20.1358 13.0216 20.1358 15.8714 18.2655L19.2538 21.6666L21.7969 19.1142L18.4145 15.7131C19.3333 14.3147 19.8223 12.6795 19.8129 11.0008L19.8145 10.9992ZM6.14462 10.9992C6.14462 8.93577 7.38574 7.07326 9.29187 6.30398C11.198 5.53467 13.3829 5.99875 14.8078 7.48441C16.2327 8.97161 16.6174 11.183 15.7702 13.0626L12.4485 9.72222L9.91326 12.2746L13.2349 15.615C11.6792 16.3142 9.86963 16.1834 8.43694 15.2475C7.01198 14.3116 6.14617 12.7106 6.14617 10.9992H6.14462Z" fill="white"/>
</g>
<defs>
<clipPath id="clip0_1044_5590">
<rect width="122.133" height="21.3333" fill="white" transform="translate(0.558594 0.333313)"/>
</clipPath>
</defs>
</svg>
