<svg width="141" height="32" viewBox="0 0 141 32" fill="none" xmlns="http://www.w3.org/2000/svg">
<path fill-rule="evenodd" clip-rule="evenodd" d="M2.13574 11.2427C2.13574 16.177 6.26892 20.1871 11.3433 20.1871C16.4177 20.1871 20.5509 16.177 20.5509 11.2427C20.5509 6.30829 16.4177 2.29815 11.3433 2.29815C6.26892 2.29815 2.13574 6.30829 2.13574 11.2427ZM5.20494 11.2427C5.20494 7.95308 7.95698 5.27966 11.3433 5.27966C14.7297 5.27966 17.4817 7.95308 17.4817 11.2427C17.4817 14.5322 14.7297 17.2057 11.3433 17.2057C7.95698 17.2057 5.20494 14.5322 5.20494 11.2427ZM20.1007 22.7314L13.9624 28.6944C13.6657 28.9876 13.2718 29.1317 12.8779 29.1317C12.484 29.1317 12.0953 28.9876 11.7934 28.6944C11.195 28.113 11.195 27.1689 11.7934 26.5875L17.9319 20.6245C18.5304 20.0431 19.5023 20.0431 20.1007 20.6245C20.6993 21.2058 20.6993 22.15 20.1007 22.7314ZM20.244 3.7889C20.244 2.80501 21.0727 2 22.0855 2C23.0983 2 23.927 2.80501 23.927 3.7889C23.927 4.7728 23.0983 5.57781 22.0855 5.57781C21.0727 5.57781 20.244 4.7728 20.244 3.7889ZM40.1657 9.96286V21.8184H37.0506V9.96286H33.0181V7.10263H44.2409V9.96286H40.1657ZM48.8282 16.7611V21.8184H45.9051V6.27354H48.8282V12.6366C49.3829 11.8075 50.4923 11.2272 51.8792 11.2272C54.4609 11.2272 55.997 13.0511 55.997 15.7455V21.8184H53.074V16.2223C53.074 14.7299 52.4126 13.818 51.1964 13.818C49.8523 13.818 48.8282 14.7714 48.8282 16.7611ZM69.0546 18.44C68.4146 20.5334 66.3022 22.0464 63.5928 22.0464C60.3281 22.0464 58.0026 19.7665 58.0026 16.6161C58.0026 13.5278 60.371 11.2272 63.614 11.2272C66.7504 11.2272 69.3322 13.4035 69.1828 17.3001H60.8616C60.9899 18.5229 61.9287 19.5799 63.7422 19.5799C64.7663 19.5799 65.6622 19.1447 66.0034 18.44H69.0546ZM60.9681 15.4347H65.9822C65.6199 14.046 64.5316 13.5278 63.5287 13.5278C62.1846 13.5278 61.2457 14.2947 60.9681 15.4347ZM91.031 13.0097C91.7134 19.0618 88.0651 22.0671 83.5634 22.0671C78.9334 22.0671 75.5834 18.7302 75.5834 14.4605C75.5834 10.1909 78.9334 6.85389 83.5204 6.85389C86.6999 6.85389 89.644 8.67783 90.6681 11.4552H87.1263C86.3799 10.3774 84.9716 9.7556 83.5204 9.7556C80.6187 9.7556 78.6987 11.8282 78.6987 14.4605C78.6987 17.0928 80.6187 19.1654 83.5634 19.1654C86.0169 19.1654 87.4893 17.8597 87.8304 15.8285H83.2004V13.0097H91.031ZM96.1304 16.8648V21.8184H93.2069V11.4552H96.1304V13.1133C96.4928 12.0977 97.581 11.3308 98.7757 11.3308C99.0746 11.3308 99.3946 11.3515 99.7575 11.4552V14.3362C99.3093 14.1911 98.904 14.1082 98.4346 14.1082C97.0475 14.1082 96.1304 15.1652 96.1304 16.8648ZM108.655 20.6577C108.185 21.321 107.055 22.0464 105.582 22.0464C102.745 22.0464 100.568 19.5799 100.568 16.6368C100.568 13.6937 102.745 11.2272 105.582 11.2272C107.055 11.2272 108.185 11.9526 108.655 12.6159V11.4552H111.577V21.8184H108.655V20.6577ZM103.512 16.6368C103.512 18.2535 104.6 19.4556 106.201 19.4556C107.801 19.4556 108.889 18.2535 108.889 16.6368C108.889 15.0201 107.801 13.818 106.201 13.818C104.6 13.818 103.512 15.0201 103.512 16.6368ZM117.338 20.6577V26.1502H114.415V11.4552H117.338V12.6159C117.829 11.9526 118.96 11.2272 120.432 11.2272C123.27 11.2272 125.446 13.6937 125.446 16.6368C125.446 19.5799 123.27 22.0464 120.432 22.0464C118.96 22.0464 117.829 21.321 117.338 20.6577ZM117.103 16.6368C117.103 18.2535 118.192 19.4556 119.792 19.4556C121.392 19.4556 122.48 18.2535 122.48 16.6368C122.48 15.0201 121.392 13.818 119.792 13.818C118.192 13.818 117.103 15.0201 117.103 16.6368ZM130.503 16.7611V21.8184H127.58V6.27354H130.503V12.6366C131.057 11.8075 132.167 11.2272 133.554 11.2272C136.135 11.2272 137.672 13.0511 137.672 15.7455V21.8184H134.749V16.2223C134.749 14.7299 134.087 13.818 132.871 13.818C131.527 13.818 130.503 14.7714 130.503 16.7611Z" fill="white"/>
</svg>
