<svg width="135" height="36" viewBox="0 0 135 36" fill="none" xmlns="http://www.w3.org/2000/svg">
<g clip-path="url(#clip0_1044_14201)">
<mask id="mask0_1044_14201" style="mask-type:luminance" maskUnits="userSpaceOnUse" x="0" y="0" width="135" height="36">
<path d="M134.993 0.714355H0.000976562V35.1902H134.993V0.714355Z" fill="white"/>
</mask>
<g mask="url(#mask0_1044_14201)">
<path d="M14.8099 0.714355L0.000976562 9.33331V26.5713L14.8099 35.1902L29.6189 26.5713V9.33331L14.8099 0.714355ZM23.345 22.9182L14.8127 27.8841L6.28023 22.9182V12.9864L14.8127 8.02048L23.345 12.9864V22.9182Z" fill="#F5F5F5"/>
<path d="M45.8659 26.5891C44.3953 26.5891 43.0779 26.2499 41.9177 25.5673C40.7563 24.886 39.8397 23.9029 39.1681 22.6148C38.4963 21.3268 38.1611 19.7767 38.1611 17.9633C38.1611 16.1499 38.5004 14.5751 39.1748 13.2829C39.8506 11.9921 40.77 11.0075 41.9355 10.3304C43.0998 9.6533 44.4103 9.31543 45.8673 9.31543C46.8139 9.31543 47.6977 9.45195 48.5102 9.72225C49.3243 9.99254 50.048 10.3856 50.6827 10.9013C51.3175 11.4171 51.8332 12.0473 52.2341 12.792C52.6335 13.5367 52.8921 14.3834 53.0125 15.3335H49.7087C49.6334 14.8523 49.4885 14.422 49.2723 14.04C49.0547 13.6608 48.7811 13.3367 48.4501 13.0692C48.1177 12.8016 47.7401 12.5989 47.3201 12.4596C46.8974 12.3203 46.4378 12.2514 45.9371 12.2514C45.0561 12.2514 44.2804 12.4734 43.6074 12.9175C42.9356 13.3615 42.4102 14.0083 42.034 14.8591C41.6565 15.7087 41.4676 16.7457 41.4676 17.9633C41.4676 19.1811 41.6578 20.2388 42.0381 21.0854C42.4199 21.9322 42.9425 22.5707 43.6114 23.0037C44.2804 23.4367 45.052 23.6532 45.9234 23.6532C46.409 23.6532 46.8604 23.587 47.2777 23.4546C47.6949 23.3237 48.0711 23.1306 48.4036 22.8783C48.7347 22.6273 49.0137 22.3184 49.238 21.9529C49.4625 21.5875 49.6198 21.1682 49.7087 20.6951H53.0125C52.9153 21.4839 52.6827 22.2342 52.3134 22.9417C51.944 23.6476 51.4516 24.2752 50.8346 24.8198C50.219 25.366 49.4939 25.7949 48.6622 26.1134C47.829 26.4292 46.8974 26.5878 45.8686 26.5878V26.5919L45.8659 26.5891Z" fill="#F5F5F5"/>
<path d="M57.9848 19.0181V26.3558H54.7822V9.53442H57.8958V15.9345H58.0531C58.3432 15.205 58.8002 14.6286 59.4198 14.2066C60.0381 13.786 60.8275 13.5736 61.7824 13.5736C62.6484 13.5736 63.4077 13.7612 64.0548 14.1376C64.7045 14.5141 65.2093 15.0561 65.5664 15.7635C65.9248 16.4695 66.1027 17.326 66.1027 18.3271V26.3531H62.8878V18.869C62.8878 18.0555 62.6825 17.4225 62.2721 16.966C61.8618 16.511 61.2817 16.2834 60.5361 16.2834C60.0354 16.2834 59.5949 16.3923 59.2146 16.6116C58.833 16.8308 58.5334 17.1412 58.313 17.5424C58.0928 17.9465 57.9834 18.4348 57.9834 19.0166V19.0194L57.9848 19.0181Z" fill="#F5F5F5"/>
<path d="M71.7967 26.6056C70.9977 26.6056 70.2836 26.4622 69.653 26.1768C69.0223 25.8899 68.5257 25.4666 68.1631 24.9066C67.8006 24.3469 67.6201 23.6518 67.6201 22.8244C67.6201 22.1183 67.7487 21.5294 68.0073 21.0619C68.2657 20.5945 68.616 20.2179 69.0607 19.9284C69.5052 19.6388 70.0074 19.4196 70.5723 19.2733C71.1359 19.1273 71.7282 19.0237 72.3466 18.9631C73.0784 18.8872 73.6682 18.8183 74.1168 18.7549C74.5655 18.6914 74.8911 18.5894 75.0963 18.4501C75.3015 18.3108 75.4041 18.1053 75.4041 17.835V17.7785C75.4041 17.2131 75.2318 16.7745 74.8898 16.4629C74.5464 16.1512 74.0567 15.9941 73.4218 15.9941C72.7502 15.9941 72.2167 16.1416 71.8199 16.4409C71.4245 16.7373 71.1605 17.0973 71.0251 17.5179L68.0455 17.1897C68.2316 16.4229 68.5709 15.7693 69.0592 15.2314C69.5477 14.6936 70.1619 14.2827 70.9006 13.9999C71.6394 13.7172 72.4794 13.5752 73.4205 13.5752C74.0704 13.5752 74.7038 13.6524 75.3193 13.8069C75.935 13.9599 76.4905 14.2054 76.9884 14.5419C77.4836 14.877 77.8817 15.3197 78.1744 15.8685C78.4685 16.4188 78.6176 17.0876 78.6176 17.8792V26.3561H75.5505V24.6061H75.4616C75.266 24.9812 75.0074 25.3218 74.6778 25.6238C74.3494 25.9258 73.9459 26.163 73.4684 26.341C72.991 26.5188 72.4341 26.6071 71.7995 26.6071H71.7954L71.7967 26.6056ZM72.6681 24.3028C73.2207 24.3028 73.7023 24.1924 74.1127 23.9703C74.5232 23.7483 74.8446 23.4519 75.0759 23.0795C75.307 22.7072 75.4234 22.2948 75.4234 21.844V20.4317C75.3193 20.5076 75.1648 20.5751 74.965 20.6359C74.7626 20.6965 74.5355 20.7517 74.281 20.7999C74.0279 20.8482 73.7762 20.891 73.53 20.9295C73.2838 20.9669 73.0634 20.9972 72.8692 21.0192C72.4438 21.0799 72.0689 21.1778 71.7433 21.3116C71.4177 21.4481 71.1619 21.6315 70.9758 21.8645C70.7899 22.0976 70.6954 22.3913 70.6954 22.7457C70.6954 23.2574 70.8801 23.6449 71.2494 23.9097C71.6188 24.173 72.0907 24.3041 72.6654 24.3041H72.6668L72.6681 24.3028Z" fill="#F5F5F5"/>
<path d="M80.7217 26.3572V13.7363H83.9243V26.3572H80.7217Z" fill="#F5F5F5"/>
<path d="M89.2329 19.0182V26.3561H86.0303V13.7338H89.1767V15.9347H89.3122C89.5954 15.2121 90.0454 14.6384 90.661 14.2123C91.2767 13.7862 92.0509 13.5752 92.9853 13.5752C93.8513 13.5752 94.6079 13.7627 95.2522 14.1392C95.8979 14.5143 96.3985 15.059 96.7543 15.7693C97.1086 16.4809 97.2864 17.3331 97.2864 18.3259V26.3519H94.0838V18.8679C94.0838 18.0626 93.8773 17.4296 93.4628 16.9718C93.0497 16.514 92.4792 16.2823 91.7541 16.2823C91.2617 16.2823 90.8252 16.3911 90.449 16.6105C90.0714 16.8297 89.7759 17.1399 89.5584 17.5413C89.3409 17.9454 89.2342 18.4335 89.2342 19.0155V19.0182H89.2329Z" fill="#F5F5F5"/>
<path d="M102.591 8.70728V26.3575H99.3887V8.70728H102.591Z" fill="#F5F5F5"/>
<path d="M104.697 26.3572V13.7363H107.9V26.3572H104.697Z" fill="#F5F5F5"/>
<path d="M113.206 19.0182V26.3561H110.004V13.7338H113.15V15.9347H113.286C113.569 15.2121 114.019 14.6384 114.635 14.2123C115.25 13.7862 116.025 13.5752 116.959 13.5752C117.825 13.5752 118.581 13.7627 119.227 14.1392C119.873 14.5143 120.374 15.059 120.728 15.7693C121.082 16.4809 121.26 17.3331 121.26 18.3259V26.3519H118.058V18.8679C118.058 18.0626 117.851 17.4296 117.436 16.9718C117.023 16.514 116.453 16.2823 115.728 16.2823C115.235 16.2823 114.799 16.3911 114.423 16.6105C114.045 16.8297 113.75 17.1399 113.532 17.5413C113.315 17.9454 113.206 18.4335 113.206 19.0155V19.0182Z" fill="#F5F5F5"/>
<path d="M131.196 26.3573H134.994L129.994 19.2015L134.735 13.735H131.018L126.772 18.6691H126.572V9.53442H123.368V26.3573H126.572V22.2367L127.576 21.1141L131.196 26.3558V26.3573Z" fill="#F5F5F5"/>
<path d="M83.9477 8.70728H80.7451V11.9356H83.9477V8.70728Z" fill="#F5F5F5"/>
<path d="M107.926 8.70728H104.724V11.9356H107.926V8.70728Z" fill="#F5F5F5"/>
</g>
</g>
<defs>
<clipPath id="clip0_1044_14201">
<rect width="134.992" height="34.571" fill="white" transform="translate(0 0.714355)"/>
</clipPath>
</defs>
</svg>
