<svg width="214" height="20" viewBox="0 0 214 20" fill="none" xmlns="http://www.w3.org/2000/svg">
<g clip-path="url(#clip0_1831_9705)">
<path d="M162.243 -0.00537109H152.254C148.417 -0.00537109 145.308 3.11203 145.308 6.96083V13.0283C145.308 16.8772 148.417 19.9946 152.254 19.9946H162.479V19.9842C166.206 19.8588 169.191 16.7971 169.191 13.0284V6.96086C169.191 3.11203 166.082 -0.00537109 162.243 -0.00537109ZM161.166 16.6718H153.331V3.31753H161.166V16.6718ZM51.2958 -0.00537109H41.3082C37.4695 -0.00537109 34.3604 3.11203 34.3604 6.96083V13.0283C34.3604 16.8772 37.4695 19.9946 41.3082 19.9946H51.532V19.9842C55.2596 19.8588 58.2436 16.7971 58.2436 13.0284V6.96086C58.2436 3.11203 55.1345 -0.00537109 51.2958 -0.00537109ZM50.2189 16.6718H42.3851V3.31753H50.2189V16.6718ZM107.195 3.47773H107.198L101.397 13.5508V-0.00537109H97.3774C94.8935 -0.00537109 92.6007 1.3217 91.3605 3.47773L82.9537 18.0755L79.2539 11.6526C81.9115 11.6212 84.0584 9.45126 84.0584 6.7797V4.87097C84.0584 2.17852 81.8803 -0.00537109 79.1948 -0.00537109H60.1752V19.9946H68.1999V11.6561H69.9925L74.7934 19.9946H85.5557L93.372 6.41747V19.9946H101.397V19.9877L109.178 6.47321V19.9946H117.203V-0.00537109H113.212C110.728 -0.00537109 108.435 1.3217 107.195 3.47773ZM76.0337 8.33317H68.1999V3.31753H76.0337V8.33317ZM135.302 -0.00537109H143.327V19.9946H135.302V11.6561H127.469V19.9946H119.444V-0.00537109H127.469V8.33319H135.302V-0.00537109ZM179.195 16.6718H189.555V19.9946H178.118C174.279 19.9946 171.17 16.8772 171.17 13.0283V-0.00537109H179.195V16.6718ZM199.643 3.3175V8.33317H210.624V11.6561H199.643V16.6718H213.517V19.9946H191.618V-0.00537109H213.517V3.31753L199.643 3.3175ZM35.8577 -0.00537109L26.346 16.5116C25.1059 18.6675 22.8131 19.9946 20.3292 19.9946H16.3099V6.43838L10.5084 16.5116C9.2682 18.6675 6.9754 19.9946 4.49153 19.9946H0.5V-0.00537109H8.52826V13.516L16.3099 0.00158155V-0.00537109H24.3346V13.5718L32.1509 -0.00537109H35.8577Z" fill="white"/>
</g>
<defs>
<clipPath id="clip0_1831_9705">
<rect width="213.017" height="20" fill="white" transform="translate(0.5 -0.00537109)"/>
</clipPath>
</defs>
</svg>
