<svg width="131" height="28" viewBox="0 0 131 28" fill="none" xmlns="http://www.w3.org/2000/svg">
<g clip-path="url(#clip0_1059_2269)">
<path d="M40.8404 14.875V14.5469C40.8404 13.7375 40.5561 13.1031 40.0092 12.6656C39.4623 12.2062 38.7623 11.9875 37.8873 11.9875C37.2092 11.9875 36.6842 12.0969 36.2904 12.3375C35.9186 12.5562 35.5686 12.8844 35.2186 13.3438C35.1092 13.475 34.9998 13.5625 34.8904 13.6281C34.7811 13.6719 34.6061 13.6938 34.4092 13.6938H33.6436C33.4686 13.6938 33.2936 13.6281 33.1404 13.4969C33.0092 13.3656 32.9436 13.2125 32.9654 13.0156C33.0092 12.5125 33.2717 12.0312 33.7092 11.55C34.1686 11.0469 34.7592 10.6531 35.5029 10.325C36.2467 10.0188 37.0342 9.84375 37.8873 9.84375C39.4623 9.84375 40.7311 10.2812 41.6936 11.1344C42.6779 12.0094 43.1592 13.2125 43.1592 14.7656V22.3781C43.1592 22.5531 43.0936 22.7281 42.9623 22.8594C42.8311 22.9906 42.6561 23.0562 42.4811 23.0562H41.5404C41.3654 23.0562 41.1904 22.9906 41.0592 22.8594C40.9279 22.7281 40.8623 22.575 40.8623 22.3781V21.35C40.5998 21.9406 40.0092 22.4219 39.1342 22.7719C38.2592 23.1219 37.3842 23.2969 36.5092 23.2969C35.6561 23.2969 34.8904 23.1437 34.2123 22.8375C33.5342 22.5312 33.0092 22.0938 32.6373 21.5688C32.2873 21.0438 32.1123 20.4312 32.1123 19.775C32.1123 18.5281 32.5936 17.5656 33.5342 16.8656C34.4748 16.1438 35.7436 15.6625 37.3186 15.4219L40.8404 14.875ZM40.8404 16.8875L37.8436 17.3687C36.7498 17.5437 35.8967 17.8063 35.2842 18.2C34.6717 18.5719 34.3654 19.0313 34.3654 19.6C34.3654 20.0156 34.5623 20.3875 34.9561 20.7156C35.3498 21.0438 35.9404 21.2188 36.7279 21.2188C37.9529 21.2188 38.9373 20.8687 39.6811 20.1906C40.4467 19.5125 40.8186 18.6156 40.8186 17.5219V16.8875H40.8404Z" fill="#F5F5F5"/>
<path d="M49.1533 22.4217C49.1533 22.5967 49.0877 22.7717 48.9564 22.903C48.8252 23.0342 48.6502 23.0999 48.4752 23.0999H47.5346C47.3596 23.0999 47.1846 23.0342 47.0533 22.903C46.9221 22.7717 46.8564 22.6186 46.8564 22.4217V6.05923C46.8564 5.88423 46.9221 5.70923 47.0533 5.57798C47.1846 5.44673 47.3596 5.3811 47.5346 5.3811H48.4752C48.6502 5.3811 48.8252 5.44673 48.9564 5.57798C49.0877 5.70923 49.1533 5.86235 49.1533 6.05923V22.4217Z" fill="#F5F5F5"/>
<path d="M58.2752 21.1967C59.9596 21.1967 61.0971 20.5405 61.6877 19.2499C61.7971 19.0092 61.9283 18.8342 62.0377 18.7249C62.1471 18.6155 62.3221 18.5717 62.5189 18.5717H63.2846C63.4596 18.5717 63.6346 18.6373 63.7658 18.7686C63.8971 18.878 63.9627 19.0311 63.9627 19.1842C63.9627 19.753 63.7439 20.3655 63.2846 20.9999C62.8252 21.6561 62.1689 22.203 61.3158 22.6405C60.4627 23.0999 59.4346 23.3186 58.2752 23.3186C57.0721 23.3186 56.0439 23.078 55.1689 22.5749C54.2939 22.0717 53.6158 21.3936 53.1346 20.5405C52.6533 19.6655 52.3908 18.6811 52.3471 17.5874C52.3252 17.3905 52.3252 16.9967 52.3252 16.4499C52.3252 16.0561 52.3252 15.7717 52.3471 15.5967C52.5002 13.8905 53.0908 12.5124 54.0971 11.4624C55.1033 10.3905 56.5033 9.86548 58.2752 9.86548C59.4346 9.86548 60.4408 10.0842 61.2939 10.5436C62.1471 10.9811 62.8033 11.5061 63.2408 12.1624C63.7002 12.7967 63.9408 13.3873 63.9846 13.9561C64.0064 14.1311 63.9408 14.3061 63.7877 14.4374C63.6564 14.5686 63.4814 14.6342 63.3064 14.6342H62.5408C62.3439 14.6342 62.1689 14.5905 62.0596 14.4811C61.9502 14.3717 61.8189 14.1967 61.7096 13.9561C61.1189 12.6655 59.9814 12.0092 58.2971 12.0092C57.3783 12.0092 56.5471 12.3155 55.8689 12.928C55.1689 13.5405 54.7752 14.4811 54.6877 15.728C54.6658 15.903 54.6658 16.2092 54.6658 16.6249C54.6658 16.9967 54.6658 17.2811 54.6877 17.478C54.7971 18.7249 55.2127 19.6655 55.8689 20.278C56.5471 20.8905 57.3564 21.1967 58.2752 21.1967Z" fill="#F5F5F5"/>
<path d="M78.7066 22.4217C78.7066 22.5967 78.641 22.7717 78.5098 22.903C78.3785 23.0342 78.2035 23.0999 78.0285 23.0999H77.0879C76.9129 23.0999 76.7379 23.0342 76.6066 22.903C76.4754 22.7717 76.4098 22.6186 76.4098 22.4217V15.8374C76.4098 14.5905 76.1035 13.6499 75.4691 12.9936C74.8348 12.3374 73.9816 12.0311 72.866 12.0311C71.7723 12.0311 70.8973 12.3592 70.2629 12.9936C69.6285 13.6499 69.3223 14.5905 69.3223 15.8374V22.4217C69.3223 22.5967 69.2566 22.7717 69.1254 22.903C68.9941 23.0342 68.8191 23.0999 68.6441 23.0999H67.7035C67.5285 23.0999 67.3535 23.0342 67.2223 22.903C67.091 22.7717 67.0254 22.6186 67.0254 22.4217V6.05923C67.0254 5.88423 67.091 5.70923 67.2223 5.57798C67.3535 5.44673 67.5285 5.3811 67.7035 5.3811H68.6441C68.8191 5.3811 68.9941 5.44673 69.1254 5.57798C69.2566 5.70923 69.3223 5.86235 69.3223 6.05923V11.5717C69.6941 11.0905 70.1973 10.6967 70.8316 10.3686C71.4879 10.0405 72.2973 9.86548 73.2379 9.86548C74.3098 9.86548 75.2504 10.0842 76.0816 10.5436C76.9129 11.003 77.5473 11.6374 78.0066 12.4905C78.4879 13.3217 78.7066 14.3061 78.7066 15.4655V22.4217Z" fill="#F5F5F5"/>
<path d="M87.5871 9.86548C89.4027 9.86548 90.8246 10.4342 91.8746 11.5717C92.9246 12.7092 93.4496 14.2405 93.4496 16.1874V16.8655C93.4496 17.0405 93.384 17.2155 93.2527 17.3467C93.1215 17.478 92.9465 17.5436 92.7715 17.5436H84.0652V17.6967C84.109 18.7905 84.4371 19.6655 85.0715 20.2998C85.7277 20.9123 86.5809 21.2186 87.609 21.2186C88.4621 21.2186 89.0965 21.1092 89.5559 20.8905C90.0371 20.6717 90.4527 20.3655 90.8246 19.9717C90.9559 19.8405 91.0871 19.753 91.1746 19.6874C91.284 19.6436 91.4371 19.6217 91.634 19.6217H92.3996C92.5965 19.6217 92.7715 19.6874 92.9027 19.8186C93.034 19.9499 93.0996 20.103 93.0777 20.2998C93.0121 20.7592 92.7496 21.2186 92.3121 21.6999C91.8965 22.1592 91.284 22.5749 90.4527 22.903C89.6652 23.2092 88.7027 23.3842 87.5871 23.3842C86.5152 23.3842 85.5527 23.1436 84.6996 22.6624C83.8465 22.1592 83.1902 21.4811 82.6652 20.628C82.184 19.753 81.8777 18.7905 81.7684 17.7186C81.7246 17.2155 81.7246 16.8436 81.7246 16.5811C81.7246 16.3186 81.7465 15.9249 81.7684 15.4436C81.8777 14.4155 82.1621 13.4748 82.6652 12.6436C83.1684 11.8123 83.8465 11.1561 84.6559 10.6748C85.509 10.1061 86.4934 9.86548 87.5871 9.86548ZM91.1527 15.4436V15.378C91.1527 14.3717 90.8246 13.5624 90.1684 12.9499C89.534 12.3374 88.659 12.0311 87.5871 12.0311C86.6027 12.0311 85.7715 12.3374 85.0715 12.9499C84.3934 13.5624 84.0434 14.3717 84.0434 15.378V15.4436H91.1527Z" fill="#F5F5F5"/>
<path d="M98.7871 11.5717C99.2027 11.0467 99.6402 10.653 100.165 10.3467C100.668 10.0405 101.346 9.86548 102.2 9.86548C104.168 9.86548 105.568 10.5874 106.356 12.0311C106.837 11.3311 107.406 10.8061 108.018 10.4342C108.653 10.0624 109.462 9.86548 110.468 9.86548C112.131 9.86548 113.356 10.3467 114.143 11.3311C114.953 12.3155 115.368 13.6936 115.368 15.4873V22.3999C115.368 22.5749 115.303 22.7499 115.171 22.8811C115.04 23.0124 114.865 23.078 114.69 23.078H113.75C113.575 23.078 113.4 23.0124 113.268 22.8811C113.137 22.7499 113.071 22.5967 113.071 22.3999V15.7499C113.071 13.2561 112.065 12.0092 110.075 12.0092C109.156 12.0092 108.434 12.3155 107.887 12.9061C107.34 13.4967 107.078 14.3936 107.078 15.5749V22.3999C107.078 22.5749 107.012 22.7499 106.881 22.8811C106.75 23.0124 106.575 23.078 106.4 23.078H105.459C105.284 23.078 105.109 23.0124 104.978 22.8811C104.846 22.7499 104.781 22.5967 104.781 22.3999V15.7499C104.781 13.2561 103.775 12.0092 101.784 12.0092C100.865 12.0092 100.143 12.3155 99.5965 12.9061C99.0496 13.4967 98.7871 14.3936 98.7871 15.5749V22.3999C98.7871 22.5749 98.7215 22.7499 98.5902 22.8811C98.459 23.0124 98.284 23.078 98.109 23.078H97.1684C96.9934 23.078 96.8184 23.0124 96.6871 22.8811C96.5559 22.7499 96.4902 22.5967 96.4902 22.3999V10.7842C96.4902 10.6092 96.5559 10.4342 96.6871 10.303C96.8184 10.1717 96.9934 10.1061 97.1684 10.1061H98.109C98.284 10.1061 98.459 10.1717 98.5902 10.303C98.7215 10.4342 98.7871 10.5873 98.7871 10.7842V11.5717Z" fill="#F5F5F5"/>
<path d="M122.456 27.2344C122.303 27.6282 122.062 27.8251 121.712 27.8251H120.684C120.509 27.8251 120.378 27.7594 120.246 27.6501C120.137 27.5407 120.071 27.3876 120.071 27.2344C120.071 27.1688 120.071 27.1032 120.093 27.0594L122.521 21.8532L117.512 10.8938C117.49 10.85 117.49 10.7844 117.49 10.7188C117.49 10.5438 117.556 10.4126 117.665 10.3032C117.775 10.1938 117.928 10.1282 118.103 10.1282H119.131C119.459 10.1282 119.721 10.3251 119.875 10.7188L123.768 19.2063L127.728 10.7188C127.881 10.3251 128.121 10.1282 128.471 10.1282H129.5C129.675 10.1282 129.806 10.1938 129.937 10.3032C130.046 10.4126 130.112 10.5657 130.112 10.7188C130.112 10.7844 130.112 10.85 130.09 10.8938L122.456 27.2344Z" fill="#F5F5F5"/>
<path d="M22.5094 14.8314L14 0.393947C13.9562 0.328322 13.8906 0.262696 13.825 0.218946C13.7594 0.175196 13.6719 0.15332 13.5844 0.15332C13.4969 0.15332 13.4094 0.175196 13.3437 0.218946C13.2781 0.262696 13.2125 0.328322 13.1687 0.393947L10.6313 4.7252C10.5438 4.85645 10.5 5.03145 10.5 5.18457C10.5 5.3377 10.5438 5.51269 10.6313 5.64394L16.1875 15.0721C16.275 15.2033 16.3844 15.3346 16.5375 15.4221C16.6906 15.5096 16.8438 15.5533 17.0188 15.5533H22.0937C22.1812 15.5533 22.2688 15.5314 22.3344 15.4877C22.4 15.4439 22.4656 15.3783 22.5094 15.3127C22.5531 15.2471 22.575 15.1596 22.575 15.0721C22.575 14.9846 22.5531 14.9189 22.5094 14.8314Z" fill="#F5F5F5"/>
<path d="M0.0875003 22.3773L8.59687 7.93984C8.64062 7.87421 8.70625 7.80859 8.77187 7.76484C8.8375 7.72109 8.925 7.69922 9.0125 7.69922C9.1 7.69922 9.1875 7.72109 9.25312 7.76484C9.31875 7.80859 9.38437 7.87421 9.42812 7.93984L11.9656 12.2711C12.0531 12.4023 12.0969 12.5773 12.0969 12.7305C12.0969 12.8836 12.0531 13.0586 11.9656 13.1898L6.40937 22.618C6.32187 22.7492 6.2125 22.8805 6.05938 22.968C5.90625 23.0555 5.75313 23.0992 5.57813 23.0992H0.481251C0.393751 23.0992 0.30625 23.0773 0.240625 23.0336C0.175 22.9898 0.109376 22.9242 0.0656257 22.8586C0.0218757 22.793 0 22.7055 0 22.618C0.021875 22.5305 0.0437503 22.4648 0.0875003 22.3773Z" fill="#F5F5F5"/>
<path d="M9.5375 23.0783H26.5562C26.6437 23.0783 26.7313 23.0564 26.7969 23.0127C26.8625 22.9689 26.9281 22.9033 26.9719 22.8377C27.0156 22.7721 27.0375 22.6846 27.0375 22.5971C27.0375 22.5096 27.0156 22.4439 26.9719 22.3564L24.4344 18.0252C24.3469 17.8939 24.2375 17.7627 24.0844 17.6752C23.9313 17.5877 23.7781 17.5439 23.6031 17.5439H12.5125C12.3375 17.5439 12.1844 17.5877 12.0313 17.6752C11.8781 17.7627 11.7687 17.8721 11.6812 18.0252L9.14375 22.3564C9.1 22.4221 9.07812 22.5096 9.07812 22.5971C9.07812 22.6846 9.1 22.7502 9.14375 22.8377C9.1875 22.9033 9.25313 22.9689 9.31875 23.0127C9.38438 23.0564 9.47188 23.0783 9.5375 23.0783Z" fill="#F5F5F5"/>
</g>
<defs>
<clipPath id="clip0_1059_2269">
<rect width="130.156" height="28" fill="white"/>
</clipPath>
</defs>
</svg>
