<svg width="133" height="36" viewBox="0 0 133 36" fill="none" xmlns="http://www.w3.org/2000/svg">
<g clip-path="url(#clip0_1831_9689)">
<path d="M10.5733 -0.00537021C9.24368 0.00126081 7.9284 0.271141 6.70257 0.788905C5.47674 1.30667 4.36436 2.06221 3.42896 3.01228C2.49355 3.96233 1.75346 5.08835 1.25092 6.32601C0.748385 7.56368 0.493274 8.88876 0.500135 10.2256V13.605H8.68462V8.70893C8.68453 8.47899 8.72949 8.2513 8.81695 8.03885C8.90441 7.8264 9.03266 7.63336 9.19434 7.47076C9.35603 7.30816 9.54802 7.17923 9.7593 7.09126C9.97058 7.00327 10.197 6.95802 10.4257 6.95807H10.7208C10.9495 6.95802 11.176 7.00328 11.3872 7.09126C11.5986 7.17923 11.7906 7.30816 11.9523 7.47076C12.114 7.63335 12.2422 7.8264 12.3298 8.03885C12.4173 8.2513 12.4623 8.47898 12.4623 8.70893V21.8339C13.5371 21.8339 14.6014 21.6211 15.5944 21.2076C16.5873 20.7941 17.4897 20.1879 18.2497 19.4238C19.0097 18.6597 19.6125 17.7525 20.0239 16.7541C20.4351 15.7557 20.6468 14.6856 20.6468 13.605V10.2256C20.6526 7.51702 19.5918 4.91625 17.6961 2.9917C16.7661 2.04199 15.6573 1.2879 14.4343 0.773348C13.2115 0.258801 11.899 -0.00592818 10.5733 -0.00537021Z" fill="#F2F2F2"/>
<path d="M10.7212 28.4778H10.4261C10.1975 28.4778 9.97104 28.4325 9.75978 28.3446C9.54852 28.2566 9.35655 28.1277 9.19487 27.965C9.03318 27.8025 8.90493 27.6096 8.81745 27.3972C8.72997 27.1848 8.68496 26.957 8.68501 26.7272V13.6023C7.61018 13.6022 6.54585 13.8149 5.55282 14.2284C4.55979 14.642 3.65753 15.248 2.8975 16.0122C2.13749 16.7763 1.53461 17.6835 1.12334 18.682C0.712061 19.6804 0.500436 20.7505 0.500528 21.8312V25.1635C0.486893 26.5023 0.737378 27.8305 1.23749 29.0713C1.73761 30.3121 2.47743 31.4409 3.41418 32.3925C4.35092 33.344 5.466 34.0993 6.69492 34.6149C7.92385 35.1304 9.24224 35.3958 10.5738 35.3958C11.9054 35.3958 13.2238 35.1304 14.4528 34.6149C15.6816 34.0993 16.7968 33.344 17.7335 32.3925C18.6703 31.4409 19.4101 30.3121 19.9101 29.0713C20.4103 27.8305 20.6607 26.5023 20.6471 25.1635V21.8312H12.4627V26.7272C12.4627 26.9571 12.4176 27.1848 12.3301 27.3972C12.2426 27.6096 12.1142 27.8026 11.9526 27.9651C11.7909 28.1278 11.5989 28.2566 11.3876 28.3446C11.1763 28.4325 10.9499 28.4778 10.7212 28.4778Z" fill="#F2F2F2"/>
<path d="M34.6361 10.3843H31.7676V25.0155H40.1869V22.2571H34.6365L34.6361 10.3843Z" fill="#F2F2F2"/>
<path d="M49.3739 15.8037C48.9693 15.2981 48.4512 14.8961 47.8622 14.631C47.2732 14.3658 46.63 14.2448 45.9853 14.2778C45.3118 14.2725 44.6451 14.4125 44.03 14.6884C43.4149 14.9643 42.8659 15.3698 42.4201 15.8772C41.4627 16.9558 40.9336 18.3508 40.9336 19.7965C40.9336 21.2421 41.4627 22.6371 42.4201 23.7157C42.8661 24.223 43.4152 24.6282 44.0302 24.904C44.6453 25.1798 45.3119 25.3197 45.9853 25.3144C47.4407 25.3144 48.5703 24.8058 49.3739 23.7887V25.022H52.0559V14.5712H49.3739V15.8037ZM48.5532 21.9177C48.2827 22.19 47.9595 22.4035 47.6039 22.5455C47.2481 22.6875 46.8672 22.7547 46.4847 22.7432C46.1035 22.7555 45.724 22.6886 45.3697 22.5465C45.0156 22.4045 44.6944 22.1904 44.4262 21.9177C43.9042 21.3357 43.6154 20.5797 43.6154 19.796C43.6154 19.0121 43.9042 18.2562 44.4262 17.6742C44.6945 17.4017 45.0158 17.1879 45.37 17.0459C45.724 16.9039 46.1036 16.8369 46.4847 16.8489C46.8671 16.8376 47.248 16.9049 47.6037 17.0468C47.9594 17.1887 48.2826 17.4022 48.5532 17.6742C49.0811 18.2534 49.3739 19.0103 49.3739 19.796C49.3739 20.5815 49.0811 21.3386 48.5532 21.9177Z" fill="#F2F2F2"/>
<path d="M58.9676 21.5861L56.2564 14.5618H53.3252L57.5856 24.6786C57.4073 25.2824 57.0567 25.8201 56.5773 26.2253C56.0734 26.5689 55.4689 26.731 54.8618 26.6855V29.1941C56.0454 29.3041 57.2288 28.9809 58.1944 28.2839C59.0864 27.607 59.8029 26.5226 60.3439 25.0306L64.1336 14.5625H61.2647L58.9676 21.5861Z" fill="#F2F2F2"/>
<path d="M69.9392 14.2757C69.2081 14.2499 68.4796 14.3768 67.7997 14.6485C67.12 14.9201 66.5036 15.3308 65.9897 15.8542C64.9973 16.9268 64.4474 18.3384 64.4512 19.8034C64.4549 21.2683 65.0122 22.6771 66.0101 23.7445C67.0498 24.7892 68.4288 25.3118 70.1472 25.312C72.1425 25.312 73.6531 24.5667 74.6791 23.0761L72.5172 21.8215C72.2423 22.1722 71.8868 22.4506 71.4811 22.6326C71.0756 22.8147 70.6321 22.895 70.1887 22.8665C68.5947 22.8665 67.6176 22.2117 67.2573 20.9021H75.0949C75.1618 20.5365 75.1967 20.1655 75.1988 19.7937C75.2385 18.3379 74.7043 16.9256 73.7126 15.8642C73.2322 15.3446 72.6472 14.9341 71.9965 14.6602C71.3457 14.3863 70.6444 14.2552 69.9392 14.2757ZM67.216 18.8116C67.3347 18.1975 67.666 17.6457 68.1513 17.254C68.6671 16.8706 69.2976 16.6751 69.9389 16.7002C70.5248 16.6926 71.0975 16.8761 71.5711 17.2232C72.0748 17.6132 72.4128 18.1807 72.5169 18.8113L67.216 18.8116Z" fill="#F2F2F2"/>
<path d="M79.7483 16.3614V14.5633H77.0664V25.0145H79.7483V20.019C79.7483 19.0158 80.0705 18.2981 80.7148 17.866C81.36 17.4339 82.1408 17.2553 82.9085 17.3644V14.3553C82.2343 14.3467 81.5702 14.5199 80.9852 14.8568C80.4075 15.1939 79.9689 15.7276 79.7483 16.3614Z" fill="#F2F2F2"/>
<path d="M95.9816 12.6472V10.3843H86.4426V13.1435H92.3469L86.2891 22.7113V25.0152H96.0975V22.2567H89.9232L95.9816 12.6472Z" fill="#F2F2F2"/>
<path d="M102.432 14.2757C101.701 14.2499 100.972 14.3768 100.292 14.6485C99.6124 14.9201 98.996 15.3308 98.482 15.8542C97.4895 16.9268 96.9395 18.3386 96.9434 19.8035C96.9472 21.2684 97.5047 22.6772 98.5027 23.7445C99.5424 24.7892 100.921 25.3118 102.64 25.312C104.635 25.312 106.146 24.5667 107.172 23.0761L105.01 21.8215C104.735 22.1721 104.379 22.4505 103.974 22.6325C103.568 22.8146 103.125 22.8949 102.681 22.8665C101.087 22.8665 100.11 22.2117 99.7502 20.9021H107.588C107.654 20.5364 107.689 20.1655 107.691 19.7937C107.731 18.3379 107.197 16.9256 106.205 15.8642C105.725 15.3446 105.14 14.9341 104.489 14.6602C103.838 14.3863 103.137 14.2552 102.432 14.2757ZM99.7087 18.8116C99.8273 18.1975 100.159 17.6456 100.644 17.254C101.16 16.8704 101.791 16.675 102.432 16.7003C103.018 16.6924 103.591 16.8759 104.064 17.2232C104.568 17.6132 104.906 18.1807 105.01 18.8113L99.7087 18.8116Z" fill="#F2F2F2"/>
<path d="M112.241 16.3614V14.5633H109.559V25.0145H112.241V20.019C112.241 19.0158 112.562 18.2981 113.207 17.866C113.852 17.4339 114.632 17.2554 115.4 17.3644V14.3553C114.727 14.3467 114.062 14.5199 113.477 14.8568C112.899 15.1939 112.461 15.7275 112.241 16.3614Z" fill="#F2F2F2"/>
<path d="M121.516 14.2739C120.257 14.2878 119.043 14.7392 118.078 15.5514C117.113 16.3637 116.457 17.4866 116.223 18.7296C115.988 19.9726 116.188 21.2589 116.789 22.3704C117.391 23.4818 118.356 24.3496 119.521 24.8266C120.687 25.3035 121.981 25.3603 123.184 24.987C124.385 24.6138 125.422 23.8336 126.118 22.779C126.813 21.7244 127.123 20.4605 126.997 19.2016C126.87 17.9428 126.315 16.7669 125.424 15.8733C124.916 15.3517 124.307 14.9407 123.635 14.6655C122.962 14.3904 122.241 14.2571 121.516 14.2739ZM123.532 21.8614C123.269 22.1283 122.955 22.3383 122.608 22.4784C122.261 22.6183 121.89 22.6855 121.516 22.6755C121.143 22.6862 120.773 22.6194 120.427 22.4793C120.082 22.3391 119.769 22.1288 119.508 21.8614C118.994 21.2965 118.708 20.5581 118.708 19.7919C118.708 19.0259 118.994 18.2875 119.508 17.7226C119.769 17.4552 120.082 17.2449 120.427 17.1048C120.773 16.9648 121.143 16.8977 121.516 16.9083C121.89 16.8985 122.26 16.9657 122.608 17.1058C122.955 17.2458 123.269 17.4557 123.532 17.7226C124.053 18.2843 124.343 19.0239 124.343 19.7919C124.343 20.5601 124.053 21.2997 123.532 21.8614Z" fill="#F2F2F2"/>
<path d="M132.65 21.7998H129.387V25.0187H132.65V21.7998Z" fill="#F2F2F2"/>
<path d="M132.65 21.7998H129.387V25.0187H132.65V21.7998Z" fill="#F2F2F2"/>
</g>
<defs>
<clipPath id="clip0_1831_9689">
<rect width="132.353" height="36" fill="white" transform="translate(0.5 -0.00537109)"/>
</clipPath>
</defs>
</svg>
