<svg width="35" height="9" viewBox="0 0 35 9" fill="none" xmlns="http://www.w3.org/2000/svg">
<path fill-rule="evenodd" clip-rule="evenodd" d="M6.48583 4.68359C6.26476 4.74769 6.03135 4.78201 5.79008 4.78201C4.38983 4.78201 3.25471 3.62613 3.25471 2.20027C3.25471 1.94583 3.29086 1.69999 3.3582 1.46777H0.73113C0.327338 1.46777 0 1.8011 0 2.21228V7.32773C0 7.73891 0.327338 8.07223 0.73113 8.07223H5.7547C6.1585 8.07223 6.48583 7.73891 6.48583 7.32773V4.68359Z" fill="white"/>
<path d="M7.92709 1.83457C7.92709 2.84778 7.12048 3.66914 6.12547 3.66914C5.13047 3.66914 4.32385 2.84778 4.32385 1.83457C4.32385 0.821366 5.13047 0 6.12547 0C7.12048 0 7.92709 0.821366 7.92709 1.83457Z" fill="url(#paint0_linear_14601_8466)"/>
<path d="M15.6164 5.2312V8.0164H16.7523V5.2312C16.7523 3.51936 15.8799 2.39973 14.4987 2.39973C13.8263 2.39973 13.2265 2.80687 13.0266 3.37131V2.4645H11.8907V8.0164H13.0266V5.24045C13.0266 4.25961 13.5628 3.55637 14.2988 3.55637C15.0985 3.55637 15.6164 4.21335 15.6164 5.2312Z" fill="white"/>
<path d="M17.5115 5.2312C17.5115 6.84125 18.6837 8.07192 20.1921 8.07192C21.7005 8.07192 22.8637 6.84125 22.8637 5.2312C22.8637 3.6304 21.7005 2.39973 20.1921 2.39973C18.6837 2.39973 17.5115 3.6304 17.5115 5.2312ZM20.1921 3.55637C21.0645 3.55637 21.7278 4.27812 21.7278 5.2312C21.7278 6.19353 21.0645 6.91528 20.1921 6.91528C19.3198 6.91528 18.6473 6.19353 18.6473 5.2312C18.6473 4.27812 19.3198 3.55637 20.1921 3.55637Z" fill="white"/>
<path d="M24.4758 1.28934L24.2032 2.4645H23.3945V3.55637H24.2032V6.11025C24.2032 7.47047 24.7484 8.0164 26.0479 8.0164H26.5204V6.86901H26.1569C25.5935 6.86901 25.3391 6.61917 25.3391 6.04548V3.55637H26.5204V2.4645H25.3391V1.28934H24.4758Z" fill="white"/>
<path d="M28.4463 8.0164V2.4645H27.3104V8.0164H28.4463Z" fill="white"/>
<path d="M34.2653 8.0164V2.4645H31.1394V2.05736C31.1394 1.48366 31.3939 1.22457 31.9572 1.22457H32.3207V0.0864258H31.8482C30.5488 0.0864258 30.0035 0.623115 30.0035 1.99259V2.4645H29.2039V3.55637H30.0035V8.0164H31.1394V3.55637H33.1295V8.0164H34.2653Z" fill="white"/>
<path fill-rule="evenodd" clip-rule="evenodd" d="M27.7468 0C27.4258 0 27.3103 0.179386 27.3103 0.434505V1.36194H28.2008C28.5101 1.36194 28.6478 1.25168 28.6478 0.940757V0.434505C28.6478 0.14351 28.4592 0 28.1695 0H27.7468Z" fill="white"/>
<defs>
<linearGradient id="paint0_linear_14601_8466" x1="7.21347" y1="0.285907" x2="5.43217" y2="3.64268" gradientUnits="userSpaceOnUse">
<stop stop-color="#FE7970"/>
<stop offset="1" stop-color="#FEB776"/>
</linearGradient>
</defs>
</svg>
