<svg width="732" height="309" viewBox="0 0 732 309" fill="none" xmlns="http://www.w3.org/2000/svg">
<g clip-path="url(#clip0_2888_22823)">
<path d="M171.764 54.775C166.414 52.175 159.589 50.875 151.489 50.875H128.439C122.289 50.875 117.389 49.175 113.864 45.875L113.689 45.7C110.264 42.075 108.614 38.025 108.614 33.275C108.614 28.525 110.339 24.15 113.689 20.5749C117.089 16.9499 121.739 15.15 127.489 15.15H184.214V2.82495H125.364C118.964 2.82495 113.489 4.29995 108.564 7.32495C103.639 10.2 99.9393 13.9 97.2143 18.625C94.4893 23.35 93.1643 28.35 93.1643 33.975C93.1643 40.5499 94.5643 46.125 97.3643 50.575C100.364 55.1 104.339 58.475 109.514 60.95C114.889 63.225 121.264 64.4 128.414 64.4H152.664C156.739 64.4 160.364 65.35 163.464 67.2C166.614 68.875 168.939 71.275 170.489 74.325C172.014 77.1749 172.714 80.075 172.714 83.45C172.714 86.825 171.889 90.2499 170.239 93.3499C168.589 96.4749 166.039 99.0999 162.739 101.15C159.614 103 155.839 103.9 151.514 103.9H96.9393V116.2H154.114C160.964 116.2 166.739 114.675 171.789 111.5C177.039 108.325 180.989 104.325 183.864 99.2749C186.789 94.0749 188.164 88.6499 188.164 82.7499C188.164 75.8749 186.714 69.975 183.889 65.3C181.239 60.7 177.264 57.25 171.789 54.8H171.764V54.775Z" fill="#F5F5F5"/>
<path d="M307.214 8C298.364 2.7 287.964 0 276.339 0C264.714 0 254.339 2.7 245.439 8.025C236.564 13.175 229.414 20.375 224.214 29.425C219.014 38.275 216.389 48.4 216.389 59.5C216.389 70.6 219.014 80.85 224.214 89.825C229.414 98.7 236.564 105.9 245.439 111.225C253.914 116.175 263.839 118.8 274.864 119H276.339C287.964 119.025 298.339 116.45 307.214 111.25C316.264 105.925 323.414 98.725 328.464 89.875C333.664 80.85 336.289 70.65 336.289 59.5C336.289 48.35 333.664 37.975 328.464 29.125C323.414 20.275 316.264 13.15 307.214 7.975V8ZM320.614 59.525C320.614 68.3 318.764 76.35 315.064 83.475C311.389 90.5 306.189 96.175 299.639 100.35C293.114 104.5 285.039 106.7 276.314 106.7C267.589 106.7 259.739 104.575 252.989 100.35C246.439 96.175 241.239 90.475 237.539 83.45C233.889 76.325 231.989 68.275 231.989 59.525C231.989 50.775 233.839 42.8 237.539 35.825C241.214 28.625 246.439 22.85 253.014 18.675C259.764 14.475 267.614 12.35 276.314 12.35C285.014 12.35 293.014 14.475 299.639 18.7C306.214 22.9 311.414 28.65 315.089 35.8C318.739 42.8 320.639 50.775 320.639 59.525H320.614Z" fill="#F5F5F5"/>
<path d="M450.665 6.42502C442.84 2.20002 433.615 0.0250244 423.215 0.0250244C412.815 0.0250244 403.715 2.20002 395.715 6.47502C387.69 10.6 381.54 16.3 376.94 23.8C372.54 31.25 370.315 40.1 370.315 50.125V116.2H385.74V50.35C385.74 42.6 387.49 35.8 390.915 30.175C394.465 24.425 399.14 19.95 404.815 16.85C410.59 13.8 416.765 12.275 423.215 12.275C429.665 12.275 435.79 13.8 441.39 16.85C447.19 19.925 451.865 24.4 455.34 30.2C458.915 35.825 460.715 42.575 460.715 50.325V114.6L462.39 116.175H476.165V50.1C476.165 40.1 473.84 31.225 469.315 23.775C464.865 16.225 458.765 10.575 450.715 6.37502H450.69L450.665 6.42502Z" fill="#F5F5F5"/>
<path d="M532.34 2.82495H516.69V116.2H532.34V2.82495Z" fill="#F5F5F5"/>
<path d="M603.865 21.1999C610.74 17.1999 618.54 15.15 627.09 15.15H638.79V2.82495H627.79C615.99 2.82495 605.315 5.37495 596.115 10.425C586.915 15.425 579.54 22.35 574.19 30.9249C568.865 39.2999 566.19 48.9 566.19 59.525C566.19 70.1499 568.865 79.825 574.19 88.3499C579.54 96.7749 586.94 103.575 596.115 108.6C604.165 112.975 613.315 115.525 623.365 116.05L623.29 116.2H638.79V103.875H627.09C618.59 103.875 610.74 101.9 603.84 98.0499C597.165 94.0249 591.69 88.6 587.665 81.925C583.815 75.2 581.84 67.6749 581.84 59.5C581.84 51.325 583.815 43.75 587.69 37.0499C591.69 30.4 597.14 25.0499 603.865 21.1999Z" fill="#F5F5F5"/>
<path d="M54.9131 308.05C44.3881 308.05 35.0381 305.85 26.9131 301.45C18.7881 297.05 12.3881 290.775 7.71313 282.65C3.03813 274.375 0.713135 264.575 0.713135 253.25V165.65H24.5131V254.85C24.5131 260.725 25.7131 266.125 28.1131 271.05C30.6381 275.85 34.1881 279.725 38.7131 282.65C43.3881 285.575 48.8381 287.05 55.1131 287.05C61.3881 287.05 66.5881 285.575 71.1131 282.65C75.7881 279.725 79.3131 275.85 81.7131 271.05C84.1131 266.125 85.3131 260.725 85.3131 254.85V165.65H109.313V254.85C109.313 260.725 110.513 266.125 112.913 271.05C115.438 275.85 118.988 279.725 123.513 282.65C128.038 285.575 133.438 287.05 139.713 287.05C145.988 287.05 151.388 285.575 155.913 282.65C160.438 279.725 163.913 275.85 166.313 271.05C168.838 266.125 170.113 260.725 170.113 254.85V165.65H193.913V253.25C193.913 264.575 191.588 274.375 186.913 282.65C182.238 290.775 175.838 297.05 167.713 301.45C159.588 305.85 150.238 308.05 139.713 308.05C133.838 308.05 128.188 307.25 122.713 305.65C117.388 304.05 112.588 301.575 108.313 298.25C104.038 294.925 100.388 290.925 97.3131 286.25C94.3881 290.925 90.7131 294.925 86.3131 298.25C81.9131 301.45 77.0381 303.925 71.7131 305.65C66.5131 307.25 60.9131 308.05 54.9131 308.05Z" fill="#F5F5F5"/>
<path d="M287.063 308.25C275.988 308.25 265.938 306.375 256.863 302.65C247.938 298.775 240.263 293.525 233.863 286.85C227.588 280.175 222.738 272.45 219.263 263.65C215.788 254.85 214.063 245.45 214.063 235.45C214.063 225.45 215.788 216.125 219.263 207.45C222.738 198.65 227.588 190.925 233.863 184.25C240.263 177.575 247.938 172.375 256.863 168.65C265.938 164.925 275.988 163.05 287.063 163.05C298.138 163.05 308.338 164.925 317.263 168.65C326.188 172.375 333.863 177.575 340.263 184.25C346.663 190.925 351.588 198.65 355.063 207.45C358.538 216.125 360.263 225.45 360.263 235.45C360.263 245.45 358.538 254.85 355.063 263.65C351.588 272.45 346.663 280.175 340.263 286.85C333.863 293.525 326.188 298.775 317.263 302.65C308.338 306.375 298.263 308.25 287.063 308.25ZM287.063 287.05C294.138 287.05 300.663 285.775 306.663 283.25C312.663 280.725 317.863 277.125 322.263 272.45C326.788 267.65 330.263 262.125 332.663 255.85C335.063 249.575 336.263 242.775 336.263 235.45C336.263 228.125 335.063 221.325 332.663 215.05C330.263 208.775 326.788 203.375 322.263 198.85C317.863 194.175 312.663 190.575 306.663 188.05C300.663 185.375 294.138 184.05 287.063 184.05C279.988 184.05 273.463 185.375 267.463 188.05C261.588 190.575 256.388 194.175 251.863 198.85C247.463 203.375 243.988 208.775 241.463 215.05C239.063 221.325 237.863 228.125 237.863 235.45C237.863 242.775 239.063 249.775 241.463 256.05C243.988 262.175 247.463 267.65 251.863 272.45C256.388 277.125 261.588 280.725 267.463 283.25C273.463 285.775 279.988 287.05 287.063 287.05Z" fill="#F5F5F5"/>
<path d="M382.012 305.65V165.65H444.012C452.937 165.65 461.087 167.65 468.412 171.65C475.887 175.525 481.812 180.975 486.212 188.05C490.612 195.125 492.812 203.325 492.812 212.65C492.812 221.975 490.487 230.25 485.812 237.45C481.287 244.525 475.212 249.975 467.612 253.85L481.412 280.05C482.212 281.525 483.137 282.65 484.212 283.45C485.287 284.125 486.687 284.45 488.412 284.45H500.212V305.65H484.812C479.337 305.65 474.487 304.325 470.212 301.65C465.937 298.85 462.537 295.175 460.012 290.65L443.612 259.25C442.287 259.375 440.887 259.45 439.412 259.45H405.812V305.65H382.012ZM405.812 238.45H441.012C446.087 238.45 450.737 237.45 455.012 235.45C459.287 233.45 462.612 230.525 465.012 226.65C467.537 222.65 468.812 217.975 468.812 212.65C468.812 207.325 467.537 202.525 465.012 198.65C462.487 194.775 459.137 191.85 455.012 189.85C450.887 187.725 446.287 186.65 441.212 186.65H405.812V238.45Z" fill="#F5F5F5"/>
<path d="M555.338 305.65C547.463 305.65 540.538 303.925 534.538 300.45C528.663 296.85 524.063 292.05 520.738 286.05C517.538 280.05 515.938 273.375 515.938 266.05V165.65H539.938V269.05C539.938 273.325 541.338 276.975 544.138 280.05C547.063 283.125 550.813 284.65 555.338 284.65H592.538V305.65H555.338Z" fill="#F5F5F5"/>
<path d="M612.088 305.65V165.65H658.088C673.013 165.65 685.963 168.65 696.888 174.65C707.813 180.65 716.288 188.925 722.288 199.45C728.288 209.975 731.288 222.05 731.288 235.65C731.288 249.25 728.288 261.325 722.288 271.85C716.288 282.375 707.813 290.65 696.888 296.65C685.963 302.65 673.013 305.65 658.088 305.65H612.088ZM635.888 284.65H658.288C667.763 284.65 676.163 282.725 683.488 278.85C690.963 274.85 696.813 269.175 701.088 261.85C705.363 254.375 707.488 245.65 707.488 235.65C707.488 225.65 705.363 216.775 701.088 209.45C696.813 202.125 690.963 196.525 683.488 192.65C676.163 188.65 667.763 186.65 658.288 186.65H635.888V284.65Z" fill="#F5F5F5"/>
</g>
<defs>
<clipPath id="clip0_2888_22823">
<rect width="730.575" height="308.25" fill="white" transform="translate(0.712402)"/>
</clipPath>
</defs>
</svg>
