<svg width="156" height="72" viewBox="0 0 156 72" fill="none" xmlns="http://www.w3.org/2000/svg">
<path d="M120.634 1.07233C139.925 1.07233 155.562 16.7094 155.562 36C155.562 55.2906 139.925 70.9277 120.634 70.9277" fill="#141416"/>
<path d="M118.049 1.07233C136.17 1.07233 150.861 16.7094 150.861 36C150.861 55.2906 136.17 70.9277 118.049 70.9277" fill="#141416"/>
<path d="M115.465 1.07233C132.415 1.07233 146.159 16.7094 146.159 36C146.159 55.2906 132.419 70.9277 115.465 70.9277" fill="#141416"/>
<path d="M112.88 1.07233C128.664 1.07233 141.458 16.7094 141.458 36C141.458 55.2906 128.664 70.9277 112.88 70.9277" fill="#141416"/>
<path d="M110.296 1.07233C124.909 1.07233 136.757 16.7094 136.757 36C136.757 55.2906 124.909 70.9277 110.296 70.9277" fill="#141416"/>
<path d="M107.714 1.07233C121.158 1.07233 132.059 16.7094 132.059 36C132.059 55.2906 121.162 70.9277 107.714 70.9277" fill="#141416"/>
<path d="M105.13 1.07233C117.407 1.07233 127.358 16.7094 127.358 36C127.358 55.2906 117.407 70.9277 105.13 70.9277" fill="#141416"/>
<path d="M102.545 1.07233C113.652 1.07233 122.656 16.7094 122.656 36C122.656 55.2906 113.652 70.9277 102.545 70.9277" fill="#141416"/>
<path d="M99.9604 1.07233C109.897 1.07233 117.955 16.7094 117.955 36C117.955 55.2906 109.901 70.9277 99.9604 70.9277" fill="#141416"/>
<path d="M97.3758 1.07233C106.143 1.07233 113.25 16.7094 113.25 36C113.25 55.2906 106.143 70.9277 97.3758 70.9277" fill="#141416"/>
<path d="M94.7946 1.07233C102.395 1.07233 108.553 16.7094 108.553 36C108.553 55.2906 102.391 70.9277 94.7946 70.9277" fill="#141416"/>
<path d="M92.21 1.07233C98.6402 1.07233 103.851 16.7094 103.851 36C103.851 55.2906 98.6402 70.9277 92.21 70.9277" fill="#141416"/>
<path d="M89.6253 1.07233C94.8854 1.07233 99.1501 16.7094 99.1501 36C99.1501 55.2906 94.8854 70.9277 89.6253 70.9277" fill="#141416"/>
<path d="M87.0407 1.07233C91.1342 1.07233 94.4488 16.7094 94.4488 36C94.4488 55.2906 91.1307 70.9277 87.0407 70.9277" fill="#141416"/>
<path d="M84.4595 1.07233C87.383 1.07233 89.7511 16.7094 89.7511 36C89.7511 55.2906 87.383 70.9277 84.4595 70.9277" fill="#141416"/>
<path d="M81.8749 1.07233C83.6283 1.07233 85.0498 16.7094 85.0498 36C85.0498 55.2906 83.6283 70.9277 81.8749 70.9277" fill="#141416"/>
<path d="M79.2902 1.07233C79.8735 1.07233 80.3485 16.7094 80.3485 36C80.3485 55.2906 79.8735 70.9277 79.2902 70.9277" fill="#141416"/>
<path d="M76.7056 1.07233C76.1223 1.07233 75.6473 16.7094 75.6473 36C75.6473 55.2906 76.1223 70.9277 76.7056 70.9277" fill="#141416"/>
<path d="M74.1209 1.07233C72.3676 1.07233 70.946 16.7094 70.946 36C70.946 55.2906 72.3676 70.9277 74.1209 70.9277" fill="#141416"/>
<path d="M71.5398 1.07233C68.6163 1.07233 66.2482 16.7094 66.2482 36C66.2482 55.2906 68.6163 70.9277 71.5398 70.9277" fill="#141416"/>
<path d="M68.9551 1.07233C64.8616 1.07233 61.547 16.7094 61.547 36C61.547 55.2906 64.8651 70.9277 68.9551 70.9277" fill="#141416"/>
<path d="M66.3705 1.07233C61.1104 1.07233 56.8457 16.7094 56.8457 36C56.8457 55.2906 61.1104 70.9277 66.3705 70.9277" fill="#141416"/>
<path d="M63.7858 1.07233C57.3557 1.07233 52.1444 16.7094 52.1444 36C52.1444 55.2906 57.3557 70.9277 63.7858 70.9277" fill="#141416"/>
<path d="M61.2047 1.07233C53.6044 1.07233 47.4467 16.7094 47.4467 36C47.4467 55.2906 53.6079 70.9277 61.2047 70.9277" fill="#141416"/>
<path d="M58.62 1.07233C49.8532 1.07233 42.7454 16.7094 42.7454 36C42.7454 55.2906 49.8532 70.9277 58.62 70.9277" fill="#141416"/>
<path d="M56.0354 1.07233C46.0985 1.07233 38.0406 16.7094 38.0406 36C38.0406 55.2906 46.095 70.9277 56.0354 70.9277" fill="#141416"/>
<path d="M53.4507 1.07233C42.3437 1.07233 33.3394 16.7094 33.3394 36C33.3394 55.2906 42.3437 70.9277 53.4507 70.9277" fill="#141416"/>
<path d="M50.8661 1.07233C38.589 1.07233 28.6381 16.7094 28.6381 36C28.6381 55.2906 38.589 70.9277 50.8661 70.9277" fill="#141416"/>
<path d="M48.2849 1.07233C34.8413 1.07233 23.9403 16.7094 23.9403 36C23.9403 55.2906 34.8378 70.9277 48.2849 70.9277" fill="#141416"/>
<path d="M45.7003 1.07233C31.0865 1.07233 19.2391 16.7094 19.2391 36C19.2391 55.2906 31.0865 70.9277 45.7003 70.9277" fill="#141416"/>
<path d="M43.1156 1.07233C27.3318 1.07233 14.5378 16.7094 14.5378 36C14.5378 55.2906 27.3318 70.9277 43.1156 70.9277" fill="#141416"/>
<path d="M40.531 1.07233C23.5806 1.07233 9.83654 16.7094 9.83654 36C9.83654 55.2906 23.5771 70.9277 40.531 70.9277" fill="#141416"/>
<path d="M37.9463 1.07233C19.8259 1.07233 5.13527 16.7094 5.13527 36C5.13527 55.2906 19.8259 70.9277 37.9463 70.9277" fill="#141416"/>
<path d="M35.3652 1.07233C16.0746 1.07233 0.4375 16.7094 0.4375 36C0.4375 55.2906 16.0746 70.9277 35.3652 70.9277" fill="#141416"/>
<path d="M120.634 1.07233C139.925 1.07233 155.562 16.7094 155.562 36C155.562 55.2906 139.925 70.9277 120.634 70.9277M118.049 1.07233C136.17 1.07233 150.861 16.7094 150.861 36C150.861 55.2906 136.17 70.9277 118.049 70.9277M115.465 1.07233C132.415 1.07233 146.159 16.7094 146.159 36C146.159 55.2906 132.419 70.9277 115.465 70.9277M112.88 1.07233C128.664 1.07233 141.458 16.7094 141.458 36C141.458 55.2906 128.664 70.9277 112.88 70.9277M110.296 1.07233C124.909 1.07233 136.757 16.7094 136.757 36C136.757 55.2906 124.909 70.9277 110.296 70.9277M107.714 1.07233C121.158 1.07233 132.059 16.7094 132.059 36C132.059 55.2906 121.162 70.9277 107.714 70.9277M105.13 1.07233C117.407 1.07233 127.358 16.7094 127.358 36C127.358 55.2906 117.407 70.9277 105.13 70.9277M102.545 1.07233C113.652 1.07233 122.656 16.7094 122.656 36C122.656 55.2906 113.652 70.9277 102.545 70.9277M99.9604 1.07233C109.897 1.07233 117.955 16.7094 117.955 36C117.955 55.2906 109.901 70.9277 99.9604 70.9277M97.3758 1.07233C106.143 1.07233 113.25 16.7094 113.25 36C113.25 55.2906 106.143 70.9277 97.3758 70.9277M94.7946 1.07233C102.395 1.07233 108.553 16.7094 108.553 36C108.553 55.2906 102.391 70.9277 94.7946 70.9277M92.21 1.07233C98.6402 1.07233 103.851 16.7094 103.851 36C103.851 55.2906 98.6402 70.9277 92.21 70.9277M89.6253 1.07233C94.8854 1.07233 99.1501 16.7094 99.1501 36C99.1501 55.2906 94.8854 70.9277 89.6253 70.9277M87.0407 1.07233C91.1342 1.07233 94.4488 16.7094 94.4488 36C94.4488 55.2906 91.1307 70.9277 87.0407 70.9277M84.4595 1.07233C87.383 1.07233 89.7511 16.7094 89.7511 36C89.7511 55.2906 87.383 70.9277 84.4595 70.9277M81.8749 1.07233C83.6283 1.07233 85.0498 16.7094 85.0498 36C85.0498 55.2906 83.6283 70.9277 81.8749 70.9277M79.2902 1.07233C79.8735 1.07233 80.3485 16.7094 80.3485 36C80.3485 55.2906 79.8735 70.9277 79.2902 70.9277M76.7056 1.07233C76.1223 1.07233 75.6473 16.7094 75.6473 36C75.6473 55.2906 76.1223 70.9277 76.7056 70.9277M74.1209 1.07233C72.3676 1.07233 70.946 16.7094 70.946 36C70.946 55.2906 72.3676 70.9277 74.1209 70.9277M71.5398 1.07233C68.6163 1.07233 66.2482 16.7094 66.2482 36C66.2482 55.2906 68.6163 70.9277 71.5398 70.9277M68.9551 1.07233C64.8616 1.07233 61.547 16.7094 61.547 36C61.547 55.2906 64.8651 70.9277 68.9551 70.9277M66.3705 1.07233C61.1104 1.07233 56.8457 16.7094 56.8457 36C56.8457 55.2906 61.1104 70.9277 66.3705 70.9277M63.7858 1.07233C57.3557 1.07233 52.1444 16.7094 52.1444 36C52.1444 55.2906 57.3557 70.9277 63.7858 70.9277M61.2047 1.07233C53.6044 1.07233 47.4467 16.7094 47.4467 36C47.4467 55.2906 53.6079 70.9277 61.2047 70.9277M58.62 1.07233C49.8532 1.07233 42.7454 16.7094 42.7454 36C42.7454 55.2906 49.8532 70.9277 58.62 70.9277M56.0354 1.07233C46.0985 1.07233 38.0406 16.7094 38.0406 36C38.0406 55.2906 46.095 70.9277 56.0354 70.9277M53.4507 1.07233C42.3437 1.07233 33.3394 16.7094 33.3394 36C33.3394 55.2906 42.3437 70.9277 53.4507 70.9277M50.8661 1.07233C38.589 1.07233 28.6381 16.7094 28.6381 36C28.6381 55.2906 38.589 70.9277 50.8661 70.9277M48.2849 1.07233C34.8413 1.07233 23.9403 16.7094 23.9403 36C23.9403 55.2906 34.8378 70.9277 48.2849 70.9277M45.7003 1.07233C31.0865 1.07233 19.2391 16.7094 19.2391 36C19.2391 55.2906 31.0865 70.9277 45.7003 70.9277M43.1156 1.07233C27.3318 1.07233 14.5378 16.7094 14.5378 36C14.5378 55.2906 27.3318 70.9277 43.1156 70.9277M40.531 1.07233C23.5806 1.07233 9.83654 16.7094 9.83654 36C9.83654 55.2906 23.5771 70.9277 40.531 70.9277M37.9463 1.07233C19.8259 1.07233 5.13527 16.7094 5.13527 36C5.13527 55.2906 19.8259 70.9277 37.9463 70.9277M35.3652 1.07233C16.0746 1.07233 0.4375 16.7094 0.4375 36C0.4375 55.2906 16.0746 70.9277 35.3652 70.9277" stroke="url(#paint0_linear_1044_5547)" stroke-width="0.712" stroke-miterlimit="10"/>
<defs>
<linearGradient id="paint0_linear_1044_5547" x1="157.267" y1="27.4274" x2="-1.0861" y2="27.4274" gradientUnits="userSpaceOnUse">
<stop stop-color="#102D3C"/>
<stop offset="0.161465" stop-color="#214E81"/>
<stop offset="0.363625" stop-color="#506179"/>
<stop offset="0.651499" stop-color="#ED5409"/>
<stop offset="1" stop-color="#FFCB67"/>
</linearGradient>
</defs>
</svg>
