<svg width="190" height="255" viewBox="0 0 190 255" fill="none" xmlns="http://www.w3.org/2000/svg">
<g clip-path="url(#clip0_2199_3225)">
<path d="M76.2302 178.961C77.7169 171.813 73.1301 164.811 65.9788 163.324C58.8307 161.838 51.8284 166.425 50.3417 173.576C48.8551 180.724 53.4419 187.726 60.5932 189.213C67.7413 190.7 74.7436 186.113 76.2302 178.961Z" fill="url(#paint0_linear_2199_3225)"/>
<path d="M64.9579 179.263C60.6342 179.602 56.9 180.629 54.3673 182.22L54.2563 182.29C54.7096 182.921 55.2295 183.51 55.8128 184.04L55.9903 183.9C56.7098 183.339 57.4643 182.807 58.2377 182.318C60.3108 181.009 62.59 179.976 64.9611 179.26L64.9579 179.263Z" fill="#141416"/>
<path d="M52.3354 174.803C52.0565 176.952 52.4654 179.063 53.41 180.905L53.4798 180.86C55.0457 179.884 56.9857 179.101 59.2426 178.537C61.2238 178.042 63.4427 177.729 65.7916 177.602L52.3354 174.803Z" fill="#141416"/>
<path d="M62.441 167.832C65.3573 172.115 69.4623 175.399 74.3123 177.329C74.7909 171.982 71.0505 166.964 65.4778 165.803C64.007 165.496 62.5456 165.49 61.1572 165.737C61.5503 166.453 61.9846 167.157 62.441 167.832Z" fill="#141416"/>
<path d="M57.4833 167.249C59.1729 169.718 62.1843 172.15 66.0135 174.188C64.1274 172.584 62.4505 170.729 61.0685 168.701C60.5549 167.946 60.0763 167.16 59.6388 166.355L59.5311 166.155C58.783 166.409 58.0729 166.742 57.4072 167.138L57.4801 167.249H57.4833Z" fill="#141416"/>
<path d="M59.1476 183.666C58.4566 184.1 57.7814 184.576 57.1348 185.076C58.3076 185.856 59.6517 186.433 61.1225 186.737C66.6952 187.898 72.1284 184.788 73.8242 179.691C68.6066 179.526 63.5284 180.902 59.1476 183.663V183.666Z" fill="#141416"/>
<path d="M60.4849 172.571C58.6369 171.154 57.1724 169.664 56.1263 168.143L56.0788 168.073C54.478 169.385 53.2639 171.157 52.6616 173.24L66.1146 176.039C64.0098 174.987 62.1016 173.814 60.4817 172.568L60.4849 172.571Z" fill="#141416"/>
<path d="M89.5317 155.038C86.6471 148.331 78.8713 145.231 72.1638 148.115C65.4563 151 62.3562 158.776 65.2408 165.483C68.1254 172.191 75.9011 175.291 82.6086 172.406C89.3161 169.522 92.4163 161.746 89.5317 155.038Z" fill="url(#paint1_linear_2199_3225)"/>
<path d="M80.4752 161.755C77.1278 164.513 74.6616 167.499 73.5014 170.254L73.4507 170.377C74.1861 170.634 74.95 170.818 75.7298 170.916L75.7964 170.701C76.0627 169.829 76.3765 168.96 76.7284 168.117C77.6762 165.854 78.9473 163.701 80.4783 161.755H80.4752Z" fill="#141416"/>
<path d="M67.5803 165.35C68.5883 167.271 70.1321 168.764 71.9611 169.731L71.9928 169.655C72.7155 167.956 73.8535 166.203 75.3783 164.444C76.7159 162.903 78.3516 161.369 80.206 159.92L67.5803 165.35Z" fill="#141416"/>
<path d="M71.8566 153.84C76.7002 155.672 81.9495 156.005 87.0308 154.804C84.3555 150.147 78.4119 148.188 73.1816 150.436C71.7995 151.029 70.5981 151.862 69.606 152.861C70.3382 153.219 71.099 153.552 71.8597 153.84H71.8566Z" fill="#141416"/>
<path d="M67.4601 156.211C70.2591 157.264 74.1232 157.527 78.4279 156.994C75.9617 156.763 73.5241 156.208 71.2322 155.34C70.3795 155.016 69.5332 154.649 68.7153 154.24L68.5125 154.138C68.0465 154.775 67.6534 155.454 67.3364 156.164L67.4601 156.211Z" fill="#141416"/>
<path d="M78.247 168.694C77.9332 169.445 77.6479 170.225 77.407 171.002C78.8144 170.967 80.2472 170.666 81.6261 170.073C86.8564 167.826 89.5191 162.161 87.9817 157.013C83.6136 159.872 80.2472 163.914 78.2438 168.691L78.247 168.694Z" fill="#141416"/>
<path d="M72.9722 158.845C70.6455 158.744 68.5915 158.364 66.8607 157.72L66.7814 157.692C66.2235 159.686 66.2457 161.835 66.9495 163.886L79.572 158.456C77.2453 158.801 75.0105 158.934 72.9659 158.845H72.9722Z" fill="#141416"/>
<path d="M96.5207 172.362C93.6361 165.654 85.8603 162.554 79.1529 165.439C72.4454 168.323 69.3452 176.099 72.2298 182.806C75.1144 189.514 82.8902 192.614 89.5976 189.729C96.3051 186.845 99.4053 179.069 96.5207 172.362Z" fill="url(#paint2_linear_2199_3225)"/>
<path d="M87.4642 179.079C84.1168 181.836 81.6506 184.822 80.4904 187.577L80.4397 187.701C81.1751 187.957 81.9391 188.141 82.7188 188.24L82.7854 188.024C83.0517 187.152 83.3655 186.284 83.7174 185.441C84.6652 183.177 85.9363 181.025 87.4673 179.079H87.4642Z" fill="#141416"/>
<path d="M74.5693 182.67C75.5774 184.591 77.1211 186.084 78.9501 187.051L78.9818 186.975C79.7046 185.276 80.8426 183.523 82.3673 181.763C83.705 180.223 85.3406 178.689 87.195 177.24L74.5693 182.67Z" fill="#141416"/>
<path d="M78.8451 171.163C83.6887 172.995 88.938 173.328 94.0194 172.127C91.344 167.47 85.4004 165.511 80.1701 167.759C78.7881 168.352 77.5867 169.185 76.5945 170.184C77.3267 170.542 78.0875 170.875 78.8483 171.163H78.8451Z" fill="#141416"/>
<path d="M74.4483 173.531C77.2473 174.584 81.1114 174.847 85.4162 174.314C82.95 174.083 80.5123 173.528 78.2205 172.659C77.3678 172.336 76.5214 171.968 75.7036 171.559L75.5007 171.458C75.0348 172.095 74.6417 172.774 74.3247 173.484L74.4483 173.531Z" fill="#141416"/>
<path d="M85.2328 186.017C84.919 186.769 84.6337 187.549 84.3928 188.325C85.8003 188.29 87.233 187.989 88.6119 187.396C93.8423 185.149 96.505 179.484 94.9676 174.336C90.5995 177.196 87.233 181.237 85.2297 186.014L85.2328 186.017Z" fill="#141416"/>
<path d="M79.9613 176.168C77.6346 176.067 75.5805 175.687 73.8497 175.043L73.7705 175.015C73.2126 177.009 73.2347 179.158 73.9385 181.209L86.561 175.779C84.2343 176.124 81.9995 176.257 79.9549 176.168H79.9613Z" fill="#141416"/>
<path d="M128.803 156.532C125.918 149.824 118.143 146.724 111.435 149.609C104.728 152.493 101.627 160.269 104.512 166.977C107.397 173.684 115.172 176.784 121.88 173.9C128.587 171.015 131.688 163.239 128.803 156.532Z" fill="url(#paint3_linear_2199_3225)"/>
<path d="M119.75 163.249C116.402 166.007 113.936 168.993 112.776 171.747L112.725 171.871C113.461 172.128 114.224 172.312 115.004 172.41L115.071 172.194C115.337 171.323 115.651 170.454 116.003 169.611C116.951 167.347 118.222 165.195 119.753 163.249H119.75Z" fill="#141416"/>
<path d="M106.851 166.84C107.859 168.761 109.403 170.254 111.232 171.221L111.264 171.145C111.987 169.446 113.125 167.693 114.649 165.934C115.987 164.393 117.623 162.859 119.477 161.41L106.851 166.84Z" fill="#141416"/>
<path d="M111.128 155.33C115.971 157.162 121.221 157.495 126.302 156.294C123.627 151.637 117.683 149.678 112.453 151.926C111.071 152.519 109.869 153.352 108.877 154.351C109.609 154.709 110.37 155.042 111.131 155.33H111.128Z" fill="#141416"/>
<path d="M106.731 157.701C109.53 158.754 113.394 159.017 117.699 158.484C115.233 158.253 112.795 157.698 110.503 156.83C109.651 156.506 108.804 156.139 107.986 155.73L107.783 155.628C107.317 156.265 106.924 156.944 106.607 157.654L106.731 157.701Z" fill="#141416"/>
<path d="M117.518 170.188C117.204 170.939 116.919 171.719 116.678 172.495C118.085 172.46 119.518 172.159 120.897 171.567C126.127 169.319 128.79 163.654 127.253 158.507C122.885 161.366 119.518 165.407 117.515 170.184L117.518 170.188Z" fill="#141416"/>
<path d="M112.243 160.335C109.917 160.234 107.863 159.854 106.132 159.21L106.053 159.182C105.495 161.176 105.517 163.325 106.221 165.376L118.843 159.946C116.516 160.291 114.282 160.424 112.237 160.335H112.243Z" fill="#141416"/>
<path d="M140.944 185.438C144.457 179.038 142.117 170.999 135.714 167.487C129.311 163.974 121.275 166.314 117.763 172.717C114.251 179.117 116.59 187.156 122.993 190.668C129.393 194.18 137.432 191.841 140.944 185.438Z" fill="url(#paint4_linear_2199_3225)"/>
<path d="M130.078 182.433C125.843 181.491 121.973 181.383 119.085 182.163L118.958 182.198C119.208 182.934 119.532 183.65 119.938 184.328L120.15 184.246C121.003 183.919 121.877 183.631 122.762 183.39C125.13 182.747 127.609 182.423 130.084 182.433H130.078Z" fill="#141416"/>
<path d="M119.31 174.476C118.416 176.451 118.188 178.587 118.552 180.626L118.631 180.603C120.416 180.128 122.499 179.944 124.822 180.068C126.86 180.176 129.076 180.521 131.358 181.088L119.31 174.476Z" fill="#141416"/>
<path d="M131.016 170.764C132.551 175.712 135.518 180.052 139.591 183.317C141.613 178.343 139.502 172.451 134.513 169.712C133.194 168.989 131.799 168.555 130.401 168.384C130.569 169.182 130.775 169.984 131.016 170.761V170.764Z" fill="#141416"/>
<path d="M126.442 168.758C127.336 171.614 129.504 174.819 132.573 177.887C131.238 175.801 130.176 173.538 129.451 171.195C129.181 170.327 128.953 169.433 128.769 168.533L128.725 168.311C127.935 168.333 127.159 168.444 126.404 168.631L126.442 168.758Z" fill="#141416"/>
<path d="M123.234 184.94C122.448 185.155 121.658 185.409 120.898 185.697C121.792 186.785 122.907 187.729 124.226 188.452C129.215 191.191 135.321 189.806 138.434 185.428C133.492 183.745 128.236 183.574 123.237 184.937L123.234 184.94Z" fill="#141416"/>
<path d="M127.754 174.723C126.404 172.828 125.437 170.973 124.882 169.214L124.857 169.135C122.942 169.924 121.262 171.262 120.077 173.078L132.122 179.69C130.417 178.071 128.937 176.387 127.751 174.723H127.754Z" fill="#141416"/>
<path d="M50.8077 190.652C50.4559 190.652 50.1167 190.465 49.9392 190.132L2.63807 101.864C2.38131 101.385 2.56199 100.789 3.04065 100.532C3.52247 100.276 4.11524 100.456 4.372 100.935L51.6731 189.204C51.9299 189.682 51.7492 190.278 51.2705 190.535C51.1215 190.614 50.9631 190.652 50.8077 190.652Z" fill="black"/>
<path d="M139.121 190.652C138.966 190.652 138.807 190.614 138.658 190.535C138.179 190.278 137.999 189.682 138.256 189.204L185.557 100.935C185.813 100.456 186.4 100.272 186.888 100.532C187.367 100.789 187.547 101.385 187.291 101.864L139.989 190.132C139.812 190.462 139.473 190.652 139.121 190.652Z" fill="black"/>
<path d="M188.042 100.948C188.042 106.153 146.336 110.41 94.9043 110.41C43.4728 110.41 1.73486 106.153 1.73486 100.948C1.73486 98.1645 13.4223 95.6762 32.0834 93.9422C43.2478 92.8962 56.8973 92.1417 72.024 91.7487C79.3243 91.5521 87.0176 91.4539 94.9075 91.4539C102.797 91.4539 110.459 91.5521 117.791 91.7487C132.914 92.1417 146.567 92.893 157.732 93.9422C176.358 95.6762 188.045 98.1645 188.045 100.948H188.042Z" fill="#141416"/>
<path d="M134.093 110.511C133.573 110.511 133.136 110.102 133.114 109.573C133.088 109.031 133.507 108.571 134.049 108.546C172.366 106.733 186.9 102.922 187.059 100.944C187.059 100.913 186.26 97.5842 157.636 94.9183C146.503 93.8754 132.714 93.1178 117.762 92.7279C103.12 92.3349 86.5638 92.3349 72.0457 92.7279C57.0933 93.1147 43.3043 93.8723 32.1717 94.9183C3.51585 97.5842 2.71704 100.913 2.71704 100.944C2.81531 102.171 11.8717 106.159 50.8613 108.295C51.4034 108.324 51.8186 108.79 51.7901 109.332C51.7584 109.874 51.2512 110.302 50.7536 110.261C27.943 109.012 0.751709 106.381 0.751709 100.947C0.751709 99.5591 0.751709 95.8693 31.991 92.9625C43.1648 91.9133 57.0014 91.1557 71.995 90.7658C86.548 90.3759 103.139 90.3727 117.813 90.7658C132.809 91.1557 146.643 91.9164 157.82 92.9625C189.024 95.8693 189.024 99.5591 189.024 100.947C189.024 107.008 154.637 109.541 134.141 110.511C134.125 110.511 134.109 110.511 134.093 110.511Z" fill="black"/>
<path d="M80.1419 190.652C79.6664 190.652 79.2512 190.307 79.1719 189.822L63.2971 89.8497C63.2115 89.314 63.5761 88.81 64.115 88.7276C64.6348 88.6388 65.1515 89.0065 65.2371 89.5454L81.1151 189.517C81.2007 190.053 80.833 190.557 80.2972 190.64C80.2465 190.649 80.1926 190.652 80.1419 190.652Z" fill="black"/>
<path d="M188.054 100.935C188.054 98.158 176.364 95.6664 157.728 93.9357C146.564 92.8864 132.908 92.1257 117.784 91.7326C110.446 91.5487 102.79 91.4441 94.9038 91.4441C87.0171 91.4441 79.3365 91.5487 72.0235 91.7326C56.9 92.1257 43.2441 92.8864 32.0797 93.9357C13.4186 95.6664 1.72803 98.1548 1.72803 100.935C1.72803 97.5018 1.88652 94.1449 2.20034 90.7911C3.43343 77.9467 6.94567 65.8663 12.3694 54.9619C19.4192 40.6498 29.6674 28.3855 42.1188 19.2911C57.106 8.30742 75.3234 1.85986 94.9038 1.85986C121.036 1.85986 144.677 13.3127 161.582 31.7646C177.964 49.6143 188.054 74.0161 188.054 100.932V100.935Z" fill="#FE515E"/>
<path d="M188.054 100.935C188.054 98.158 176.364 95.6664 157.728 93.9357C146.564 92.8864 132.908 92.1257 117.784 91.7326C110.446 91.5487 102.79 91.4441 94.9038 91.4441C87.0171 91.4441 79.3365 91.5487 72.0235 91.7326C56.9 92.1257 43.2441 92.8864 32.0797 93.9357C13.4186 95.6664 1.72803 98.1548 1.72803 100.935C1.72803 97.5018 1.88652 94.1449 2.20034 90.7911C3.43343 77.9467 6.94567 65.8663 12.3694 54.9619C19.4192 40.6498 29.6674 28.3855 42.1188 19.2911C57.106 8.30742 75.3234 1.85986 94.9038 1.85986C121.036 1.85986 144.677 13.3127 161.582 31.7646C177.964 49.6143 188.054 74.0161 188.054 100.932V100.935Z" fill="url(#paint5_linear_2199_3225)"/>
<path d="M40.7526 26.4711C38.5242 28.4903 34.9327 28.6741 33.1005 31.0325C31.2144 33.4702 31.8959 37.4008 29.5882 39.3947C28.6436 40.2062 27.4137 40.5232 26.4152 41.2554C24.8429 42.3839 24.1075 44.3746 23.819 46.3146C23.5306 48.2292 23.6098 50.1945 23.1914 52.106C22.7983 53.992 21.7745 55.932 20.0215 56.7435C18.0562 57.6596 15.7231 57.0066 13.837 55.9035C13.3394 55.615 12.8417 55.3012 12.3694 54.9589C19.4192 40.6468 29.6675 28.3825 42.1188 19.2881C43.0634 21.7257 42.6704 24.6864 40.7558 26.4711H40.7526Z" fill="#FFECD4"/>
<path d="M20.7094 68.2661C17.3461 68.2661 14.2365 66.8555 11.4913 65.6097C10.8542 65.3054 10.2202 65.0201 9.58623 64.7316L8.28657 64.1389C7.79524 63.9106 7.57969 63.3274 7.80792 62.8329C8.03615 62.3384 8.62575 62.1292 9.11391 62.3542L10.4009 62.9406C11.0444 63.2323 11.6879 63.5239 12.3218 63.8251C14.8926 64.9916 17.7582 66.2564 20.8045 66.2976C23.3404 66.2976 26.4215 64.8965 27.1538 62.2972C27.5468 60.9278 27.2996 59.4411 27.0333 57.8688L26.8621 56.8101C26.4722 53.9128 26.9826 51.7509 28.3773 50.3815C29.5724 49.2214 31.1098 48.8917 32.5996 48.5684C33.7503 48.3211 34.8344 48.0865 35.6364 47.4906C37.4908 46.0832 37.4242 42.9957 37.2118 40.7958C36.9582 38.1743 36.6064 34.586 38.9014 32.2308C40.0901 31.0072 41.6402 30.5 43.1363 30.0118C44.0968 29.698 45.0034 29.4 45.78 28.9309C48.8453 27.0575 49.3747 22.664 48.3128 19.2944C47.9831 18.185 47.4886 17.1484 46.8039 16.1087C46.6961 15.947 46.6422 15.76 46.6422 15.5666C46.6422 15.0246 47.0829 14.5713 47.6249 14.5713C48.0275 14.5713 48.3762 14.8059 48.5252 15.1482C49.2764 16.3116 49.8216 17.4781 50.1925 18.7175C51.4795 22.8035 50.7314 28.2082 46.8007 30.6109C45.8308 31.1974 44.772 31.5461 43.7481 31.8789C42.4168 32.3132 41.1615 32.7253 40.312 33.6001C38.7809 35.1724 38.8982 37.8098 39.1676 40.6056C39.4244 43.2747 39.4593 47.0532 36.8188 49.0597C35.6681 49.9156 34.3209 50.2072 33.0149 50.4893C31.7406 50.7619 30.5392 51.0219 29.7531 51.7858C28.8275 52.6956 28.5073 54.2932 28.8084 56.5311L28.9701 57.5423C29.2586 59.2636 29.5565 61.0419 29.0398 62.8329C28.0286 66.4307 24.0695 68.2249 20.7125 68.2629L20.7094 68.2661Z" fill="#FFECD4"/>
<path d="M188.054 100.935C188.054 98.158 176.364 95.6665 157.728 93.9357C157.072 78.9707 154.295 64.9217 149.864 52.5243C155.813 49.6143 159.953 43.0114 161.107 36.3008C161.37 34.7792 161.526 33.2862 161.579 31.7678C177.961 49.6175 188.051 74.0193 188.051 100.935H188.054Z" fill="#F83B4D"/>
<path d="M188.054 100.935C188.054 98.158 176.364 95.6665 157.728 93.9357C157.072 78.9707 154.295 64.9217 149.864 52.5243C155.813 49.6143 159.953 43.0114 161.107 36.3008C161.37 34.7792 161.526 33.2862 161.579 31.7678C177.961 49.6175 188.051 74.0193 188.051 100.935H188.054Z" fill="url(#paint6_linear_2199_3225)"/>
<path d="M157.728 93.9357C146.564 92.8864 132.908 92.1257 117.784 91.7326C110.446 91.5487 102.791 91.4441 94.9039 91.4441C87.0172 91.4441 79.3366 91.5487 72.0236 91.7326C56.9001 92.1257 43.2442 92.8864 32.0798 93.9357C32.2637 89.7673 32.6029 85.6527 33.1291 81.6428C38.7873 36.1708 64.3144 1.85986 94.9039 1.85986C118.52 1.85986 139.095 22.3025 149.867 52.5242C154.295 64.9217 157.075 78.9706 157.731 93.9357H157.728Z" fill="#1E1E20"/>
<path d="M157.728 93.9356C146.564 92.8864 132.908 92.1256 117.784 91.7325C117.575 82.0866 117.052 72.8622 116.263 64.2369C118.83 60.097 121.322 55.8747 125.62 54.0426C131.729 51.4464 138.75 54.854 145.331 53.9379C146.928 53.7287 148.45 53.2311 149.864 52.5242C154.292 64.9216 157.072 78.9706 157.728 93.9356Z" fill="#282828"/>
<path d="M72.9112 72.0762C72.4642 78.3938 72.1504 84.9459 72.0205 91.7327C56.8969 92.1257 43.241 92.8865 32.0767 93.9357C32.2605 89.7673 32.5997 85.6528 33.1259 81.6429C35.8774 80.4383 38.762 79.5983 41.7765 79.5191C47.4633 79.3891 53.1533 81.9567 58.6816 80.7522C64.1338 79.573 68.1944 75.0115 72.9144 72.0762H72.9112Z" fill="#282828"/>
<path d="M117.784 91.7358C110.446 91.5519 102.79 91.4473 94.9037 91.4473C87.017 91.4473 79.3364 91.5519 72.0234 91.7358C72.1534 84.9459 72.4704 78.3937 72.9142 72.0793C75.7702 31.4508 84.5223 1.85986 94.9037 1.85986C104.6 1.85986 112.883 27.704 116.266 64.2401C117.052 72.8622 117.575 82.0898 117.787 91.7358H117.784Z" fill="#FE515E"/>
<path d="M117.784 91.7358C110.446 91.5519 102.79 91.4473 94.9037 91.4473C87.017 91.4473 79.3364 91.5519 72.0234 91.7358C72.1534 84.9459 72.4704 78.3937 72.9142 72.0793C75.7702 31.4508 84.5223 1.85986 94.9037 1.85986C104.6 1.85986 112.883 27.704 116.266 64.2401C117.052 72.8622 117.575 82.0898 117.787 91.7358H117.784Z" fill="url(#paint7_linear_2199_3225)"/>
<path d="M117.784 91.7359C110.446 91.552 102.79 91.4474 94.9037 91.4474C87.017 91.4474 79.3364 91.552 72.0234 91.7359C72.1534 84.946 72.4704 78.3938 72.9142 72.0794C74.6449 70.9794 76.4803 70.114 78.471 69.721C88.1962 67.7556 98.2067 77.4523 107.38 73.6263C111.444 71.9241 113.882 68.1234 116.266 64.2434C117.052 72.8655 117.575 82.0931 117.787 91.739L117.784 91.7359Z" fill="#F83B4D"/>
<path d="M117.784 91.7359C110.446 91.552 102.79 91.4474 94.9037 91.4474C87.017 91.4474 79.3364 91.552 72.0234 91.7359C72.1534 84.946 72.4704 78.3938 72.9142 72.0794C74.6449 70.9794 76.4803 70.114 78.471 69.721C88.1962 67.7556 98.2067 77.4523 107.38 73.6263C111.444 71.9241 113.882 68.1234 116.266 64.2434C117.052 72.8655 117.575 82.0931 117.787 91.739L117.784 91.7359Z" fill="url(#paint8_linear_2199_3225)"/>
<path d="M188.054 101.917C187.512 101.917 187.072 101.477 187.072 100.935C187.072 100.9 186.27 97.5715 157.639 94.9152C146.456 93.8659 132.667 93.1052 117.762 92.7153C102.426 92.3317 87.2741 92.3349 72.0491 92.7153C57.1475 93.102 43.3553 93.8628 32.1719 94.9152C3.51292 97.5715 2.71094 100.9 2.71094 100.935C2.71094 101.477 2.27032 101.917 1.72827 101.917C1.18622 101.917 0.745605 101.477 0.745605 100.935V100.916C0.745605 97.4511 0.90093 94.11 1.22109 90.6992C6.10906 39.4928 46.3825 0.877197 94.904 0.877197C110.842 0.877197 126.59 5.19142 140.446 13.3475C140.912 13.6233 141.07 14.2256 140.795 14.6948C140.519 15.1607 139.916 15.3192 139.447 15.0434C125.893 7.06165 110.49 2.84253 94.904 2.84253C47.4032 2.84253 7.96662 40.6942 3.17691 90.8862C2.94234 93.3905 2.79652 95.8566 2.73947 98.364C5.73818 96.722 13.2318 94.6964 31.988 92.9593C43.2158 91.9069 57.0492 91.143 71.9984 90.7531C87.2614 90.3727 102.442 90.3727 117.81 90.7531C132.759 91.143 146.595 91.9069 157.82 92.9593C176.551 94.6964 184.045 96.722 187.04 98.364C186.796 88.325 185.135 78.4698 182.089 69.0394C181.924 68.5227 182.206 67.9679 182.723 67.8031C183.236 67.6383 183.794 67.9204 183.959 68.4371C187.325 78.8628 189.037 89.7926 189.037 100.922V100.941C189.037 101.483 188.596 101.924 188.054 101.924V101.917Z" fill="black"/>
<path d="M111.238 74.0447C109.447 74.0447 107.815 74.9069 106.655 76.3016C105.475 77.6996 104.746 79.6078 104.746 81.7253C104.746 77.4904 101.855 74.0447 98.2766 74.0447C100.068 74.0447 101.678 73.1825 102.86 71.8099C104.02 70.412 104.75 68.5037 104.75 66.3862C104.75 68.5037 105.479 70.412 106.658 71.8099C107.818 73.1825 109.45 74.0447 111.241 74.0447H111.238Z" fill="#FFECD4"/>
<path d="M89.3892 19.4594C91.2277 19.9349 91.5383 24.8355 90.711 30.5255C89.8583 36.2091 88.1434 40.8118 86.2446 40.7357C84.3776 40.666 83.0494 35.6132 83.9591 29.527C84.8499 23.4376 87.5791 18.9871 89.3892 19.4594Z" fill="#FFECD4"/>
<path d="M92.0105 10.2763C92.7966 10.5394 92.9519 12.1465 92.4384 13.8868C91.9186 15.627 90.8947 16.8791 90.1022 16.6699C89.3066 16.4607 89.0498 14.825 89.5855 13.0341C90.1149 11.2399 91.237 10.0163 92.0073 10.2763H92.0105Z" fill="#FFECD4"/>
<path d="M112.1 156.211C111.45 148.94 105.031 143.567 97.7562 144.217C90.4813 144.866 85.1115 151.285 85.7613 158.56C86.4111 165.832 92.8301 171.205 100.105 170.555C107.377 169.905 112.75 163.486 112.1 156.211Z" fill="url(#paint9_linear_2199_3225)"/>
<path d="M101.402 159.768C97.3603 161.347 94.0858 163.414 92.1237 165.667L92.0381 165.769C92.6562 166.241 93.3251 166.653 94.0351 166.992L94.1651 166.809C94.6913 166.061 95.2587 165.335 95.8578 164.644C97.4649 162.789 99.3447 161.141 101.405 159.768H101.402Z" fill="#141416"/>
<path d="M88.0278 159.159C88.386 161.299 89.3845 163.198 90.8237 164.688L90.8776 164.624C92.0948 163.236 93.721 161.924 95.7212 160.732C97.4741 159.686 99.506 158.738 101.719 157.939L88.0278 159.159Z" fill="#141416"/>
<path d="M95.683 149.558C99.7151 152.81 104.597 154.766 109.799 155.207C108.708 149.948 103.674 146.233 98.0034 146.737C96.5072 146.87 95.1061 147.288 93.8477 147.925C94.4309 148.496 95.049 149.048 95.683 149.558Z" fill="#141416"/>
<path d="M90.767 150.439C93.1 152.313 96.6883 153.768 100.942 154.608C98.6727 153.619 96.5298 152.332 94.6215 150.791C93.9115 150.22 93.2236 149.605 92.5738 148.959L92.4121 148.8C91.7718 149.26 91.1854 149.783 90.6624 150.357L90.7638 150.439H90.767Z" fill="#141416"/>
<path d="M97.1195 165.664C96.5869 166.279 96.0734 166.932 95.6011 167.595C96.9483 168 98.4033 168.162 99.8994 168.029C105.57 167.525 109.866 162.973 110.011 157.603C104.968 158.96 100.508 161.746 97.1163 165.661L97.1195 165.664Z" fill="#141416"/>
<path d="M95.1821 154.662C93.0044 153.841 91.169 152.839 89.7267 151.685L89.6633 151.634C88.5126 153.356 87.8628 155.403 87.8882 157.571L101.576 156.351C99.2586 155.955 97.0904 155.384 95.1789 154.662H95.1821Z" fill="#141416"/>
<path d="M116.877 184.404C119.718 177.678 116.567 169.921 109.837 167.081C103.11 164.24 95.3537 167.391 92.5135 174.121C89.6733 180.848 92.8242 188.604 99.5539 191.444C106.28 194.285 114.037 191.134 116.877 184.404Z" fill="url(#paint10_linear_2199_3225)"/>
<path d="M105.76 182.524C101.453 182.02 97.5916 182.312 94.7989 183.38L94.6753 183.428C94.9986 184.135 95.3949 184.813 95.8672 185.447L96.0701 185.346C96.8847 184.934 97.7279 184.556 98.5806 184.227C100.869 183.342 103.304 182.769 105.767 182.524H105.76Z" fill="#141416"/>
<path d="M94.2384 175.712C93.5505 177.77 93.5442 179.916 94.1147 181.906L94.1908 181.878C95.9184 181.222 97.9693 180.829 100.296 180.711C102.334 180.61 104.572 180.727 106.902 181.06L94.2384 175.716V175.712Z" fill="#141416"/>
<path d="M105.501 170.825C107.536 175.589 110.928 179.605 115.318 182.436C116.82 177.282 114.12 171.636 108.873 169.423C107.488 168.84 106.055 168.549 104.648 168.523C104.895 169.3 105.184 170.076 105.504 170.825H105.501Z" fill="#141416"/>
<path d="M100.746 169.297C101.925 172.045 104.413 175.012 107.777 177.751C106.236 175.811 104.949 173.671 103.985 171.414C103.627 170.577 103.307 169.712 103.034 168.837L102.968 168.621C102.185 168.726 101.424 168.913 100.692 169.176L100.743 169.297H100.746Z" fill="#141416"/>
<path d="M99.2116 185.723C98.4508 186.018 97.6932 186.351 96.9641 186.718C97.9626 187.707 99.1735 188.535 100.559 189.118C105.802 191.331 111.733 189.33 114.379 184.655C109.292 183.485 104.046 183.856 99.2116 185.72V185.723Z" fill="#141416"/>
<path d="M102.663 175.097C101.126 173.351 99.9753 171.604 99.2431 169.912L99.2114 169.835C97.3887 170.815 95.8545 172.317 94.8591 174.245L107.52 179.589C105.659 178.15 104.014 176.632 102.663 175.094V175.097Z" fill="#141416"/>
<path d="M108.722 190.649C108.671 190.649 108.617 190.646 108.566 190.636C108.031 190.551 107.663 190.047 107.748 189.514L123.626 89.5422C123.712 89.0033 124.232 88.6388 124.749 88.7244C125.284 88.81 125.652 89.314 125.566 89.8465L109.692 189.819C109.616 190.304 109.197 190.649 108.722 190.649Z" fill="black"/>
<path d="M144.519 189.394V242.442C144.519 248.522 139.593 253.476 133.485 253.476H56.2947C50.2148 253.476 45.2856 248.522 45.2856 242.442V189.394H144.516H144.519Z" fill="#141416"/>
<path d="M144.519 189.394V242.442C144.519 248.522 139.593 253.476 133.485 253.476H56.2947C50.2148 253.476 45.2856 248.522 45.2856 242.442V189.394H144.516H144.519Z" fill="#FFCB67" fill-opacity="0.9"/>
<path d="M70.1344 195.895C67.776 197.991 63.7915 198.149 62.2699 200.9C61.693 201.95 61.6138 203.18 61.3538 204.333C61.1192 205.513 60.593 206.717 59.5185 207.243C58.2854 207.871 56.7131 207.323 55.4547 207.871C53.4893 208.711 53.3847 211.383 52.7285 213.428C51.8885 216.024 49.6633 218.094 47.0418 218.722C46.4648 218.852 45.8626 218.931 45.2856 218.931V189.391H72.0205C72.4675 191.749 71.9159 194.291 70.1344 195.892V195.895Z" fill="#FE9A4C"/>
<path d="M48.7284 232.561C47.5397 232.561 46.2876 232.368 45.0069 231.984C44.4871 231.829 44.1923 231.281 44.3476 230.761C44.5029 230.241 45.0513 229.943 45.5712 230.101C47.695 230.739 49.673 230.764 51.296 230.171C53.3913 229.395 54.9192 227.502 55.0016 225.575C55.0238 225.042 54.9604 224.497 54.9002 223.952C54.7543 222.63 54.5895 221.134 55.4961 219.856C56.5612 218.401 58.5677 217.907 61.1639 218.439L61.7027 218.547C63.1007 218.826 64.4225 219.092 65.4147 218.544C67.0123 217.634 66.9838 215.082 66.6763 213.108C66.3054 210.759 65.7982 207.538 67.8745 205.497C69.1615 204.235 71.0793 203.775 73.7135 204.092C74.1129 204.146 74.4964 204.21 74.8831 204.273C76.2145 204.486 77.4761 204.695 78.649 204.425C81.3244 203.829 82.8998 200.891 83.0773 198.292C83.239 195.543 82.3482 192.925 81.1659 189.79C81.1595 189.777 81.1564 189.768 81.15 189.758C80.944 189.378 81.0074 188.893 81.337 188.579C81.7301 188.202 82.3514 188.221 82.7255 188.611C82.8015 188.69 82.8744 188.81 82.9283 188.921C82.9505 188.963 82.9695 189.004 82.9854 189.045C83.9902 191.701 85.2392 195.004 85.0395 198.415C84.8208 201.645 82.8649 205.5 79.0833 206.343C77.5395 206.689 76.0338 206.448 74.5725 206.21C74.2048 206.15 73.8371 206.089 73.4725 206.042C71.4723 205.804 70.0903 206.083 69.2566 206.898C68.0045 208.131 68.2295 210.302 68.6258 212.803C69.3517 217.495 67.808 219.447 66.3847 220.259C64.7553 221.162 62.9327 220.798 61.3255 220.478L60.7866 220.373C59.9339 220.192 57.902 219.91 57.0969 221.007C56.6309 221.666 56.7387 222.624 56.8591 223.736C56.9289 224.38 56.9986 225.033 56.9701 225.66C56.8528 228.399 54.8494 230.954 51.9775 232.016C50.979 232.381 49.8854 232.561 48.7347 232.561H48.7284Z" fill="#FFECD4"/>
<path d="M144.519 200.926V242.442C144.519 248.522 139.593 253.476 133.485 253.476H56.2947C50.2148 253.476 45.2856 248.522 45.2856 242.442V242.388C50.6333 246.528 59.0208 246.816 64.2353 242.334C68.6382 238.559 70.9174 232.111 76.3981 230.095C81.6918 228.13 87.3533 231.3 92.3332 233.975C97.3131 236.676 103.761 238.93 108.268 235.522C111.413 233.189 112.357 228.995 113.353 225.194C114.348 221.419 116 217.254 119.642 215.812C124.701 213.821 130.755 218.275 135.681 215.97C139.089 214.398 140.373 210.309 141.552 206.746C142.234 204.726 143.15 202.552 144.513 200.926H144.519Z" fill="#141416"/>
<path d="M144.519 200.926V242.442C144.519 248.522 139.593 253.476 133.485 253.476H56.2947C50.2148 253.476 45.2856 248.522 45.2856 242.442V242.388C50.6333 246.528 59.0208 246.816 64.2353 242.334C68.6382 238.559 70.9174 232.111 76.3981 230.095C81.6918 228.13 87.3533 231.3 92.3332 233.975C97.3131 236.676 103.761 238.93 108.268 235.522C111.413 233.189 112.357 228.995 113.353 225.194C114.348 221.419 116 217.254 119.642 215.812C124.701 213.821 130.755 218.275 135.681 215.97C139.089 214.398 140.373 210.309 141.552 206.746C142.234 204.726 143.15 202.552 144.513 200.926H144.519Z" fill="#FE9A4C" fill-opacity="0.5"/>
<path d="M108.173 254.459H56.2947C49.6823 254.459 44.303 249.067 44.303 242.442V189.394C44.303 188.852 44.7436 188.411 45.2856 188.411H144.516C145.058 188.411 145.499 188.852 145.499 189.394V227.201C145.499 227.743 145.058 228.184 144.516 228.184C143.974 228.184 143.533 227.743 143.533 227.201V190.376H46.2683V242.442C46.2683 247.986 50.7664 252.494 56.2947 252.494H108.173C108.715 252.494 109.156 252.934 109.156 253.476C109.156 254.018 108.715 254.459 108.173 254.459Z" fill="black"/>
<path d="M143.53 198.07H46.2686C42.0685 198.07 38.6641 194.665 38.6641 190.465C38.6641 186.265 42.0685 182.861 46.2686 182.861H143.53C147.73 182.861 151.135 186.265 151.135 190.465C151.135 194.665 147.73 198.07 143.53 198.07Z" fill="#FFECD4"/>
<path d="M119.411 225.664C117.62 225.664 115.987 226.526 114.827 227.921C113.648 229.318 112.919 231.227 112.919 233.344C112.919 229.109 110.028 225.664 106.449 225.664C108.24 225.664 109.85 224.801 111.033 223.429C112.193 222.031 112.922 220.123 112.922 218.005C112.922 220.123 113.651 222.031 114.83 223.429C115.99 224.801 117.623 225.664 119.414 225.664H119.411Z" fill="#FFECD4"/>
<path d="M121.477 215.444C120.666 215.444 119.924 215.834 119.395 216.471C118.859 217.105 118.529 217.974 118.529 218.934C118.529 217.01 117.217 215.444 115.591 215.444C116.402 215.444 117.138 215.054 117.673 214.43C118.2 213.796 118.532 212.927 118.532 211.967C118.532 212.93 118.862 213.796 119.398 214.43C119.924 215.054 120.666 215.444 121.48 215.444H121.477Z" fill="#FFECD4"/>
<path d="M104.265 204.225C104.157 206.108 99.8844 207.459 94.5843 207.731C89.2652 207.994 84.7418 206.856 84.6023 204.961C84.466 203.097 88.7232 201.189 94.2673 200.913C99.8305 200.624 104.379 202.343 104.268 204.222L104.265 204.225Z" fill="#FFECD4"/>
<path d="M112.957 205.037C112.818 205.858 111.401 206.286 109.768 206.115C108.136 205.934 106.843 205.183 106.893 204.365C106.944 203.541 108.377 202.967 110.095 203.157C111.813 203.338 113.09 204.238 112.954 205.037H112.957Z" fill="#FFECD4"/>
</g>
<defs>
<linearGradient id="paint0_linear_2199_3225" x1="76.5274" y1="179.025" x2="50.0993" y2="173.524" gradientUnits="userSpaceOnUse">
<stop stop-color="#1A3746"/>
<stop offset="0.24" stop-color="#2B588B"/>
<stop offset="0.37" stop-color="#5A6B83"/>
<stop offset="0.74" stop-color="#ED5409"/>
<stop offset="1" stop-color="#FFCB67"/>
</linearGradient>
<linearGradient id="paint1_linear_2199_3225" x1="89.8086" y1="154.923" x2="65.0127" y2="165.587" gradientUnits="userSpaceOnUse">
<stop stop-color="#1A3746"/>
<stop offset="0.24" stop-color="#2B588B"/>
<stop offset="0.37" stop-color="#5A6B83"/>
<stop offset="0.74" stop-color="#ED5409"/>
<stop offset="1" stop-color="#FFCB67"/>
</linearGradient>
<linearGradient id="paint2_linear_2199_3225" x1="96.7964" y1="172.249" x2="72.0005" y2="182.912" gradientUnits="userSpaceOnUse">
<stop stop-color="#1A3746"/>
<stop offset="0.24" stop-color="#2B588B"/>
<stop offset="0.37" stop-color="#5A6B83"/>
<stop offset="0.74" stop-color="#ED5409"/>
<stop offset="1" stop-color="#FFCB67"/>
</linearGradient>
<linearGradient id="paint3_linear_2199_3225" x1="129.081" y1="156.42" x2="104.285" y2="167.083" gradientUnits="userSpaceOnUse">
<stop stop-color="#1A3746"/>
<stop offset="0.24" stop-color="#2B588B"/>
<stop offset="0.37" stop-color="#5A6B83"/>
<stop offset="0.74" stop-color="#ED5409"/>
<stop offset="1" stop-color="#FFCB67"/>
</linearGradient>
<linearGradient id="paint4_linear_2199_3225" x1="141.2" y1="185.581" x2="117.535" y2="172.592" gradientUnits="userSpaceOnUse">
<stop stop-color="#1A3746"/>
<stop offset="0.24" stop-color="#2B588B"/>
<stop offset="0.37" stop-color="#5A6B83"/>
<stop offset="0.74" stop-color="#ED5409"/>
<stop offset="1" stop-color="#FFCB67"/>
</linearGradient>
<linearGradient id="paint5_linear_2199_3225" x1="189.82" y1="46.9238" x2="4.0804" y2="78.0377" gradientUnits="userSpaceOnUse">
<stop stop-color="#1A3746"/>
<stop offset="0.24" stop-color="#2B588B"/>
<stop offset="0.37" stop-color="#5A6B83"/>
<stop offset="0.74" stop-color="#ED5409"/>
<stop offset="1" stop-color="#FFCB67"/>
</linearGradient>
<linearGradient id="paint6_linear_2199_3225" x1="188.416" y1="63.2283" x2="149.372" y2="65.1485" gradientUnits="userSpaceOnUse">
<stop stop-color="#1A3746"/>
<stop offset="0.24" stop-color="#2B588B"/>
<stop offset="0.37" stop-color="#5A6B83"/>
<stop offset="0.74" stop-color="#ED5409"/>
<stop offset="1" stop-color="#FFCB67"/>
</linearGradient>
<linearGradient id="paint7_linear_2199_3225" x1="118.221" y1="42.7397" x2="71.4174" y2="44.8624" gradientUnits="userSpaceOnUse">
<stop stop-color="#1A3746"/>
<stop offset="0.24" stop-color="#2B588B"/>
<stop offset="0.37" stop-color="#5A6B83"/>
<stop offset="0.74" stop-color="#ED5409"/>
<stop offset="1" stop-color="#FFCB67"/>
</linearGradient>
<linearGradient id="paint8_linear_2199_3225" x1="118.221" y1="76.7497" x2="72.3297" y2="83.5531" gradientUnits="userSpaceOnUse">
<stop stop-color="#1A3746"/>
<stop offset="0.24" stop-color="#2B588B"/>
<stop offset="0.37" stop-color="#5A6B83"/>
<stop offset="0.74" stop-color="#ED5409"/>
<stop offset="1" stop-color="#FFCB67"/>
</linearGradient>
<linearGradient id="paint9_linear_2199_3225" x1="112.404" y1="156.192" x2="85.5155" y2="158.587" gradientUnits="userSpaceOnUse">
<stop stop-color="#1A3746"/>
<stop offset="0.24" stop-color="#2B588B"/>
<stop offset="0.37" stop-color="#5A6B83"/>
<stop offset="0.74" stop-color="#ED5409"/>
<stop offset="1" stop-color="#FFCB67"/>
</linearGradient>
<linearGradient id="paint10_linear_2199_3225" x1="117.139" y1="184.504" x2="92.2715" y2="174.01" gradientUnits="userSpaceOnUse">
<stop stop-color="#1A3746"/>
<stop offset="0.24" stop-color="#2B588B"/>
<stop offset="0.37" stop-color="#5A6B83"/>
<stop offset="0.74" stop-color="#ED5409"/>
<stop offset="1" stop-color="#FFCB67"/>
</linearGradient>
<clipPath id="clip0_2199_3225">
<rect width="188.295" height="253.582" fill="white" transform="translate(0.742188 0.877441)"/>
</clipPath>
</defs>
</svg>
