<svg width="141" height="116" viewBox="0 0 141 116" fill="none" xmlns="http://www.w3.org/2000/svg">
<g clip-path="url(#clip0_3030_2878)">
<path d="M133.331 65.2262C133.331 65.2262 133.331 65.2199 133.33 65.2163C133.323 65.168 133.317 65.1198 133.309 65.0715L133.307 65.0573C133.299 65.0112 133.292 64.9657 133.285 64.9196C133.283 64.9132 133.282 64.9061 133.281 64.8997C133.273 64.8543 133.265 64.8089 133.257 64.7635C133.256 64.7585 133.255 64.7528 133.254 64.7478C133.245 64.6989 133.236 64.6499 133.226 64.6009C133.226 64.5995 133.226 64.5988 133.226 64.5974C133.195 64.4433 133.16 64.2907 133.123 64.1388C133.123 64.1381 133.123 64.1374 133.123 64.1367C133.112 64.0899 133.1 64.043 133.087 63.9962C133.084 63.9855 133.082 63.9742 133.079 63.9635C133.069 63.9259 133.059 63.889 133.048 63.8521C133.045 63.8393 133.041 63.8265 133.038 63.8137C133.028 63.779 133.018 63.7435 133.007 63.7087C133.003 63.6945 132.999 63.6796 132.994 63.6654C132.984 63.632 132.974 63.5987 132.964 63.5653C132.959 63.5504 132.955 63.5355 132.95 63.5206C132.939 63.4872 132.928 63.4539 132.917 63.4205C132.913 63.407 132.908 63.3928 132.903 63.3793C132.891 63.3431 132.879 63.3069 132.866 63.2707C132.862 63.2594 132.859 63.248 132.855 63.2374C132.84 63.1934 132.824 63.1501 132.808 63.1061C132.807 63.1032 132.806 63.0997 132.805 63.0968C132.788 63.0493 132.77 63.0024 132.752 62.9556C132.748 62.9464 132.744 62.9371 132.741 62.9286C132.727 62.8917 132.712 62.8548 132.698 62.8186C132.691 62.803 132.685 62.7874 132.678 62.7717C132.666 62.7419 132.654 62.7121 132.641 62.6823C132.634 62.6639 132.626 62.6461 132.618 62.6277C132.607 62.6007 132.595 62.573 132.583 62.546C132.575 62.5276 132.566 62.5091 132.558 62.4914C132.546 62.4644 132.534 62.4374 132.522 62.4097C132.513 62.3913 132.505 62.3721 132.496 62.3537C132.484 62.3274 132.471 62.3011 132.459 62.2749C132.451 62.2564 132.442 62.2387 132.433 62.2202C132.419 62.1925 132.406 62.1642 132.392 62.1365C132.383 62.1201 132.375 62.1031 132.367 62.0868C132.352 62.0577 132.338 62.0286 132.323 62.0002C132.315 61.9846 132.307 61.969 132.299 61.9533C132.276 61.91 132.253 61.866 132.23 61.8234L129.838 56.079C129.838 56.079 129.838 56.0797 129.838 56.0804L121.965 37.1776L140.176 4.65789L139.083 0.00157166L41.9632 19.0499L27.7089 40.9183C27.0985 38.089 28.0659 35.9752 28.0659 35.9752L25.1444 36.9831C23.5033 40.3888 25.0251 43.7355 25.0251 43.7355C21.7884 40.1886 23.4848 32.6576 23.4848 32.6576L16.6892 35.56C16.8063 41.435 20.0338 46.7415 20.0338 46.7415C16.0312 45.8834 13.2963 39.0728 13.2963 39.0728C11.9952 41.1021 10.6956 43.1343 9.39451 45.1636C10.1398 47.2128 12.3374 52.4781 17.5892 56.4438L0.000244141 83.4292L1.32403 87.2053L33.9956 81.1798L42.531 101.675L44.7449 106.992C44.9309 107.61 45.1765 108.203 45.4817 108.77C47.9327 113.295 53.7956 115.497 61.5936 115.497C61.6617 115.497 61.7298 115.497 61.798 115.497C62.1671 115.495 62.5412 115.488 62.9188 115.477C62.9372 115.477 62.9557 115.477 62.9741 115.477C63.0039 115.475 63.0338 115.475 63.0643 115.473C63.1459 115.47 63.2297 115.467 63.3134 115.464C63.3936 115.461 63.4738 115.457 63.554 115.453H63.5753C63.5945 115.451 63.613 115.451 63.6321 115.45C73.6028 114.99 86.2997 111.224 98.9903 104.384C99.0415 104.357 99.0926 104.329 99.1437 104.301C109.643 98.6211 118.386 91.7751 124.418 84.9936C124.418 84.9936 124.418 84.9936 124.418 84.9929C124.468 84.9368 124.518 84.88 124.568 84.824C130.818 77.7451 134.102 70.7478 133.333 65.2277L133.331 65.2262Z" fill="#877E66"/>
<path d="M140.175 4.65632L139.082 0L41.963 19.0497L27.7087 40.9181C28.2751 43.5444 30.2015 46.7875 35.5222 49.5309C35.5222 49.5309 38.3806 50.3812 40.4539 52.385C40.5767 52.5036 40.6967 52.6264 40.8124 52.7527C40.9699 52.6441 41.1367 52.544 41.3121 52.456C41.9956 52.1124 42.7288 51.9755 43.4408 52.0216C43.4408 52.0216 43.4422 52.0216 43.4429 52.0216C44.8625 52.1139 46.1976 52.9351 46.8833 54.2979C46.9869 54.5038 47.0714 54.7146 47.1381 54.9275C53.8025 54.9176 60.2915 53.8607 66.2802 50.8824C66.4093 50.8178 66.5385 50.7532 66.667 50.6872C69.3167 49.3279 72.0253 47.6471 74.0568 45.3998C74.22 45.2195 74.3783 45.0357 74.5323 44.8476C74.8787 44.4253 75.2017 43.9831 75.4956 43.521C75.5793 43.3897 75.668 43.2456 75.7589 43.0915C77.4007 41.4987 77.9557 39.3147 76.9663 37.7886C76.6057 37.2328 76.0811 36.8282 75.4579 36.5805C75.4515 36.5777 75.4452 36.5755 75.4388 36.5727C75.448 36.5748 75.4579 36.5777 75.4672 36.5798C76.2983 36.7878 77.0238 37.269 77.5121 38.1165C78.6038 40.0103 77.4049 42.5521 76.0499 44.4529C75.6766 44.9761 75.2918 45.4509 74.9398 45.8498C74.8745 45.9244 74.8099 45.9961 74.7467 46.0649C72.6137 48.398 69.8881 50.1562 67.0737 51.59C66.7004 51.7803 66.3256 51.9648 65.9501 52.1444C60.0722 54.9531 53.8784 56.5132 47.3262 56.1626C47.3248 57.6794 46.4894 59.1409 45.0414 59.8692C43.1696 60.8104 40.9245 60.2014 39.7668 58.5262C38.9626 59.136 38.0214 59.7194 36.9347 60.2014C36.7359 60.2894 36.5365 60.3717 36.3377 60.4491C35.0707 60.9417 33.8009 61.2207 32.558 61.3371C26.4956 61.9127 21.062 58.671 19.6289 57.8179C18.9021 57.3849 18.2228 56.9242 17.5883 56.4451L0 83.429L1.32379 87.2052L33.9954 81.1797L42.5308 101.675L43.1277 103.106C45.8413 103.99 49.0709 104.426 52.6782 104.426C53.0302 104.426 53.3866 104.422 53.7457 104.414C53.8855 104.411 54.0289 104.404 54.1702 104.4C54.3909 104.392 54.6103 104.387 54.8331 104.377C55.0085 104.369 55.1866 104.358 55.3634 104.348C55.555 104.337 55.7459 104.328 55.9397 104.315C56.137 104.302 56.3365 104.285 56.536 104.27C56.712 104.256 56.8873 104.244 57.0648 104.228C57.2777 104.21 57.4942 104.188 57.7093 104.167C57.8754 104.15 58.0407 104.135 58.2083 104.118C58.4318 104.094 58.6576 104.067 58.8833 104.04C59.0465 104.02 59.2084 104.003 59.373 103.981C59.6009 103.953 59.8309 103.92 60.0608 103.889C60.2255 103.866 60.3895 103.845 60.5556 103.821C60.7848 103.788 61.0162 103.751 61.2476 103.716C61.4173 103.69 61.5869 103.664 61.7573 103.636C61.9851 103.6 62.2144 103.559 62.4437 103.519C62.6218 103.488 62.7993 103.458 62.9781 103.426C63.2003 103.386 63.4232 103.343 63.6468 103.3C63.8377 103.264 64.0279 103.228 64.2203 103.189C64.4311 103.147 64.6441 103.103 64.8563 103.059C65.0657 103.016 65.2744 102.973 65.4852 102.927C65.6804 102.885 65.8763 102.841 66.0729 102.797C66.3057 102.746 66.5378 102.693 66.772 102.639C66.9467 102.599 67.1227 102.556 67.298 102.514C67.5592 102.452 67.8204 102.389 68.0823 102.323C68.2314 102.286 68.3812 102.247 68.5309 102.21C68.8255 102.135 69.1208 102.058 69.4175 101.979C69.5353 101.948 69.6531 101.916 69.7717 101.883C70.106 101.792 70.4417 101.7 70.7782 101.604C70.8591 101.582 70.94 101.558 71.0209 101.535C71.4035 101.425 71.7868 101.313 72.1715 101.198C72.1879 101.193 72.2035 101.188 72.2198 101.183C78.9771 99.1526 86.1476 96.1842 93.3138 92.3066C93.4458 92.2349 93.5764 92.1625 93.707 92.0901C93.8007 92.0383 93.8937 91.9864 93.9874 91.9346C94.3274 91.7479 94.6631 91.5591 94.9989 91.3703C95.4822 91.0992 95.9606 90.8252 96.4369 90.5498C96.5115 90.5065 96.5853 90.4632 96.6598 90.4206C97.1205 90.153 97.579 89.8833 98.0326 89.6114C98.3974 89.3928 98.7608 89.1728 99.1207 88.9513C99.5636 88.6788 100.002 88.4041 100.437 88.1287C100.559 88.0513 100.682 87.9753 100.803 87.898C101.21 87.6382 101.614 87.3763 102.015 87.1136C102.152 87.0228 102.291 86.9326 102.428 86.8411C102.826 86.5784 103.221 86.3144 103.612 86.0489C103.731 85.968 103.849 85.8864 103.968 85.8048C104.38 85.5223 104.792 85.239 105.197 84.953C105.446 84.7777 105.692 84.6009 105.938 84.4249C106.229 84.2162 106.52 84.0075 106.807 83.7974C107.063 83.6107 107.313 83.4219 107.566 83.2338C107.976 82.9279 108.381 82.6213 108.782 82.3132C108.854 82.2579 108.925 82.2025 108.997 82.1471C109.37 81.8589 109.741 81.5708 110.106 81.2805C110.518 80.9525 110.928 80.6246 111.329 80.2945C111.52 80.1384 111.703 79.9808 111.892 79.8246C112.192 79.5741 112.493 79.3235 112.787 79.0723C112.982 78.9062 113.171 78.7394 113.362 78.5725C113.576 78.3866 113.789 78.1999 114 78.0132C114.25 77.7918 114.497 77.5703 114.742 77.3488C115.019 77.0983 115.294 76.8477 115.565 76.5965C115.896 76.2891 116.218 75.9803 116.54 75.6723C116.654 75.563 116.771 75.4537 116.884 75.3437C117.043 75.1896 117.199 75.0356 117.355 74.8809C117.451 74.7865 117.544 74.6913 117.64 74.5962C117.957 74.2789 118.273 73.9617 118.581 73.6444L118.6 73.6252C118.865 73.3519 119.126 73.0779 119.383 72.8047C119.454 72.728 119.527 72.6514 119.598 72.5747C124.911 66.8686 128.492 61.1618 129.839 56.0781L121.966 37.1753L140.177 4.65561L140.175 4.65632Z" fill="#19283E"/>
<path d="M41.963 19.0497L27.7087 40.9181C28.2751 43.5444 30.2015 46.7875 35.5222 49.5309C35.5222 49.5309 38.3806 50.3812 40.4539 52.385C40.5767 52.5036 40.6967 52.6264 40.8124 52.7527C40.9699 52.6441 41.1367 52.544 41.3121 52.456C41.9956 52.1124 42.7288 51.9755 43.4408 52.0216C43.4408 52.0216 43.4422 52.0216 43.4429 52.0216C44.8625 52.1139 46.1977 52.9351 46.8833 54.2979C46.987 54.5038 47.0714 54.7146 47.1381 54.9275C53.8025 54.9176 60.2915 53.8607 66.2802 50.8824C66.4093 50.8178 66.5385 50.7532 66.667 50.6872C69.3167 49.3279 72.0253 47.6471 74.0568 45.3998C74.22 45.2195 74.3783 45.0357 74.5324 44.8476C74.8787 44.4253 75.2017 43.9831 75.4956 43.521C75.5793 43.3897 75.668 43.2456 75.7589 43.0915C77.4007 41.4987 77.9557 39.3147 76.9663 37.7886C76.6057 37.2328 76.0811 36.8282 75.4579 36.5805C75.4515 36.5777 75.4452 36.5755 75.4388 36.5727C75.448 36.5748 75.4579 36.5777 75.4672 36.5798C76.2983 36.7878 77.0238 37.269 77.5121 38.1165C78.6038 40.0103 77.4049 42.5521 76.0499 44.4529C75.6766 44.9761 75.2918 45.4509 74.9398 45.8498C74.8745 45.9244 74.8099 45.9961 74.7467 46.0649C72.6138 48.398 69.8881 50.1562 67.0737 51.59C66.7004 51.7803 66.3256 51.9648 65.9501 52.1444C60.0722 54.9531 53.8784 56.5132 47.3262 56.1626C47.3248 57.6794 46.4894 59.1409 45.0414 59.8692C43.1696 60.8104 40.9245 60.2014 39.7668 58.5262C38.9626 59.136 38.0214 59.7194 36.9347 60.2014C36.736 60.2894 36.5365 60.3717 36.3378 60.4491C35.0708 60.9417 33.8009 61.2207 32.558 61.3371C26.4956 61.9127 21.062 58.671 19.6289 57.8179C18.9021 57.3849 18.2228 56.9242 17.5883 56.4451L0 83.429L32.3401 77.3361L75.4409 69.2152L83.784 67.643L103.034 64.0159L110.641 50.5069L120.341 33.2799L139.081 0L41.963 19.0497Z" fill="#142134"/>
<path d="M76.9666 37.7885C76.606 37.2328 76.0815 36.8282 75.4583 36.5804C75.4519 36.5776 75.4455 36.5755 75.4391 36.5726C74.2644 36.1127 72.7419 36.2035 71.2974 36.8743C71.0071 37.0092 70.7196 37.1674 70.4386 37.3492C68.0117 38.9235 67.0003 41.6726 68.1792 43.489C68.4071 43.8403 68.7002 44.1306 69.0417 44.3592C69.9424 45.7163 71.959 46.0677 74.0578 45.3991C74.2211 45.2188 74.3794 45.0349 74.5334 44.8468C74.8798 44.4245 75.2028 43.9823 75.4966 43.5202C75.5804 43.3889 75.6691 43.2448 75.76 43.0908C77.4017 41.498 77.9568 39.3139 76.9673 37.7878L76.9666 37.7885Z" fill="#0E1728"/>
<path d="M110.641 50.5076L103.034 64.0166L104.616 68.1554L112.262 54.5016L121.964 37.1767L140.176 4.65629L139.082 -3.05176e-05L120.342 33.2806L110.641 50.5076Z" fill="black"/>
<path d="M85.4288 71.6938L76.0196 73.4293L33.9956 81.1796L42.531 101.675L43.128 103.105C45.8415 103.99 49.0712 104.426 52.6784 104.426C53.0304 104.426 53.3868 104.422 53.7459 104.414C53.8858 104.411 54.0291 104.404 54.1704 104.399C54.3911 104.392 54.6105 104.387 54.8333 104.377C55.0087 104.369 55.1868 104.358 55.3636 104.348C55.5552 104.337 55.7462 104.328 55.9399 104.315C56.1373 104.302 56.3367 104.285 56.5362 104.27C56.7122 104.256 56.8875 104.244 57.065 104.228C57.2779 104.21 57.4944 104.188 57.7095 104.167C57.8756 104.15 58.041 104.135 58.2085 104.118C58.4321 104.094 58.6578 104.067 58.8835 104.04C59.0467 104.02 59.2086 104.003 59.3733 103.981C59.6011 103.953 59.8311 103.92 60.0611 103.889C60.2257 103.866 60.3897 103.845 60.5558 103.821C60.7851 103.788 61.0165 103.751 61.2479 103.716C61.4175 103.69 61.5871 103.664 61.7575 103.636C61.9853 103.6 62.2146 103.559 62.4439 103.519C62.622 103.488 62.7995 103.458 62.9784 103.426C63.2005 103.386 63.4234 103.343 63.647 103.3C63.8379 103.264 64.0282 103.228 64.2205 103.189C64.4313 103.147 64.6443 103.103 64.8565 103.059C65.0659 103.016 65.2746 102.973 65.4854 102.927C65.6806 102.885 65.8765 102.841 66.0731 102.797C66.3059 102.746 66.538 102.693 66.7723 102.639C66.9469 102.599 67.1229 102.556 67.2982 102.514C67.5594 102.452 67.8206 102.389 68.0826 102.323C68.2316 102.286 68.3814 102.247 68.5312 102.21C68.8257 102.134 69.121 102.058 69.4177 101.979C69.5355 101.948 69.6534 101.916 69.7719 101.883C70.1062 101.792 70.442 101.7 70.7784 101.604C70.8593 101.582 70.9402 101.558 71.0212 101.535C71.4037 101.425 71.787 101.313 72.1718 101.198C72.1881 101.193 72.2037 101.188 72.22 101.183C78.9774 99.1526 86.1478 96.1842 93.314 92.3065C93.446 92.2348 93.5766 92.1624 93.7072 92.09L85.4295 71.6945L85.4288 71.6938Z" fill="#142134"/>
<path d="M52.6774 104.426C53.0295 104.426 53.3858 104.421 53.745 104.413C53.8848 104.41 54.0282 104.403 54.1695 104.399C54.3902 104.392 54.6095 104.386 54.8324 104.376C55.0077 104.368 55.1859 104.357 55.3626 104.347C55.5543 104.336 55.7452 104.327 55.939 104.314C56.1363 104.302 56.3358 104.285 56.5352 104.269C56.7113 104.255 56.8866 104.243 57.064 104.228C57.277 104.209 57.4935 104.187 57.7085 104.166C57.8746 104.15 58.04 104.135 58.2075 104.117C58.4311 104.093 58.6568 104.066 58.8826 104.039C59.0458 104.02 59.2077 104.002 59.3723 103.981C59.6002 103.952 59.8302 103.92 60.0601 103.888C60.2248 103.866 60.3888 103.844 60.5549 103.82C60.7841 103.787 61.0155 103.751 61.2469 103.715C61.4166 103.689 61.5862 103.663 61.7566 103.636C61.9844 103.599 62.2137 103.558 62.4429 103.519C62.6211 103.487 62.7986 103.458 62.9774 103.425C63.1996 103.385 63.4225 103.342 63.6461 103.299C63.837 103.263 64.0272 103.227 64.2196 103.189C64.4304 103.147 64.6433 103.103 64.8556 103.059C65.065 103.015 65.2736 102.972 65.4845 102.927C65.6797 102.885 65.8756 102.841 66.0722 102.797C66.305 102.745 66.5371 102.692 66.7713 102.638C66.9459 102.598 67.122 102.555 67.2973 102.514C67.5585 102.451 67.8197 102.388 68.0816 102.323C68.2307 102.286 68.3805 102.247 68.5302 102.209C68.8248 102.134 69.1201 102.057 69.4168 101.978C69.5346 101.947 69.6524 101.915 69.771 101.883C70.1053 101.792 70.441 101.699 70.7775 101.604C70.8584 101.581 70.9393 101.557 71.0202 101.534C71.4028 101.425 71.7861 101.313 72.1708 101.197C72.1871 101.192 72.2028 101.187 72.2191 101.183C74.7673 95.0194 76.177 88.3984 76.3338 82.1081C76.4027 79.3909 76.3232 76.4346 76.0201 73.4293L33.9961 81.1796L42.5315 101.675L43.1284 103.106C45.842 103.99 49.0716 104.426 52.6789 104.426L52.6774 104.426Z" fill="#080E1A"/>
<path d="M119.596 72.5761C124.91 66.87 128.49 61.1631 129.837 56.0795L121.964 37.1767L112.262 54.5016L119.596 72.5761Z" fill="#142134"/>
<path d="M77.5122 38.1165C78.6039 40.0103 77.405 42.5521 76.05 44.453C76.0578 44.448 76.0656 44.443 76.0727 44.4381C78.7863 42.6777 80.0306 39.7782 78.8516 37.9611C78.1965 36.9503 76.9288 36.4882 75.4666 36.5798C76.2977 36.7878 77.0232 37.269 77.5115 38.1165H77.5122Z" fill="#0E1728"/>
<path d="M39.8774 53.1452C38.7205 53.5178 36.2681 52.0322 35.28 51.5155C33.7724 50.7283 32.323 49.8219 30.7522 49.1568C32.6389 50.6254 35.1445 51.2869 36.8594 53.0039C37.32 53.4639 38.4337 54.4001 38.0426 55.1618C37.7963 55.6416 36.7344 55.8382 36.2567 55.802C34.632 55.6799 33.0115 55.2441 31.4088 54.9204C32.7304 55.819 35.9544 55.2732 36.8338 56.9952C37.4996 58.2984 33.842 58.9258 33.0051 59.0472C34.0116 59.1807 35.1338 58.8172 36.163 58.7747C36.7593 58.7491 37.1788 58.8818 37.281 59.1097C37.3697 59.3084 37.2164 59.5796 36.7273 59.8827C36.7075 59.8947 36.6876 59.9068 36.667 59.9196C35.564 60.5726 34.2281 60.7749 33.0264 61.1809C32.8695 61.2341 32.7134 61.2867 32.5579 61.3363C33.8008 61.2192 35.0707 60.9403 36.3377 60.4484C36.5371 60.371 36.7359 60.2887 36.9346 60.2007C38.022 59.7187 38.9625 59.1345 39.7667 58.5255C39.6581 58.3687 39.5587 58.2026 39.4707 58.0272C39.2706 57.6297 39.1414 57.2159 39.0761 56.7993C38.8362 55.2526 39.4934 53.6669 40.8123 52.7541C40.6959 52.627 40.5759 52.5049 40.4538 52.3864C40.4971 52.7236 40.3374 52.9968 39.876 53.1466L39.8774 53.1452Z" fill="#5F563E"/>
<path d="M39.5147 56.2726C39.5147 56.2726 39.5147 56.2726 39.5147 56.2733C39.5573 56.5537 39.6446 56.8319 39.7787 57.0988C39.9512 57.4416 40.1855 57.7334 40.4616 57.9669C41.2828 58.6618 42.471 58.8407 43.4924 58.3268C44.8574 57.6404 45.4068 55.9773 44.7204 54.6131C44.2569 53.6924 43.3491 53.1424 42.3887 53.0934C42.3887 53.0934 42.3873 53.0934 42.3866 53.0934C42.0089 53.0742 41.6235 53.1324 41.253 53.2758C41.17 53.3077 41.0876 53.3446 41.0067 53.3851C39.9093 53.9373 39.3394 55.1206 39.5147 56.2726Z" fill="#FFECD4"/>
<path d="M43.457 59.8174C43.7104 60.1765 44.5721 60.0048 45.3819 59.4334C46.1918 58.862 46.6433 58.1082 46.3899 57.749C46.1365 57.3898 45.2748 57.5616 44.4649 58.133C43.655 58.7044 43.2036 59.4582 43.457 59.8174Z" fill="#FFECD4"/>
<path d="M23.2576 45.2856C23.6096 45.5886 23.9645 45.8669 24.3173 46.1217C26.6185 47.7841 28.87 48.4712 30.1718 48.7728C27.948 47.6222 26.3218 46.2715 25.1379 44.8632C20.9365 39.8676 22.3029 34.1558 22.3029 34.1558L17.9788 36.3307C18.2996 37.8071 19.4104 41.9736 23.2576 45.2856Z" fill="#FFECD4"/>
<path d="M21.5299 50.3982C16.002 46.2735 13.1457 41.0842 13.1457 41.0842L11.2974 44.0781C13.6986 47.8429 17.1973 50.2967 20.5582 51.8895C25.7419 54.3454 30.5991 54.7507 30.5991 54.7507C27.0458 53.8954 24.0178 52.2551 21.5299 50.3989V50.3982Z" fill="#FFECD4"/>
<path d="M74.2673 44.1917C74.4156 44.1101 74.5618 44.0227 74.7073 43.9283C75.0956 43.6764 75.4477 43.3946 75.76 43.0915C77.4018 41.4987 77.9568 39.3146 76.9674 37.7885C76.6068 37.2328 76.0822 36.8282 75.459 36.5804C75.4526 36.5776 75.4462 36.5755 75.4399 36.5726C74.2651 36.1127 72.7426 36.2035 71.2981 36.8743C71.0078 37.0092 70.7204 37.1674 70.4393 37.3492C68.0125 38.9235 67.001 41.6726 68.18 43.489C68.4078 43.8403 68.701 44.1306 69.0424 44.3592C70.364 45.2443 72.4168 45.2095 74.268 44.191L74.2673 44.1917Z" fill="black"/>
<path d="M63.517 115.452C63.4496 115.454 63.3829 115.456 63.3154 115.458C67.0575 111.36 70.0508 106.437 72.2178 101.183C65.0722 103.333 58.3965 104.425 52.6769 104.425C49.0704 104.425 45.84 103.989 43.1265 103.104L44.7434 106.99C44.9294 107.609 45.175 108.201 45.4802 108.768C47.9311 113.293 53.7941 115.495 61.592 115.495C61.6602 115.495 61.7283 115.495 61.7965 115.495C62.0726 115.494 62.3515 115.489 62.6333 115.479C62.7291 115.479 62.8221 115.476 62.9165 115.475C62.935 115.475 62.9534 115.475 62.9719 115.475C63.0017 115.474 63.0315 115.473 63.062 115.472C63.1437 115.469 63.2274 115.465 63.3112 115.463C63.3914 115.459 63.4716 115.455 63.5518 115.452H63.5731C63.5923 115.45 63.6107 115.449 63.6299 115.448C63.6675 115.446 63.7051 115.445 63.7427 115.443C63.6675 115.447 63.5923 115.45 63.5163 115.453L63.517 115.452Z" fill="#5F563E"/>
<path d="M119.598 72.5789C113.205 79.4456 104.294 86.3115 93.7068 92.09L98.7471 104.506L98.7485 104.51C98.8287 104.466 98.9082 104.424 98.9884 104.381C99.0395 104.354 99.0907 104.326 99.1418 104.298C109.641 98.6181 118.384 91.772 124.416 84.9906C124.416 84.9906 124.416 84.9906 124.416 84.9899C124.466 84.9338 124.517 84.877 124.566 84.8209V84.8188L119.598 72.5782V72.5789Z" fill="#FFECD4"/>
</g>
<defs>
<clipPath id="clip0_3030_2878">
<rect width="140.175" height="115.496" fill="white"/>
</clipPath>
</defs>
</svg>
