<svg width="41" height="40" viewBox="0 0 41 40" fill="none" xmlns="http://www.w3.org/2000/svg">
<g clip-path="url(#clip0_3056_10266)">
<path d="M40.3335 20C40.3335 8.9543 31.3792 0 20.3335 0C9.2878 0 0.333496 8.9543 0.333496 20C0.333496 31.0457 9.2878 40 20.3335 40C31.3792 40 40.3335 31.0457 40.3335 20Z" fill="url(#paint0_linear_3056_10266)"/>
<path d="M23.7344 23.923C17.4349 25.7566 12.2237 28.4311 8.96169 31.565L8.81769 31.7041C9.68509 32.4995 10.6362 33.2111 11.6644 33.8158L11.8854 33.5539C12.7763 32.4995 13.7308 31.4808 14.7255 30.5203C17.3947 27.9428 20.449 25.7112 23.7379 23.9197L23.7344 23.923Z" fill="#141416"/>
<path d="M3.66681 21.2062C3.91798 24.4759 5.17054 27.4739 7.13645 29.9123L7.22687 29.825C9.24636 27.8942 11.8754 26.1383 15.0469 24.6084C17.8268 23.2664 21.0183 22.115 24.4579 21.2062H3.66681Z" fill="#141416"/>
<path d="M16.4871 7.76888C22.1235 13.2118 29.2169 16.8113 36.9968 18.1759C36.0591 10.1071 28.9724 3.82983 20.3619 3.82983C18.0879 3.82983 15.9211 4.26966 13.9418 5.06199C14.7456 5.99987 15.6029 6.91186 16.4871 7.76888Z" fill="#141416"/>
<path d="M8.96169 8.43509C12.2237 11.5721 17.4349 14.2434 23.7344 16.0803C20.4457 14.2855 17.3913 12.0572 14.7221 9.47969C13.7308 8.52242 12.7763 7.5037 11.8821 6.44617L11.661 6.1842C10.6329 6.78897 9.68175 7.50047 8.81769 8.29603L8.96169 8.43509Z" fill="#141416"/>
<path d="M16.4871 32.2311C15.5996 33.0881 14.7422 34.0001 13.9418 34.938C15.9177 35.7303 18.0879 36.1701 20.3619 36.1701C28.9724 36.1701 36.0591 29.893 37.0002 21.8208C29.2202 23.1855 22.1269 26.785 16.4904 32.228L16.4871 32.2311Z" fill="#141416"/>
<path d="M15.0469 15.3915C11.8754 13.8618 9.24636 12.1057 7.22687 10.175L7.13645 10.0877C5.17053 12.5261 3.91798 15.5241 3.66681 18.7937H24.4546C21.015 17.885 17.8268 16.7336 15.0436 15.3883L15.0469 15.3915Z" fill="#141416"/>
</g>
<defs>
<linearGradient id="paint0_linear_3056_10266" x1="40.7732" y1="15.0912" x2="-0.0593769" y2="15.0912" gradientUnits="userSpaceOnUse">
<stop stop-color="#1A3746"/>
<stop offset="0.242213" stop-color="#2B588B"/>
<stop offset="0.367213" stop-color="#5A6B83"/>
<stop offset="0.742213" stop-color="#ED5409"/>
<stop offset="1" stop-color="#FFCB67"/>
</linearGradient>
<clipPath id="clip0_3056_10266">
<rect width="40" height="40" fill="white" transform="translate(0.333496)"/>
</clipPath>
</defs>
</svg>
