<svg width="234" height="60" viewBox="0 0 234 60" fill="none" xmlns="http://www.w3.org/2000/svg">
<g clip-path="url(#clip0_5119_14033)">
<mask id="mask0_5119_14033" style="mask-type:luminance" maskUnits="userSpaceOnUse" x="0" y="0" width="234" height="60">
<path d="M233.246 0.128906H0V59.6978H233.246V0.128906Z" fill="white"/>
</mask>
<g mask="url(#mask0_5119_14033)">
<path d="M25.5875 0.128906L0 15.0211V44.8056L25.5875 59.6978L51.1751 44.8056V15.0211L25.5875 0.128906ZM40.3349 38.4937L25.5923 47.074L10.8496 38.4937V21.333L25.5923 12.7527L40.3349 21.333V38.4937Z" fill="#F5F5F5"/>
<path d="M79.2481 44.8365C76.7071 44.8365 74.4309 44.2503 72.4263 43.0709C70.4196 41.8938 68.8358 40.1951 67.6754 37.9694C66.5147 35.7441 65.9355 33.0657 65.9355 29.9324C65.9355 26.7991 66.5218 24.0781 67.687 21.8454C68.8548 19.6152 70.4433 17.9139 72.4571 16.744C74.4688 15.574 76.7331 14.9902 79.2506 14.9902C80.8861 14.9902 82.4132 15.2261 83.8172 15.6932C85.2237 16.1602 86.4742 16.8392 87.5708 17.7304C88.6677 18.6216 89.5588 19.7105 90.2515 20.9972C90.9416 22.2839 91.3884 23.7469 91.5965 25.3886H85.8879C85.7578 24.557 85.5074 23.8136 85.134 23.1535C84.758 22.4983 84.2852 21.9383 83.7133 21.4761C83.1389 21.0138 82.4866 20.6636 81.7609 20.4229C81.0304 20.1823 80.2363 20.0631 79.3712 20.0631C77.8489 20.0631 76.5087 20.4467 75.3458 21.214C74.1851 21.9812 73.2773 23.0987 72.6273 24.5689C71.9749 26.0368 71.6486 27.8285 71.6486 29.9324C71.6486 32.0365 71.9772 33.8641 72.6343 35.3269C73.294 36.79 74.1969 37.8932 75.3528 38.6415C76.5087 39.3896 77.8419 39.7637 79.3475 39.7637C80.1867 39.7637 80.9666 39.6493 81.6875 39.4206C82.4084 39.1944 83.0585 38.8606 83.6329 38.4247C84.205 37.991 84.6871 37.4573 85.0747 36.8259C85.4625 36.1945 85.7343 35.47 85.8879 34.6526H91.5965C91.4285 36.0155 91.0266 37.3119 90.3884 38.5342C89.7502 39.7541 88.8994 40.8384 87.8333 41.7794C86.7697 42.7232 85.5167 43.4641 84.0797 44.0145C82.6401 44.5602 81.0304 44.8342 79.2529 44.8342V44.8413L79.2481 44.8365Z" fill="#F5F5F5"/>
<path d="M100.188 31.7554V44.4339H94.6543V15.3691H100.034V26.4274H100.306C100.807 25.167 101.597 24.171 102.667 23.4419C103.736 22.7152 105.1 22.3482 106.749 22.3482C108.246 22.3482 109.558 22.6723 110.676 23.3228C111.798 23.9733 112.671 24.9097 113.288 26.1321C113.907 27.3519 114.214 28.8318 114.214 30.5615V44.4293H108.66V31.4979C108.66 30.0923 108.305 28.9985 107.596 28.2098C106.887 27.4236 105.884 27.0304 104.596 27.0304C103.731 27.0304 102.97 27.2185 102.313 27.5974C101.653 27.9762 101.136 28.5125 100.755 29.2057C100.374 29.9039 100.185 30.7476 100.185 31.7528V31.7577L100.188 31.7554Z" fill="#F5F5F5"/>
<path d="M124.052 44.8661C122.672 44.8661 121.438 44.6183 120.348 44.1252C119.259 43.6295 118.401 42.898 117.774 41.9305C117.148 40.9634 116.836 39.7624 116.836 38.3328C116.836 37.1127 117.058 36.0952 117.505 35.2874C117.951 34.4799 118.557 33.8292 119.325 33.3289C120.093 32.8285 120.961 32.4497 121.937 32.1971C122.911 31.9447 123.934 31.7657 125.003 31.661C126.267 31.5298 127.286 31.4109 128.061 31.3013C128.837 31.1915 129.399 31.0154 129.754 30.7746C130.108 30.5339 130.285 30.1788 130.285 29.7119V29.6143C130.285 28.6372 129.988 27.8795 129.397 27.3411C128.804 26.8025 127.957 26.531 126.86 26.531C125.7 26.531 124.778 26.786 124.092 27.303C123.409 27.8152 122.953 28.4372 122.719 29.1639L117.571 28.5968C117.892 27.272 118.479 26.1426 119.322 25.2132C120.166 24.284 121.228 23.5739 122.504 23.0855C123.781 22.597 125.232 22.3516 126.858 22.3516C127.981 22.3516 129.075 22.485 130.139 22.7519C131.203 23.0164 132.163 23.4405 133.023 24.0219C133.878 24.6009 134.566 25.3658 135.072 26.314C135.58 27.2649 135.838 28.4204 135.838 29.7882V44.435H130.538V41.4112H130.385C130.047 42.0594 129.6 42.6479 129.03 43.1697C128.463 43.6915 127.766 44.1013 126.941 44.4088C126.116 44.7162 125.154 44.8687 124.057 44.8687H124.05L124.052 44.8661ZM125.558 40.8871C126.513 40.8871 127.345 40.6965 128.054 40.3127C128.763 39.9291 129.319 39.4169 129.718 38.7736C130.118 38.1302 130.319 37.4178 130.319 36.6387V34.1985C130.139 34.3297 129.872 34.4463 129.527 34.5513C129.177 34.656 128.785 34.7514 128.345 34.8347C127.908 34.9181 127.473 34.9921 127.047 35.0587C126.622 35.1232 126.241 35.1756 125.905 35.2137C125.17 35.3184 124.523 35.4877 123.96 35.7188C123.398 35.9547 122.956 36.2716 122.634 36.6743C122.313 37.0769 122.15 37.5845 122.15 38.1968C122.15 39.0809 122.469 39.7504 123.107 40.2079C123.745 40.6629 124.56 40.8894 125.553 40.8894H125.556L125.558 40.8871Z" fill="#F5F5F5"/>
<path d="M139.473 44.4358V22.6289H145.006V44.4358H139.473Z" fill="#F5F5F5"/>
<path d="M154.178 31.7563V44.435H148.645V22.6256H154.081V26.4283H154.315C154.804 25.1799 155.582 24.1887 156.646 23.4524C157.71 22.7161 159.047 22.3516 160.662 22.3516C162.158 22.3516 163.465 22.6756 164.579 23.3261C165.694 23.9742 166.559 24.9154 167.174 26.1426C167.786 27.3721 168.093 28.8446 168.093 30.5601V44.4277H162.56V31.4965C162.56 30.1051 162.203 29.0114 161.487 28.2203C160.773 27.4293 159.787 27.029 158.534 27.029C157.684 27.029 156.929 27.2171 156.279 27.5961C155.627 27.9748 155.116 28.5109 154.741 29.2043C154.365 29.9025 154.18 30.7459 154.18 31.7515V31.7563H154.178Z" fill="#F5F5F5"/>
<path d="M177.262 13.9375V44.4344H171.729V13.9375H177.262Z" fill="#F5F5F5"/>
<path d="M180.896 44.4358V22.6289H186.43V44.4358H180.896Z" fill="#F5F5F5"/>
<path d="M195.604 31.7563V44.435H190.07V22.6256H195.507V26.4283H195.741C196.23 25.1799 197.008 24.1887 198.072 23.4524C199.135 22.7161 200.473 22.3516 202.088 22.3516C203.584 22.3516 204.891 22.6756 206.007 23.3261C207.122 23.9742 207.988 24.9154 208.6 26.1426C209.212 27.3721 209.519 28.8446 209.519 30.5601V44.4277H203.986V31.4965C203.986 30.1051 203.629 29.0114 202.913 28.2203C202.199 27.4293 201.213 27.029 199.96 27.029C199.109 27.029 198.355 27.2171 197.705 27.5961C197.053 27.9748 196.542 28.5109 196.166 29.2043C195.791 29.9025 195.604 30.7459 195.604 31.7515V31.7563Z" fill="#F5F5F5"/>
<path d="M226.685 44.4364H233.247L224.608 32.0724L232.8 22.627H226.378L219.041 31.1525H218.696V15.3691H213.16V44.4364H218.696V37.3167L220.431 35.377L226.685 44.4339V44.4364Z" fill="#F5F5F5"/>
<path d="M145.047 13.9375H139.514V19.5155H145.047V13.9375Z" fill="#F5F5F5"/>
<path d="M186.479 13.9375H180.945V19.5155H186.479V13.9375Z" fill="#F5F5F5"/>
</g>
</g>
<defs>
<clipPath id="clip0_5119_14033">
<rect width="233.244" height="59.7333" fill="white" transform="translate(0 0.132812)"/>
</clipPath>
</defs>
</svg> 