<svg width="224" height="58" viewBox="0 0 224 58" fill="none" xmlns="http://www.w3.org/2000/svg">
<path fill-rule="evenodd" clip-rule="evenodd" d="M51.8712 11.8917L51.9588 11.8947C52.3373 11.9203 52.7027 12.1118 52.933 12.4528L52.9836 12.5342L54.2309 14.7081L54.398 15.0034C56.7102 19.1485 57.9567 23.8345 58.0147 28.5992L58.0169 28.948L58.013 29.422C57.7608 44.8796 45.1984 57.4068 29.6984 57.6558L29.2278 57.6596L28.892 57.6577C22.7415 57.5885 16.9137 55.6186 11.9975 51.9462L11.7302 51.7442L9.99262 50.4157L9.92675 50.3618C9.39769 49.8993 9.34362 49.0932 9.80591 48.5652L9.86639 48.5006L21.6631 36.7364L21.7293 36.6748C22.1135 36.3421 22.6599 36.2686 23.1188 36.4872L23.2037 36.5316L24.4768 37.2589L24.6747 37.3689C25.9992 38.0841 27.4816 38.4779 28.9895 38.5154L29.2278 38.5184L29.3928 38.517C34.5537 38.4298 38.7353 34.2595 38.8227 29.1125L38.8241 28.948L38.8201 28.6746C38.8041 28.1275 38.74 27.5774 38.6287 27.0333L38.5692 26.7618L38.3264 25.7257L38.3093 25.6395C38.2488 25.2675 38.3566 24.8875 38.6032 24.6024L38.6677 24.5331L41.5612 21.6472L41.625 21.5876C42.2329 21.0564 43.1822 21.2188 43.5812 21.9199L43.6218 21.9971L43.7607 22.2913C44.4401 23.7689 44.8908 25.3468 45.0936 26.9721L45.1308 27.2978L45.1625 27.6277C45.191 27.9578 45.2101 28.2881 45.2179 28.6181L45.2218 28.948L45.2196 29.2113C45.0795 37.799 38.1004 44.7584 29.4892 44.8967L29.2278 44.8988L28.9047 44.8955C27.1829 44.8606 25.48 44.5471 23.8662 43.9737L23.5647 43.8631L18.7335 48.6811L19.0262 48.8341C22.0615 50.392 25.4085 51.2261 28.8904 51.2767L29.2278 51.2792L29.5975 51.2762C41.6526 51.0806 51.4223 41.3363 51.6165 29.313L51.6194 28.948L51.6164 28.5825C51.5806 26.3979 51.2243 24.2361 50.5667 22.1716L50.4475 21.8083L50.4399 21.8156L50.316 21.4581C49.7658 19.9137 49.0455 18.4314 48.1651 17.0384L47.9591 16.7185L47.9119 16.641C47.6474 16.1707 47.7006 15.5862 48.0526 15.1784L48.1178 15.1083L50.9685 12.2656C51.2215 12.013 51.5477 11.8917 51.8712 11.8917ZM29.6137 0.341797C35.9146 0.341797 41.8907 2.31619 46.9184 6.05517L47.1869 6.25716L48.9323 7.5857L48.9984 7.63957C49.5298 8.10187 49.5839 8.90773 49.1196 9.43615L49.0588 9.50072L37.2113 21.2651L37.1447 21.3267C36.7586 21.6593 36.2097 21.7332 35.749 21.5144L35.6637 21.47L34.3845 20.7422L34.1857 20.6323C32.8559 19.9172 31.3673 19.5233 29.853 19.4857L29.6137 19.4827L29.4479 19.4841C24.2646 19.5714 20.0648 23.7419 19.977 28.8886L19.9756 29.0532L19.9796 29.3269C19.9957 29.8747 20.0601 30.4246 20.1716 30.9681L20.2313 31.2394L20.4751 32.2759L20.4922 32.362C20.5528 32.7339 20.4447 33.1139 20.1972 33.3992L20.1325 33.4685L17.2273 36.3529L17.1632 36.4125C16.5528 36.9437 15.5991 36.7816 15.1987 36.0804L15.1579 36.0032L15.0192 35.7105C14.3405 34.2404 13.8883 32.6706 13.682 31.0582L13.6441 30.7352L13.6136 30.4234L13.5896 30.1114L13.581 29.9821L13.5735 29.8525L13.5614 29.586L13.5532 29.3196L13.5501 29.0532L13.5523 28.7898C13.693 20.2024 20.7022 13.2428 29.3511 13.1045L29.6137 13.1024L29.9381 13.1056C31.6673 13.1405 33.3778 13.4542 34.9986 14.0277L35.3014 14.1383L40.1534 9.32031L39.8594 9.16726C36.8107 7.60915 33.4492 6.77503 29.9525 6.72442L29.6137 6.72197L29.2424 6.72497C17.1348 6.92058 7.32246 16.6653 7.12743 28.6882L7.12447 29.0532L7.12748 29.4187C7.16344 31.6037 7.52154 33.7652 8.18201 35.8298L8.3017 36.1931L8.30869 36.1862L8.43322 36.5437C8.98605 38.0883 9.71024 39.5715 10.5938 40.9638L10.8005 41.2835L10.8478 41.361C11.113 41.8315 11.0597 42.4156 10.7064 42.8234L10.6409 42.8935L7.77827 45.7358L7.71491 45.7947C7.13237 46.3018 6.22787 46.1818 5.79988 45.5406L5.75432 45.4672L4.50141 43.2932L4.33362 42.998C2.01007 38.8511 0.758223 34.162 0.701254 29.3939L0.699219 29.0532L0.7031 28.5792C0.958934 12.9654 13.8296 0.341797 29.6137 0.341797ZM85.9273 13.3089C89.9951 13.3089 93.2493 14.5565 96.479 17.3529C96.7437 17.587 96.8929 17.8937 96.9028 18.2183C96.9116 18.5126 96.8063 18.7969 96.6048 19.0281L96.5414 19.0958L94.6859 20.9891C94.4281 21.3097 94.1454 21.3919 93.9523 21.4036C93.7401 21.4176 93.4135 21.3584 93.061 21.0067C91.1007 19.3017 88.443 18.2735 85.9703 18.2735C80.291 18.2735 75.6707 23.056 75.6707 28.9354C75.6707 34.7908 80.3097 39.5541 86.0122 39.5541C89.1277 39.5541 91.259 38.2456 93.098 36.8313C93.5568 36.4754 94.1109 36.4439 94.5317 36.7446L94.6006 36.7978L96.5811 38.7294C96.7814 38.9036 96.9055 39.1721 96.9154 39.472C96.9265 39.8175 96.7866 40.17 96.5409 40.4148C93.6819 43.1841 90.0128 44.646 85.9273 44.646C77.244 44.646 70.1791 37.6364 70.1791 29.0202C70.1791 20.3571 77.244 13.3089 85.9273 13.3089ZM162.918 13.3089C166.986 13.3089 170.24 14.5565 173.469 17.3529C173.734 17.587 173.883 17.8935 173.893 18.2183C173.902 18.5124 173.797 18.7965 173.595 19.028L173.532 19.0958L171.676 20.9891C171.418 21.3097 171.136 21.3919 170.943 21.4036C170.729 21.4176 170.404 21.3584 170.051 21.0067C168.091 19.3017 165.433 18.2735 162.96 18.2735C157.281 18.2735 152.661 23.056 152.661 28.9354C152.661 34.7908 157.3 39.5541 163.003 39.5541C166.118 39.5541 168.25 38.2456 170.089 36.8313C170.547 36.4754 171.101 36.4439 171.522 36.7446L171.591 36.7978L173.572 38.7294C173.772 38.9036 173.896 39.1721 173.906 39.4717C173.917 39.8171 173.777 40.1695 173.532 40.4143C170.672 43.1841 167.003 44.646 162.918 44.646C154.234 44.646 147.17 37.6364 147.17 29.0202C147.17 20.3571 154.234 13.3089 162.918 13.3089ZM108.101 13.7338C108.71 13.7338 109.248 14.245 109.29 14.8452L109.293 14.9207V43.0343C109.293 43.6412 108.779 44.1772 108.176 44.2191L108.101 44.2217H105.291C104.682 44.2217 104.144 43.71 104.102 43.1097L104.1 43.0343V14.9207C104.1 14.3138 104.613 13.7783 105.216 13.7364L105.291 13.7338H108.101ZM131.679 13.7338C137.006 13.7338 141.341 17.9813 141.341 23.2018C141.341 26.928 139.072 30.2221 135.377 31.9274L135.194 32.01L140.827 42.4302C141.041 42.8276 141.039 43.2994 140.82 43.6621C140.619 43.9938 140.271 44.1938 139.856 44.219L139.766 44.2217H136.446C135.979 44.2217 135.614 43.9515 135.452 43.6827L135.422 43.6291L129.867 32.5852H124.061V43.0343C124.061 43.6412 123.548 44.1772 122.945 44.2191L122.869 44.2217H120.102C119.471 44.2217 118.953 43.7305 118.913 43.1122L118.91 43.0343V14.9207C118.91 14.2926 119.403 13.7766 120.024 13.7363L120.102 13.7338H131.679ZM185.091 13.7338C185.701 13.7338 186.239 14.245 186.281 14.8452L186.283 14.9207V39.5119H197.434C198.065 39.5119 198.583 40.0028 198.624 40.6209L198.626 40.6988V43.0343C198.626 43.6628 198.133 44.1789 197.512 44.2191L197.434 44.2217H182.282C181.651 44.2217 181.133 43.7308 181.093 43.1122L181.09 43.0343V14.9207C181.09 14.2926 181.583 13.7766 182.204 13.7363L182.282 13.7338H185.091ZM222.672 13.7338C223.303 13.7338 223.821 14.2247 223.862 14.8428L223.864 14.9207V17.299C223.864 17.9273 223.371 18.4434 222.75 18.4836L222.672 18.4862H209.606V26.3892H220.586C221.196 26.3892 221.734 26.9006 221.776 27.5009L221.779 27.5763V29.9544C221.779 30.5827 221.286 31.0987 220.664 31.139L220.586 31.1415H209.606V39.5119H222.672C223.303 39.5119 223.821 40.0028 223.862 40.6207L223.864 40.6986V43.0343C223.864 43.6626 223.371 44.1789 222.75 44.2192L222.672 44.2217H205.647C205.016 44.2217 204.498 43.7306 204.458 43.1122L204.455 43.0343V14.9207C204.455 14.2927 204.948 13.7766 205.569 13.7363L205.647 13.7338H222.672ZM131.338 18.6136H124.146V28.1726H131.338C133.945 28.1726 136.148 25.9355 136.148 23.2869C136.148 20.7536 133.945 18.6136 131.338 18.6136Z" fill="#F5F5F5"/>
</svg> 