<svg width="171" height="64" viewBox="0 0 171 64" fill="none" xmlns="http://www.w3.org/2000/svg">
<path fill-rule="evenodd" clip-rule="evenodd" d="M46.1365 10.4493C42.2068 7.62674 37.5285 6.03274 32.693 5.86882C27.8575 5.70489 23.082 6.9784 18.9703 9.52834C14.8587 12.0783 11.5956 15.79 9.5937 20.1939C7.5918 24.5979 6.94108 29.4968 7.7234 34.2706C8.50572 39.0443 10.6865 43.4792 13.9898 47.014C17.2931 50.5488 21.5703 53.0248 26.2811 54.1288C30.9918 55.2328 35.9242 54.9153 40.4544 53.2166C44.9844 51.5179 48.909 48.5141 51.7319 44.5849C53.6061 41.9763 54.9481 39.0241 55.6812 35.8968C56.4143 32.7695 56.5242 29.5284 56.0049 26.3585C55.4852 23.1888 54.3463 20.1523 52.6532 17.4226C50.9598 14.693 48.7455 12.3232 46.1365 10.4493ZM32.8641 0.821625C38.698 1.01931 44.3418 2.94248 49.0824 6.34761C52.2301 8.60839 54.9016 11.4671 56.9444 14.7605C58.9873 18.0536 60.3614 21.7169 60.9883 25.5412C61.6151 29.3655 61.4825 33.2759 60.5978 37.0489C59.7134 40.822 58.0943 44.3839 55.833 47.5311C52.4275 52.2715 47.6927 55.8955 42.2274 57.9448C36.762 59.9942 30.8117 60.3772 25.1287 59.0451C19.4458 57.7133 14.2854 54.7261 10.3004 50.4616C6.3154 46.1971 3.68415 40.8469 2.74014 35.0872C1.79608 29.3276 2.58132 23.4173 4.99654 18.104C7.41182 12.7906 11.3484 8.31268 16.3089 5.23657C21.2694 2.16045 27.0308 0.623937 32.8644 0.821625H32.8641Z" fill="#F5F5F5"/>
<path d="M24.7713 58.0942L24.7362 58.0843L24.7013 58.0776H24.7005L24.6982 58.077L24.6816 58.0739L24.6057 58.0579L24.2922 57.9848L23.0903 57.6434C22.0599 57.3172 20.6095 56.7792 18.9504 55.9356C15.8456 54.3575 12.0223 51.7172 8.83789 47.4052L11.3375 46.5872L21.8007 43.1655L60.574 30.5078C60.5793 30.9797 60.5697 31.5955 60.5225 32.3278C60.4052 34.1424 60.0563 36.6634 59.1291 39.4746C57.281 45.0791 53.1304 51.8643 43.8517 56.536L43.8382 56.5422L43.7663 56.5754L43.4693 56.705C43.0863 56.8664 42.699 57.0176 42.3079 57.1583C41.2975 57.5242 39.8412 57.9842 38.0699 58.3565C34.5213 59.1026 29.747 59.4887 24.7713 58.0942Z" fill="#F5F5F5" stroke="#F5F5F5" stroke-width="8.72511"/>
<path d="M79.1328 15.5742H89.3665C91.1929 15.5742 92.8447 15.8793 94.3222 16.4893C95.8264 17.0995 97.1022 18.0145 98.1497 19.2347C99.2242 20.427 100.043 21.9382 100.607 23.7686C101.198 25.5711 101.494 27.6785 101.494 30.0909C101.494 32.5034 101.198 34.6248 100.607 36.4552C100.043 38.2577 99.2242 39.7689 98.1497 40.9891C97.1022 42.1814 95.8264 43.0827 94.3222 43.6926C92.8447 44.3028 91.1929 44.6079 89.3665 44.6079H79.1328V15.5742ZM89.3665 39.7411C91.354 39.7411 92.9254 39.1449 94.0803 37.9526C95.2623 36.7325 95.8531 34.8745 95.8531 32.3788V27.8033C95.8531 25.3076 95.2623 23.4635 94.0803 22.2711C92.9254 21.051 91.354 20.4408 89.3665 20.4408H84.451V39.7411H89.3665ZM118.756 40.9891H118.555C118.366 41.5436 118.111 42.0706 117.789 42.5698C117.494 43.0411 117.104 43.471 116.621 43.8591C116.164 44.2474 115.6 44.5523 114.928 44.7741C114.284 44.996 113.532 45.1071 112.672 45.1071C110.497 45.1071 108.831 44.372 107.676 42.9024C106.521 41.4328 105.944 39.339 105.944 36.6214V22.8951H111.101V36.0806C111.101 37.5783 111.383 38.729 111.947 39.5333C112.511 40.3097 113.411 40.6978 114.646 40.6978C115.157 40.6978 115.654 40.6286 116.137 40.49C116.647 40.3513 117.091 40.1432 117.467 39.866C117.843 39.5609 118.152 39.2003 118.393 38.7844C118.635 38.3407 118.756 37.8278 118.756 37.2454V22.8951H123.913V44.6079H118.756V40.9891ZM129.469 44.6079V22.8951H134.626V26.5137H134.827C135.257 25.3492 135.929 24.3785 136.842 23.6021C137.782 22.7979 139.071 22.396 140.71 22.396C142.885 22.396 144.551 23.1308 145.706 24.6004C146.861 26.07 147.438 28.1638 147.438 30.8814V44.6079H142.281V31.4222C142.281 29.8691 142.012 28.7046 141.475 27.9282C140.938 27.1518 140.052 26.7634 138.816 26.7634C138.282 26.7629 137.752 26.8471 137.245 27.0129C136.764 27.1502 136.313 27.3759 135.915 27.6785C135.539 27.9557 135.23 28.3162 134.989 28.76C134.747 29.1759 134.626 29.675 134.626 30.2574V44.6079H129.469ZM161.253 45.1071C159.695 45.1071 158.299 44.8436 157.063 44.3166C155.854 43.7621 154.82 42.9994 153.961 42.029C153.128 41.0307 152.483 39.8381 152.027 38.4518C151.57 37.0376 151.342 35.4569 151.342 33.7098C151.342 31.9905 151.557 30.4377 151.986 29.051C152.443 27.6647 153.088 26.4862 153.921 25.5154C154.753 24.5171 155.774 23.7545 156.982 23.2278C158.191 22.6733 159.561 22.396 161.092 22.396C162.73 22.396 164.154 22.6871 165.363 23.2694C166.572 23.8518 167.565 24.642 168.344 25.6403C169.123 26.6386 169.701 27.8033 170.077 29.1343C170.48 30.4377 170.681 31.8381 170.681 33.3355V35.0824H156.7V35.6231C156.7 37.2038 157.13 38.4793 157.99 39.4501C158.849 40.3929 160.125 40.8642 161.817 40.8642C163.106 40.8642 164.154 40.587 164.96 40.0324C165.792 39.4776 166.531 38.7707 167.176 37.911L169.956 41.114C169.096 42.3617 167.914 43.3462 166.41 44.0672C164.933 44.7604 163.214 45.1071 161.253 45.1071ZM161.173 26.3891C159.803 26.3891 158.715 26.8604 157.909 27.8033C157.103 28.7462 156.7 29.9664 156.7 31.4638V31.7965H165.322V31.4222C165.322 29.9247 164.96 28.7184 164.235 27.8033C163.536 26.8604 162.516 26.3891 161.173 26.3891Z" fill="#F5F5F5"/>
</svg> 