<svg width="186" height="64" viewBox="0 0 186 64" fill="none" xmlns="http://www.w3.org/2000/svg">
<g clip-path="url(#clip0_5119_14052)">
<path d="M70.7908 37.3925V33.0621H80.8947C82.4397 33.0621 83.6452 32.6163 84.5103 31.7248C85.3748 30.8332 85.8076 29.658 85.8076 28.2049C85.8076 26.7517 85.3748 25.5533 84.5103 24.6849C83.6452 23.8165 82.4397 23.3824 80.8947 23.3824H67.5737V44.5105H63.2129V18.9043H80.8947C82.3485 18.9043 83.6452 19.1214 84.7889 19.5556C85.9297 19.9898 86.8939 20.6006 87.679 21.3879C88.4642 22.1753 89.0641 23.1305 89.4795 24.2565C89.8949 25.3825 90.1025 26.6504 90.1025 28.0601C90.1025 29.4698 89.8949 30.7058 89.4795 31.8464C89.0641 32.984 88.4642 33.9652 87.679 34.7873C86.8939 35.6094 85.9326 36.2492 84.7889 36.7065C83.6486 37.1638 82.3485 37.3925 80.8947 37.3925H70.7908Z" fill="#F5F5F5"/>
<path d="M104.413 44.5047V34.7844L91.0586 18.9043H96.975L106.769 30.7001L116.594 18.9043H122.2L108.808 34.7844V44.5047H104.413Z" fill="#F5F5F5"/>
<path d="M137.352 44.5047V23.3765H125.779V18.9043H153.336V23.3765H141.747V44.5047H137.352Z" fill="#F5F5F5"/>
<path d="M180.832 18.9043H185.21V44.5047H180.832V18.9043Z" fill="#F5F5F5"/>
<path d="M161.94 44.5047V33.4239H178.227V29.4611H161.94V18.9043H157.562V44.5047H161.94Z" fill="#F5F5F5"/>
<path d="M31.7664 25.5991C31.7664 29.1335 28.9503 31.9992 25.4771 31.9992V38.3993C32.4235 38.3993 38.0558 32.6679 38.0558 25.5991C38.0558 18.5303 32.4235 12.7988 25.4771 12.7988C23.1872 12.7988 21.0368 13.4212 19.1878 14.5125C15.4273 16.724 12.8984 20.8605 12.8984 25.5991V57.5997L18.5534 63.354L19.1878 63.9997V25.5991C19.1878 22.0647 22.0039 19.1989 25.4771 19.1989C28.9503 19.1989 31.7664 22.0647 31.7664 25.5991Z" fill="#F5F5F5"/>
<path d="M25.4776 -0.00195312C20.895 -0.00195312 16.5998 1.24565 12.8989 3.42533C10.5294 4.81767 8.40742 6.5921 6.60963 8.66759C2.69552 13.1803 0.320312 19.1086 0.320312 25.5985V44.7988L6.60963 51.1989V25.5985C6.60963 19.9134 9.03891 14.8043 12.8989 11.2872C14.7138 9.6373 16.8444 8.33468 19.1883 7.49525C21.1539 6.78313 23.2731 6.39816 25.4776 6.39816C35.8973 6.39816 44.3456 14.9953 44.3456 25.5985C44.3456 36.2016 35.8973 44.7988 25.4776 44.7988V51.1989C39.3733 51.1989 50.6349 39.736 50.6349 25.5985C50.6349 11.4609 39.3733 -0.00195312 25.4776 -0.00195312Z" fill="#F5F5F5"/>
</g>
<defs>
<clipPath id="clip0_5119_14052">
<rect width="184.889" height="64" fill="white" transform="translate(0.318359)"/>
</clipPath>
</defs>
</svg> 