<svg width="247" height="58" viewBox="0 0 247 58" fill="none" xmlns="http://www.w3.org/2000/svg">
<g clip-path="url(#clip0_5119_14061)">
<mask id="mask0_5119_14061" style="mask-type:luminance" maskUnits="userSpaceOnUse" x="0" y="0" width="247" height="58">
<path d="M246.147 0.589844H0.664062V57.4089H246.147V0.589844Z" fill="white"/>
</mask>
<g mask="url(#mask0_5119_14061)">
<path d="M42.4507 17.203L57.8852 8.60547L57.8978 25.3098L45.9411 31.9693C37.7855 36.5124 33.0858 42.4715 31.1863 47.7629C29.2874 53.0528 29.5668 56.0861 29.5059 57.4083C29.5059 48.9869 29.5333 46.4682 29.5333 39.3775C29.5333 37.6304 29.7342 35.7081 29.97 34.7881C29.97 34.7881 31.9999 23.0246 42.4507 17.203Z" fill="#F5F5F5"/>
<path d="M29.4993 39.7433L29.5072 57.4105L14.9048 49.299L14.8984 35.6127C14.8941 26.2776 11.9725 19.2731 8.27232 15.0403C4.57321 10.8092 1.78774 9.53035 0.662109 8.83398C7.95011 12.7451 9.8781 13.8003 16.0929 17.1389C17.6324 17.9656 19.6367 19.5397 20.3258 20.1931C20.3258 20.1931 29.494 27.7805 29.4993 39.7433Z" fill="#F5F5F5"/>
<path d="M42.4265 17.2036C48.6567 13.7805 53.1821 11.2145 57.885 8.60599C56.6999 9.20433 54.1719 10.9452 48.595 11.8939C43.0153 12.843 35.1724 12.6385 27.0907 7.75278L15.2424 0.589844L0.662109 8.83441L16.6033 17.3906C20.5737 19.7738 30.4866 23.7633 42.4265 17.2036Z" fill="#F5F5F5"/>
<path d="M91.9295 22.548H86.5767V31.1662C86.5767 32.3975 86.8134 33.2815 87.287 33.8179C87.7924 34.323 88.6611 34.5757 89.8925 34.5757C90.4927 34.5757 91.1714 34.5283 91.9295 34.4335V39.7846C90.382 40.1316 89.0399 40.3053 87.9029 40.3053C85.4396 40.3053 83.5291 39.5792 82.1711 38.127C80.8449 36.6434 80.1815 34.4335 80.1815 31.4977V22.548H76.6289V17.6233H80.1815V11.9883H86.5767V17.6233H91.9295V22.548Z" fill="#F5F5F5"/>
<path d="M105.784 16.8691C107.773 16.8691 109.605 17.2795 111.279 18.1002C112.984 18.9211 114.358 20.2469 115.4 22.0779C116.442 23.9089 116.963 26.2291 116.963 29.0388C116.963 29.7017 116.948 30.2068 116.916 30.554H100.905C101.157 31.9746 101.694 33.1113 102.515 33.9636C103.336 34.8159 104.458 35.2422 105.879 35.2422C107.994 35.2422 109.416 34.3265 110.142 32.4956H116.585C115.984 35.1156 114.705 37.1046 112.748 38.4619C110.821 39.8193 108.516 40.4981 105.831 40.4981C103.779 40.4981 101.884 40.0878 100.147 39.2669C98.41 38.4146 97.0045 37.1046 95.9307 35.3366C94.8571 33.5373 94.3203 31.296 94.3203 28.6125C94.3203 25.9608 94.8571 23.7668 95.9307 22.0305C97.0045 20.2627 98.41 18.9684 100.147 18.1476C101.884 17.2953 103.763 16.8691 105.784 16.8691ZM105.737 22.1252C104.347 22.1252 103.257 22.5514 102.468 23.4038C101.679 24.2245 101.157 25.3453 100.905 26.7657H110.521C110.016 23.6721 108.421 22.1252 105.737 22.1252Z" fill="#F5F5F5"/>
<path d="M133.558 16.9629C135.958 16.9629 137.79 17.7206 139.053 19.2358C140.316 20.7511 140.948 22.8347 140.948 25.4865V39.7397H134.553V27.0491C134.553 25.6286 134.221 24.5394 133.558 23.7818C132.926 23.0241 131.979 22.6453 130.716 22.6453C129.452 22.6453 128.473 23.0398 127.779 23.8292C127.116 24.6183 126.784 25.6917 126.784 27.0491V39.7397H120.389V17.6259H126.784V20.6564C127.352 19.7095 128.205 18.857 129.342 18.0994C130.51 17.3418 131.916 16.9629 133.558 16.9629Z" fill="#F5F5F5"/>
<path d="M160.366 10.9961H166.807V39.7393H160.411V37.3244C159.654 38.3029 158.691 39.0607 157.522 39.5971C156.386 40.1339 155.122 40.4024 153.733 40.4024C151.901 40.4024 150.275 39.9603 148.854 39.0763C147.432 38.161 146.327 36.8193 145.538 35.0513C144.748 33.2836 144.354 31.1685 144.354 28.7062C144.354 24.9811 145.206 22.0925 146.911 20.0405C148.648 17.9885 150.922 16.9625 153.733 16.9625C155.122 16.9625 156.386 17.231 157.522 17.7676C158.659 18.3042 159.606 19.0619 160.366 20.0405V10.9961ZM155.77 35.0039C157.444 35.0039 158.691 34.42 159.512 33.2519C160.366 32.0839 160.792 30.5686 160.792 28.7062C160.792 26.8435 160.366 25.3283 159.512 24.1602C158.691 22.9607 157.444 22.3608 155.77 22.3608C154.096 22.3608 152.865 22.9291 152.075 24.0655C151.285 25.202 150.891 26.7488 150.891 28.7062C150.891 30.6633 151.285 32.2103 152.075 33.3467C152.865 34.4517 154.096 35.0039 155.77 35.0039Z" fill="#F5F5F5"/>
<path d="M181.645 16.8691C183.633 16.8691 185.466 17.2795 187.139 18.1002C188.845 18.9211 190.218 20.2469 191.26 22.0779C192.303 23.9089 192.824 26.2291 192.824 29.0388C192.824 29.7017 192.808 30.2068 192.776 30.554H176.764C177.017 31.9746 177.554 33.1113 178.376 33.9636C179.197 34.8159 180.317 35.2422 181.739 35.2422C183.854 35.2422 185.276 34.3265 186.002 32.4956H192.445C191.845 35.1156 190.565 37.1046 188.608 38.4619C186.681 39.8193 184.375 40.4981 181.69 40.4981C179.638 40.4981 177.743 40.0878 176.007 39.2669C174.269 38.4146 172.864 37.1046 171.791 35.3366C170.716 33.5373 170.18 31.296 170.18 28.6125C170.18 25.9608 170.716 23.7668 171.791 22.0305C172.864 20.2627 174.269 18.9684 176.007 18.1476C177.743 17.2953 179.623 16.8691 181.645 16.8691ZM181.597 22.1252C180.207 22.1252 179.118 22.5514 178.328 23.4038C177.538 24.2245 177.017 25.3453 176.764 26.7657H186.381C185.876 23.6721 184.28 22.1252 181.597 22.1252Z" fill="#F5F5F5"/>
<path d="M202.586 21.4614C203.312 19.9146 204.18 18.7781 205.19 18.0521C206.202 17.3259 207.386 16.9629 208.743 16.9629C209.313 16.9629 210.023 17.0418 210.875 17.1996V23.8765H210.686C209.771 23.4977 208.869 23.3082 207.986 23.3082C206.439 23.3082 205.16 23.8607 204.149 24.9655C203.139 26.0389 202.634 27.5385 202.634 29.4642V39.7397H196.238V17.6259H202.586V21.4614Z" fill="#F5F5F5"/>
<path d="M220.179 39.7398H213.783V10.9492H220.179V39.7398Z" fill="#F5F5F5"/>
<path d="M234.398 32.8255L239.23 17.625H246.146L234.967 47.3627H227.956L231.177 40.0704L222.744 17.625H229.66L234.398 32.8255Z" fill="#F5F5F5"/>
</g>
</g>
<defs>
<clipPath id="clip0_5119_14061">
<rect width="246.216" height="56.819" fill="white" transform="translate(0.662109 0.589844)"/>
</clipPath>
</defs>
</svg> 